<svg
        xmlns="http://www.w3.org/2000/svg"
        xmlns:xlink="http://www.w3.org/1999/xlink"
        width="10.231cm" height="6.562cm">
        <path fill-rule="evenodd"  fill="rgb(211, 168, 104)"
        d="M273.087,63.898 C268.763,66.593 264.846,67.940 261.337,67.940 C258.517,67.940 257.107,66.562 257.107,63.804 C257.107,61.386 257.854,58.927 259.313,56.431 C249.763,63.843 243.817,67.564 241.504,67.564 C240.438,67.564 239.906,66.938 239.906,65.684 C239.906,64.431 240.376,62.332 241.316,59.386 C241.316,59.324 241.253,59.292 241.128,59.292 C233.921,65.246 229.127,68.222 226.746,68.222 C225.117,68.222 224.302,67.626 224.302,66.436 C224.302,63.804 227.137,59.950 232.809,54.874 C238.480,49.798 243.008,47.260 246.392,47.260 C246.830,47.260 247.300,47.574 247.802,48.200 C249.243,46.070 257.327,34.508 272.054,13.514 C273.620,11.572 274.889,10.600 275.861,10.600 C276.832,10.600 277.318,10.914 277.318,11.540 C277.318,13.107 271.928,20.502 261.150,33.724 C257.139,38.738 253.457,43.955 250.105,49.375 C246.752,54.796 245.076,58.916 245.076,61.736 C245.076,62.927 245.420,63.522 246.110,63.522 C246.924,63.522 248.366,62.802 250.434,61.360 C254.695,58.290 258.424,55.470 261.620,52.900 L262.465,52.189 C262.744,51.878 263.010,51.567 263.311,51.255 C267.447,46.963 270.925,44.816 273.745,44.816 C275.311,44.816 276.095,45.694 276.095,47.448 C275.781,50.895 270.831,55.532 261.243,61.360 L261.243,62.300 C261.243,64.368 262.324,65.402 264.486,65.402 C266.648,65.402 268.982,64.682 271.489,63.240 C276.377,60.358 280.951,57.068 285.213,53.370 L287.563,51.396 C288.001,51.083 288.409,50.926 288.785,50.926 C289.161,50.926 289.349,51.146 289.349,51.584 L289.349,51.772 C282.831,57.162 277.411,61.204 273.087,63.898 ZM247.238,48.952 C247.050,48.890 246.862,48.858 246.674,48.858 C244.042,48.858 240.595,50.864 236.334,54.874 C232.072,58.885 229.942,61.705 229.942,63.334 C229.942,63.773 230.192,63.992 230.694,63.992 C232.260,63.992 234.642,62.661 237.838,59.997 C241.034,57.334 243.164,55.188 244.230,53.558 L247.238,48.952 ZM269.233,53.323 C271.301,51.287 272.335,49.845 272.335,48.999 C272.335,48.153 271.990,47.730 271.301,47.730 C269.922,47.730 268.152,48.890 265.990,51.208 C263.828,53.527 262.371,56.159 261.619,59.104 C264.627,57.287 267.165,55.360 269.233,53.323 ZM151.174,45.004 C150.484,45.004 149.983,44.801 149.670,44.393 C149.356,43.986 149.200,43.516 149.200,42.983 C149.200,42.451 149.701,41.589 150.704,40.398 C151.706,39.208 152.505,38.612 153.101,38.612 C153.696,38.612 154.166,38.800 154.511,39.176 C154.855,39.552 155.028,40.085 155.028,40.774 C155.028,41.464 154.558,42.341 153.618,43.406 C152.678,44.472 151.863,45.004 151.174,45.004 ZM196.010,68.222 C194.192,68.222 193.284,67.470 193.284,65.966 C193.284,64.462 193.957,62.676 195.305,60.608 C196.652,58.540 197.999,56.707 199.347,55.109 C200.694,53.511 201.368,52.556 201.368,52.242 C201.368,51.929 201.274,51.772 201.086,51.772 C195.258,55.658 191.795,58.039 190.699,58.916 C189.602,59.794 187.816,61.235 185.341,63.240 C182.865,65.246 181.252,66.499 180.500,67.000 C179.748,67.501 178.933,67.752 178.056,67.752 C177.178,67.752 176.740,67.376 176.740,66.624 C176.740,65.747 178.494,62.990 182.004,58.352 C185.388,53.715 187.080,51.114 187.080,50.550 C187.080,50.425 186.970,50.362 186.751,50.362 C186.564,50.362 184.571,51.750 180.810,54.493 C175.217,58.926 170.345,61.172 166.213,61.172 C165.711,61.172 165.335,61.141 165.085,61.078 C163.393,63.146 161.544,64.823 159.539,66.107 C157.533,67.391 155.779,68.034 154.275,68.034 C151.893,68.034 150.703,66.703 150.703,64.039 C150.703,62.786 151.214,61.327 152.200,59.678 C150.155,61.148 148.050,62.617 145.863,64.086 C141.758,66.844 139.173,68.222 138.108,68.222 C136.290,68.222 135.382,67.470 135.382,65.966 C135.382,64.149 136.948,60.718 140.082,55.673 C140.131,55.595 140.175,55.530 140.223,55.453 C140.064,55.576 139.921,55.686 139.754,55.814 C136.149,58.572 132.295,61.329 128.192,64.086 C124.086,66.844 121.501,68.222 120.437,68.222 C118.618,68.222 117.711,67.407 117.711,65.778 C117.711,63.423 119.018,60.175 121.625,56.041 C118.405,58.540 115.088,60.947 111.649,63.240 C106.291,66.812 102.766,68.598 101.074,68.598 C99.067,68.598 98.066,67.532 98.066,65.402 C98.066,64.901 98.160,64.431 98.348,63.992 C98.536,63.554 98.630,63.240 98.630,63.052 C98.630,62.864 98.567,62.739 98.442,62.676 C98.254,62.676 97.046,63.522 94.823,65.214 C92.598,66.906 90.654,67.752 88.995,67.752 C87.334,67.752 86.504,66.875 86.504,65.120 C86.504,63.651 87.339,61.747 88.988,59.420 C86.594,61.182 84.411,62.684 82.462,63.898 C78.138,66.593 74.221,67.940 70.712,67.940 C67.892,67.940 66.482,66.562 66.482,63.804 C66.482,61.175 67.358,58.498 69.082,55.777 C66.123,58.058 63.186,60.256 60.279,62.347 C55.704,65.637 52.351,67.282 50.221,67.282 C48.654,67.282 47.871,66.436 47.871,64.744 C47.871,63.052 48.623,61.360 50.127,59.668 C51.631,57.976 53.119,56.504 54.592,55.250 C56.064,53.997 56.801,53.167 56.801,52.759 C56.801,52.352 56.566,51.882 56.096,51.349 C55.626,50.817 55.234,50.456 54.921,50.268 C53.855,51.334 51.537,53.276 47.965,56.096 L47.589,54.686 C51.537,51.553 53.824,49.454 54.451,48.388 L54.451,47.542 C54.451,45.976 54.607,44.910 54.921,44.346 C55.234,43.782 55.986,42.999 57.177,41.996 C58.367,40.994 59.182,40.492 59.621,40.492 C60.059,40.492 60.451,40.649 60.796,40.962 C61.140,41.276 61.313,41.589 61.313,41.902 C61.313,42.216 61.203,42.576 60.984,42.983 C60.764,43.391 60.545,43.735 60.326,44.017 C60.106,44.299 59.809,44.644 59.433,45.051 C59.057,45.459 58.822,45.741 58.728,45.897 C58.634,46.054 58.540,46.320 58.446,46.696 C58.352,47.072 58.148,47.386 57.835,47.636 C57.521,47.887 57.365,48.200 57.365,48.576 C57.365,48.952 57.615,49.783 58.117,51.067 C58.618,52.352 58.869,53.292 58.869,53.887 C58.869,54.483 57.709,55.893 55.391,58.117 C53.072,60.342 51.913,62.144 51.913,63.522 C51.913,64.274 52.257,64.650 52.947,64.650 C53.824,64.650 55.453,63.867 57.835,62.300 L58.963,61.548 C63.036,58.728 66.859,55.877 70.431,52.994 L72.405,51.396 C72.514,51.318 72.616,51.279 72.721,51.220 C76.842,46.953 80.308,44.816 83.120,44.816 C84.686,44.816 85.470,45.694 85.470,47.448 C85.156,50.895 80.206,55.532 70.618,61.360 L70.618,62.300 C70.618,64.368 71.699,65.402 73.861,65.402 C76.023,65.402 78.357,64.682 80.864,63.240 C85.752,60.358 90.326,57.068 94.588,53.370 L96.938,51.396 C97.255,51.170 97.550,51.054 97.835,50.991 C98.377,50.623 98.900,50.249 99.476,49.892 C103.424,47.448 107.278,46.226 111.038,46.226 C111.915,46.226 112.650,46.446 113.247,46.884 C113.842,47.323 114.140,47.997 114.140,48.905 C114.140,49.814 113.231,51.177 111.414,52.994 C109.595,54.812 108.030,55.720 106.714,55.720 C106.338,55.720 106.150,55.579 106.150,55.297 C106.150,55.015 106.369,54.686 106.808,54.310 C108.876,52.618 109.910,51.083 109.910,49.704 C109.910,48.827 109.125,48.326 107.560,48.200 C104.740,48.263 101.370,50.300 97.455,54.310 C93.538,58.321 91.580,61.329 91.580,63.334 C91.580,64.024 91.970,64.368 92.755,64.368 C93.538,64.368 94.588,63.836 95.904,62.770 C97.093,62.018 99.319,60.138 102.578,57.130 C103.330,56.378 104.049,56.002 104.740,56.002 C105.617,56.002 106.056,56.410 106.056,57.224 C106.056,57.538 105.962,57.788 105.774,57.976 C105.586,58.164 105.241,58.556 104.740,59.151 C104.237,59.747 103.800,60.295 103.424,60.796 C102.296,62.426 101.732,63.491 101.732,63.992 C101.732,65.246 102.233,65.872 103.236,65.872 C104.552,65.872 107.027,64.666 110.662,62.253 C114.295,59.841 117.618,57.412 120.626,54.968 L124.249,52.100 C126.198,49.296 128.258,46.596 130.448,44.017 C133.611,40.289 136.619,36.764 139.472,33.442 C142.322,30.121 143.873,28.084 144.125,27.332 C137.230,27.959 131.935,28.711 128.239,29.588 L126.359,29.964 C125.856,30.027 125.607,30.497 125.607,31.374 C125.607,31.750 125.167,31.938 124.291,31.938 C123.412,31.938 122.331,31.735 121.048,31.327 C119.762,30.920 119.121,30.340 119.121,29.588 C119.121,28.836 119.746,28.335 121.001,28.084 C130.274,26.455 136.854,25.468 140.741,25.123 C144.625,24.779 147.210,24.559 148.496,24.465 C149.779,24.371 151.786,24.293 154.512,24.230 C157.238,24.168 159.071,24.136 160.011,24.136 C162.831,24.011 166.135,23.948 169.928,23.948 C173.718,23.948 176.021,24.105 176.837,24.418 C177.650,24.732 178.059,25.327 178.059,26.204 C178.059,26.831 177.337,27.144 175.897,27.144 L162.455,26.486 C156.939,26.486 151.457,26.706 146.005,27.144 L146.475,29.024 C146.475,29.714 144.437,32.330 140.365,36.873 C136.290,41.417 132.217,46.367 128.145,51.725 C124.070,57.083 122.035,61.047 122.035,63.616 C122.035,64.619 122.394,65.120 123.116,65.120 C123.835,65.120 125.480,64.243 128.051,62.488 C132.812,59.355 137.169,56.190 141.117,52.994 L142.887,51.546 C144.617,49.271 145.976,48.106 146.944,48.106 C148.009,48.106 148.542,48.514 148.542,49.328 C148.542,50.143 147.100,52.368 144.218,56.002 C141.335,59.637 139.894,62.238 139.894,63.804 C139.894,64.682 140.223,65.120 140.881,65.120 C141.539,65.120 143.184,64.243 145.816,62.488 C149.031,60.345 152.057,58.185 154.920,56.013 C155.651,55.167 156.455,54.292 157.377,53.370 C156.625,51.553 156.249,49.642 156.249,47.636 C156.249,45.631 156.969,44.002 158.411,42.748 C159.852,41.495 161.528,40.868 163.440,40.868 C165.351,40.868 166.965,41.495 168.281,42.748 C169.597,44.002 170.255,45.788 170.255,48.106 C170.255,51.678 169.095,55.250 166.777,58.822 C167.027,58.885 167.403,58.916 167.905,58.916 C170.861,58.916 174.312,57.498 178.247,54.696 L178.244,54.686 C182.693,51.114 185.701,48.827 187.268,47.824 C188.834,46.822 190.103,46.320 191.075,46.320 C192.046,46.320 192.532,46.790 192.532,47.730 C192.532,48.357 190.761,50.911 187.221,55.391 C183.680,59.872 181.910,62.285 181.910,62.629 C181.910,62.974 182.019,63.146 182.239,63.146 C182.458,63.146 186.030,60.624 192.955,55.579 C199.879,50.535 204.094,48.012 205.598,48.012 C206.036,48.012 206.459,48.185 206.867,48.529 C207.274,48.874 207.478,49.203 207.478,49.516 C207.478,50.268 205.817,52.759 202.496,56.989 C199.174,61.219 197.514,63.616 197.514,64.180 C197.514,64.744 197.905,65.026 198.689,65.026 C199.472,65.026 201.148,64.180 203.718,62.488 C208.418,59.418 212.742,56.253 216.690,52.994 L218.758,51.302 C219.196,50.989 219.604,50.832 219.980,50.832 C220.356,50.832 220.544,51.020 220.544,51.396 L220.544,51.678 C207.321,62.708 199.143,68.222 196.010,68.222 ZM78.608,53.323 C80.676,51.287 81.710,49.845 81.710,48.999 C81.710,48.153 81.365,47.730 80.676,47.730 C79.297,47.730 77.527,48.890 75.365,51.208 C73.203,53.527 71.746,56.159 70.994,59.104 C74.002,57.287 76.540,55.360 78.608,53.323 ZM158.693,55.814 C155.935,58.822 154.557,61.392 154.557,63.522 C154.557,64.776 155.371,65.402 157.001,65.402 C158.630,65.402 160.698,63.742 163.205,60.420 C161.513,59.543 160.009,58.008 158.693,55.814 ZM167.811,49.657 C167.811,47.370 167.247,45.678 166.119,44.581 C164.991,43.485 163.894,42.936 162.829,42.936 C160.635,42.936 159.539,44.064 159.539,46.320 C159.539,48.093 159.860,49.857 160.479,51.610 L160.856,51.302 C161.357,50.989 161.749,50.832 162.031,50.832 C162.313,50.832 162.454,51.020 162.454,51.396 L162.454,51.678 C162.594,51.678 162.104,52.130 161.027,53.001 C161.033,53.014 161.037,53.028 161.043,53.041 C162.045,55.266 163.330,56.911 164.897,57.976 C166.839,54.718 167.811,51.945 167.811,49.657 ZM90.593,39.552 C88.117,40.868 85.564,41.996 82.932,42.936 C82.556,42.936 82.368,42.701 82.368,42.231 C82.368,41.761 82.916,41.338 84.013,40.962 C85.109,40.586 86.457,39.803 88.055,38.612 C89.653,37.422 90.734,36.482 91.298,35.792 C91.862,35.103 92.504,34.758 93.225,34.758 C93.945,34.758 94.306,35.166 94.306,35.980 C94.306,37.046 93.068,38.236 90.593,39.552 ZM43.736,22.632 C36.716,26.455 29.824,29.494 23.056,31.750 C17.980,37.641 13.874,43.344 10.742,48.858 C7.607,54.373 6.042,58.916 6.042,62.488 C6.042,67.501 9.238,70.008 15.630,70.008 C19.202,70.008 23.150,68.880 27.474,66.624 C31.798,64.368 35.370,62.144 38.190,59.950 C38.815,59.512 39.365,59.292 39.835,59.292 C40.305,59.292 40.540,59.543 40.540,60.044 C40.540,60.358 40.413,60.640 40.164,60.890 C37.217,63.021 34.601,64.776 32.315,66.154 C30.026,67.532 27.034,68.895 23.338,70.243 C19.639,71.590 16.100,72.264 12.716,72.264 C4.820,72.264 0.872,69.224 0.872,63.146 C0.872,55.814 5.948,46.007 16.100,33.724 C13.092,34.476 10.208,34.946 7.452,35.134 C6.700,35.009 6.324,34.602 6.324,33.912 C6.324,33.223 6.667,32.847 7.358,32.784 C10.678,32.784 14.314,32.252 18.262,31.186 C25.655,22.726 33.537,15.567 41.903,9.707 C50.269,3.848 57.333,0.918 63.100,0.918 C65.981,0.918 67.424,1.639 67.424,3.080 C67.424,5.023 65.229,7.812 60.844,11.446 C56.456,15.081 50.753,18.810 43.736,22.632 ZM60.186,3.550 C56.487,3.550 51.364,6.010 44.817,10.929 C38.267,15.849 31.798,21.880 25.406,29.024 C31.234,26.956 37.109,24.246 43.031,20.893 C48.953,17.541 53.700,14.376 57.272,11.399 C60.844,8.423 62.630,6.245 62.630,4.866 C62.630,3.989 61.814,3.550 60.186,3.550 ZM56.799,114.134 C56.047,114.009 55.671,113.602 55.671,112.912 C55.671,112.223 56.015,111.847 56.705,111.784 C60.026,111.784 63.661,111.252 67.609,110.186 C75.003,101.726 82.884,94.567 91.250,88.707 C99.616,82.848 106.681,79.918 112.447,79.918 C115.329,79.918 116.771,80.639 116.771,82.080 C116.771,84.023 114.577,86.812 110.191,90.446 C105.804,94.081 100.101,97.810 93.083,101.632 C86.064,105.455 79.171,108.494 72.403,110.750 C67.327,116.641 63.222,122.344 60.089,127.858 C56.955,133.373 55.389,137.916 55.389,141.488 C55.389,146.501 58.585,149.008 64.977,149.008 C68.549,149.008 72.497,147.880 76.821,145.624 C81.145,143.368 84.717,141.144 87.537,138.950 C88.163,138.512 88.712,138.292 89.182,138.292 C89.652,138.292 89.887,138.543 89.887,139.044 C89.887,139.358 89.761,139.640 89.511,139.890 C86.565,142.021 83.949,143.776 81.662,145.154 C79.374,146.532 76.382,147.895 72.685,149.243 C68.987,150.590 65.447,151.264 62.063,151.264 C54.167,151.264 50.219,148.224 50.219,142.146 C50.219,134.814 55.295,125.007 65.447,112.724 C62.439,113.476 59.556,113.946 56.799,114.134 ZM92.378,99.893 C98.300,96.541 103.047,93.376 106.619,90.399 C110.191,87.423 111.977,85.245 111.977,83.866 C111.977,82.989 111.162,82.550 109.533,82.550 C105.835,82.550 100.712,85.010 94.164,89.929 C87.615,94.849 81.145,100.880 74.753,108.024 C80.581,105.956 86.456,103.246 92.378,99.893 ZM96.560,126.636 C96.560,124.631 97.280,123.002 98.722,121.748 C100.163,120.495 101.839,119.868 103.751,119.868 C105.662,119.868 107.276,120.495 108.592,121.748 C109.908,123.002 110.566,124.788 110.566,127.106 C110.566,130.678 109.406,134.250 107.088,137.822 C107.338,137.885 107.714,137.916 108.216,137.916 C111.725,137.916 115.924,135.942 120.812,131.994 L120.866,132.010 C121.760,130.697 122.222,129.897 122.222,129.644 L122.034,128.610 C122.034,128.297 122.692,128.140 124.008,128.140 C124.760,128.140 125.136,128.610 125.136,129.550 C125.136,130.490 124.055,132.574 121.893,135.801 C119.731,139.029 118.650,140.705 118.650,140.830 C118.650,140.956 118.775,141.018 119.026,141.018 C119.275,141.018 122.175,138.825 127.721,134.438 C133.267,130.052 136.604,127.858 137.732,127.858 C138.860,127.858 139.424,128.250 139.424,129.033 C139.424,129.817 139.109,130.694 138.484,131.665 C137.857,132.637 136.541,134.391 134.536,136.929 C132.529,139.467 131.465,140.830 131.340,141.018 C131.213,141.206 131.152,141.426 131.152,141.676 C131.152,141.927 131.354,142.052 131.763,142.052 C132.170,142.052 135.255,139.922 141.022,135.660 C146.787,131.399 150.077,129.268 150.892,129.268 C151.705,129.268 152.114,129.613 152.114,130.302 C152.114,131.556 150.735,133.749 147.978,136.882 C145.219,140.016 143.842,142.005 143.842,142.851 C143.842,143.697 144.171,144.120 144.829,144.120 C145.487,144.120 147.132,143.243 149.764,141.488 C154.136,138.574 158.169,135.630 161.890,132.661 C166.182,129.095 170.201,125.429 173.920,121.654 C177.993,117.518 180.876,114.354 182.568,112.160 L185.106,108.870 C185.983,107.680 186.954,107.084 188.020,107.084 C189.085,107.084 189.618,107.398 189.618,108.024 C189.618,108.275 189.539,108.494 189.383,108.682 C189.226,108.870 188.505,109.889 187.221,111.737 C185.936,113.586 184.040,116.281 181.534,119.821 C179.027,123.362 176.677,126.699 174.484,129.832 C178.118,127.764 180.860,126.730 182.709,126.730 C184.557,126.730 185.482,127.106 185.482,127.858 C185.482,130.365 182.975,134.219 177.962,139.420 C176.270,141.175 175.424,142.319 175.424,142.851 C175.424,143.384 175.878,143.650 176.787,143.650 C177.695,143.650 179.309,142.867 181.628,141.300 C186.202,138.230 190.432,135.128 194.318,131.994 L195.171,131.297 C197.160,128.421 199.268,125.657 201.509,123.017 C204.673,119.289 207.681,115.764 210.533,112.442 C213.384,109.121 214.935,107.084 215.186,106.332 C208.292,106.959 202.997,107.711 199.300,108.588 L197.420,108.964 C196.918,109.027 196.668,109.497 196.668,110.374 C196.668,110.750 196.229,110.938 195.352,110.938 C194.474,110.938 193.393,110.735 192.109,110.327 C190.824,109.920 190.182,109.340 190.182,108.588 C190.182,107.836 190.808,107.335 192.062,107.084 C201.336,105.455 207.916,104.468 211.802,104.123 C215.687,103.779 218.272,103.559 219.557,103.465 C220.841,103.371 222.847,103.293 225.573,103.230 C228.299,103.168 230.132,103.136 231.072,103.136 C233.892,103.011 237.197,102.948 240.989,102.948 C244.780,102.948 247.083,103.105 247.898,103.418 C248.712,103.732 249.120,104.327 249.120,105.204 C249.120,105.831 248.399,106.144 246.958,106.144 L233.516,105.486 C228.001,105.486 222.518,105.706 217.066,106.144 L217.536,108.024 C217.536,108.714 215.499,111.330 211.426,115.873 C207.352,120.417 203.279,125.367 199.206,130.725 C195.132,136.083 193.096,140.047 193.096,142.616 C193.096,143.619 193.456,144.120 194.177,144.120 C194.897,144.120 196.542,143.243 199.112,141.488 C203.874,138.355 208.230,135.190 212.178,131.994 L212.990,131.330 C213.307,130.972 213.617,130.615 213.964,130.255 C218.100,125.963 221.578,123.816 224.398,123.816 C225.964,123.816 226.748,124.694 226.748,126.448 C226.434,129.895 221.484,134.532 211.896,140.360 L211.896,141.300 C211.896,143.368 212.977,144.402 215.139,144.402 C217.301,144.402 219.635,143.682 222.142,142.240 C227.030,139.358 231.604,136.068 235.866,132.370 L238.216,130.396 C238.654,130.083 239.062,129.926 239.438,129.926 C239.814,129.926 240.002,130.146 240.002,130.584 L240.002,130.772 C233.484,136.162 228.064,140.204 223.740,142.898 C219.416,145.593 215.499,146.940 211.990,146.940 C209.170,146.940 207.760,145.562 207.760,142.804 C207.760,140.392 208.504,137.940 209.955,135.450 C206.592,137.996 203.041,140.541 199.253,143.086 C195.148,145.844 192.563,147.222 191.498,147.222 C189.680,147.222 188.772,146.407 188.772,144.778 C188.772,142.471 190.034,139.301 192.536,135.286 C182.606,143.234 176.298,147.222 173.638,147.222 C171.820,147.222 170.912,146.485 170.912,145.013 C170.912,143.541 172.635,140.783 176.082,136.741 C179.528,132.699 181.252,130.114 181.252,128.986 C181.126,128.861 181.001,128.798 180.876,128.798 C179.121,128.798 176.301,130.146 172.416,132.840 C147.224,168.121 132.906,185.762 129.458,185.762 C128.770,185.762 128.189,185.527 127.719,185.057 C127.249,184.587 127.014,183.882 127.014,182.942 C127.014,178.618 131.277,171.380 139.798,161.228 C148.322,151.076 157.062,142.522 166.024,135.566 L174.296,123.534 L174.296,123.440 C174.296,123.252 174.170,123.158 173.920,123.158 C172.666,125.352 169.282,128.642 163.768,133.028 L163.411,133.299 C152.055,142.572 144.928,147.222 142.056,147.222 C140.237,147.222 139.330,146.470 139.330,144.966 C139.330,143.713 140.237,141.864 142.056,139.420 C143.873,136.976 144.782,135.645 144.782,135.425 C144.782,135.206 144.702,135.096 144.547,135.096 C144.390,135.096 141.821,136.882 136.839,140.454 C131.857,144.026 128.896,145.812 127.956,145.812 C127.517,145.812 127.141,145.640 126.828,145.295 C126.513,144.951 126.358,144.590 126.358,144.214 C126.358,143.086 127.705,140.799 130.400,137.352 C133.093,133.968 134.442,132.120 134.442,131.806 C134.442,131.493 134.254,131.336 133.878,131.336 C133.439,131.336 128.990,134.783 120.530,141.676 L115.830,145.436 C115.015,146.125 114.404,146.470 113.997,146.470 C113.588,146.470 113.198,146.360 112.822,146.141 C112.446,145.922 112.258,145.593 112.258,145.154 C112.258,144.716 112.806,143.650 113.903,141.958 C114.998,140.266 116.425,138.198 118.180,135.754 C118.220,135.699 118.254,135.653 118.294,135.599 C113.872,138.638 109.945,140.172 106.524,140.172 C106.022,140.172 105.646,140.141 105.396,140.078 C103.704,142.146 101.855,143.823 99.850,145.107 C97.844,146.391 96.090,147.034 94.586,147.034 C92.204,147.034 91.014,145.703 91.014,143.039 C91.014,140.376 93.238,136.820 97.688,132.370 C96.936,130.553 96.560,128.642 96.560,126.636 ZM219.886,132.323 C221.954,130.287 222.988,128.845 222.988,127.999 C222.988,127.153 222.643,126.730 221.954,126.730 C220.575,126.730 218.805,127.890 216.643,130.208 C214.481,132.527 213.024,135.159 212.272,138.104 C215.280,136.287 217.818,134.360 219.886,132.323 ZM140.315,163.155 C133.517,171.458 130.116,177.772 130.116,182.096 C130.116,182.472 130.304,182.660 130.680,182.660 C132.624,182.660 143.370,168.497 162.922,140.172 C154.650,147.190 147.116,154.851 140.315,163.155 ZM108.122,128.657 C108.122,126.370 107.558,124.678 106.430,123.581 C105.302,122.485 104.205,121.936 103.140,121.936 C100.946,121.936 99.850,123.064 99.850,125.320 C99.850,127.576 100.351,129.817 101.354,132.041 C102.356,134.266 103.641,135.911 105.208,136.976 C107.150,133.718 108.122,130.945 108.122,128.657 ZM94.868,142.522 C94.868,143.776 95.682,144.402 97.312,144.402 C98.941,144.402 101.009,142.742 103.516,139.420 C101.824,138.543 100.320,137.008 99.004,134.814 C96.246,137.822 94.868,140.392 94.868,142.522 Z"/>
    </svg>