<?xml version="1.0" encoding="utf-8"?>
<!-- Generator: Adobe Illustrator 22.1.0, SVG Export Plug-In . SVG Version: 6.00 Build 0)  -->
<svg version="1.1" id="Capa_1" xmlns="http://www.w3.org/2000/svg" xmlns:xlink="http://www.w3.org/1999/xlink" x="0px" y="0px"
	 viewBox="0 0 512 512" style="enable-background:new 0 0 512 512;" xml:space="preserve">
<style type="text/css">
	.st0{fill:#D3A868;}
</style>
<g>
	<path class="st0" d="M497.8,323.3c-1.4-3.9-5.6-6-9.6-4.6c-3.9,1.4-6,5.6-4.6,9.6c8.9,25.5,13.4,52.2,13.4,79.6V428H320.1
		c-3.4,0-6.6,2-8,5.2c-10,22-32,36.3-56.1,36.3c-24.1,0-46.1-14.2-56.1-36.3c-1.4-3.1-4.6-5.2-8-5.2H15v-20.1
		c0-137.6,112.4-241.1,240-241.1c14.7,0,148.5,1.8,215.2,130.5c1.9,3.7,6.4,5.1,10.1,3.2c3.7-1.9,5.1-6.4,3.2-10.1
		c-7.6-14.6-16.5-28.4-26.8-41.3V36.3c0-4.8-3.9-8.7-8.7-8.7h-52.9c-4.8,0-8.7,3.9-8.7,8.7v151.2c-4.1-2.5-8.3-4.8-12.6-7V90.3
		c0-4.8-3.9-8.7-8.7-8.7h-52.9c-4.8,0-8.7,3.9-8.7,8.7v65.9c-4.2-0.8-8.4-1.5-12.6-2V63.9c0-4.8-3.9-8.7-8.7-8.7h-52.9
		c-4.8,0-8.7,3.9-8.7,8.7v90.3c-4.2,0.6-8.4,1.3-12.6,2v-52.1c0-4.8-3.9-8.7-8.7-8.7h-52.9c-4.8,0-8.7,3.9-8.7,8.7v76.4
		c-4.3,2.2-8.5,4.6-12.6,7v-54.6c0-4.8-3.9-8.7-8.7-8.7H63.9c-4.8,0-8.7,3.9-8.7,8.7v49.6c0,4.1,3.4,7.5,7.5,7.5s7.5-3.4,7.5-7.5
		v-43.3h40.2v57.9c-14.5,10.1-28,21.6-40.2,34.5v-14.2c0-4.1-3.4-7.5-7.5-7.5s-7.5,3.4-7.5,7.5V249C19.4,294,0,349.5,0,407.9v26.3
		c0,4.8,3.9,8.8,8.8,8.8H188c13.1,25.3,39.4,41.4,68,41.4c28.6,0,54.9-16.1,68-41.4h179.2c4.8,0,8.8-3.9,8.8-8.8v-26.3
		C512,378.8,507.2,350.4,497.8,323.3L497.8,323.3z M401.6,42.6h40.2v189.1c-12.1-12.8-25.5-24.4-40.2-34.5V42.6z M318.7,96.7h40.2
		v76.7c-13-5.7-26.4-10.3-40.2-13.8V96.7z M235.9,70.2h40.2v82.4c-12.9-1-26.4-1.1-40.2,0V70.2z M153.1,110.5h40.2v49.1
		c-13.8,3.5-27.2,8.1-40.2,13.8V110.5z"/>
	<path class="st0" d="M155.8,379.2c-1.1,4,1.2,8.1,5.2,9.3c4,1.1,8.1-1.2,9.3-5.2c9.3-32.5,36.3-56.6,68.7-63l-6.1,7.6
		c-2.6,3.2-2.1,7.9,1.1,10.5c3.2,2.6,7.9,2.1,10.5-1.1l17.3-21.4c0.3-0.3,0.6-0.8,0.8-1.2c1.7-3.1,1-7-1.7-9.3
		c-0.2-0.2-1-0.8-21.6-17.5c-3.2-2.6-7.9-2.1-10.5,1.1c-2.6,3.2-2.1,7.9,1.1,10.5l7.2,5.8C198.8,312.6,166.8,341,155.8,379.2
		L155.8,379.2z"/>
	<path class="st0" d="M263.5,242.2v-27.6c0-4.1-3.4-7.5-7.5-7.5s-7.5,3.4-7.5,7.5v27.6c0,4.1,3.4,7.5,7.5,7.5
		S263.5,246.3,263.5,242.2z"/>
	<path class="st0" d="M211.5,241.7c4-1.1,6.4-5.2,5.3-9.2l-3.6-13.3c-1.1-4-5.2-6.4-9.2-5.3c-4,1.1-6.4,5.2-5.3,9.2l3.6,13.3
		C203.4,240.4,207.5,242.8,211.5,241.7z"/>
	<path class="st0" d="M134.4,286.3c2.9-2.9,2.9-7.7,0-10.6l-9.8-9.8c-2.9-2.9-7.7-2.9-10.6,0c-2.9,2.9-2.9,7.7,0,10.6l9.8,9.8
		C126.7,289.2,131.5,289.2,134.4,286.3z"/>
	<path class="st0" d="M71.3,350.6c-4-1.1-8.1,1.3-9.2,5.3c-1.1,4,1.3,8.1,5.3,9.2l13.3,3.6c4,1.1,8.1-1.3,9.2-5.3
		c1.1-4-1.3-8.1-5.3-9.2L71.3,350.6z"/>
	<path class="st0" d="M165.9,236.7c-2.1-3.6-6.7-4.8-10.2-2.7c-3.6,2.1-4.8,6.7-2.7,10.2l13.8,23.9c2.1,3.6,6.7,4.8,10.2,2.7
		c3.6-2.1,4.8-6.7,2.7-10.2L165.9,236.7z"/>
	<path class="st0" d="M119,328.8c2.1-3.6,0.8-8.2-2.7-10.2l-23.9-13.8c-3.6-2.1-8.2-0.8-10.2,2.7c-2.1,3.6-0.8,8.2,2.7,10.2
		l23.9,13.8C112.3,333.6,116.9,332.4,119,328.8z"/>
	<path class="st0" d="M309.7,236.4l3.6-13.3c1.1-4-1.3-8.1-5.3-9.2c-4-1.1-8.1,1.3-9.2,5.3l-3.6,13.3c-1.1,4,1.3,8.1,5.3,9.2
		C304.5,242.8,308.6,240.5,309.7,236.4z"/>
	<path class="st0" d="M387.4,265.9l-9.8,9.8c-2.9,2.9-2.9,7.7,0,10.6c2.9,2.9,7.7,2.9,10.6,0l9.8-9.8c2.9-2.9,2.9-7.7,0-10.6
		C395,263,390.3,263,387.4,265.9z"/>
	<path class="st0" d="M422.1,363.4c1.1,4,5.2,6.4,9.2,5.3l13.3-3.6c4-1.1,6.4-5.2,5.3-9.2s-5.2-6.4-9.2-5.3l-13.3,3.6
		C423.4,355.2,421,359.4,422.1,363.4z"/>
	<path class="st0" d="M345.3,268.1l13.8-23.9c2.1-3.6,0.8-8.2-2.7-10.2c-3.6-2.1-8.2-0.8-10.2,2.7l-13.8,23.9
		c-2.1,3.6-0.8,8.2,2.7,10.2C338.7,272.9,343.2,271.7,345.3,268.1z"/>
	<path class="st0" d="M419.6,304.7l-23.9,13.8c-3.6,2.1-4.8,6.7-2.7,10.2c2.1,3.6,6.7,4.8,10.2,2.7l23.9-13.8
		c3.6-2.1,4.8-6.7,2.7-10.2C427.8,303.9,423.2,302.7,419.6,304.7z"/>
	<path class="st0" d="M144,407.9c0,4.1,3.4,7.5,7.5,7.5h56.2c3.6,23.4,23.9,41.4,48.3,41.4s44.7-18,48.3-41.4h172.5
		c4.1,0,7.5-3.4,7.5-7.5c0-126.2-102.1-228.4-228.4-228.4c-126.2,0-228.4,102.1-228.4,228.4c0,4.1,3.4,7.5,7.5,7.5h81.4
		c4.1,0,7.5-3.4,7.5-7.5s-3.4-7.5-7.5-7.5H42.7c4-114.2,98.1-205.9,213.3-205.9s209.3,91.7,213.3,205.9H304.3
		c-0.1-0.7-0.2-1.4-0.4-2.1l45.3-76.9c5.9-10.1,3.4-23-6-30s-22.5-5.9-30.5,2.6l-61.1,65.1c-22.5,1.9-40.7,19.2-44.1,41.2h-56.2
		C147.3,400.4,144,403.7,144,407.9L144,407.9z M323.8,304.3c2.8-2.9,7.3-3.3,10.5-0.9c3.2,2.4,4.1,6.9,2.1,10.4l-39.6,67.1
		c-6.2-9.3-15.5-16.4-26.4-19.8L323.8,304.3z M255.6,373.9c18.8-0.2,34.3,15,34.3,33.9c0,18.7-15.2,33.9-33.9,33.9
		s-33.9-15.2-33.9-33.9C222.1,389.4,236.9,374.2,255.6,373.9z"/>
</g>
</svg>
