<?xml version="1.0" encoding="utf-8"?>
<!-- Generator: Adobe Illustrator 22.1.0, SVG Export Plug-In . SVG Version: 6.00 Build 0)  -->
<svg version="1.1" id="Layer_1" xmlns="http://www.w3.org/2000/svg" xmlns:xlink="http://www.w3.org/1999/xlink" x="0px" y="0px"
	 viewBox="0 0 512 512" style="enable-background:new 0 0 512 512;" xml:space="preserve">
<style type="text/css">
	.st0{fill:#D3A868;}
</style>
<path class="st0" d="M177.7,380.7c-1,1.8-2.5,2.3-4,2.3s-2.9-0.5-3.9-2.3l-10.3-19.4v39.4c0,2.4-3,3.7-5.8,3.7c-3,0-5.8-1.3-5.8-3.7
	v-56.2c0-4.3,2.9-5.8,5.8-5.8c4.2,0,6.1,0.9,9.1,6.2l11.1,20.1l11.1-20.1c3-5.3,4.9-6.2,9.2-6.2c3,0,5.8,1.5,5.8,5.8v56.2
	c0,2.4-3,3.7-5.8,3.7c-3,0-5.8-1.3-5.8-3.7V362L177.7,380.7z"/>
<path class="st0" d="M232.5,366.9h13.7c2.3,0,3.7,2.3,3.7,4.7c0,2.1-1.2,4.5-3.7,4.5h-13.7v18.1h25.4c2.3,0,3.7,2.4,3.7,5.2
	c0,2.4-1.2,5-3.7,5h-32c-2.6,0-5.1-1.3-5.1-3.7v-58.3c0-2.4,2.5-3.7,5.1-3.7h32c2.5,0,3.7,2.6,3.7,5c0,2.8-1.3,5.2-3.7,5.2h-25.4
	V366.9z"/>
<path class="st0" d="M309.5,400.7l-19.3-36.1v36.1c0,2.4-3,3.7-5.8,3.7c-3,0-5.8-1.3-5.8-3.7v-58.3c0-2.5,2.9-3.7,5.8-3.7
	c4.2,0,5.9,0.9,8.7,6.2l17.3,33.5v-36.1c0-2.5,2.9-3.6,5.8-3.6c2.9,0,5.8,1.1,5.8,3.6v58.4c0,2.4-3,3.7-5.8,3.7
	C313.5,404.4,311,403.5,309.5,400.7z"/>
<path class="st0" d="M374.1,342.2c0-2.5,2.9-3.6,5.8-3.6c2.9,0,5.8,1.1,5.8,3.6v42.1c0,15-9.5,20.6-21.6,20.6
	c-12.1,0-21.6-5.6-21.6-20.6v-42.1c0-2.5,2.9-3.6,5.8-3.6c2.9,0,5.8,1.1,5.8,3.6v42.1c0,7,3.7,10.3,9.9,10.3s9.9-3.3,9.9-10.3
	L374.1,342.2L374.1,342.2z"/>
<path class="st0" d="M397.3,422.1h-42.7c-4.2,0-7.6,3.4-7.6,7.6c0,4.2,3.4,7.6,7.6,7.6h42.7c4.2,0,7.6-3.4,7.6-7.6
	C404.8,425.5,401.5,422.1,397.3,422.1z"/>
<path class="st0" d="M319.2,422.1H146.3c-4.2,0-7.6,3.4-7.6,7.6c0,4.2,3.4,7.6,7.6,7.6h172.9c4.2,0,7.6-3.4,7.6-7.6
	C326.8,425.5,323.4,422.1,319.2,422.1z"/>
<path class="st0" d="M397.3,306.2h-251c-4.2,0-7.6,3.4-7.6,7.6s3.4,7.6,7.6,7.6h251c4.2,0,7.6-3.4,7.6-7.6S401.5,306.2,397.3,306.2z
	"/>
<path class="st0" d="M393,212.1h-7.4c-2.8-52.3-41.1-95.3-91.1-105.5l1.5-14c0.5-4.6-1-9.1-4.1-12.6c-3.1-3.4-7.5-5.4-12.1-5.4
	h-16.2c-4.6,0-9,2-12.1,5.4c-3.1,3.4-4.6,8-4.1,12.6l1.5,14c-50,10.2-88.3,53.2-91.1,105.5h-7.4c-6.5,0-11.8,5.3-11.8,11.8v15.7
	c0,6.5,5.3,11.8,11.8,11.8H393c6.5,0,11.8-5.3,11.8-11.8v-15.7C404.8,217.4,399.6,212.1,393,212.1z M262.9,90.2
	c0.2-0.2,0.5-0.3,0.8-0.3h16.2c0.3,0,0.6,0.1,0.8,0.3c0.2,0.2,0.3,0.5,0.3,0.8l-1.4,13.6c-2.6-0.2-5.1-0.3-7.7-0.3
	c-2.6,0-5.2,0.1-7.7,0.3L262.6,91C262.6,90.7,262.7,90.4,262.9,90.2z M389.7,236.2H153.9v-8.9h32c4.2,0,7.6-3.4,7.6-7.6
	s-3.4-7.6-7.6-7.6h-12.8c3.2-51.6,46.3-92.6,98.7-92.6c52.4,0,95.5,41,98.7,92.6H221.2c-4.2,0-7.6,3.4-7.6,7.6s3.4,7.6,7.6,7.6
	h168.5V236.2z"/>
<path class="st0" d="M451.5,0H92C81.4,0,72.7,8.7,72.7,19.3V33h-7.1C52.6,33,42,43.6,42,56.7s10.6,23.6,23.6,23.6h7.1v32.5h-7.1
	c-13,0-23.6,10.6-23.6,23.6c0,13,10.6,23.6,23.6,23.6h7.1v32.5h-7.1c-13,0-23.6,10.6-23.6,23.6c0,13,10.6,23.6,23.6,23.6h7.1v32.5
	h-7.1c-13,0-23.6,10.6-23.6,23.6c0,13,10.6,23.6,23.6,23.6h7.1V352h-7.1c-13,0-23.6,10.6-23.6,23.6c0,13,10.6,23.6,23.6,23.6h7.1
	v32.5h-7.1c-13,0-23.6,10.6-23.6,23.6S52.6,479,65.6,479h7.1v13.7c0,10.7,8.7,19.3,19.3,19.3h359.4c10.7,0,19.3-8.7,19.3-19.3V19.3
	C470.8,8.7,462.1,0,451.5,0z M72.7,65.1h-7.1c-4.7,0-8.5-3.8-8.5-8.5c0-4.7,3.8-8.5,8.5-8.5h7.1V65.1z M72.7,144.9h-7.1
	c-4.7,0-8.5-3.8-8.5-8.5c0-4.7,3.8-8.5,8.5-8.5h7.1V144.9z M72.7,224.6h-7.1c-4.7,0-8.5-3.8-8.5-8.5c0-4.7,3.8-8.5,8.5-8.5h7.1
	V224.6z M72.7,304.3h-7.1c-4.7,0-8.5-3.8-8.5-8.5c0-4.7,3.8-8.5,8.5-8.5h7.1V304.3z M72.7,384h-7.1c-4.7,0-8.5-3.8-8.5-8.5
	c0-4.7,3.8-8.5,8.5-8.5h7.1V384z M72.7,463.8h-7.1c-4.7,0-8.5-3.8-8.5-8.5c0-4.7,3.8-8.5,8.5-8.5h7.1V463.8z M455.6,492.7
	c0,2.3-1.9,4.2-4.1,4.2H92c-2.3,0-4.1-1.9-4.1-4.2V19.3c0-2.3,1.9-4.1,4.1-4.1h359.4c2.3,0,4.1,1.9,4.1,4.1V492.7z"/>
</svg>
