<?xml version="1.0" encoding="utf-8"?>
<!-- Generator: Adobe Illustrator 22.1.0, SVG Export Plug-In . SVG Version: 6.00 Build 0)  -->
<svg version="1.1" id="Capa_1" xmlns="http://www.w3.org/2000/svg" xmlns:xlink="http://www.w3.org/1999/xlink" x="0px" y="0px"
	 viewBox="0 0 480 480" style="enable-background:new 0 0 480 480;" xml:space="preserve">
<style type="text/css">
	.st0{fill:#D3A868;}
</style>
<g>
	<g>
		<path class="st0" d="M400,80h-40V8c0-4.4-3.6-8-8-8c-0.8,0-1.5,0.1-2.3,0.3l-272,80c-0.2,0-0.3,0.2-0.4,0.2
			c-0.4,0.2-0.8,0.4-1.2,0.6c-0.5,0.3-0.9,0.6-1.4,0.9c-0.3,0.3-0.6,0.6-0.9,0.9c-0.4,0.4-0.7,0.9-0.9,1.4c-0.2,0.4-0.3,0.8-0.5,1.2
			c-0.2,0.6-0.3,1.1-0.4,1.7c0,0.3-0.2,0.5-0.2,0.8v384c0,4.4,3.6,8,8,8h320c4.4,0,8-3.6,8-8V88C408,83.6,404.4,80,400,80z
			 M344,18.7V80H135.6L344,18.7z M392,464H88V96h304V464z"/>
	</g>
</g>
<g>
	<g>
		<path class="st0" d="M184,128c-2.8,0-5.4,1.5-6.9,3.9L160,160.4l-17.1-28.6c-2.3-3.8-7.2-5-11-2.7c-2.4,1.4-3.9,4-3.9,6.9v64
			c0,4.4,3.6,8,8,8s8-3.6,8-8v-35.1l9.1,15.2c2.6,3.8,7.8,4.8,11.6,2.2c0.8-0.6,1.6-1.3,2.2-2.2l9.1-15.2V200c0,4.4,3.6,8,8,8
			s8-3.6,8-8v-64C192,131.6,188.4,128,184,128z"/>
	</g>
</g>
<g>
	<g>
		<path class="st0" d="M232,176c4.4,0,8-3.6,8-8s-3.6-8-8-8h-16v-16h16c4.4,0,8-3.6,8-8s-3.6-8-8-8h-24c-4.4,0-8,3.6-8,8v64
			c0,4.4,3.6,8,8,8h24c4.4,0,8-3.6,8-8s-3.6-8-8-8h-16v-16H232z"/>
	</g>
</g>
<g>
	<g>
		<path class="st0" d="M288,128c-4.4,0-8,3.6-8,8v30.1l-16.8-33.7c-1.9-4-6.7-5.6-10.7-3.7c-2.8,1.4-4.5,4.2-4.5,7.3v64
			c0,4.4,3.6,8,8,8c4.4,0,8-3.6,8-8v-30.1l16.8,33.7c1.9,4,6.7,5.6,10.7,3.7c2.8-1.4,4.5-4.2,4.5-7.3v-64
			C296,131.6,292.4,128,288,128z"/>
	</g>
</g>
<g>
	<g>
		<path class="st0" d="M344,128c-4.4,0-8,3.6-8,8v48c0,4.4-3.6,8-8,8s-8-3.6-8-8v-48c0-4.4-3.6-8-8-8s-8,3.6-8,8v48
			c0,13.3,10.7,24,24,24s24-10.7,24-24v-48C352,131.6,348.4,128,344,128z"/>
	</g>
</g>
<g>
	<g>
		<path class="st0" d="M368,280H112c-4.4,0-8,3.6-8,8s3.6,8,8,8h256c4.4,0,8-3.6,8-8S372.4,280,368,280z"/>
	</g>
</g>
<g>
	<g>
		<path class="st0" d="M368,328H112c-4.4,0-8,3.6-8,8s3.6,8,8,8h256c4.4,0,8-3.6,8-8S372.4,328,368,328z"/>
	</g>
</g>
<g>
	<g>
		<path class="st0" d="M368,376H112c-4.4,0-8,3.6-8,8s3.6,8,8,8h256c4.4,0,8-3.6,8-8S372.4,376,368,376z"/>
	</g>
</g>
</svg>
