<?xml version="1.0" encoding="utf-8"?>
<!-- Generator: Adobe Illustrator 22.1.0, SVG Export Plug-In . SVG Version: 6.00 Build 0)  -->
<svg version="1.1" id="Layer_1" xmlns="http://www.w3.org/2000/svg" xmlns:xlink="http://www.w3.org/1999/xlink" x="0px" y="0px"
	 viewBox="0 0 512 512" style="enable-background:new 0 0 512 512;" xml:space="preserve">
<style type="text/css">
	.st0{fill:#D3A868;}
</style>
<g id="XMLID_1083_">
	<g id="XMLID_169_">
		<path id="XMLID_191_" class="st0" d="M476.7,229.3c-5.5,0-10,4.5-10,10s4.5,10,10,10c8.4,0,15.3,6.9,15.3,15.3
			s-6.9,15.3-15.3,15.3h-19c-1.7-31.3-11.4-61.5-28.3-87.9c-16.8-26.3-40-47.8-67.4-62.5c0.6-4.8,1-9.6,1-14.5C363,56,315,8,256,8
			S149,56,149,115c0,2.3,0.1,4.6,0.2,6.9c-0.2,0.1-0.4,0.1-0.5,0.2l-44.3-25.7c-5.7-3.3-12.5-3.3-18.2,0c-5.7,3.3-9.1,9.2-9.1,15.8
			v64.1C64,192.6,54,210.8,47.2,230.5H27.7C12.4,230.5,0,242.9,0,258.2v63.5c0,15.3,12.4,27.8,27.8,27.8h19.4
			c12.3,35.6,35.7,66.8,66.5,88.8v44.5c0,11.7,9.5,21.2,21.2,21.2h37.3c8,0,15.2-4.4,18.9-11.5l11-21.3c5.7,0.5,11.5,0.8,17.2,0.8
			H276c5.7,0,11.5-0.3,17.2-0.8l11,21.3c3.7,7.1,10.9,11.5,18.9,11.5h37.3c11.7,0,21.2-9.5,21.2-21.2v-44.5
			c45.3-32.2,73.2-83,76.2-138.3h19c19.5,0,35.3-15.8,35.3-35.3S496.2,229.3,476.7,229.3L476.7,229.3z M256,28c48,0,87,39,87,87
			c0,15.4-4,30.1-11.5,43.2c-14.5-7.9-30-13.4-45.9-16.4c2.3-4.2,3.6-8.9,3.6-14c0-17.1-14.9-31-33.2-31c-7.3,0-13.2-4.9-13.2-11
			s5.9-11,13.2-11c7.3,0,13.2,4.9,13.2,11c0,5.5,4.5,10,10,10s10-4.5,10-10c0-13.8-9.8-25.6-23.2-29.6v-1.4c0-5.5-4.5-10-10-10
			s-10,4.5-10,10v1.4c-13.4,4-23.2,15.7-23.2,29.6c0,17.1,14.9,31,33.2,31c7.3,0,13.2,4.9,13.2,11s-5.9,11-13.2,11
			s-13.2-4.9-13.2-11c0-5.5-4.5-10-10-10s-10,4.5-10,10c0,5,1.3,9.8,3.6,14c-15.9,3-31.4,8.5-45.8,16.5c-7.6-13.1-11.6-28-11.6-43.4
			C169,67.1,208,28,256,28z M366,424.7c-2.8,1.9-4.4,5-4.4,8.3v49.7c0,0.7-0.5,1.2-1.2,1.2h-37.3c-0.5,0-0.9-0.3-1.1-0.7l-14.1-27.4
			c-1.9-3.8-6-5.9-10.2-5.3c-7.2,1-14.5,1.4-21.6,1.4h-56.8c-7.2,0-14.5-0.5-21.6-1.4c-4.2-0.6-8.3,1.6-10.2,5.3l-14.1,27.4
			c-0.2,0.4-0.6,0.7-1.1,0.7h-37.3c-0.7,0-1.2-0.5-1.2-1.2V433c0-3.3-1.7-6.5-4.4-8.3c-31.3-20.9-54.4-52.2-65.2-88.1
			c-1.3-4.2-5.2-7.1-9.6-7.1H27.7c-4.3,0-7.8-3.5-7.8-7.8V300h14c5.5,0,10-4.5,10-10s-4.5-10-10-10H20v-21.8c0-4.3,3.5-7.7,7.8-7.7
			h26.7c4.4,0,8.3-2.9,9.6-7.1c6.3-21,16.6-40.2,30.7-57.1c1.5-1.8,2.3-4.1,2.3-6.4v-64.5l46,26.7c2.8,1.6,6.2,1.8,9.2,0.5
			c0.1,0,0.2-0.1,0.3-0.1c2.5,9.4,6.2,18.4,11.2,26.8c-6.5,4.7-12.7,10-18.5,15.8c-3.9,3.9-3.9,10.2,0,14.1c3.9,3.9,10.2,3.9,14.1,0
			c53.4-53.4,140.3-53.4,193.6,0c2,2,4.5,2.9,7.1,2.9s5.1-1,7.1-2.9c3.9-3.9,3.9-10.2,0-14.1c-5.9-5.9-12.1-11.2-18.7-16
			c3.6-6.1,6.5-12.6,8.8-19.2C406.7,178.5,438,232.3,438,290C438,344.1,411.1,394.5,366,424.7L366,424.7z"/>
		<path id="XMLID_733_" class="st0" d="M123.7,220c-2.6,0-5.2,1.1-7.1,2.9c-1.9,1.9-2.9,4.4-2.9,7.1s1.1,5.2,2.9,7.1
			c1.9,1.9,4.4,2.9,7.1,2.9c2.6,0,5.2-1.1,7.1-2.9s2.9-4.4,2.9-7.1s-1.1-5.2-2.9-7.1C128.9,221,126.3,220,123.7,220z"/>
	</g>
</g>
</svg>
