<?xml version="1.0" encoding="utf-8"?>
<!-- Generator: Adobe Illustrator 22.1.0, SVG Export Plug-In . SVG Version: 6.00 Build 0)  -->
<svg version="1.1" id="a7fe5ce3-1aa9-4766-bace-ba1d4336dc80"
	 xmlns="http://www.w3.org/2000/svg" xmlns:xlink="http://www.w3.org/1999/xlink" x="0px" y="0px" viewBox="0 0 512 512"
	 style="enable-background:new 0 0 512 512;" xml:space="preserve">
<style type="text/css">
	.st0{fill:#D3A868;}
</style>
<g>
	<path class="st0" d="M375,433.2c-1.5-17.7-0.2-35.5-0.2-53.3c0.1-32.2-6-60.8-14-94.7c-3.2-13.7-13-25.1-22.1-34.4
		c-19.1-19.5-38.2-39-57.2-58.5c-3.8-3.9-6.8-12.4-6.2-18c1.7-16.3,4.7-32.6,8.7-48.5c1.1-4.2,0.4-8.6-1.8-12.3
		c-2.7-4.5-7.5-7.5-12.7-7.9c-9-0.7-17.9,0.1-26.6,2.3c-1.5-2.4-3.2-4.6-5.3-6.5c-6.2-5.8-15.8-5.6-21.7,0.3
		c-6.6,6.5-12.9,12.6-18.9,18.5c-1.6-8.1-5.2-15.8-10.7-21.8c-7.8-8.8-26.4-17.9-36.6-8.5c-3.1,2.8-5,6.7-5.2,10.8
		c0,0.6-4.4,73.5-4.3,74.1c-10,8.5-21,19-20.6,33.6c0.6,19.9,0.9,40.5,3.4,60.2c-6.3,15.1-11.5,30.1-15.4,45
		c-1.7,6.6-0.8,13.5,2.4,19.5c5.4,9.9,10.6,18.7,15.8,26.6c0.5,2.5,1.3,4.9,2.5,7.2c12.1,24.1,23.9,42.6,37.1,58
		c22.6,26.5,60.6,36,90.6,51.9c2.3,6.3,5.7,12.6,7.7,18.8c1,3.2,4,5.2,7.1,5.2c5,0.1,8.7-5,7.2-9.8c-2.3-7.5-6.4-14.6-8.7-21.7
		c-0.6-1.8-1.8-3.3-3.5-4.3c-10-5.6-21-10.3-31.6-14.9c-21.4-9.3-43.5-18.8-57.4-35c-12.4-14.5-23.6-31.9-35.1-55
		c-1.4-2.8-1.8-6-1.1-9c6.6-26.8,16.4-53,29-77.6c2.1-4.1,6-7,10.4-7.9c20.3-3.8,41.1-6.1,61.8-6.9c2.2-0.1,4.4,0.3,6.4,1.2
		c14.3,6.3,29.3,16.8,39.7,30c-5.2,7.5-9.7,10.1-17.5,10.1c-9.2,0-17.9-4-22.2-10.3c-1.5-2.2-4.1-3.5-6.8-3.2
		c-12.4,1.1-27.2,1.9-42.6-0.1c-3.9-0.5-7.5,2.1-8.3,5.9c-1.3,6.2-3.3,12.3-5.5,18.7c-2.2,6.6-4.5,13.3-5.9,20.3
		c-0.7,3.3-1.6,7.4-1,11.8c1.3,9.9,9.1,16.4,14.2,20.7c3.2,2.7,7.9,2.3,10.6-0.9s2.3-7.9-0.9-10.6c-4.3-3.6-8.5-7.4-9-11.3
		c-0.2-1.8,0.3-4.3,0.8-6.7c2.2-10.6,6.8-21.5,9.8-32.4c12.6,1.1,24.6,0.6,35.1-0.2c7.4,8.3,18.8,13.1,31.3,13.3
		c13.2,0.1,22.3-4.9,30.5-16.7c2.8-3.9,3.4-9.1,1.6-13.6c-2.8-6.4-8.4-11-13.3-15.8c8.1-8.4,7.2-17.1-1-25
		c-12.9-13.1-28-23.2-45-30.2c-5.4-2.2-11.1-2.5-16.9-2.1c-1.5-15.3-0.7-25,1.3-38.8c10.3-15.5,21.2-31.8,20.5-50.7
		c6.8-1.6,13.8-2.2,20.8-1.7c0.4,0,0.9,0.4,1,0.6s0.2,0.5,0.1,0.9c-4.2,16.6-7.3,33.6-9.1,50.6c-1.1,10,3.4,22.9,10.4,30
		c19.1,19.5,38.2,39,57.2,58.5c7.7,7.8,15.8,17.2,18.2,27.4c7.8,33,13.7,60.7,13.6,91.3c-0.7,36.9-3.7,79.1,17.8,109.2
		c5.9,7.9,17.7-0.1,12.3-8.6C381.6,468.5,376.6,452.7,375,433.2L375,433.2z M159.7,101.1c0.1-0.1,0.3-0.2,0.5-0.2
		c5.8,0.7,11.1,3.4,15,7.7c6.1,6.5,8.6,16.8,7.2,25.9c-8.3,8.1-17,16.6-26.4,25.8l3.5-58.7C159.5,101.4,159.6,101.3,159.7,101.1z
		 M229.9,226.5c2.5-0.1,4.9,0.3,7.2,1.2c15.9,6.7,30.6,16.3,42,29.3c-0.6,0.8-1.3,1.6-2,2.4c-7.3-5.4-15.1-9.9-23-13.3
		c-4.1-1.8-8.5-2.6-12.9-2.4c-21.4,0.8-42.9,3.2-64,7.1c-9,1.7-16.9,7.7-21,15.9c-11.3,22.2-20.5,45.6-27.2,69.6
		c-1.9-3.3-3.9-6.8-5.8-10.4c-1.4-2.6-1.8-5.6-1.1-8.5c6.5-25.1,16.9-50.7,30.7-76.2c2.4-4.2,6.5-7.1,11.4-7.9
		C185.8,229.5,207.9,227.2,229.9,226.5L229.9,226.5z M210.8,212.5c-6,0.4-12,1-18,1.6c0.6-3,2.2-5.7,4.6-7.7
		c4.1-3.4,8.4-7.5,12.6-12.1C210,199.9,210.2,205.7,210.8,212.5L210.8,212.5z M227.7,142.5c-7.2,15.6-24.9,40.3-39.7,52.3
		c-6.5,5.2-10.2,13-10.5,21.2c-5.3,0.7-10.6,1.6-15.9,2.5c-13.8,2.5-20.3,11-26,23c-0.6-11.2-0.8-22.3-1.1-33.5
		c-0.2-8.6,9.3-16.7,17.8-23.9c15.5-13.5,30.2-29.3,43.4-41.8c9.6-9.4,19.6-19.1,30.6-30c0.3-0.3,0.7-0.3,1,0
		C235.7,120.9,233.1,130.6,227.7,142.5z"/>
	<path class="st0" d="M286.2,326.4c-9.1-4.1-15.4,8.6-6.7,13.4c22,10.9,37.7,33.8,40,58.2c0.4,3.9,3.6,6.8,7.5,6.8h0.7
		c4.1-0.4,7.1-4.1,6.7-8.2C331.6,367.1,312.7,339.6,286.2,326.4L286.2,326.4z"/>
	<path class="st0" d="M289.5,95.3c1.9,0,3.8-0.7,5.3-2.2l12.4-12.4c2.9-2.9,2.9-7.7,0-10.6s-7.7-2.9-10.6,0l-12.4,12.4
		C279.4,87.2,282.9,95.4,289.5,95.3L289.5,95.3z"/>
	<path class="st0" d="M297.5,111.5c0.6,4.1,4.5,7,8.5,6.4l17.4-2.4c9.8-1.8,7.8-15.8-2.1-14.9l-17.4,2.4
		C299.8,103.6,296.9,107.4,297.5,111.5z"/>
	<path class="st0" d="M305.8,131.5c-9.2-3.8-15.1,9.1-6.3,13.6l15.9,7.3c3.7,1.7,8.2,0.1,9.9-3.7s0.1-8.2-3.7-9.9L305.8,131.5z"/>
	<path class="st0" d="M87,116c0.2-4-2.8-7.4-6.7-7.8C63.4,106.5,55.8,98,55.5,80.7c0-4-3.2-7.2-7.2-7.4s-7.4,2.8-7.8,6.8
		c-1.7,16.9-10.2,24.5-27.6,24.7c-4,0-7.2,3.2-7.4,7.2s2.8,7.4,6.7,7.8c16.9,1.7,24.5,10.2,24.7,27.6c0.1,4,3.2,7.2,7.2,7.4
		c3.9,0.2,7.4-2.8,7.8-6.7c1.7-16.9,10.2-24.5,27.5-24.7C83.6,123.1,86.8,120,87,116z M45.8,122.4c-2.1-3.4-4.8-6.4-7.9-8.9
		c3.5-2.1,6.4-4.8,8.9-7.9c2.1,3.4,4.8,6.4,7.9,8.9C51.3,116.6,48.3,119.2,45.8,122.4z"/>
	<path class="st0" d="M340.8,64.3c13.9,4.4,18.6,12.5,15.8,27.1c-1.5,9.2,11.4,12.6,14.5,3.7c4.4-13.9,12.5-18.6,27.1-15.8
		c9.3,1.5,12.6-11.4,3.7-14.5c-9.2-2.9-18.6-11.3-9.5-51.1c1.8-9.5-11.5-13-14.5-3.8c-11.2,38.8-23.8,41.6-33.4,39.8
		C335.2,48.3,331.9,61.3,340.8,64.3z M372.7,54.3c0.7-0.7,1.3-1.4,2-2.2c0.9,4.8,2.4,9.3,4.7,13.3c-3.5,1.1-6.6,2.8-9.4,5
		c-1.4-3.4-3.3-6.5-5.8-9.2C367.1,59.4,370,57.1,372.7,54.3L372.7,54.3z"/>
	<path class="st0" d="M109.6,194.2c2.3-3.5,1.3-8.1-2.2-10.4L100,179l4.9-7.4c2.3-3.5,1.3-8.1-2.2-10.4s-8.1-1.3-10.4,2.2l-4.9,7.4
		l-7.4-4.9c-3.5-2.3-8.1-1.3-10.4,2.2s-1.3,8.1,2.2,10.4l7.4,4.8l-4.8,7.4c-2.3,3.5-1.3,8.1,2.2,10.4c3.4,2.3,8.1,1.3,10.4-2.2
		l4.8-7.4l7.4,4.8C102.6,198.7,107.3,197.7,109.6,194.2z"/>
	<path class="st0" d="M355.7,225.2c3.1,2.7,7.8,2.4,10.6-0.7l5.8-6.7l6.7,5.8c3.1,2.7,7.8,2.4,10.6-0.7c2.7-3.1,2.4-7.9-0.7-10.6
		l-6.7-5.8l5.8-6.7c2.7-3.1,2.4-7.9-0.7-10.6s-7.9-2.4-10.6,0.7l-5.8,6.7l-6.7-5.8c-3.1-2.7-7.9-2.4-10.6,0.7s-2.4,7.9,0.7,10.6
		l6.7,5.8l-5.8,6.7C352.3,217.7,352.6,222.4,355.7,225.2z"/>
	<path class="st0" d="M164.4,55.1l8.2,3.4l-3.4,8.2c-1.6,3.8,0.3,8.2,4.1,9.8c3.7,1.6,8.2-0.2,9.8-4.1l3.3-8.2l8.2,3.4
		c3.7,1.6,8.2-0.2,9.8-4.1c1.6-3.8-0.3-8.2-4.1-9.8l-8.2-3.4l3.4-8.2c1.6-3.8-0.3-8.2-4.1-9.8s-8.2,0.3-9.8,4.1l-3.4,8.2l-8.2-3.3
		C160.7,37.8,155.3,51,164.4,55.1z"/>
	<path class="st0" d="M412.2,262.2c-11,0-19.9,8.9-19.9,19.9c1.1,26.4,38.7,26.4,39.8,0C432.1,271.2,423.2,262.2,412.2,262.2z
		 M412.2,287c-6.5-0.2-6.5-9.6,0-9.8C418.7,277.4,418.7,286.8,412.2,287z"/>
</g>
</svg>
