<?xml version="1.0" encoding="UTF-8" standalone="no"?>
<!-- Generator: Adobe Illustrator 22.1.0, SVG Export Plug-In . SVG Version: 6.00 Build 0)  -->

<svg
   version="1.1"
   id="Layer_1"
   x="0px"
   y="0px"
   viewBox="0 0 17 16.999999"
   xml:space="preserve"
   sodipodi:docname="favicon.svg"
   inkscape:version="1.1.1 (3bf5ae0d25, 2021-09-20)"
   width="17"
   height="17"
   xmlns:inkscape="http://www.inkscape.org/namespaces/inkscape"
   xmlns:sodipodi="http://sodipodi.sourceforge.net/DTD/sodipodi-0.dtd"
   xmlns="http://www.w3.org/2000/svg"
   xmlns:svg="http://www.w3.org/2000/svg"><defs
   id="defs35" /><sodipodi:namedview
   id="namedview33"
   pagecolor="#ffffff"
   bordercolor="#666666"
   borderopacity="1.0"
   inkscape:pageshadow="2"
   inkscape:pageopacity="0.0"
   inkscape:pagecheckerboard="0"
   showgrid="false"
   inkscape:zoom="36.220257"
   inkscape:cx="8.4345068"
   inkscape:cy="7.0678682"
   inkscape:window-width="2160"
   inkscape:window-height="1334"
   inkscape:window-x="-11"
   inkscape:window-y="-11"
   inkscape:window-maximized="1"
   inkscape:current-layer="Layer_1"
   width="16px" />


<path
   class="st0"
   d="M 111,67.6"
   id="path28"
   style="fill:#262626;fill-opacity:1" />
<path
   class="st0"
   d="m 4.5283735,6.4815901 c -0.09615,0.096495 -0.09615,0.2412364 0,0.3377309 l 1.6826282,1.6886548 v 0 c 0.09615,0.09649 0.09615,0.241236 0,0.33773 -0.09615,0.0965 -0.2403755,0.0965 -0.3365256,0 L 4.1918479,7.1570519 c -0.09615,-0.096495 -0.2403755,-0.096495 -0.3365257,0 -0.09615,0.096494 -0.09615,0.2412363 0,0.3377308 l 1.6826282,1.6886541 c 0,0 0,0 0.024038,0.02412 l 0.2163379,0.217113 c 0.7211263,0.6754612 1.2739899,0.192989 2.115304,0.7960802 0.09615,0.07237 0.2163379,0.168865 0.3365256,0.289483 C 7.6051797,11.137452 6.42734,12.247139 5.3456505,13.236208 3.8553226,12.198891 2.8697832,10.46199 2.8697832,8.5079758 c 0,-3.1601964 2.5720174,-5.7414252 5.7209359,-5.7414252 3.1489179,0 5.7209359,2.5812288 5.7209359,5.7414252 0,1.9781372 -0.98554,3.6909152 -2.499905,4.7282322 -1.057652,-0.964946 -2.307605,-2.12288 -2.884506,-2.701847 0.384601,-0.361855 0.721127,-0.6272152 0.98554,-0.6995862 0.697089,-0.217112 1.442252,-0.04825 2.115304,-0.60309 0.841314,-0.675462 1.754741,-2.4606111 0.865351,-3.1843201 C 12.1002,5.3960266 10.321422,6.3368483 9.744521,7.2294228 9.287808,7.9531318 9.528183,8.6285938 9.215695,9.3523028 9.143585,9.5211678 8.903207,9.8106518 8.5907191,10.148383 8.4705314,10.027764 8.3743812,9.9071458 8.3022686,9.8106518 7.7013299,8.9663248 8.1580433,8.4114808 7.5090296,7.6877718 L 7.2446166,7.4947827 c 0,0 0,0 -0.024038,-0.024124 L 5.5379504,5.7820048 c -0.09615,-0.096495 -0.2403754,-0.096495 -0.3365256,0 -0.09615,0.096495 -0.09615,0.2412363 0,0.3377308 L 6.884053,7.80839 c 0.09615,0.096495 0.09615,0.2412363 0,0.3377308 -0.09615,0.096495 -0.2403755,0.096495 -0.3365257,0 v 0 L 4.8648991,6.4574665 C 4.7927861,6.3850956 4.6245237,6.3850956 4.5283735,6.4815901 Z M 3.5428341,14.852491 c -0.2884505,0.26536 -0.528826,0.482473 -0.6490137,0.578967 v 0 l -0.1442253,0.120619 c -0.1682628,0.217112 -0.1682628,0.530719 0.048075,0.747832 0.2163379,0.217113 0.5528636,0.217113 0.7692015,0 l 0.048075,-0.07237 0.6970888,-0.79608 c 0.528826,-0.627214 3.1489185,-3.52205 4.230608,-4.607614 1.2018776,1.182058 4.2546456,4.607614 4.8796216,5.331323 v 0 l 0.120188,0.144742 c 0.216338,0.168866 0.528826,0.168866 0.745164,-0.04825 0.216338,-0.217113 0.216338,-0.554844 0,-0.771956 l -0.07211,-0.04825 -0.697088,-0.60309 0.649013,-0.651339 c 3.124881,-3.136072 3.124881,-8.2502824 0,-11.3622312 -3.124881,-3.13607239 -8.2208405,-3.13607239 -11.3216839,0 -3.1008433,3.1360724 -3.12488085,8.2502832 0,11.3622312 z"
   id="path30"
   style="fill:#262626;fill-opacity:1;stroke-width:0.240806" />
</svg>
