<?xml version="1.0" encoding="UTF-8" standalone="no"?>
<!-- Generator: Adobe Illustrator 22.1.0, SVG Export Plug-In . SVG Version: 6.00 Build 0)  -->

<svg
   version="1.1"
   id="Layer_1"
   x="0px"
   y="0px"
   viewBox="0 0 228.7 147.1"
   style="enable-background:new 0 0 228.7 147.1;"
   xml:space="preserve"
   sodipodi:docname="logo-4.svg"
   inkscape:version="1.1.1 (3bf5ae0d25, 2021-09-20)"
   xmlns:inkscape="http://www.inkscape.org/namespaces/inkscape"
   xmlns:sodipodi="http://sodipodi.sourceforge.net/DTD/sodipodi-0.dtd"
   xmlns="http://www.w3.org/2000/svg"
   xmlns:svg="http://www.w3.org/2000/svg"><defs
   id="defs35" /><sodipodi:namedview
   id="namedview33"
   pagecolor="#ffffff"
   bordercolor="#666666"
   borderopacity="1.0"
   inkscape:pageshadow="2"
   inkscape:pageopacity="0.0"
   inkscape:pagecheckerboard="0"
   showgrid="false"
   inkscape:zoom="4.5275321"
   inkscape:cx="114.41112"
   inkscape:cy="73.550003"
   inkscape:window-width="2160"
   inkscape:window-height="1342"
   inkscape:window-x="-10"
   inkscape:window-y="-10"
   inkscape:window-maximized="1"
   inkscape:current-layer="Layer_1" />
<g
   id="g16"
   style="fill:#262626;fill-opacity:1">
	<g
   id="g8"
   style="fill:#262626;fill-opacity:1">
		<path
   class="st0"
   d="M22.4,22h5.9l18.4,23.9L65.1,22H71v46.5h-6.4V33L47.5,55.3H46L28.9,33v35.5h-6.5V22z"
   id="path4"
   style="fill:#262626;fill-opacity:1" />
		<path
   class="st0"
   d="M166.9,22h5.9l26.7,35.4V22h6.5v46.5h-5.9L173.4,33v35.5h-6.5V22z"
   id="path6"
   style="fill:#262626;fill-opacity:1" />
	</g>
	<g
   id="g14"
   style="fill:#262626;fill-opacity:1">
		<path
   class="st0"
   d="M22.4,22h5.9l18.4,23.9L65.1,22H71v46.5h-6.4V33L47.5,55.3H46L28.9,33v35.5h-6.5V22z"
   id="path10"
   style="fill:#262626;fill-opacity:1" />
		<path
   class="st0"
   d="M166.9,22h5.9l26.7,35.4V22h6.5v46.5h-5.9L173.4,33v35.5h-6.5V22z"
   id="path12"
   style="fill:#262626;fill-opacity:1" />
	</g>
</g>
<g
   id="g26"
   style="fill:#262626;fill-opacity:1">
	<path
   class="st0"
   d="M22.6,87.8h5.6l17.5,22.7l17.5-22.7h5.6v44.1h-6V98.3l-16.3,21.1h-1.4L28.7,98.2v33.6h-6.1V87.8z"
   id="path18"
   style="fill:#262626;fill-opacity:1" />
	<path
   class="st0"
   d="M80.1,87.8H112v5.7H86.2v13.3h24.7v5.6H86.2v13.8h26.2v5.7H80.1V87.8z"
   id="path20"
   style="fill:#262626;fill-opacity:1" />
	<path
   class="st0"
   d="M121.7,87.8h5.6l25.3,33.6V87.8h6.1v44.1h-5.6l-25.3-33.6v33.6h-6.1C121.7,131.9,121.7,87.8,121.7,87.8z"
   id="path22"
   style="fill:#262626;fill-opacity:1" />
	<path
   class="st0"
   d="M178.2,130.4c-2.8-1.5-4.9-3.7-6.4-6.6c-1.5-2.8-2.3-6.1-2.3-9.9V87.7h6v26.1c0,3.9,1.1,7.1,3.4,9.5   c2.2,2.4,5.2,3.6,9,3.6c3.7,0,6.7-1.2,9-3.6c2.2-2.4,3.4-5.6,3.4-9.5V87.7h6.1v26.2c0,3.8-0.8,7.1-2.3,9.9c-1.5,2.8-3.7,5-6.5,6.6   c-2.8,1.5-6,2.3-9.7,2.3C184.3,132.7,181,132,178.2,130.4z"
   id="path24"
   style="fill:#262626;fill-opacity:1" />
</g>
<path
   class="st0"
   d="M111,67.6"
   id="path28"
   style="fill:#262626;fill-opacity:1" />
<path
   class="st0"
   d="M101.9,39.3c-0.4,0.4-0.4,1,0,1.4l7,7l0,0c0.4,0.4,0.4,1,0,1.4s-1,0.4-1.4,0l-7-7c-0.4-0.4-1-0.4-1.4,0  s-0.4,1,0,1.4l7,7c0,0,0,0,0.1,0.1l0.9,0.9c3,2.8,5.3,0.8,8.8,3.3c0.4,0.3,0.9,0.7,1.4,1.2c-2.6,2.6-7.5,7.2-12,11.3  C99.1,63,95,55.8,95,47.7c0-13.1,10.7-23.8,23.8-23.8s23.8,10.7,23.8,23.8c0,8.2-4.1,15.3-10.4,19.6c-4.4-4-9.6-8.8-12-11.2  c1.6-1.5,3-2.6,4.1-2.9c2.9-0.9,6-0.2,8.8-2.5c3.5-2.8,7.3-10.2,3.6-13.2c-3.3-2.7-10.7,1.2-13.1,4.9c-1.9,3-0.9,5.8-2.2,8.8  c-0.3,0.7-1.3,1.9-2.6,3.3c-0.5-0.5-0.9-1-1.2-1.4c-2.5-3.5-0.6-5.8-3.3-8.8l-1.1-0.8c0,0,0,0-0.1-0.1l-7-7c-0.4-0.4-1-0.4-1.4,0  s-0.4,1,0,1.4l7,7c0.4,0.4,0.4,1,0,1.4s-1,0.4-1.4,0l0,0l-7-7C103,38.9,102.3,38.9,101.9,39.3L101.9,39.3z M97.8,74  c-1.2,1.1-2.2,2-2.7,2.4l0,0l-0.6,0.5c-0.7,0.9-0.7,2.2,0.2,3.1c0.9,0.9,2.3,0.9,3.2,0l0.2-0.3l2.9-3.3c2.2-2.6,13.1-14.6,17.6-19.1  c5,4.9,17.7,19.1,20.3,22.1l0,0l0.5,0.6c0.9,0.7,2.2,0.7,3.1-0.2c0.9-0.9,0.9-2.3,0-3.2l-0.3-0.2l-2.9-2.5l2.7-2.7  c13-13,13-34.2,0-47.1c-13-13-34.2-13-47.1,0s-13,34.2,0,47.1L97.8,74L97.8,74z"
   id="path30"
   style="fill:#262626;fill-opacity:1" />
</svg>
