<?xml version="1.0" encoding="utf-8"?>
<!-- Generator: Adobe Illustrator 22.1.0, SVG Export Plug-In . SVG Version: 6.00 Build 0)  -->
<svg version="1.1" id="Layer_1" xmlns="http://www.w3.org/2000/svg" xmlns:xlink="http://www.w3.org/1999/xlink" x="0px" y="0px"
	 viewBox="0 0 305.3 209.3" style="enable-background:new 0 0 305.3 209.3;" xml:space="preserve">
<style type="text/css">
	.st0{clip-path:url(#SVGID_4_);}
	.st1{fill:#D3A868;}
	.st2{fill-rule:evenodd;clip-rule:evenodd;fill:#D3A868;}
</style>
<g>
	<defs>
		<path id="SVGID_1_" d="M128.4,45.6c-0.7,0.7-0.7,1.9,0,2.6l12.7,12.7l0,0c0.7,0.7,0.7,1.9,0,2.6c-0.7,0.7-1.9,0.7-2.6,0
			l-12.8-12.8c-0.7-0.7-1.9-0.7-2.6,0c-0.7,0.7-0.7,1.9,0,2.6L136,66.1c0,0,0.1,0.1,0.1,0.1l1.6,1.6c5.5,5.1,9.8,1.5,16.1,6.1
			c0.7,0.5,1.6,1.3,2.6,2.2c-4.8,4.8-13.7,13.1-22,20.7C123,89,115.5,75.9,115.5,61c0-24.1,19.5-43.6,43.6-43.6
			c24.1,0,43.6,19.5,43.6,43.6c0,14.9-7.5,28.1-19,36c-8.1-7.4-17.5-16-22-20.6c3-2.7,5.6-4.7,7.4-5.3c5.3-1.7,11-0.4,16.1-4.5
			c6.4-5.1,13.5-18.6,6.6-24.2c-6.1-5-19.6,2.3-24,9c-3.5,5.5-1.7,10.6-4.1,16.1c-0.6,1.4-2.3,3.5-4.7,6c-0.9-1-1.6-1.8-2.2-2.6
			c-4.6-6.3-1.1-10.6-6.1-16.1l-1.6-1.6c0,0-0.1-0.1-0.1-0.1l-12.8-12.8c-0.7-0.7-1.9-0.7-2.6,0c-0.7,0.7-0.7,1.9,0,2.6l12.8,12.8
			c0.7,0.7,0.7,1.9,0,2.6c-0.7,0.7-1.9,0.7-2.6,0l0,0L131,45.6C130.3,44.9,129.1,44.9,128.4,45.6L128.4,45.6z"/>
	</defs>
	<defs>
		<path id="SVGID_3_" d="M120.9,109.1c-2.3,2-4,3.6-5,4.4l-0.1,0l-1.1,0.9c-1.3,1.7-1.2,4.1,0.3,5.6c1.6,1.6,4.3,1.6,5.9,0l0.4-0.5
			l5.4-6.1c4.1-4.7,23.9-26.7,32.3-34.9c9.1,9,32.4,35,37.3,40.6l0,0.1l0.9,1.1c1.7,1.3,4.1,1.2,5.6-0.3c1.6-1.6,1.6-4.3,0-5.9
			l-0.5-0.4l-5.3-4.7l5-5c23.7-23.7,23.7-62.6,0-86.3c-23.7-23.7-62.6-23.7-86.3,0c-23.7,23.7-23.7,62.6,0,86.3L120.9,109.1
			L120.9,109.1z"/>
	</defs>
	<use xlink:href="#SVGID_1_"  style="overflow:visible;fill-rule:evenodd;clip-rule:evenodd;fill:#D3A868;"/>
	<use xlink:href="#SVGID_3_"  style="overflow:visible;fill-rule:evenodd;clip-rule:evenodd;fill:#D3A868;"/>
	<clipPath id="SVGID_4_">
		<use xlink:href="#SVGID_1_"  style="overflow:visible;"/>
	</clipPath>
	<clipPath id="SVGID_6_" class="st0">
		<use xlink:href="#SVGID_3_"  style="overflow:visible;"/>
	</clipPath>
</g>
<g>
	<path class="st1" d="M0,25.5h9.8l30.6,39.7l30.6-39.7h9.8v77.2H70.2V43.8l-28.6,37h-2.4l-28.5-37v58.9H0V25.5z"/>
	<path class="st1" d="M239.8,25.5h9.8l44.4,58.8V25.5h10.7v77.2h-9.8l-44.4-58.9v58.9h-10.7V25.5z"/>
</g>
<g>
	<path class="st1" d="M0.3,134.6h9.3l29,37.6l29-37.6h9.3v73.2h-10V152l-27.1,35h-2.3l-27-35v55.8H0.3V134.6z"/>
	<path class="st1" d="M95.7,134.6h53v9.4h-42.9v22.1h41v9.3h-41v22.9h43.5v9.5H95.7V134.6z"/>
	<path class="st1" d="M164.7,134.6h9.3l42,55.7v-55.7h10.1v73.2h-9.3l-42-55.8v55.8h-10.1V134.6z"/>
	<path class="st1" d="M258.6,205.5c-4.6-2.5-8.2-6.2-10.7-10.9c-2.5-4.7-3.8-10.2-3.8-16.5v-43.5h10v43.3c0,6.6,1.9,11.8,5.6,15.8
		c3.7,4,8.7,6,14.9,6c6.2,0,11.2-2,14.9-5.9c3.7-3.9,5.6-9.2,5.6-15.8v-43.3h10.1v43.5c0,6.3-1.3,11.8-3.8,16.5
		c-2.5,4.7-6.1,8.3-10.7,10.9c-4.6,2.5-10,3.8-16.2,3.8C268.6,209.3,263.2,208,258.6,205.5z"/>
</g>
<path class="st2" d="M147,101.2"/>
</svg>
