<?xml version="1.0" encoding="utf-8"?>
<!-- Generator: Adobe Illustrator 22.1.0, SVG Export Plug-In . SVG Version: 6.00 Build 0)  -->
<svg version="1.1" id="Layer_1" xmlns="http://www.w3.org/2000/svg" xmlns:xlink="http://www.w3.org/1999/xlink" x="0px" y="0px"
	 viewBox="0 0 2262.7 909.8" style="enable-background:new 0 0 2262.7 909.8;" xml:space="preserve">
<style type="text/css">
	.st0{fill:url(#SVGID_1_);}
	.st1{fill:#FFFFFF;}
	.st2{fill:url(#SVGID_2_);}
	.st3{fill:url(#SVGID_3_);}
	.st4{fill:url(#SVGID_4_);}
	.st5{fill:url(#SVGID_5_);}
	.st6{fill:url(#SVGID_6_);}
	.st7{fill:url(#SVGID_7_);}
</style>
<g>
	<g>
		
			<linearGradient id="SVGID_1_" gradientUnits="userSpaceOnUse" x1="702.011" y1="-48.7944" x2="1446.7438" y2="-493.8336" gradientTransform="matrix(6.123234e-17 -1 1 6.123234e-17 628.4483 1535.7515)">
			<stop  offset="0" style="stop-color:#BE965D"/>
			<stop  offset="0.2784" style="stop-color:#976F40"/>
			<stop  offset="0.4259" style="stop-color:#C99B61"/>
			<stop  offset="0.5584" style="stop-color:#F0BE7B"/>
			<stop  offset="0.6275" style="stop-color:#FFCB85"/>
			<stop  offset="0.7085" style="stop-color:#EEBC79"/>
			<stop  offset="0.8693" style="stop-color:#C0935B"/>
			<stop  offset="1" style="stop-color:#976F40"/>
		</linearGradient>
		<path class="st0" d="M258.7,12.2C178.2,34,109,84,62.4,150.9C24.5,205.4,1.7,271.2,0.1,342.2c-1.8,80.2,23.4,154.4,67.1,214.3
			C78.5,572,84.8,590.7,84.8,610v163.3c0,14.7,5.9,28,15.6,37.6c9.5,9.5,22.7,15.5,37.2,15.6c29.4,0.2,53.5-24.7,53.5-54.1v-125
			c0-14.6,5.8-28,15.3-37.9c9.9-10.4,23.8-16.8,39.1-16.4c14.2,0.3,27.1,6.2,36.4,15.6c9.6,9.6,15.6,22.9,15.6,37.6v50.3
			c0,14.7,5.9,28,15.6,37.6c9.9,9.9,23.8,16,39,15.6c28.9-0.8,51.7-25.1,51.7-54v-88.4c0-29.9,24.5-54.9,54.3-54.3
			c14.2,0.3,27.1,6.2,36.4,15.6c9.6,9.6,15.6,22.9,15.6,37.6v217.2c0,14.7,5.9,28,15.6,37.6c9.4,9.4,22.2,15.3,36.4,15.6
			c29.9,0.6,54.3-24.4,54.3-54.3V608.7c0-19.1,6.1-37.7,17.3-53.1c7-9.6,13.4-19.5,19.4-29.8c30-51.6,47.1-111.6,47.1-175.6
			c0-193.3-156.5-350-349.8-350.2C318.8,0,288,4.2,258.7,12.2z M296.5,842.2v12c0,14.7,5.9,28,15.6,37.6
			c9.6,9.6,22.9,15.6,37.6,15.6c29.4,0,53.2-23.8,53.2-53.2v-12c0-14.7-5.9-28-15.6-37.6c-9.6-9.6-22.9-15.6-37.6-15.6
			C320.3,789,296.5,812.8,296.5,842.2z"/>
	</g>
	<path class="st1" d="M168.5,172.3c-2.3-3.3,1.7-6.7,4.6-3.9c5.4,5.4,59.3,62.4,67.8,71.5s12.6,10.9,17.4,6.2
		c4.7-4.7-1.7-12.8-4.8-16.5c-3.1-3.8-64.9-79.1-68-82.7c-4-4.8-4.9-6.6-3-8.5c1.9-1.9,3.6-1.1,8.5,3c3.7,3,79,64.9,82.7,68
		c3.8,3.1,11.8,9.5,16.5,4.8c4.7-4.7,2.9-8.9-6.2-17.4c-9.1-8.5-66.1-62.5-71.5-67.8c-2.8-2.8,0.6-6.9,3.9-4.6
		c4.8,3.4,95.4,63.1,106.4,75.3c21.7,24-0.1,55,18,79c-5.8,5-12.3,10.7-19.6,17.1c-23.8-16.2-54,4.3-77.5-16.9
		C231.6,267.7,171.9,177.2,168.5,172.3z M497.4,414.5c-12.6-10.8-72.7-62.6-113-97.3c-6,6.9-13.3,15.3-21.5,24.6
		c34.7,40.3,85.2,98.9,95.9,111.3c16.6,19.3,39.2,49.3,63.6,24.9C546.8,453.7,516.7,431.1,497.4,414.5z M516.2,213.4
		c14.8-28.7,20.6-60.7,6.2-75.1c-14.4-14.4-46.3-8.6-75.1,6.2c-28.6,14.7-48.4,36.4-52,59.2c-5.6,36.4-0.5,51.6-20.2,67.4
		c-11,8.8-164.6,143.7-183.8,160.4c-19,16.6-22.6,32.5-9,46.4l0,0c0.1,0.1,0.1,0.1,0.2,0.2c0.1,0.1,0.1,0.1,0.2,0.2l0,0
		c13.9,13.6,29.9,9.9,46.4-9c16.7-19.1,151.6-172.7,160.4-183.8c15.8-19.7,31-14.6,67.4-20.2C479.9,261.8,501.5,242,516.2,213.4z"/>
</g>
<g>
	<g>
		<linearGradient id="SVGID_2_" gradientUnits="userSpaceOnUse" x1="721.6981" y1="720.0033" x2="2301.1118" y2="502.6275">
			<stop  offset="0" style="stop-color:#BE965D"/>
			<stop  offset="0.2784" style="stop-color:#976F40"/>
			<stop  offset="0.4259" style="stop-color:#C99B61"/>
			<stop  offset="0.5584" style="stop-color:#F0BE7B"/>
			<stop  offset="0.6275" style="stop-color:#FFCB85"/>
			<stop  offset="0.7085" style="stop-color:#EEBC79"/>
			<stop  offset="0.8693" style="stop-color:#C0935B"/>
			<stop  offset="1" style="stop-color:#976F40"/>
		</linearGradient>
		<path class="st2" d="M802.6,716.9c-0.6,4.9-1.2,9.8-2.4,15.3c29.3-4.3,58.7-25.1,73.3-72.7c1.8-7.3,15.9-7.3,14.7,0
			c-14.1,60.5-53.2,83.7-91.1,87.4c-9.8,37.3-31.2,76.4-74,78.8c-63.6,4.3-75.8-54.4-73.3-98.4c1.8-42.8,23.8-83.7,40.3-94.7
			c6.1-3.7,14.7-2.4,22,1.2c8.6-13.4,22-22.6,36.1-23.2c1.2-0.6,3.1-0.6,4.3-0.6C794.6,611.1,808.7,664.3,802.6,716.9z M733.5,810.4
			c25.1-1.8,42.2-31.8,50.7-63.6c-28.1-1.2-54.4-12.8-66-28.7c-1.8-1.8-3.1-3.7-4.3-5.5C705.4,756.6,703,812.8,733.5,810.4z
			 M754.3,630.1c-8.6,0.6-19.6,15.3-26.3,31.8c-0.6,2.4-0.6,4.3-1.8,6.7c-0.6,1.8-1.8,4.3-2.4,6.7c-3.1,13.4-2.4,26.3,5.5,34.2
			c13.4,13.4,35.4,23.2,58.7,23.2c1.2-5.5,1.8-10.4,2.4-15.3c4.9-42.8-6.7-86.8-33.6-87.4C756.1,630.1,754.9,630.1,754.3,630.1z"/>
	</g>
	<g>
		<linearGradient id="SVGID_3_" gradientUnits="userSpaceOnUse" x1="730.3856" y1="783.1253" x2="2309.7993" y2="565.7495">
			<stop  offset="0" style="stop-color:#BE965D"/>
			<stop  offset="0.2784" style="stop-color:#976F40"/>
			<stop  offset="0.4259" style="stop-color:#C99B61"/>
			<stop  offset="0.5584" style="stop-color:#F0BE7B"/>
			<stop  offset="0.6275" style="stop-color:#FFCB85"/>
			<stop  offset="0.7085" style="stop-color:#EEBC79"/>
			<stop  offset="0.8693" style="stop-color:#C0935B"/>
			<stop  offset="1" style="stop-color:#976F40"/>
		</linearGradient>
		<path class="st3" d="M1044,595.9c23.8,9.2,33.6,33.6,31.2,58.1c-2.4,28.1-31.2,225.5-2.4,210.9c37.9-18.3,70.3-180.3,80.1-207.2
			c1.8-6.1,17.7-7.3,17.1,1.8c-1.8,25.7-41.6,228.6-106.3,226.7c-125.9-4.9-18.3-288.5-53.8-260.4c-15.9,12.2-38.5,135.1-68.5,195
			c-8.6,16.5-23.8,13.4-31.8,11.6c-55.6-12.2-53.8-151.6-36.1-189.5c11-22,62.3,4.3,59.3,22.6c-14.7,86.2-7.9,161.4-3.7,146.7
			c30.6-105.1,53.2-215.7,99.6-219.4C1033.6,592.8,1038.5,593.4,1044,595.9z"/>
	</g>
	<g>
		<linearGradient id="SVGID_4_" gradientUnits="userSpaceOnUse" x1="738.7973" y1="844.2433" x2="2318.2109" y2="626.8676">
			<stop  offset="0" style="stop-color:#BE965D"/>
			<stop  offset="0.2784" style="stop-color:#976F40"/>
			<stop  offset="0.4259" style="stop-color:#C99B61"/>
			<stop  offset="0.5584" style="stop-color:#F0BE7B"/>
			<stop  offset="0.6275" style="stop-color:#FFCB85"/>
			<stop  offset="0.7085" style="stop-color:#EEBC79"/>
			<stop  offset="0.8693" style="stop-color:#C0935B"/>
			<stop  offset="1" style="stop-color:#976F40"/>
		</linearGradient>
		<path class="st4" d="M1453.5,629.5c-0.6,103.3-25.7,267.7-8.6,260.4c25.7-10.4,71.5-146.1,85.6-229.8c1.8-8.6,17.1-9.8,16.5,1.2
			c-0.6,10.4-44.6,271.4-123.5,246.9c-72.7-22-38.5-203.5-23.8-259.1c-19.6,28.1-52.6,161.4-74.6,169.9
			c-86.8,33-51.3-182.1-53.2-180.9c-29.3,17.1-42.2,197.4-70.9,203.5c-85.6,19.6-58.7-169.3-51.3-197.4c4.9-17.7,48.9-18.3,50.7,3.7
			c2.4,22.6-3.7,167.5,1.2,168.7c4.3,1.8,25.1-186.4,74.6-204.7c22.6-14.1,58.1,1.8,55.6,28.1c-6.7,65.4-11,128.3-3.1,135.1
			c6.7,5.5,50.7-147.9,70.3-163.8c6.1-4.9,13.4-7.3,21.4-7.3C1437,603.2,1453.5,613.6,1453.5,629.5z"/>
	</g>
	<g>
		<linearGradient id="SVGID_5_" gradientUnits="userSpaceOnUse" x1="740.4743" y1="856.4282" x2="2319.8879" y2="639.0525">
			<stop  offset="0" style="stop-color:#BE965D"/>
			<stop  offset="0.2784" style="stop-color:#976F40"/>
			<stop  offset="0.4259" style="stop-color:#C99B61"/>
			<stop  offset="0.5584" style="stop-color:#F0BE7B"/>
			<stop  offset="0.6275" style="stop-color:#FFCB85"/>
			<stop  offset="0.7085" style="stop-color:#EEBC79"/>
			<stop  offset="0.8693" style="stop-color:#C0935B"/>
			<stop  offset="1" style="stop-color:#976F40"/>
		</linearGradient>
		<path class="st5" d="M1639.2,664.9c13.4,32.4-35.4,68.5-77.6,66c-9.8,42.8-7.9,88.6,20.8,88.6c71.5,0.6,105.7-114.9,119.2-161.4
			c1.2-5.5,17.7-4.9,16.5,1.8c-11,66.6-62.3,189.5-145.5,182.7c-100.2-8.6-105.7-191.9,3.7-204.1c4.9-0.6,9.8-1.2,14.7-1.2
			C1611.1,637.4,1630.7,643.5,1639.2,664.9z M1601.4,657.6c-14.1,6.7-28.1,32.4-36.1,61.1c37.3-7.3,61.1-26.9,59.9-45.8
			c-0.6-14.1-8.6-17.7-14.7-17.1C1606.2,655.8,1603.2,657,1601.4,657.6z"/>
	</g>
	<g>
		<linearGradient id="SVGID_6_" gradientUnits="userSpaceOnUse" x1="745.7918" y1="895.0641" x2="2325.2056" y2="677.6884">
			<stop  offset="0" style="stop-color:#BE965D"/>
			<stop  offset="0.2784" style="stop-color:#976F40"/>
			<stop  offset="0.4259" style="stop-color:#C99B61"/>
			<stop  offset="0.5584" style="stop-color:#F0BE7B"/>
			<stop  offset="0.6275" style="stop-color:#FFCB85"/>
			<stop  offset="0.7085" style="stop-color:#EEBC79"/>
			<stop  offset="0.8693" style="stop-color:#C0935B"/>
			<stop  offset="1" style="stop-color:#976F40"/>
		</linearGradient>
		<path class="st6" d="M1872.7,595.9c23.8,9.2,33.6,33.6,31.2,58.1c-2.4,28.1-31.2,225.5-2.4,210.9c37.9-18.3,70.3-180.3,80.1-207.2
			c1.8-6.1,17.7-7.3,17.1,1.8c-1.8,25.7-41.6,228.6-106.3,226.7c-125.9-4.9-18.3-288.5-53.8-260.4c-15.9,12.2-38.5,135.1-68.5,195
			c-8.6,16.5-23.8,13.4-31.8,11.6c-55.6-12.2-53.8-151.6-36.1-189.5c11-22,62.3,4.3,59.3,22.6c-14.7,86.2-7.9,161.4-3.7,146.7
			c30.6-105.1,53.2-215.7,99.6-219.4C1862.3,592.8,1867.2,593.4,1872.7,595.9z"/>
	</g>
	<g>
		<linearGradient id="SVGID_7_" gradientUnits="userSpaceOnUse" x1="751.2895" y1="935.0096" x2="2330.7031" y2="717.6339">
			<stop  offset="0" style="stop-color:#BE965D"/>
			<stop  offset="0.2784" style="stop-color:#976F40"/>
			<stop  offset="0.4259" style="stop-color:#C99B61"/>
			<stop  offset="0.5584" style="stop-color:#F0BE7B"/>
			<stop  offset="0.6275" style="stop-color:#FFCB85"/>
			<stop  offset="0.7085" style="stop-color:#EEBC79"/>
			<stop  offset="0.8693" style="stop-color:#C0935B"/>
			<stop  offset="1" style="stop-color:#976F40"/>
		</linearGradient>
		<path class="st7" d="M2172.2,636.8c-28.7,120.4-25.7,222.5-2.4,223.7c33.6,1.8,69.7-171.1,75.8-202.3c0.6-4.9,18.3-7.9,17.1,2.4
			c-6.1,41.6-38.5,216.4-100.2,225.5c-61.1,9.2-74-70.9-70.3-145.5c-15.3,41.6-37.3,77.6-61.7,81.3c-67.2,9.2-83.1-102.1-46.4-187.6
			c12.2-28.7,66.6-20.8,60.5,2.4c-29.9,116.7-18.9,161.4-6.7,159.5c14.7-1.8,47.1-73.3,61.1-119.8c2.4-17.7,6.1-33,8.6-42.8
			c4.3-12.8,18.3-18.3,32.4-18.3C2157.5,614.8,2175.2,624,2172.2,636.8z"/>
	</g>
</g>
</svg>
