<?xml version="1.0" encoding="UTF-8"?>
<svg id="OBJECTS" xmlns="http://www.w3.org/2000/svg" viewBox="0 0 142.53 144.01">
  <defs>
    <style>
      .cls-1 {
        fill: #fff;
      }

      .cls-2 {
        stroke-width: 1.92px;
      }

      .cls-2, .cls-3, .cls-4 {
        stroke: #452f27;
        stroke-linecap: round;
        stroke-linejoin: round;
      }

      .cls-2, .cls-5, .cls-4 {
        fill: none;
      }

      .cls-6, .cls-3 {
        fill: #452f27;
      }

      .cls-7 {
        fill: #f4f1ea;
      }

      .cls-3 {
        stroke-width: 1.02px;
      }

      .cls-4 {
        stroke-width: 2.28px;
      }
    </style>
  </defs>
  <circle class="cls-4" cx="69.97" cy="72.74" r="44.42"/>
  <path class="cls-4" d="m11.66,31.19C24.64,13,45.92,1.14,69.97,1.14s46.5,12.52,59.37,31.57"/>
  <g>
    <path class="cls-6" d="m15.65,33.94l2.9-3.49c2.12-2.55,4.19-3.64,6.85-1.43,1.57,1.3,2.35,2.46,1.91,4.2l7.58,3.36-2.41,2.9-6.84-3.33-.66.8,5.68,4.72-2.33,2.8-12.69-10.53Zm8.37.89c.98-1.17.6-2.06-.52-3-1.08-.9-2-1.1-2.88-.04l-.75.91,3.51,2.91.65-.78Z"/>
    <path class="cls-6" d="m25.57,23.01l5.77-4.66,1.56,1.93-2.93,2.37,2.57,3.18,2.23-1.8,1.59,1.96-2.23,1.8,3.09,3.83,2.96-2.39,1.55,1.92-5.8,4.68-10.36-12.83Z"/>
    <path class="cls-6" d="m39.86,26.4l2.51-1.9c1.05,1.86,1.86,2.33,2.67,1.89.66-.36.5-.99.23-1.49-.65-1.2-1.65-1.59-3.09-1.89l-1.84-.41c-1.61-.33-3.05-.96-4-2.72-1.33-2.45-.5-4.64,2.01-6,3.1-1.68,4.85.5,5.83,2.17l-2.57,1.83c-.73-1.27-1.27-2.04-2.09-1.6-.59.32-.52,1.09-.25,1.59.58,1.07,1.45,1.35,2.69,1.62l1.77.41c1.83.4,3.53,1.12,4.61,3.13,1.12,2.06.49,4.46-1.81,5.71-2.74,1.48-4.81.82-6.66-2.34Z"/>
    <path class="cls-6" d="m48.42,12.58l-2.36.77-.84-2.57,8.19-2.67.84,2.58-2.34.76,4.28,13.1-3.48,1.14-4.28-13.1Z"/>
    <path class="cls-6" d="m58.64,7.08l4.11-.58,5.36,15.9-3.33.47-1.03-3.37-2.4.34-.08,3.53-3.41.48.77-16.77Zm4.47,10.31l-1.77-6.25.04,6.5,1.73-.25Z"/>
    <path class="cls-6" d="m69.12,17.31l.83-11.35,3.59.26-.87,11.9c-.08,1.04-.04,2.18,1.12,2.27,1.16.08,1.34-1.04,1.42-2.08l.87-11.9,3.62.26-.83,11.35c-.25,3.45-1.49,5.26-5.26,4.99-3.8-.28-4.73-2.24-4.48-5.7Z"/>
    <path class="cls-6" d="m84.9,7.65l4.34,1.34c3.17.98,4.97,2.47,3.95,5.78-.6,1.95-1.36,3.12-3.15,3.38l-.19,8.29-3.6-1.11.45-7.6-.99-.31-2.18,7.07-3.48-1.07,4.86-15.76Zm2.39,8.07c1.46.45,2.14-.24,2.57-1.64.41-1.34.25-2.27-1.07-2.67l-1.13-.35-1.34,4.36.97.3Z"/>
    <path class="cls-6" d="m101.04,13.8l3.61,2.05-5.46,15.86-2.92-1.66,1.24-3.3-2.11-1.19-2.21,2.75-2.99-1.7,10.84-12.81Zm-2.75,10.89l2.41-6.03-3.93,5.17,1.52.86Z"/>
    <path class="cls-6" d="m110.89,19.99l1.92,1.71-2.74,8.18,5.27-5.94,2.25,2-10.95,12.33-1.84-1.64,3.15-8.64-5.68,6.39-2.33-2.07,10.95-12.33Z"/>
    <path class="cls-6" d="m119.61,32.45l-1.51-1.97,2.15-1.65,5.24,6.83-2.15,1.65-1.5-1.95-10.94,8.38-2.23-2.91,10.94-8.38Z"/>
  </g>
  <path class="cls-6" d="m88.77,65.91l4.26-3.91,9.83-9.03c.48-.44.51-1.2.07-1.68-.44-.48-1.2-.52-1.68-.07l-8.95,8.23-2.31-2.51,8.95-8.23c.48-.44.51-1.2.07-1.68s-1.2-.52-1.68-.07l-8.95,8.23-2.31-2.51,8.95-8.23c.48-.44.51-1.2.07-1.68-.44-.48-1.2-.51-1.68-.07l-9.83,9.03-4.26,3.91c-2.22,2.04-2.8,5.18-1.71,7.81l-35.83,31.68c-1.47,1.3-1.58,3.56-.24,5h0c1.34,1.43,3.59,1.49,4.99.12l34.3-33.31c2.53,1.31,5.71.99,7.93-1.05Z"/>
  <path class="cls-3" d="m44.1,42.64l50.38,56.34c.75.87.5,2.31-.56,3.21h0c-1.06.91-2.53.94-3.27.07l-28.96-32.11s-18.98-2.58-19.04-26.8c0-.74,1-1.23,1.44-.72Z"/>
  <path class="cls-5" d="m69.97,24.25c-26.74,0-48.49,21.75-48.49,48.49,0,7.86,1.89,15.28,5.22,21.85l4.56-1.74-4.56,1.74c8.01,15.78,24.39,26.63,43.26,26.63s35.42-10.96,43.38-26.88l-3.93-1.5,3.93,1.5c3.26-6.51,5.1-13.85,5.1-21.61,0-26.74-21.75-48.49-48.49-48.49Z"/>
  <path class="cls-6" d="m116.06,92.85c-8.46,16.91-25.93,28.55-46.09,28.55s-37.45-11.53-45.96-28.29l-7.69,11.5-13.51-3.39c11.83,25.26,37.48,42.8,67.16,42.8s55.51-17.67,67.28-43.07l-14.41,3.65-6.78-11.75Z"/>
  <g>
    <path class="cls-7" d="m37.95,114.86l-.83.83-2.81-2.42-3.39,3.3,1.95,1.67-.85.82-1.95-1.67-4.23,4.13-1.79-1.54,9.32-9.08,4.58,3.95Z"/>
    <path class="cls-7" d="m42.23,120.94l-4.76,5.85c-.49.6-1.13.95-1.9,1.03-.83.09-1.64-.13-2.43-.67l-.64-.43c-.79-.53-1.25-1.17-1.4-1.92-.16-.71.01-1.37.5-1.97l4.74-5.86c.49-.6,1.14-.94,1.96-1.03.81-.08,1.61.14,2.4.68l.63.42c.79.53,1.26,1.16,1.41,1.9.16.73-.01,1.4-.5,2Zm-1.74-1.58c.2-.26.28-.55.24-.86-.04-.32-.2-.57-.47-.75-.27-.18-.58-.25-.93-.19-.35.05-.63.21-.84.46l-5.18,6.39c-.21.25-.3.54-.25.86s.21.58.49.77c.28.19.6.26.94.21s.62-.21.83-.48l5.17-6.4Z"/>
    <path class="cls-7" d="m49.04,124.26l-3.95,6.42c-.41.66-.99,1.08-1.75,1.27-.81.2-1.64.08-2.5-.35l-.69-.35c-.85-.42-1.39-1-1.64-1.72-.25-.69-.17-1.36.24-2.02l3.94-6.43c.41-.66,1.01-1.08,1.8-1.27.79-.19,1.62-.07,2.46.36l.68.34c.85.42,1.4.99,1.65,1.7.25.71.17,1.39-.24,2.05Zm-1.93-1.34c.17-.28.21-.58.13-.89-.08-.31-.27-.54-.56-.68-.29-.15-.61-.17-.95-.07s-.6.29-.77.57l-4.31,7.01c-.18.28-.22.57-.14.88.09.31.28.54.59.7.3.15.62.18.96.09.33-.09.59-.29.76-.58l4.29-7.01Z"/>
    <path class="cls-7" d="m56.22,126.62l-3.04,6.9c-.31.69-.82,1.19-1.54,1.51s-1.43.36-2.14.12l-3.71-1.27,4.79-10.81-.65-.22.48-1.08,4.34,1.48c.71.24,1.21.69,1.5,1.36s.28,1.34-.03,2.02Zm-2.07-1.06c.14-.3.14-.6.02-.9-.13-.3-.35-.5-.67-.61l-.7-.24-4.31,9.75.7.24c.31.11.63.09.95-.06.32-.14.55-.37.69-.67l3.33-7.52Z"/>
    <path class="cls-7" d="m67.91,129.63l-.24,1.16-1.78-.21-.95,4.62.77,1.99.87.1-.24,1.16-2.58-.31-.29-.72c-.68.38-1.55.51-2.59.38-1.01-.12-1.75-.51-2.2-1.16v.02c-.32-.44-.44-.93-.38-1.48,0-.07.02-.13.02-.19l.79-3.87c.14-.67.55-1.22,1.24-1.66-.23-.57-.36-.91-.39-1.02-.1-.35-.13-.71-.09-1.07.1-.8.5-1.42,1.21-1.86.65-.41,1.39-.56,2.21-.46l3.37.4-.24,1.16-2.85-.34c-.85-.1-1.33.28-1.43,1.14-.04.34,0,.66.12.97l1.1,2.84.42-2.06,4.12.49Zm-5.36,5.46l-1.22-3.14-.67,3.3c0,.07-.02.13-.02.19-.09.73.13,1.13.66,1.19.3.04.57-.08.8-.35.18-.23.31-.5.38-.82l.08-.38Z"/>
    <path class="cls-7" d="m79.34,127.54l.04,7.54c0,.75-.26,1.42-.79,2.01-.52.58-1.16.91-1.91.98l-3.9.36-.05-11.83-.68.06v-1.18s4.57-.42,4.57-.42c.75-.07,1.39.14,1.92.63.53.49.8,1.11.8,1.86Zm-2.32-.12c0-.33-.11-.6-.35-.82-.24-.22-.53-.31-.87-.28l-.74.07.05,10.66.74-.07c.33-.03.61-.18.84-.44.24-.26.35-.56.36-.89l-.03-8.23Z"/>
    <path class="cls-7" d="m86.51,129.01c.43.19.71.55.84,1.1l.05.29.55,3.65s.02.09.03.14c.08.33.31.45.68.36l.17,1.17-.97.23c-1.19.28-1.9-.1-2.16-1.15-.02-.07-.03-.14-.03-.21l-.56-3.61c-.01-.06-.03-.11-.04-.15-.1-.41-.34-.57-.71-.48l-1.23.3.93,6.21-2.27.55-1.76-11.69-.67.16-.17-1.15,4.12-.99c.79-.19,1.47-.18,2.05.03.67.25,1.1.74,1.28,1.48.42,1.76.37,3.01-.15,3.76Zm-2.19-3.47c-.04-.23-.16-.41-.34-.52-.18-.12-.4-.15-.64-.09l-1.01.24.64,4.31,1.16-.28c.49-.12.69-.47.6-1.05l-.41-2.61Z"/>
    <path class="cls-7" d="m89.13,121.85l3.18,12.61-2.23.77-3.18-12.61,2.23-.77Z"/>
    <path class="cls-7" d="m96.92,121.36l2.84,7.89c.14.4.39.52.74.38l.4,1.11-.86.4c-.52.24-.99.3-1.41.17-.48-.14-.82-.5-1.01-1.06l-2.83-7.89c-.16-.46-.38-.77-.66-.94-.28-.17-.54-.19-.8-.08l-.92.44,3.97,11.04-2.14.99-4.01-11.12-.64.29-.4-1.11,3.71-1.71c.85-.39,1.64-.5,2.36-.33.81.18,1.36.7,1.66,1.54Z"/>
    <path class="cls-7" d="m102.56,114.39l-.04,6.59.69-.45c.44-.29.87-.41,1.28-.38.46.02.82.24,1.08.64.06.09.11.19.15.3l.04.1h.01s1.73,3.25,1.73,3.25c.2.37.46.46.8.26l.55,1.05-.81.52c-.48.31-.95.43-1.41.35-.45-.08-.82-.38-1.11-.91l-1.78-3.35c-.21-.38-.49-.46-.86-.22l-1.05.68,2.93,5.56-1.98,1.28-5.51-10.46-.58.37-.55-1.05,2.54-1.64,2.32,4.38.04-5.91,1.49-.96Z"/>
    <path class="cls-7" d="m106.64,110.81l.67.97-.86.72c-.45.38-.72.7-.8.96-.15.51-.08.95.23,1.32.29.35.72.59,1.28.71l3.46.77c.84.18,1.55.62,2.13,1.32.77.93,1.04,1.97.79,3.12-.2.98-.78,1.87-1.72,2.65l-1.34,1.12-.66-.98,1.16-.97c.53-.44.84-.91.92-1.4.08-.49-.04-.93-.36-1.31-.34-.41-.83-.69-1.46-.84l-4.01-1.02c-.56-.14-1.04-.45-1.43-.92-.69-.83-.92-1.78-.69-2.86.19-.91.69-1.7,1.5-2.37l1.19-.99Z"/>
  </g>
  <polygon class="cls-6" points="68.62 35.46 71.02 42.83 78.77 42.83 72.5 47.38 74.89 54.76 68.62 50.2 62.35 54.76 64.75 47.38 58.48 42.83 66.23 42.83 68.62 35.46"/>
  <polygon class="cls-6" points="98.06 71.82 99.53 76.37 104.31 76.37 100.45 79.18 101.92 83.72 98.06 80.91 94.19 83.72 95.66 79.18 91.8 76.37 96.58 76.37 98.06 71.82"/>
  <polygon class="cls-6" points="68.62 95.3 70.1 99.85 74.88 99.85 71.01 102.66 72.49 107.21 68.62 104.4 64.76 107.21 66.23 102.66 62.37 99.85 67.15 99.85 68.62 95.3"/>
  <polygon class="cls-6" points="41.73 71.82 43.2 76.37 47.98 76.37 44.12 79.18 45.59 83.72 41.73 80.91 37.86 83.72 39.33 79.18 35.47 76.37 40.25 76.37 41.73 71.82"/>
  <path class="cls-1" d="m26.5,113.8c0,1.03-.84,1.87-1.87,1.87s-1.87-.84-1.87-1.87.84-1.87,1.87-1.87,1.87.84,1.87,1.87Z"/>
  <path class="cls-1" d="m116.27,113.8c0,1.03-.84,1.87-1.87,1.87s-1.87-.84-1.87-1.87.84-1.87,1.87-1.87,1.87.84,1.87,1.87Z"/>
  <line class="cls-2" x1="26.5" y1="63.57" x2=".96" y2="63.57"/>
  <line class="cls-2" x1="26.5" y1="80.11" x2=".96" y2="80.11"/>
  <line class="cls-2" x1="141.57" y1="63.57" x2="114.18" y2="63.57"/>
  <line class="cls-2" x1="141.57" y1="80.11" x2="114.18" y2="80.11"/>
  <g>
    <path class="cls-6" d="m2.67,67.11h4.38v1.47h-2.22v2.42h1.7v1.49h-1.7v2.91h2.25v1.46H2.67v-9.74Z"/>
    <path class="cls-6" d="m7.83,73.9l1.84-.28c.02,1.26.31,1.73.85,1.73.45,0,.54-.37.54-.71,0-.81-.41-1.29-1.07-1.85l-.84-.73c-.75-.63-1.31-1.36-1.31-2.54,0-1.65,1.05-2.55,2.73-2.55,2.08,0,2.38,1.62,2.42,2.77l-1.85.23c-.02-.87-.08-1.42-.64-1.42-.4,0-.58.42-.58.76,0,.72.37,1.11.94,1.6l.81.71c.84.72,1.51,1.58,1.51,2.92s-1,2.45-2.55,2.45c-1.84,0-2.73-.93-2.8-3.09Z"/>
    <path class="cls-6" d="m15.11,68.71h-1.47v-1.6h5.09v1.6h-1.46v8.14h-2.16v-8.14Z"/>
    <path class="cls-6" d="m19.42,74.99h1.85v1.85h-1.85v-1.85Z"/>
  </g>
  <g>
    <path class="cls-6" d="m118.24,75.43l2.33-3.58c.52-.79,1.03-1.49,1.03-2.33,0-.55-.24-.83-.62-.83-.66,0-.82.59-.82,1.33v.48h-1.95v-.52c0-1.72.77-3.01,2.73-3.01,1.74,0,2.65.96,2.65,2.57,0,1.18-.64,2.04-1.33,3.07l-1.78,2.66h2.85v1.58h-5.09v-1.42Z"/>
    <path class="cls-6" d="m124.58,74.24v-4.41c0-1.71.83-2.86,2.66-2.86s2.65,1.15,2.65,2.86v4.41c0,1.64-.91,2.79-2.65,2.79s-2.66-1.13-2.66-2.79Zm3.26-.05v-4.32c0-.4,0-1.12-.6-1.12s-.6.72-.6,1.12v4.32c0,.37.05,1.05.6,1.05s.6-.67.6-1.05Z"/>
    <path class="cls-6" d="m132.15,69.09c-.35.19-.96.4-1.33.59v-1.49c.35-.18,1.44-.75,1.77-1.08h1.58v9.74h-2.01v-7.76Z"/>
    <path class="cls-6" d="m135.89,74.48v-.16h1.88c0,.78.06,1.15.61,1.15s.62-.43.62-1.94v-.87c-.2.34-.66.52-1.19.54-1.55.04-2.12-1.32-2.12-2.92,0-2.03.71-3.32,2.67-3.32s2.68,1.23,2.68,3.09v3.63c0,1.9-.53,3.29-2.68,3.29-1.88,0-2.48-.88-2.48-2.51Zm3.11-3.19v-1.59c0-.66-.1-1.25-.64-1.25s-.61.57-.61,1.65c0,.95.01,1.58.64,1.58.31,0,.5-.22.61-.38Z"/>
  </g>
</svg>