<?xml version="1.0" encoding="utf-8"?>
<!-- Generator: Adobe Illustrator 22.1.0, SVG Export Plug-In . SVG Version: 6.00 Build 0)  -->
<svg version="1.1" id="Слой_1" xmlns="http://www.w3.org/2000/svg" xmlns:xlink="http://www.w3.org/1999/xlink" x="0px" y="0px"
	 viewBox="0 0 2230.3 1520.6" style="enable-background:new 0 0 2230.3 1520.6;" xml:space="preserve">
<style type="text/css">
	.st0{fill:#D3A868;}
	.st1{fill:#231F20;}
	.st2{fill:#F1F2F2;}
	.st3{fill:#FFDD71;}
	.st4{fill:#41B8E1;}
	.st5{display:none;}
	.st6{display:inline;fill:#FFA22A;}
	.st7{display:inline;fill:#4A2C76;}
	.st8{display:inline;fill:#231F20;}
	.st9{display:inline;fill:#414042;}
	.st10{display:inline;}
	.st11{fill:#FFCCB2;}
	.st12{fill:#FF4A1E;}
	.st13{fill:#FFFFFF;}
	.st14{display:inline;fill:#6139BC;}
	.st15{display:inline;fill:#FFCCB2;}
	.st16{display:inline;fill:#FFB792;}
	.st17{display:inline;fill:#EAEAEA;}
	.st18{display:inline;fill:#FFFFFF;}
	.st19{display:inline;fill:#FF9F23;}
	.st20{fill:#58595B;}
	.st21{fill:#414042;}
	.st22{fill:#F2AC8C;}
	.st23{fill:#808285;}
	.st24{fill:#A7A9AC;}
	.st25{fill:#E6E7E8;}
	.st26{fill:#6D6E71;}
	.st27{fill:#FCEBE3;}
	.st28{fill:#744DA5;}
	.st29{fill:#4A2C76;}
	.st30{fill:#6139BC;}
	.st31{fill:#FFB893;}
	.st32{fill:#C8D1CE;}
	.st33{fill:#E5E9E7;}
	.st34{fill:#FF7042;}
</style>
<g>
	<g>
		<g>
			<g>
				<g>
					<path class="st0" d="M138.2,1515c0,0-264-358-44.6-745.6c194.6-343.9,421.6-320.4,588-180.8c70.9,59.4,275.4,7.3,449.4-342.6
						c237.3-477.2,1059.8-187.8,909.9,546.4c-72.6,355.3,220.9,368.2,71.4,723.4L138.2,1515z"/>
					<path class="st1" d="M2228.1,1518.8H2.2c-1.2,0-2.2-1-2.2-2.2v-1.7c0-1.2,1-2.2,2.2-2.2h2225.9c1.2,0,2.2,1,2.2,2.2v1.7
						C2230.3,1517.8,2229.3,1518.8,2228.1,1518.8z"/>
				</g>
			</g>
			
				<ellipse transform="matrix(0.7471 -0.6647 0.6647 0.7471 -139.2346 321.4067)" class="st0" cx="352.8" cy="343.7" rx="60.2" ry="83.7"/>
			<path class="st0" d="M2020.7,244.8c-10.2-45.1,7.9-87.5,40.3-94.9c32.4-7.3,67,23.3,77.2,68.3c10.2,45.1-7.9,87.5-40.3,94.9
				C2065.5,320.5,2030.9,289.9,2020.7,244.8z"/>
		</g>
	</g>
	<g>
		<g>
			<path class="st2" d="M1348.9,1367.3c0,0-49.3-57.5-3-94c0,0,33.8-20.4,61.3-18.8c0,0-39,65.4-26.4,72
				c12.6,6.5,38.2-76.1,38.2-76.1s76.9-7.5,101.6,4.4c0,0-65.7,53.8-51.9,57c13.8,3.2,84.8-49.6,84.8-49.6s71.5,12.2,67.7,55.8
				c-3.8,43.6-28.5,57.1-39.3,56c-10.8-1.2-74.2-25.4-75.6-16.5c-1.4,8.9,36.8,37.9,63.5,39.2c0,0-50.4,55.6-84,39.6
				c-33.5-16.1-36.4-41.5-57.3-51c-20.9-9.5-38.7-9.5-30.1,0.2c8.6,9.7,46.4,19.2,58.4,40.3c12,21.1,22.7,35.4-12,30.2
				c-34.7-5.2-91.1-30.6-93.5-59.7C1348.9,1367.3,1348.9,1367.3,1348.9,1367.3z"/>
			<g>
				<path class="st2" d="M1586.1,1319.2c0,0-194.3-7.5-237.2,48.1c0,0-9.5,28.4-38.7,54.3l-4.6,12.4c0,0,33.7-35.5,45.7-37.7
					C1351.4,1396.3,1332.5,1327.5,1586.1,1319.2z"/>
				<path class="st2" d="M1310.2,1421.6c0,0-41.7,30.8-44.6,86l7.6,0.7c0,0,13.3-57,37.4-79.3
					C1334.6,1406.7,1310.2,1421.6,1310.2,1421.6z"/>
			</g>
		</g>
		<g>
			<path class="st3" d="M841.1,897.6c0,0,75.4-42.2,40.2-99.5c0,0-28.1-35.2-58.3-44.2c0,0,16.1,85.4,0,87.5
				c-16.1,2-11.1-96.5-11.1-96.5s-79.4-38.2-110.6-35.2c0,0,49.3,83.4,33.2,81.4c-16.1-2-71.4-86.4-71.4-86.4s-81.4-15.1-94.5,33.2
				c-13.1,48.3,8,72.4,20.1,75.4c12.1,3,89.5,2,87.5,12.1c-2,10.1-54.3,26.1-83.4,17.1c0,0,32.2,79.4,74.4,75.4
				c42.2-4,55.3-30.2,81.4-32.2c26.1-2,45.2,5,32.2,12.1c-13.1,7-57.3,2.3-78.4,20.3c-21.1,17.9-38.2,29,1,37
				c39.2,8,109.6,3,123.6-27.1C841.1,897.6,841.1,897.6,841.1,897.6z"/>
			<g>
				<path class="st4" d="M605.9,752.8c0,0,211.1,68.4,235.2,144.7c0,0-1,34.2,20.1,73.4v15.1c0,0-22.1-51.3-34.2-58.3
					C827,927.8,874.3,861.4,605.9,752.8z"/>
				<path class="st4" d="M861.2,971c0,0,32.6,49.4,14,109.6l-8.4-2.2c0,0,8.1-66.3-8.9-99.6C840.9,945.4,861.2,971,861.2,971z"/>
			</g>
		</g>
		<g>
			<path class="st3" d="M1301.3,1234.4c0,0-103.3-57.9-55.1-136.4c0,0,38.6-48.2,79.9-60.6c0,0-22,117.1,0,119.9
				c22,2.8,15.2-132.3,15.2-132.3s108.9-52.4,151.6-48.2c0,0-67.5,114.4-45.5,111.6c22-2.8,97.8-118.5,97.8-118.5
				s111.6-20.7,129.5,45.5c17.9,66.1-11,99.2-27.6,103.3c-16.5,4.1-122.6,2.8-119.9,16.5c2.8,13.8,74.4,35.8,114.4,23.4
				c0,0-44.1,108.9-102,103.3c-57.9-5.5-75.8-41.3-111.6-44.1c-35.8-2.8-62,6.9-44.1,16.5c17.9,9.6,78.5,3.2,107.5,27.8
				c28.9,24.6,52.4,39.8-1.4,50.8c-53.7,11-150.2,4.1-169.5-37.2C1301.3,1234.4,1301.3,1234.4,1301.3,1234.4z"/>
			<g>
				<path class="st4" d="M1623.7,1036c0,0-289.4,93.7-322.4,198.4c0,0,1.4,46.8-27.6,100.6v20.7c0,0,30.3-70.3,46.8-79.9
					C1320.6,1275.8,1255.8,1184.8,1623.7,1036z"/>
				<path class="st4" d="M1273.7,1335c0,0-44.6,67.8-19.2,150.3l11.5-3.1c0,0-11.1-90.9,12.2-136.6
					C1301.6,1299.9,1273.7,1335,1273.7,1335z"/>
			</g>
		</g>
		<g class="st5">
			<path class="st6" d="M329.6,950.7c0,0-18,15,1.8,34c0,0-17,5.9-22.5,1.9c0,0,1.2,2.1,2.2,2.9c0,0-17.4,1.6-24.9-3.5
				c-7.5-5.1-7.8-94.7,41.3-87.3c0,0,40.9-5.3,39.7,42.4c-1.2,47.7,14.3,46.9,14.3,46.9s-4.2,2.4-6.3,2.5c0,0-3.1-1-3.8-2.6
				c0,0,0.7,2.6,1.6,3.4c0,0-16.7,2.5-25.4-3.4C338.8,982.1,327.8,960.6,329.6,950.7z"/>
			<path class="st7" d="M327,975.1c0,0-14-13.3-19.8-26.3c-4.1-9.2-24.1-46.6,13.2-50.5c0,0,26.6-1.3,38.1,2.9
				c9.1,3.3,23.3,11.9,18.5,46.3l-0.6,11.4L327,975.1z"/>
			<path class="st8" d="M284.4,1240.8c-1.6-39.3-5-73.4-9.2-97.3c-6.6-38-12.5-59.8-12.5-60.1c-0.9-3.3-13.4-16.9-41.2-16.4
				c-27.8,0.4-25.2,18.1-25.2,18.1l0,0c0,0.6,0.1,1.2,0.2,1.6c0.3,0.9,25.8,93.4,24.7,212.8c0,1.7-0.2,4.6-0.1,6.5
				c0,0,64.4,1.7,64.4,0C287.9,1295.6,286.8,1266.7,284.4,1240.8z"/>
			<path class="st9" d="M292.5,1299c0,1.7-0.9,3-2,3h0c-1.1,0-1.9-1.4-1.9-3h-55.2c0,1.7-0.9,3-2,3h0c-1.1,0-2-1.4-1.9-3.1
				c0.3-34.2-1.6-66.1-4.6-94.3c-7.3-70.3-20.9-117.2-21.1-117.9c-0.1-0.4-0.2-1-0.2-1.6c0,0-2.6-17.7,25.2-18.1
				c27.8-0.4,40.3,13.1,41.2,16.4c0.1,0.2,3.4,12.5,7.8,34.8c1.5,7.4,3.1,15.8,4.7,25.3c4.1,23.8,7.6,58,9.2,97.3
				C293.9,1266.7,294.8,1288.5,292.5,1299z"/>
			<path class="st8" d="M225.4,1302h216.4c0,0-5-20.4-130.3-17.4C222.7,1286.7,225.4,1302,225.4,1302z"/>
			<g class="st10">
				<path class="st1" d="M207.8,1514.9c25.1-127,18.6-204.9,18.6-205.9c-0.1-2,3.5-3.7,5.5-3.8c2,0,10.6-0.6,11.6,1.1
					c1.3,2.2,6.4,98.2-31,208.6H207.8z"/>
			</g>
			<g class="st10">
				<path class="st1" d="M409.8,1514.9c-25.1-127-18.6-204.9-18.6-205.9c0.1-2-3.5-3.7-5.5-3.8c-2,0-10.6-0.6-11.6,1.1
					c-1.3,2.2-6.4,98.2,31,208.6H409.8z"/>
			</g>
			<g class="st10">
				<path class="st1" d="M449.8,1514.9c-25.1-127-18.6-204.9-18.6-205.9c0.1-2-3.5-3.7-5.5-3.8c-2,0-10.6-0.6-11.6,1.1
					c-1.3,2.2-6.4,98.2,31,208.6H449.8z"/>
			</g>
			<g class="st10">
				<path class="st1" d="M248.1,1514.9c25.1-127,18.6-204.9,18.6-205.9c-0.1-2,3.5-3.7,5.5-3.8c2,0,10.6-0.6,11.6,1.1
					c1.3,2.2,6.4,98.2-31,208.6H248.1z"/>
			</g>
			<path class="st8" d="M441.2,1308.5H226.1c-2.8,0-5.1-2.3-5.1-5.1v-1.6c0-2.8,2.3-5.1,5.1-5.1h215.1c2.8,0,5.1,2.3,5.1,5.1v1.6
				C446.3,1306.2,444,1308.5,441.2,1308.5z"/>
			<g class="st10">
				<path class="st11" d="M556.4,1520.4c-7.9,0-24.2,2-31.4-6.7c-7.2-8.7-22.6-13-24.6-15.8c-1.1-1.5,0.4-8.2,1.9-14l0,0
					c3.9-5.3-2.4-12.5-2.4-12.5l20.7,1.4c0,0,9.9,13.1,17.1,23.6c2.8,4,11.1,10,16.1,11.8c6.5,2.3,12.9,3.7,15.3,6.1
					C573.4,1518.4,564.3,1520.4,556.4,1520.4z"/>
				<path class="st12" d="M556.4,1520.4c-7.9,0-24.2,2-31.4-6.7c-7.2-8.7-22.6-13-24.6-15.8c-1.1-1.5-1.1-7.6,1.9-14l0,0
					c0,0,13,5.3,20.4,15.6c7.4,10.2,27,14.7,31.1,8.8c0,0,0,0,0.1-0.1c6.5,2.3,12.9,3.7,15.3,6.1
					C573.4,1518.4,564.3,1520.4,556.4,1520.4z"/>
				<polygon class="st13" points="500.4,1498 508.4,1514.9 513.6,1515.5 512.9,1500.4 				"/>
			</g>
			<path class="st7" d="M345.3,1197.6c0,0,115.2,35.7,140,56.3c24.8,20.6,42.1,225.1,42.1,225.1s-3,1.8-9,1.7
				c-5.6-0.1-17.5-5-17.5-5s-50.7-97.1-52.1-120.1c-1.4-23,2.2-42.8-7.7-44.7c-9.9-1.8-136.6-2.5-151.1-38.2
				c-14.5-35.7,5.4-66.5,5.4-66.5L345.3,1197.6z"/>
			<g class="st10">
				<path class="st11" d="M529.6,1520.4c-7.9,0-24.2,2-31.4-6.7c-7.2-8.7-22.6-13-24.6-15.8c-1.1-1.5,0.4-8.2,1.9-14l0,0
					c3.9-5.3-2.4-12.5-2.4-12.5l20.7,1.4c0,0,9.9,13.1,17.1,23.6c2.8,4,11.1,10,16.1,11.8c6.5,2.3,12.9,3.7,15.3,6.1
					C546.6,1518.4,537.5,1520.4,529.6,1520.4z"/>
				<path class="st12" d="M529.6,1520.4c-7.9,0-24.2,2-31.4-6.7c-7.2-8.7-22.6-13-24.6-15.8c-1.1-1.5-1.1-7.6,1.9-14l0,0
					c0,0,13,5.3,20.4,15.6c7.4,10.2,27,14.7,31.1,8.8c0,0,0,0,0.1-0.1c6.5,2.3,12.9,3.7,15.3,6.1
					C546.6,1518.4,537.5,1520.4,529.6,1520.4z"/>
				<polygon class="st12" points="473.7,1498 481.6,1514.9 486.9,1515.5 486.1,1500.4 				"/>
			</g>
			<path class="st14" d="M315.1,1208.4c0,0,118.7,24.9,143.5,45.5c24.8,20.6,42.1,225.1,42.1,225.1s-3,1.8-9,1.7
				c-5.6-0.1-17.5-5-17.5-5s-50.7-97.1-52.1-120.1c-1.4-23,2.2-42.8-7.7-44.7c-9.9-1.8-136.6-2.5-151.1-38.2
				c-14.5-35.7,5.4-66.5,5.4-66.5L315.1,1208.4z"/>
			<path class="st15" d="M359.7,1016.9c0.1,0.1-13.8,7.3-24.3,4.4c-9.9-2.7-16.3-15.5-16.2-15.5c4.2-0.8,5.4-6.6,5.3-31.3l1.9,0.4
				l31.8,6.3c0,0-0.7,10-0.7,19.4C357.4,1008.6,357.9,1016.1,359.7,1016.9z"/>
			<path class="st16" d="M358.2,981.2c0,0-0.7,10-0.7,19.4c-17.8-0.5-27.2-16.7-31.1-25.7L358.2,981.2z"/>
			<path class="st15" d="M364.1,990.2c0,0-42.1,0.7-42.1-25.5c0-26.2-5.5-43.8,21.4-45.4c26.9-1.6,32.1,8.4,34.3,17.2
				C379.8,945.2,375.1,989.3,364.1,990.2z"/>
			<path class="st17" d="M265.9,1130.2c-4.2-17.4,10-51.2,24.7-79.2c13.4-25.4,27.3-45.9,28.5-45.2c35.3,20.9,38.5,3.5,38.5,3.5l0,0
				c0,0,32.1,4.3,41.1,19.9c11.3,19.4,23.4,73.5,35.5,83.8c-1.9,5.7-1.1,8.7,0.9,15.7c0.4,1.5,0.9,2.9,1.4,4.3c1.8,5,4.1,9,6.1,12.5
				c-6.1,3.7-18,10.8-26.7,5.7c-13.3-7.8-23.7-31.5-29.6-41c0,0,0-0.1-0.1-0.1c-12.7,72,4.6,88.3-4.2,95.9c-9.2,8-22.4-3.8-51.5,8.8
				c-19,8.3-45.5,20.2-63.3,22.3c-9.3,1.1-16.3-0.5-18.6-6.8C242.2,1212,273.9,1163.4,265.9,1130.2z"/>
			<path class="st18" d="M354.7,974.3c0,0,0.8,3.3,9.1,2.8c0,0,7-0.4,6.7-4.1C370.6,973,363.8,970.4,354.7,974.3z"/>
			<path class="st17" d="M242.8,1155.8c9.4-13.3,19.3-20.3,25.7-23.8c-1.5-3.8,39.7-54.3,39.7-62.1c0-7.9,11-64,11-64
				s-34.3,2.1-46.2,18.7C258.1,1045.2,227.3,1125,242.8,1155.8z"/>
			<path class="st15" d="M268.5,1132l68.6,17.9l-6.4,11.5c0,0-83.4-0.6-87.9-5.7C238.3,1150.7,268.5,1132,268.5,1132z"/>
			<path class="st19" d="M386.3,1110.3c5.8,9.4,16.2,33.2,29.6,41c8.7,5.1,20.6-2,26.7-5.7c-2-3.5-4.2-7.5-6.1-12.5
				c-4.9,1.1-10.9,2.6-14.7,3.7C414.3,1139.1,386.3,1110.3,386.3,1110.3z"/>
			<g class="st10">
				<polygon class="st20" points="379.4,1100.9 342.7,1182.3 429.7,1190.5 463.9,1107.8 				"/>
				<path class="st1" d="M463.9,1107.8l40.6-25.8l-40.6,88.8l-34.2,19.7C431.5,1186.1,463.9,1107.8,463.9,1107.8z"/>
			</g>
			<path class="st15" d="M337.1,1149.9c0,0,12.7-5.6,15.9-8.4c2.1-1.8,1.9,0.8,1.7,1.5c-0.4,1.4-0.9,4.4-4.6,6.8
				C344.7,1153.2,337.1,1149.9,337.1,1149.9z"/>
			<path class="st7" d="M359.8,909.9c0,0-13.4,37.7-32.7,43.8c-19.3,6.1-25.5-1.6-25.5-1.6s14.4-12.7,16.3-33.7
				C317.9,918.3,349.3,894.2,359.8,909.9z"/>
			<path class="st7" d="M356.8,912.8c0,0,9.9,7.1,12.7,14.3c2.7,7.3,4.6,22.4,9,21.7c0,0,8.3-23.7-3.2-36.2
				C363.1,899.4,356.8,912.8,356.8,912.8z"/>
			<path class="st7" d="M358.6,913.8c0,0-7.1,36.1-31.2,48.9c0,0,23.5-23.2,24.3-46.9C352.6,892.2,358.6,913.8,358.6,913.8z"/>
			<path class="st7" d="M286.2,986c7.5,5.1,24.9,3.5,24.9,3.5c-1-0.9-2.2-3-2.2-3c10.3,5.1,30.5-4.8,30.5-4.8
				c-17.9,0.1-17.9-25.8-12.3-28.1c-0.8-19.3,0.7-43.9,1.5-55c-0.8,0-1.2,0.1-1.2,0.1C278.4,891.4,278.7,981,286.2,986z"/>
			<path class="st15" d="M337.1,1149.9c0,0,22.3-4.2,27.2-3.2c4.9,1.1,15.9,5.8,16.7,6.8c0.8,1-3.2,1.6-6.1,0.4
				c-3.7-1.5-9.8-0.9-9.8-0.9s11.8,3.9,14.7,5.5c0.3,0.2,0.3,0.6,0,0.8c-0.8,0.5-2.7,0.7-5.3,0c-3.8-0.9-10.5-1.5-10.5-1.5l13.5,4.4
				c0.2,0.1,0.3,0.2,0.3,0.4c-0.1,0.7-1.3,1.2-4.5,1c-2.5-0.1-10.8-2.3-10.8-2.3l7.1,4.7c0,0-1.9,1.1-5.6-0.5
				c-2.5-1.1-10.1-3.9-12-3.7c-1.8,0.2-11.3,2.8-15.4,1.5c-4.1-1.3-5.9-1.9-5.9-1.9L337.1,1149.9z"/>
		</g>
		<g class="st5">
			<g class="st10">
				<path class="st21" d="M311.7,1514.9c2,0,3.6-1.4,4-3.3l19.5-110.6l28.1-159l7.8-44.5l-20-0.6l-3.5,25.8l-24.3,181.4l-14.4,107.5
					C308.6,1513.4,309.9,1514.9,311.7,1514.9z"/>
			</g>
			<path class="st8" d="M347.6,1222.9c12.9,5.7,15.6,19.2,15.6,19.2l7.8-44.5l-20-0.6L347.6,1222.9z"/>
			<g class="st10">
				<path class="st21" d="M808.7,1514.9c-2,0-3.6-1.4-4-3.3l-19.5-110.6l-28.1-159l-7.8-44.5l20-0.6l3.5,25.8l24.3,181.4l14.4,107.5
					C811.8,1513.4,810.5,1514.9,808.7,1514.9z"/>
			</g>
			<path class="st8" d="M772.8,1222.9c-12.9,5.7-15.6,19.2-15.6,19.2l-7.8-44.5l20-0.6L772.8,1222.9z"/>
			<path class="st9" d="M296.4,1215.1H812c5.7,0,10.3-4.6,10.3-10.3v-1.6c0-5.7-4.6-10.3-10.3-10.3H296.4c-5.7,0-10.3,4.6-10.3,10.3
				v1.6C286.1,1210.4,290.8,1215.1,296.4,1215.1z"/>
		</g>
		<path class="st22" d="M1368.5,1237.7h-97.7c-2.7,0-4.9-2.2-4.9-4.9l0,0c0-2.7,2.2-4.9,4.9-4.9h97.7c2.7,0,4.9,2.2,4.9,4.9l0,0
			C1373.4,1235.5,1371.2,1237.7,1368.5,1237.7z"/>
		<path class="st22" d="M1368.5,1256.9h-97.7c-2.7,0-4.9-2.2-4.9-4.9l0,0c0-2.7,2.2-4.9,4.9-4.9h97.7c2.7,0,4.9,2.2,4.9,4.9l0,0
			C1373.4,1254.7,1371.2,1256.9,1368.5,1256.9z"/>
		<g>
			<path class="st23" d="M1389,426v1058.1c0,16.3-13.2,29.7-29.4,30.2c-0.3,0-0.5,0-0.8,0H829.7c-16.6,0-30.2-13.6-30.2-30.2V426
				c0-16.6,13.6-30.2,30.2-30.2h529.1C1375.5,395.9,1389,409.4,1389,426z"/>
			<path class="st24" d="M1420.2,426v1058.1c0,16.6-13.6,30.2-30.2,30.2H860.9c-16.6,0-30.2-13.6-30.2-30.2V426
				c0-16.6,13.6-30.2,30.2-30.2H1390C1406.6,395.9,1420.2,409.4,1420.2,426z"/>
			<g>
				<path class="st25" d="M1211.8,438.2h-153.2c-3.3,0-6-2.7-6-6l0,0c0-3.3,2.7-6,6-6h153.2c3.3,0,6,2.7,6,6l0,0
					C1217.8,435.5,1215.1,438.2,1211.8,438.2z"/>
				<path class="st25" d="M1031.4,438.2L1031.4,438.2c-3.3,0-6-2.7-6-6l0,0c0-3.3,2.7-6,6-6l0,0c3.3,0,6,2.7,6,6l0,0
					C1037.4,435.5,1034.7,438.2,1031.4,438.2z"/>
			</g>
			<path class="st23" d="M1171.2,1452.5c0,10.6-4.3,20.1-11.2,27.1c-7,7-16.6,11.4-27.3,11.4c-21.2,0-38.5-17.2-38.5-38.5
				c0-13.7,7.1-25.6,17.8-32.5c6-3.8,13-6,20.6-6C1154,1414.1,1171.2,1431.3,1171.2,1452.5z"/>
			<rect x="866" y="464.8" class="st1" width="522.7" height="930.4"/>
			<path class="st26" d="M1160.1,1479.6c-7,7-16.6,11.4-27.3,11.4c-21.2,0-38.5-17.2-38.5-38.5c0-13.7,7.1-25.6,17.8-32.5
				C1115.9,1436.4,1127.1,1463.8,1160.1,1479.6z"/>
		</g>
		<path class="st0" d="M1389,540.1v366H891.2c-5.6,0-10.1-4.8-10.1-10.8V550.9c0-5.9,4.6-10.8,10.1-10.8H1389z"/>
		<path class="st0" d="M1247,979.7v344.5c0,5.9-4.1,10.8-9.2,10.8H866v-366h371.8C1242.9,968.9,1247,973.8,1247,979.7z"/>
		<path class="st1" d="M1617.8,520.5v344.5c0,5.9-4.8,10.8-10.8,10.8H909.4c-5.9,0-10.8-4.8-10.8-10.8V520.5
			c0-5.9,4.8-10.8,10.8-10.8H1607C1612.9,509.7,1617.8,514.5,1617.8,520.5z"/>
		<path class="st2" d="M1617.8,520.5v344.5c0,5.9-5.6,10.8-12.5,10.8h-347v-366h347C1612.1,509.7,1617.8,514.5,1617.8,520.5z"/>
		<g>
			<g>
				<path class="st0" d="M1463.9,557.3h-130.6c-2.2,0-3.9-1.8-3.9-3.9l0,0c0-2.2,1.8-3.9,3.9-3.9h130.6c2.2,0,3.9,1.8,3.9,3.9l0,0
					C1467.8,555.6,1466.1,557.3,1463.9,557.3z"/>
			</g>
			<g>
				<path class="st0" d="M1463.9,572.4h-130.6c-2.2,0-3.9-1.8-3.9-3.9l0,0c0-2.1,1.8-3.9,3.9-3.9h130.6c2.2,0,3.9,1.8,3.9,3.9l0,0
					C1467.8,570.6,1466.1,572.4,1463.9,572.4z"/>
			</g>
			<path class="st0" d="M1309.9,558.2h-3.7c-2.4,0-4.4-2-4.4-4.4v-0.7c0-2.4,2-4.4,4.4-4.4h3.7c2.4,0,4.4,2,4.4,4.4v0.7
				C1314.3,556.2,1312.3,558.2,1309.9,558.2z"/>
		</g>
		<g>
			<g>
				<path class="st0" d="M1463.9,612.8h-130.6c-2.2,0-3.9-1.8-3.9-3.9l0,0c0-2.2,1.8-3.9,3.9-3.9h130.6c2.2,0,3.9,1.8,3.9,3.9l0,0
					C1467.8,611,1466.1,612.8,1463.9,612.8z"/>
			</g>
			<g>
				<path class="st0" d="M1463.9,627.8h-130.6c-2.2,0-3.9-1.8-3.9-3.9l0,0c0-2.1,1.8-3.9,3.9-3.9h130.6c2.2,0,3.9,1.8,3.9,3.9l0,0
					C1467.8,626.1,1466.1,627.8,1463.9,627.8z"/>
			</g>
			<path class="st0" d="M1309.9,613.6h-3.7c-2.4,0-4.4-2-4.4-4.4v-0.7c0-2.4,2-4.4,4.4-4.4h3.7c2.4,0,4.4,2,4.4,4.4v0.7
				C1314.3,611.6,1312.3,613.6,1309.9,613.6z"/>
		</g>
		<g>
			<g>
				<path class="st0" d="M1463.9,667.6h-130.6c-2.2,0-3.9-1.8-3.9-3.9l0,0c0-2.1,1.8-3.9,3.9-3.9h130.6c2.2,0,3.9,1.8,3.9,3.9l0,0
					C1467.8,665.9,1466.1,667.6,1463.9,667.6z"/>
			</g>
			<g>
				<path class="st0" d="M1463.9,682.7h-130.6c-2.2,0-3.9-1.8-3.9-3.9l0,0c0-2.2,1.8-3.9,3.9-3.9h130.6c2.2,0,3.9,1.8,3.9,3.9l0,0
					C1467.8,680.9,1466.1,682.7,1463.9,682.7z"/>
			</g>
			<path class="st0" d="M1309.9,668.5h-3.7c-2.4,0-4.4-2-4.4-4.4v-0.7c0-2.4,2-4.4,4.4-4.4h3.7c2.4,0,4.4,2,4.4,4.4v0.7
				C1314.3,666.5,1312.3,668.5,1309.9,668.5z"/>
		</g>
		<g>
			<path class="st1" d="M1273.3,943.5V1288c0,5.9-4.8,10.8-10.8,10.8H565c-5.9,0-10.8-4.8-10.8-10.8V943.5c0-5.9,4.8-10.8,10.8-10.8
				h697.5C1268.5,932.7,1273.3,937.6,1273.3,943.5z"/>
			<path class="st2" d="M1273.3,943.5V1288c0,5.9-4.9,10.8-10.8,10.8H952.3v-366h310.3C1268.5,932.7,1273.3,937.6,1273.3,943.5z"/>
			<path class="st27" d="M647.8,992.5c-21.4,0-38.7,17.3-38.7,38.7c0,21.4,17.3,38.7,38.7,38.7s38.7-17.3,38.7-38.7
				C686.5,1009.8,669.2,992.5,647.8,992.5z M674.6,1032.4h-26.8c-0.7,0-1.2-0.6-1.2-1.2v-28.8c0-0.7,0.6-1.2,1.2-1.2
				c0.7,0,1.2,0.6,1.2,1.2v27.6h25.6c0.7,0,1.2,0.6,1.2,1.2C675.8,1031.8,675.3,1032.4,674.6,1032.4z"/>
			<path class="st27" d="M643.9,1142.2c-19.2,0-34.8,15.6-34.8,34.8s34.8,62,34.8,62s34.8-42.8,34.8-62S663.2,1142.2,643.9,1142.2z
				 M643.9,1192.9c-9,0-16.3-7.3-16.3-16.3s7.3-16.3,16.3-16.3c9,0,16.3,7.3,16.3,16.3S652.9,1192.9,643.9,1192.9z"/>
			<g>
				<path class="st27" d="M839.5,1163.6H712.7c-3.2,0-5.8-2.6-5.8-5.8l0,0c0-3.2,2.6-5.8,5.8-5.8h126.7c3.2,0,5.8,2.6,5.8,5.8l0,0
					C845.3,1161,842.7,1163.6,839.5,1163.6z"/>
			</g>
			<g>
				<path class="st27" d="M806.2,1186h-93.8c-3,0-5.4-2.4-5.4-5.4v-0.8c0-3,2.4-5.4,5.4-5.4h93.8c3,0,5.4,2.4,5.4,5.4v0.8
					C811.6,1183.6,809.2,1186,806.2,1186z"/>
			</g>
			<g>
				<path class="st27" d="M839.5,1025.8H712.7c-3.2,0-5.8-2.6-5.8-5.8l0,0c0-3.2,2.6-5.8,5.8-5.8h126.7c3.2,0,5.8,2.6,5.8,5.8l0,0
					C845.3,1023.2,842.7,1025.8,839.5,1025.8z"/>
			</g>
			<g>
				<path class="st27" d="M806.2,1048.2h-93.8c-3,0-5.4-2.4-5.4-5.4v-0.8c0-3,2.4-5.4,5.4-5.4h93.8c3,0,5.4,2.4,5.4,5.4v0.8
					C811.6,1045.7,809.2,1048.2,806.2,1048.2z"/>
			</g>
		</g>
		<polygon class="st28" points="1273.3,1097.7 1273.3,1038.4 1146.9,986.3 952.3,1026.3 952.3,1106.4 1062.7,1151.5 1062.9,1151.5 
			1273.3,1097.7 		"/>
		<polygon class="st29" points="1062.5,1151.5 1062.5,1186.9 952.3,1139 952.3,1106.5 		"/>
		<polygon class="st30" points="1273.3,1097.7 1062.7,1151.5 1062.5,1151.5 1062.5,1186.9 1273.3,1129.3 1273.3,1097.7 		"/>
		<g>
			<path class="st11" d="M1541.8,643.7c-0.7-0.4-1.7-1-2.9-1.7h0l-18.9-15.4c0,0-2.4,1.4,0,4c0.3,0.3,0.7,0.8,1.2,1.3l-7.2-5.6
				c0,0-1.3,1.3-0.4,3.3c0.6,1.4,7.3,7.2,11.1,10.4c-2.3-1.1-5.5-3.5-10.3-8.4c-3-3-2,1.5-1.6,3.5c0.8,3.5,10.2,15.4,13.5,20.7
				c3.3,5.3,4.9,10.6,2.6,8.3c-2.3-2.3-14.8-10-16.2-8.3c-1.3,1.7,6.3,8.3,9.9,13.6c3.6,5.3,7.6,14.2,20.4,16.2
				c12.9,2,15.1-4.5,15.1-4.5S1547.7,647.3,1541.8,643.7z"/>
			<path class="st11" d="M1939.2,965c0,0-3.1,30.5-6.6,36.2c-3.4,5.8-19.4,22.5-24.3,27.8c-0.3,0.4-3.5-2.4-1.1-6.5
				c9.7-16.4,7-12.4,3.6-23.2c-1.7-5.3-2.7,10-5.4,10.3c-2.7,0.4-1.8-16.1-1.9-21.2c-0.1-5,13.8-7.4,15.4-25.5
				C1920,951.4,1939.2,965,1939.2,965z"/>
			<path class="st1" d="M1843.7,652.4c0,0-25.3,124.3-164.7,164.9c-43.5,12.7-142.4-130.6-142.4-130.6s3.5-13.2,25.2-10.2
				c0,0,96.2,63.7,108.4,70.6c10.8,6.1,81.5-79,113.7-92.7C1816.2,640.9,1843.7,652.4,1843.7,652.4z"/>
			<g>
				<path class="st1" d="M2010.1,1434c0,0,17.3,15.8,13.9,27c-3.4,11.2-19,18.7-21.1,32.4s-10.5,21.2-18.1,21.2
					c-7.6,0-36.2,0-36.2,0s-5.6-9.6,7.9-12.6c13.5-2.9,18.6-19,17.7-34c-0.8-15,1.3-34.9,1.3-34.9l28.7-6.6L2010.1,1434z"/>
				<path class="st1" d="M1798,1474.8c0,0,3.1,35.9-4.5,39.7l-97.2-0.2c0,0,0-11.2,15.6-13.7c15.6-2.5,43-11.6,47.7-32
					C1764.2,1448.2,1798,1474.8,1798,1474.8z"/>
				<path class="st21" d="M1716,967.5c0,0,5.1,63,11.1,138.6c8.2,102.8,18,229.1,19,253c1.7,41.5,8.4,108,8.4,108s16,15.8,48.1,9.1
					c0,0,28.6-94.8,36.7-195.2c0.1-1.6,0.3-3.3,0.4-5c7.6-102.2,19.4-317.3,19.4-317.3L1716,967.5z"/>
				<path class="st1" d="M1716,967.5c0,0,5.1,63,11.1,138.6l112.3,174.9c0.1-1.6,0.3-3.3,0.4-5c7.6-102.2,19.4-317.3,19.4-317.3
					L1716,967.5z"/>
				<path class="st21" d="M1739.4,974.9c0,0,92.4,228,153.1,335.1c60.7,107.1,79.7,137,79.7,137s34.8-13.7,38-23
					c0,0-23.2-206.8-63.9-257.3c-23-28.5-50-114-51.2-143.9c-1.3-29.9-8.2-89.1-8.2-89.1L1739.4,974.9z"/>
			</g>
			<path class="st11" d="M1860.9,623.6c0,0-62.5,30.2-98.5,19c0,0,8.9-11.2,24.4-19.5c-1.2-7.2-2.2-13.5-2.8-18.8
				c-1.5-12.3-1.5-19.2-1.5-19.2l24.1-19l22.9-18.1C1827.6,598.9,1860.9,623.6,1860.9,623.6z"/>
			<path class="st20" d="M1893.8,945.5c0.1,3.8-8,8.2-11.6,9.8c-26.7,11.7-51.7,19.9-80,22.7c-33.4,3.4-72.9-4.1-86.5-3.8
				c-1.4,0-2.6-0.5-3.7-1.5c-1-0.7-1.7-40.9-1-91.6c0-2,0-4.1,0.1-6.1v-0.7c0.3-19.8,1-40.5,1.9-61.3c1.9-45.6,5.5-89.5,11.6-113.8
				c7.3-28.7,24-47.6,39.1-61.4l12.5-10.9c12.5,2.5,25.6,1.8,38.8-4.6c14.4-7,29.9-14.5,32.4-12.6c18.8,13.8,31.6,44.7,38.4,84.3
				c0,0.2,0.1,0.4,0.1,0.6c3.8,22.6,5.7,47.9,5.6,74.5c0,9.8-0.3,19.9-0.8,29.9c-2.8,45.1-0.9,85.3,0.9,113.1c0.4,5.5,0.7,10.5,1,15
				C1893.3,935,1893.7,941.1,1893.8,945.5z"/>
			<path class="st1" d="M1891.7,912.1c-103.6-119.6-39.3-206.5-39.3-206.5l33.7-10.9c3.8,22.6,5.7,47.9,5.6,74.5
				c0,9.8-0.3,19.9-0.8,29.9C1888,844.1,1889.8,884.3,1891.7,912.1z"/>
			<path class="st31" d="M1829.8,567.4c0,0-15.8,28.8-45.9,36.8c-1.5-12.3-1.5-19.2-1.5-19.2l24.1-19L1829.8,567.4z"/>
			<path class="st11" d="M1771.5,584.1c0,0,59.6,9.8,65.2-26.9c5.6-36.7,17.1-60.1-20.8-67.9c-37.8-7.8-47.4,5.1-52.3,16.9
				C1758.7,518.1,1756.1,580.7,1771.5,584.1z"/>
			<path class="st1" d="M1858.3,485c0.5-0.6,1.8-1.1,4.6-1.3c0,0-2.2-1.4-5.2-1.5c-0.6-3.9-2.6-10.7-9.3-12.4c0,0,3.6,1.9,4,6
				c-7.7-7.9-24.2-13.7-69.9-10.1c-60.2,4.8-40.4,43.3-32.6,47.9c7.8,4.6,27.4-8,41.9-6.9c14.5,1.2,17.3,22.1,22.2,25
				c4.9,2.9,3-2.2,9.7-5.2c6.7-3,7.3,8,5.4,15.2c-1.9,7.2,7.2,16.7,7.2,16.7s0,0,9.3-10c9.3-10,18-52.2,13.8-61.2
				C1859.1,486.6,1858.7,485.8,1858.3,485z"/>
			<path class="st20" d="M1847.5,609.4c0,0,37.7,17.9,55.8,45.3c28.1,42.6,60.6,197.8,61.2,212.2c0.6,14.4-23.7,115.9-23.7,115.9
				s-24.7-1.6-31-14.1c0,0,4.9-104.3,1.8-111c-3.1-6.7-102.9-139.9-91.7-168.3C1831.1,661,1847.5,609.4,1847.5,609.4z"/>
			<path class="st11" d="M1932.7,1001.2l-17.9,29.9c0,0-2.1-0.9-1.8-3c0.3-2.1,5.5-18.3,5.5-18.3L1932.7,1001.2z"/>
			<path class="st11" d="M1914.8,1002.1c0,0-12.9,14.7-10,18l9.3-7.2L1914.8,1002.1z"/>
		</g>
		<path class="st4" d="M1109.5,1038.4c0,0-5.4-1-10.4,2C1099.1,1040.4,1106,1042.7,1109.5,1038.4z"/>
		<g>
			<path class="st27" d="M1100.9,1019c-42,3-80.1,5.5-106.8,14.3c-24.6,8.1-39.7,19-39.7,31c0,13.3,16.4,27.6,48.3,33.6
				c26.8,5.1,69,15.4,98.2,11.7c36.6-4.7,69.2-4,94.7-10.8l-11.8-4.3l-82.7-30.3l133.3,3.7l12.5,0.3c0.4-1.3,0.6-2.7,0.6-4
				c0-12.9-17.3-24.5-45-32.7C1176.1,1023.9,1140.2,1016.2,1100.9,1019z"/>
			<path class="st12" d="M1234.3,1068.1l-133.3-3.7l82.7,30.3c-8.2,1.9-17.2,3.4-26.8,4.7c-17,2.3-36.7,0.7-55.9,3.5
				c-31.8,4.6-61.2-6-84.8-8.7c-25.4-2.9-52-18.1-49.1-29.8c3-12.1,20.2-26.1,51-30.2c23.2-3.1,53.7-10.3,85-10.3
				c25.4,0,46.7,6.3,67.2,7.6c38.7,2.4,64.5,19,64.5,32.9C1234.9,1065.6,1234.7,1066.9,1234.3,1068.1z"/>
			<g>
				<ellipse class="st13" cx="1024.5" cy="1060.2" rx="6.3" ry="2.4"/>
				<path class="st13" d="M1068.8,1048.7c0,1.3-2.8,2.4-6.3,2.4c-3.5,0-6.3-1.1-6.3-2.4c0-1.3,2.8-2.4,6.3-2.4
					C1066,1046.3,1068.8,1047.4,1068.8,1048.7z"/>
				<path class="st13" d="M1045.3,1042.4c0,1.1-2.3,2-5.2,2c-2.9,0-5.2-0.9-5.2-2c0-1.1,2.3-2,5.2-2
					C1043,1040.4,1045.3,1041.3,1045.3,1042.4z"/>
				<path class="st13" d="M1092,1037.5c0,1.2-2.6,2.2-5.8,2.2c-3.2,0-5.8-1-5.8-2.2c0-1.2,2.6-2.2,5.8-2.2
					C1089.4,1035.3,1092,1036.2,1092,1037.5z"/>
				<path class="st13" d="M1092,1060.2c0,1.9-4.1,3.5-9.1,3.5c-5,0-9.1-1.6-9.1-3.5c0-1.9,4.1-3.5,9.1-3.5
					C1087.9,1056.7,1092,1058.3,1092,1060.2z"/>
				<path class="st13" d="M1111.7,1047.5c0,1.3-2.8,2.4-6.3,2.4c-3.5,0-6.3-1.1-6.3-2.4c0-1.3,2.8-2.4,6.3-2.4
					C1108.9,1045.1,1111.7,1046.2,1111.7,1047.5z"/>
				<path class="st13" d="M1140.7,1048.7c0,0.7-1.4,1.2-3.1,1.2c-1.7,0-3.1-0.5-3.1-1.2c0-0.7,1.4-1.2,3.1-1.2
					C1139.3,1047.5,1140.7,1048.1,1140.7,1048.7z"/>
				<path class="st13" d="M1127.5,1038.5c0,0.7-1.4,1.2-3.1,1.2c-1.7,0-3.1-0.5-3.1-1.2c0-0.7,1.4-1.2,3.1-1.2
					C1126.1,1037.3,1127.5,1037.8,1127.5,1038.5z"/>
				<path class="st13" d="M1092,1077.1c0,0.7-1.4,1.2-3.1,1.2s-3.1-0.5-3.1-1.2c0-0.7,1.4-1.2,3.1-1.2S1092,1076.4,1092,1077.1z"/>
				<path class="st13" d="M1113.4,1082.5c0,0.7-1.4,1.2-3.1,1.2s-3.1-0.5-3.1-1.2c0-0.7,1.4-1.2,3.1-1.2
					S1113.4,1081.9,1113.4,1082.5z"/>
				<path class="st13" d="M1066,1073.1c0,1.5-3.2,2.7-7.1,2.7c-3.9,0-7.1-1.2-7.1-2.7c0-1.5,3.2-2.7,7.1-2.7
					C1062.8,1070.4,1066,1071.6,1066,1073.1z"/>
				<path class="st4" d="M1025.4,1073.8c0,0-4.6-1.2-9.1,1.2C1016.2,1075,1022.1,1077.4,1025.4,1073.8z"/>
				<path class="st4" d="M1061.1,1056.7c0,0-6.3-1.6-12.4,1.6C1048.7,1058.3,1056.6,1061.5,1061.1,1056.7z"/>
				<path class="st4" d="M1128.8,1047.6c0,0-6.5,0-11.6,4.6C1117.2,1052.2,1125.7,1053.3,1128.8,1047.6z"/>
				<path class="st4" d="M1158.9,1051c0,0-5.5-3.4-12.3-2.3C1146.6,1048.8,1153.2,1054.2,1158.9,1051z"/>
				<path class="st4" d="M1110.7,1060.9c0,0-3.1-4.5-8.7-6C1102,1054.9,1105.2,1061.4,1110.7,1060.9z"/>
				<path class="st4" d="M1100.1,1067.3c0,0-5.5-0.4-10.1,3.2C1090,1070.5,1097.1,1072,1100.1,1067.3z"/>
				<path class="st4" d="M1105.2,1087.6c0,0-4.5-3.1-10.3-2.4C1094.9,1085.2,1100.3,1090.1,1105.2,1087.6z"/>
				<path class="st4" d="M1113.2,1074c0,0-5.5-0.2-10,3.5C1103.2,1077.5,1110.3,1078.8,1113.2,1074z"/>
				<path class="st4" d="M1088.1,1048.9c0,0-5.3-1.2-10.4,1.6C1077.7,1050.5,1084.4,1053,1088.1,1048.9z"/>
				<path class="st4" d="M1074.4,1042.9c0,0-4.1-3.7-9.9-3.6C1064.5,1039.3,1069.2,1044.8,1074.4,1042.9z"/>
				<path class="st32" d="M1033.8,1076.8L1033.8,1076.8c-6.2,1.6-9.2,4.7-6.9,7l0,0c1.8,1.7,5.8,1.4,10.2,0.4l2.3,2.2
					c0.3,0.3,1.2,0.4,2,0.2l4.4-1.1c0.8-0.2,1.2-0.6,0.9-0.9l-2.3-2.2c4.1-1.2,6.7-2.5,4.8-4.2l0,0
					C1047,1075.8,1040,1075.2,1033.8,1076.8z"/>
				<path class="st32" d="M1150.7,1036.6L1150.7,1036.6c5,1.3,7.5,3.8,5.6,5.7l0,0c-1.5,1.4-4.7,1.1-8.3,0.3l-1.9,1.8
					c-0.3,0.2-1,0.3-1.7,0.1l-3.6-0.9c-0.7-0.2-1-0.5-0.7-0.8l1.8-1.8c-3.4-1-5.4-2-3.9-3.5l0,0
					C1140,1035.8,1145.7,1035.3,1150.7,1036.6z"/>
				<path class="st32" d="M1079.1,1067L1079.1,1067c5,1.3,7.5,3.8,5.6,5.7l0,0c-1.5,1.4-4.7,1.1-8.3,0.3l-1.9,1.8
					c-0.3,0.2-1,0.3-1.7,0.1l-3.6-0.9c-0.7-0.2-1-0.5-0.7-0.8l1.8-1.8c-3.4-1-5.4-2-3.9-3.5l0,0
					C1068.4,1066.2,1074.1,1065.8,1079.1,1067z"/>
				<path class="st32" d="M1036.7,1047.6L1036.7,1047.6c-5,1.3-7.5,3.8-5.6,5.7l0,0c1.5,1.4,4.7,1.1,8.3,0.3l1.9,1.8
					c0.3,0.2,1,0.3,1.7,0.1l3.6-0.9c0.7-0.2,1-0.5,0.7-0.8l-1.8-1.8c3.4-1,5.4-2,3.9-3.5l0,0
					C1047.4,1046.8,1041.7,1046.3,1036.7,1047.6z"/>
			</g>
		</g>
		<g>
			<path class="st33" d="M1255.1,1064.3l-115-3.2l-15.7-4.4v3.9l89.8,32.8c27.1-7.1,45.3-17.4,48.6-29v-3.9L1255.1,1064.3z"/>
			<path class="st34" d="M1262.7,1060.5c-3.3,11.6-21.5,21.9-48.6,29l-40.7-14.9l-8.5-3.1c0,0,0,0,0,0l-40.6-14.9L1262.7,1060.5z"/>
			<g>
				<path class="st13" d="M1170.4,1063.8c0,1.3-2.8,2.4-6.3,2.4c-3.5,0-6.3-1.1-6.3-2.4c0-1.3,2.8-2.4,6.3-2.4
					C1167.6,1061.4,1170.4,1062.5,1170.4,1063.8z"/>
				<path class="st13" d="M1177,1072.5c0,1-1.4,1.8-3.6,2.2l-8.5-3.1c1-0.9,3.2-1.5,5.8-1.5C1174.2,1070.1,1177,1071.2,1177,1072.5z
					"/>
				<path class="st13" d="M1199.4,1073.1c0,0.7-1.4,1.2-3.1,1.2c-1.7,0-3.1-0.5-3.1-1.2c0-0.7,1.4-1.2,3.1-1.2
					C1198,1071.9,1199.4,1072.4,1199.4,1073.1z"/>
				<path class="st13" d="M1216.2,1066.2c0,0.7-1.4,1.2-3.1,1.2c-1.7,0-3.1-0.5-3.1-1.2c0-0.7,1.4-1.2,3.1-1.2
					C1214.8,1065,1216.2,1065.5,1216.2,1066.2z"/>
				<path class="st13" d="M1184.4,1064.4c0,0.7-1.4,1.2-3.1,1.2c-1.7,0-3.1-0.5-3.1-1.2c0-0.7,1.4-1.2,3.1-1.2
					C1183,1063.2,1184.4,1063.7,1184.4,1064.4z"/>
				<path class="st13" d="M1200.4,1062.3c0,1.1-2.3,2-5.2,2c-2.8,0-5.2-0.9-5.2-2c0-1.1,2.3-2,5.2-2
					C1198.1,1060.3,1200.4,1061.2,1200.4,1062.3z"/>
				<path class="st13" d="M1195.3,1068.7c0,0.7-1.6,1.3-3.5,1.3c-1.9,0-3.5-0.6-3.5-1.3c0-0.7,1.6-1.3,3.5-1.3
					C1193.7,1067.4,1195.3,1068,1195.3,1068.7z"/>
				<path class="st13" d="M1149.5,1061.4c0,0.5-1,0.9-2.3,0.9c-1.3,0-2.3-0.4-2.3-0.9c0-0.5,1-0.9,2.3-0.9
					C1148.5,1060.5,1149.5,1060.9,1149.5,1061.4z"/>
				<path class="st4" d="M1176,1064.6c0,0-4.5,0-8.1,3.2C1168,1067.8,1173.9,1068.6,1176,1064.6z"/>
				<path class="st4" d="M1227.9,1067.6c0,0-3.4-2.9-8.2-2.8C1219.7,1064.8,1223.7,1069.2,1227.9,1067.6z"/>
				<path class="st4" d="M1187,1072.5c0,0-3.5-2.8-8.3-2.5C1178.7,1070,1182.8,1074.3,1187,1072.5z"/>
				<path class="st4" d="M1214.2,1075.3c0,0-4.5-0.6-8.4,2.2C1205.8,1077.5,1211.5,1079,1214.2,1075.3z"/>
				<path class="st4" d="M1145.2,1058.7c0,0-3.9-0.9-7.6,1.2C1137.6,1059.9,1142.5,1061.7,1145.2,1058.7z"/>
			</g>
		</g>
		<g>
			<g>
				<path class="st33" d="M980.1,547c-18.6,2.7-35.5,4.9-47.3,12.7c-10.9,7.2-17.6,16.8-17.6,27.5c0,11.8,7.3,24.4,21.4,29.8
					c11.9,4.5,30.6,13.7,43.5,10.4c16.2-4.1,30.7-3.6,42-9.5l-5.2-3.8l-36.6-26.8l59,3.3l5.5,0.3c0.2-1.2,0.3-2.4,0.3-3.6
					c0-11.4-7.6-21.6-19.9-28.9C1013.4,551.3,997.5,544.5,980.1,547z"/>
				<path class="st12" d="M1039.2,590.4l-59-3.3l36.6,26.8c-3.6,1.6-7.6,3.1-11.9,4.2c-7.5,2-16.3,0.6-24.8,3.1
					c-14.1,4.1-27.1-5.3-37.6-7.7c-11.2-2.6-23-16-21.7-26.4c1.3-10.7,9-23.1,22.6-26.8c10.3-2.7,23.8-9.1,37.6-9.1
					c11.2,0,20.7,5.6,29.8,6.7c17.1,2.1,28.6,16.8,28.6,29.1C1039.5,588.2,1039.4,589.3,1039.2,590.4z"/>
				<g>
					<path class="st13" d="M949,583.4c0,1.2-1.2,2.1-2.8,2.1c-1.5,0-2.8-0.9-2.8-2.1c0-1.2,1.2-2.1,2.8-2.1
						C947.8,581.3,949,582.3,949,583.4z"/>
					<path class="st13" d="M965.9,573.3c0,1.2-1.2,2.1-2.8,2.1c-1.5,0-2.8-0.9-2.8-2.1c0-1.2,1.2-2.1,2.8-2.1
						C964.7,571.1,965.9,572.1,965.9,573.3z"/>
					<path class="st13" d="M955.5,567.6c0,1-1,1.7-2.3,1.7c-1.3,0-2.3-0.8-2.3-1.7c0-1,1-1.7,2.3-1.7
						C954.5,565.9,955.5,566.7,955.5,567.6z"/>
					<path class="st13" d="M976.2,563.3c0,1.1-1.1,1.9-2.5,1.9c-1.4,0-2.5-0.9-2.5-1.9c0-1.1,1.1-1.9,2.5-1.9
						C975,561.4,976.2,562.2,976.2,563.3z"/>
					<path class="st13" d="M976.2,583.4c0,1.7-1.8,3.1-4,3.1c-2.2,0-4-1.4-4-3.1s1.8-3.1,4-3.1C974.4,580.4,976.2,581.8,976.2,583.4
						z"/>
					<path class="st13" d="M984.9,572.2c0,1.2-1.2,2.1-2.8,2.1c-1.5,0-2.8-0.9-2.8-2.1c0-1.2,1.2-2.1,2.8-2.1
						C983.6,570.1,984.9,571.1,984.9,572.2z"/>
					<path class="st13" d="M997.7,573.3c0,0.6-0.6,1.1-1.4,1.1c-0.8,0-1.4-0.5-1.4-1.1c0-0.6,0.6-1.1,1.4-1.1
						C997.1,572.2,997.7,572.7,997.7,573.3z"/>
					<path class="st13" d="M991.9,564.2c0,0.6-0.6,1.1-1.4,1.1c-0.8,0-1.4-0.5-1.4-1.1c0-0.6,0.6-1.1,1.4-1.1
						C991.3,563.1,991.9,563.6,991.9,564.2z"/>
					<path class="st13" d="M976.2,598.4c0,0.6-0.6,1.1-1.4,1.1c-0.8,0-1.4-0.5-1.4-1.1c0-0.6,0.6-1.1,1.4-1.1
						C975.5,597.3,976.2,597.8,976.2,598.4z"/>
					<path class="st13" d="M985.7,603.2c0,0.6-0.6,1.1-1.4,1.1c-0.8,0-1.4-0.5-1.4-1.1c0-0.6,0.6-1.1,1.4-1.1
						C985,602.1,985.7,602.6,985.7,603.2z"/>
					<path class="st13" d="M964.6,594.9c0,1.3-1.4,2.4-3.1,2.4c-1.7,0-3.1-1.1-3.1-2.4c0-1.3,1.4-2.4,3.1-2.4
						C963.2,592.5,964.6,593.5,964.6,594.9z"/>
					<path class="st4" d="M946.7,595.5c0,0-2.1-1-4.1,1.1C942.6,596.5,945.2,598.6,946.7,595.5z"/>
					<path class="st4" d="M962.5,580.3c0,0-2.8-1.4-5.5,1.4C957,581.8,960.5,584.6,962.5,580.3z"/>
					<path class="st4" d="M992.5,572.3c0,0-2.9,0-5.1,4.1C987.3,576.4,991.1,577.4,992.5,572.3z"/>
					<path class="st4" d="M1005.8,575.3c0,0-2.4-3-5.4-2C1000.4,573.3,1003.3,578.2,1005.8,575.3z"/>
					<path class="st4" d="M984.5,584c0,0-1.4-4-3.9-5.3C980.6,578.7,982,584.5,984.5,584z"/>
					<path class="st4" d="M979.7,589.7c0,0-2.4-0.3-4.5,2.8C975.3,592.5,978.4,593.9,979.7,589.7z"/>
					<path class="st4" d="M982,607.7c0,0-2-2.8-4.5-2.2C977.5,605.6,979.8,609.9,982,607.7z"/>
					<path class="st4" d="M985.5,595.7c0,0-2.4-0.2-4.4,3.1C981.1,598.7,984.3,599.9,985.5,595.7z"/>
					<path class="st4" d="M974.4,573.4c0,0-2.4-1.1-4.6,1.4C969.8,574.8,972.8,577.1,974.4,573.4z"/>
					<path class="st4" d="M968.4,568.2c0,0-1.8-3.2-4.4-3.2C964,564.9,966.1,569.8,968.4,568.2z"/>
					<path class="st32" d="M950.4,598.1L950.4,598.1c-2.7,1.4-4.1,4.2-3,6.2l0,0c0.8,1.5,2.5,1.2,4.5,0.4l1,1.9
						c0.1,0.3,0.5,0.3,0.9,0.2l1.9-1c0.4-0.2,0.5-0.6,0.4-0.8l-1-1.9c1.8-1.1,3-2.2,2.1-3.8l0,0
						C956.2,597.3,953.1,596.7,950.4,598.1z"/>
					<path class="st32" d="M1002.2,562.5L1002.2,562.5c2.2,1.1,3.3,3.4,2.5,5.1l0,0c-0.6,1.2-2.1,1-3.7,0.3l-0.8,1.6
						c-0.1,0.2-0.4,0.3-0.7,0.1l-1.6-0.8c-0.3-0.1-0.4-0.4-0.3-0.7l0.8-1.6c-1.5-0.9-2.4-1.8-1.7-3.1l0,0
						C997.4,561.9,1000,561.4,1002.2,562.5z"/>
					<path class="st32" d="M970.5,589.5L970.5,589.5c2.2,1.1,3.3,3.4,2.5,5.1l0,0c-0.6,1.2-2.1,1-3.7,0.3l-0.8,1.6
						c-0.1,0.2-0.4,0.3-0.7,0.1l-1.6-0.8c-0.3-0.1-0.4-0.4-0.3-0.7l0.8-1.6c-1.5-0.9-2.4-1.8-1.7-3.1l0,0
						C965.7,588.8,968.2,588.3,970.5,589.5z"/>
					<path class="st32" d="M951.7,572.3L951.7,572.3c-2.2,1.1-3.3,3.4-2.5,5.1l0,0c0.6,1.2,2.1,1,3.7,0.3l0.8,1.6
						c0.1,0.2,0.4,0.3,0.7,0.1l1.6-0.8c0.3-0.1,0.4-0.4,0.3-0.7l-0.8-1.6c1.5-0.9,2.4-1.8,1.7-3.1l0,0
						C956.4,571.6,953.9,571.1,951.7,572.3z"/>
				</g>
			</g>
			<g>
				<path class="st33" d="M1048.4,587l-51-2.8l-7-3.9v3.5l39.8,29c12-6.3,20.1-15.4,21.5-25.7v-3.5L1048.4,587z"/>
				<path class="st34" d="M1051.8,583.7c-1.5,10.3-9.5,19.4-21.5,25.7l-18-13.2l-3.8-2.7c0,0,0,0,0,0l-18-13.1L1051.8,583.7z"/>
				<g>
					<path class="st13" d="M1010.9,586.6c0,1.2-1.2,2.1-2.8,2.1c-1.5,0-2.8-0.9-2.8-2.1c0-1.2,1.2-2.1,2.8-2.1
						C1009.7,584.5,1010.9,585.4,1010.9,586.6z"/>
					<path class="st13" d="M1013.8,594.3c0,0.8-0.6,1.6-1.6,1.9l-3.8-2.7c0.4-0.8,1.4-1.3,2.6-1.3
						C1012.6,592.2,1013.8,593.2,1013.8,594.3z"/>
					<path class="st13" d="M1023.8,594.8c0,0.6-0.6,1.1-1.4,1.1c-0.8,0-1.4-0.5-1.4-1.1c0-0.6,0.6-1.1,1.4-1.1
						C1023.1,593.7,1023.8,594.2,1023.8,594.8z"/>
					<path class="st13" d="M1031.2,588.7c0,0.6-0.6,1.1-1.4,1.1c-0.8,0-1.4-0.5-1.4-1.1c0-0.6,0.6-1.1,1.4-1.1
						C1030.6,587.7,1031.2,588.2,1031.2,588.7z"/>
					<path class="st13" d="M1017.1,587.1c0,0.6-0.6,1.1-1.4,1.1c-0.8,0-1.4-0.5-1.4-1.1c0-0.6,0.6-1.1,1.4-1.1
						C1016.5,586.1,1017.1,586.6,1017.1,587.1z"/>
					<path class="st13" d="M1024.2,585.3c0,1-1,1.7-2.3,1.7c-1.3,0-2.3-0.8-2.3-1.7c0-1,1-1.7,2.3-1.7
						C1023.2,583.5,1024.2,584.3,1024.2,585.3z"/>
					<path class="st13" d="M1021.9,590.9c0,0.7-0.7,1.2-1.5,1.2c-0.9,0-1.5-0.5-1.5-1.2c0-0.7,0.7-1.2,1.5-1.2
						C1021.2,589.8,1021.9,590.3,1021.9,590.9z"/>
					<path class="st13" d="M1001.6,584.5c0,0.4-0.5,0.8-1,0.8c-0.6,0-1-0.3-1-0.8c0-0.4,0.5-0.8,1-0.8
						C1001.2,583.7,1001.6,584.1,1001.6,584.5z"/>
					<path class="st4" d="M1013.4,587.3c0,0-2,0-3.6,2.8C1009.8,590.1,1012.4,590.8,1013.4,587.3z"/>
					<path class="st4" d="M1036.4,590c0,0-1.5-2.6-3.6-2.5C1032.7,587.5,1034.5,591.4,1036.4,590z"/>
					<path class="st4" d="M1018.3,594.3c0,0-1.6-2.5-3.7-2.2C1014.6,592.1,1016.4,595.9,1018.3,594.3z"/>
					<path class="st4" d="M1030.3,596.8c0,0-2-0.5-3.7,1.9C1026.6,598.7,1029.1,600.1,1030.3,596.8z"/>
					<path class="st4" d="M999.7,582.1c0,0-1.7-0.8-3.4,1.1C996.4,583.2,998.6,584.8,999.7,582.1z"/>
				</g>
			</g>
		</g>
		<g>
			<g>
				<path class="st33" d="M1143.2,653.2c-18.6,2.7-35.5,4.9-47.3,12.7c-10.9,7.2-17.6,16.8-17.6,27.5c0,11.8,7.3,24.4,21.4,29.8
					c11.9,4.5,30.6,13.7,43.5,10.4c16.2-4.1,30.7-3.6,42-9.5l-5.2-3.8l-36.6-26.8l59,3.3l5.5,0.3c0.2-1.2,0.3-2.4,0.3-3.6
					c0-11.4-7.6-21.6-19.9-28.9C1176.5,657.4,1160.7,650.6,1143.2,653.2z"/>
				<path class="st12" d="M1202.3,696.5l-59-3.3l36.6,26.8c-3.6,1.6-7.6,3.1-11.9,4.2c-7.5,2-16.3,0.6-24.8,3.1
					c-14.1,4.1-27.1-5.3-37.6-7.7c-11.2-2.6-23-16-21.7-26.4c1.3-10.7,9-23.1,22.6-26.8c10.3-2.7,23.8-9.1,37.6-9.1
					c11.2,0,20.7,5.6,29.8,6.7c17.1,2.1,28.6,16.8,28.6,29.1C1202.6,694.4,1202.5,695.5,1202.3,696.5z"/>
				<g>
					<path class="st13" d="M1112.2,689.6c0,1.2-1.2,2.1-2.8,2.1c-1.5,0-2.8-0.9-2.8-2.1c0-1.2,1.2-2.1,2.8-2.1
						C1110.9,687.5,1112.2,688.4,1112.2,689.6z"/>
					<path class="st13" d="M1129,679.4c0,1.2-1.2,2.1-2.8,2.1c-1.5,0-2.8-0.9-2.8-2.1s1.2-2.1,2.8-2.1
						C1127.8,677.3,1129,678.2,1129,679.4z"/>
					<path class="st13" d="M1118.6,673.8c0,1-1,1.7-2.3,1.7c-1.3,0-2.3-0.8-2.3-1.7c0-1,1-1.7,2.3-1.7
						C1117.6,672,1118.6,672.8,1118.6,673.8z"/>
					<path class="st13" d="M1139.3,669.4c0,1.1-1.1,1.9-2.5,1.9c-1.4,0-2.5-0.9-2.5-1.9c0-1.1,1.1-1.9,2.5-1.9
						C1138.2,667.5,1139.3,668.4,1139.3,669.4z"/>
					<path class="st13" d="M1139.3,689.6c0,1.7-1.8,3.1-4,3.1c-2.2,0-4-1.4-4-3.1c0-1.7,1.8-3.1,4-3.1
						C1137.5,686.5,1139.3,687.9,1139.3,689.6z"/>
					<path class="st13" d="M1148,678.4c0,1.2-1.2,2.1-2.8,2.1c-1.5,0-2.8-0.9-2.8-2.1c0-1.2,1.2-2.1,2.8-2.1
						C1146.8,676.2,1148,677.2,1148,678.4z"/>
					<path class="st13" d="M1160.9,679.4c0,0.6-0.6,1.1-1.4,1.1c-0.8,0-1.4-0.5-1.4-1.1c0-0.6,0.6-1.1,1.4-1.1
						C1160.2,678.4,1160.9,678.8,1160.9,679.4z"/>
					<path class="st13" d="M1155,670.3c0,0.6-0.6,1.1-1.4,1.1c-0.8,0-1.4-0.5-1.4-1.1c0-0.6,0.6-1.1,1.4-1.1
						C1154.4,669.3,1155,669.7,1155,670.3z"/>
					<path class="st13" d="M1139.3,704.5c0,0.6-0.6,1.1-1.4,1.1c-0.8,0-1.4-0.5-1.4-1.1c0-0.6,0.6-1.1,1.4-1.1
						C1138.7,703.4,1139.3,703.9,1139.3,704.5z"/>
					<path class="st13" d="M1148.8,709.3c0,0.6-0.6,1.1-1.4,1.1c-0.8,0-1.4-0.5-1.4-1.1c0-0.6,0.6-1.1,1.4-1.1
						C1148.2,708.3,1148.8,708.7,1148.8,709.3z"/>
					<path class="st13" d="M1127.8,701c0,1.3-1.4,2.4-3.1,2.4c-1.7,0-3.1-1.1-3.1-2.4c0-1.3,1.4-2.4,3.1-2.4
						C1126.4,698.6,1127.8,699.7,1127.8,701z"/>
					<path class="st4" d="M1109.8,701.6c0,0-2.1-1-4.1,1.1C1105.8,702.7,1108.4,704.7,1109.8,701.6z"/>
					<path class="st4" d="M1125.6,686.5c0,0-2.8-1.4-5.5,1.4C1120.1,687.9,1123.6,690.7,1125.6,686.5z"/>
					<path class="st4" d="M1155.6,678.4c0,0-2.9,0-5.1,4.1C1150.5,682.5,1154.2,683.5,1155.6,678.4z"/>
					<path class="st4" d="M1169,681.5c0,0-2.4-3-5.4-2C1163.5,679.5,1166.4,684.3,1169,681.5z"/>
					<path class="st4" d="M1147.6,690.2c0,0-1.4-4-3.9-5.3C1143.7,684.9,1145.2,690.6,1147.6,690.2z"/>
					<path class="st4" d="M1142.9,695.9c0,0-2.4-0.3-4.5,2.8C1138.4,698.7,1141.6,700,1142.9,695.9z"/>
					<path class="st4" d="M1145.2,713.9c0,0-2-2.8-4.5-2.2C1140.6,711.7,1143,716,1145.2,713.9z"/>
					<path class="st4" d="M1148.7,701.8c0,0-2.4-0.2-4.4,3.1C1144.3,704.9,1147.4,706,1148.7,701.8z"/>
					<path class="st4" d="M1137.6,679.6c0,0-2.4-1.1-4.6,1.4C1133,681,1136,683.2,1137.6,679.6z"/>
					<path class="st4" d="M1131.5,674.3c0,0-1.8-3.2-4.4-3.2C1127.1,671.1,1129.2,675.9,1131.5,674.3z"/>
					<path class="st32" d="M1113.6,704.3L1113.6,704.3c-2.7,1.4-4.1,4.2-3,6.2l0,0c0.8,1.5,2.5,1.2,4.5,0.4l1,1.9
						c0.1,0.3,0.5,0.3,0.9,0.2l1.9-1c0.4-0.2,0.5-0.5,0.4-0.8l-1-1.9c1.8-1.1,3-2.2,2.1-3.8l0,0
						C1119.4,703.4,1116.3,702.9,1113.6,704.3z"/>
					<path class="st32" d="M1165.3,668.7L1165.3,668.7c2.2,1.1,3.3,3.4,2.5,5.1l0,0c-0.6,1.2-2.1,1-3.7,0.3l-0.8,1.6
						c-0.1,0.2-0.4,0.3-0.7,0.1l-1.6-0.8c-0.3-0.1-0.4-0.4-0.3-0.7l0.8-1.6c-1.5-0.9-2.4-1.8-1.7-3.1l0,0
						C1160.6,668,1163.1,667.6,1165.3,668.7z"/>
					<path class="st32" d="M1133.6,695.6L1133.6,695.6c2.2,1.1,3.3,3.4,2.5,5.1l0,0c-0.6,1.2-2.1,1-3.7,0.3l-0.8,1.6
						c-0.1,0.2-0.4,0.3-0.7,0.1l-1.6-0.8c-0.3-0.1-0.4-0.4-0.3-0.7l0.8-1.6c-1.5-0.9-2.4-1.8-1.7-3.1l0,0
						C1128.9,694.9,1131.4,694.5,1133.6,695.6z"/>
					<path class="st32" d="M1114.8,678.4L1114.8,678.4c-2.2,1.1-3.3,3.4-2.5,5.1l0,0c0.6,1.2,2.1,1,3.7,0.3l0.8,1.6
						c0.1,0.2,0.4,0.3,0.7,0.1l1.6-0.8c0.3-0.1,0.4-0.4,0.3-0.7l-0.8-1.6c1.5-0.9,2.4-1.8,1.7-3.1l0,0
						C1119.6,677.7,1117,677.3,1114.8,678.4z"/>
				</g>
			</g>
			<g>
				<path class="st33" d="M1211.6,693.2l-51-2.8l-7-3.9v3.5l39.8,29c12-6.3,20.1-15.4,21.5-25.7v-3.5L1211.6,693.2z"/>
				<path class="st34" d="M1214.9,689.9c-1.5,10.3-9.5,19.4-21.5,25.7l-18-13.2l-3.8-2.7c0,0,0,0,0,0l-18-13.1L1214.9,689.9z"/>
				<g>
					<path class="st13" d="M1174,692.8c0,1.2-1.2,2.1-2.8,2.1c-1.5,0-2.8-0.9-2.8-2.1c0-1.2,1.2-2.1,2.8-2.1
						C1172.8,690.6,1174,691.6,1174,692.8z"/>
					<path class="st13" d="M1177,700.5c0,0.8-0.6,1.6-1.6,1.9l-3.8-2.7c0.4-0.8,1.4-1.3,2.6-1.3C1175.7,698.3,1177,699.3,1177,700.5
						z"/>
					<path class="st13" d="M1186.9,700.9c0,0.6-0.6,1.1-1.4,1.1c-0.8,0-1.4-0.5-1.4-1.1c0-0.6,0.6-1.1,1.4-1.1
						C1186.3,699.9,1186.9,700.4,1186.9,700.9z"/>
					<path class="st13" d="M1194.3,694.9c0,0.6-0.6,1.1-1.4,1.1c-0.8,0-1.4-0.5-1.4-1.1c0-0.6,0.6-1.1,1.4-1.1
						C1193.7,693.8,1194.3,694.3,1194.3,694.9z"/>
					<path class="st13" d="M1180.2,693.3c0,0.6-0.6,1.1-1.4,1.1s-1.4-0.5-1.4-1.1c0-0.6,0.6-1.1,1.4-1.1S1180.2,692.7,1180.2,693.3z
						"/>
					<path class="st13" d="M1187.3,691.4c0,1-1,1.7-2.3,1.7c-1.3,0-2.3-0.8-2.3-1.7c0-1,1-1.7,2.3-1.7
						C1186.3,689.7,1187.3,690.4,1187.3,691.4z"/>
					<path class="st13" d="M1185.1,697.1c0,0.7-0.7,1.2-1.5,1.2c-0.9,0-1.5-0.5-1.5-1.2c0-0.7,0.7-1.2,1.5-1.2
						C1184.4,695.9,1185.1,696.4,1185.1,697.1z"/>
					<path class="st13" d="M1164.8,690.6c0,0.4-0.5,0.8-1,0.8c-0.6,0-1-0.3-1-0.8c0-0.4,0.5-0.8,1-0.8
						C1164.3,689.9,1164.8,690.2,1164.8,690.6z"/>
					<path class="st4" d="M1176.5,693.4c0,0-2,0-3.6,2.8C1173,696.3,1175.6,697,1176.5,693.4z"/>
					<path class="st4" d="M1199.5,696.1c0,0-1.5-2.6-3.6-2.5C1195.9,693.6,1197.6,697.5,1199.5,696.1z"/>
					<path class="st4" d="M1181.4,700.4c0,0-1.6-2.5-3.7-2.2C1177.7,698.2,1179.5,702,1181.4,700.4z"/>
					<path class="st4" d="M1193.4,703c0,0-2-0.5-3.7,1.9C1189.7,704.9,1192.2,706.2,1193.4,703z"/>
					<path class="st4" d="M1162.9,688.3c0,0-1.7-0.8-3.4,1.1C1159.5,689.3,1161.7,690.9,1162.9,688.3z"/>
				</g>
			</g>
		</g>
		<g>
			<g>
				<path class="st33" d="M980.1,764.9c-18.6,2.7-35.5,4.9-47.3,12.7c-10.9,7.2-17.6,16.8-17.6,27.5c0,11.8,7.3,24.4,21.4,29.8
					c11.9,4.5,30.6,13.7,43.5,10.4c16.2-4.1,30.7-3.6,42-9.5l-5.2-3.8L980.2,805l59,3.3l5.5,0.3c0.2-1.2,0.3-2.4,0.3-3.6
					c0-11.4-7.6-21.6-19.9-28.9C1013.4,769.2,997.5,762.4,980.1,764.9z"/>
				<path class="st12" d="M1039.2,808.3l-59-3.3l36.6,26.8c-3.6,1.6-7.6,3-11.9,4.2c-7.5,2-16.3,0.6-24.8,3.1
					c-14.1,4.1-27.1-5.3-37.6-7.7c-11.2-2.6-23-16-21.7-26.4c1.3-10.7,9-23.1,22.6-26.8c10.3-2.7,23.8-9.1,37.6-9.1
					c11.2,0,20.7,5.6,29.8,6.7c17.1,2.1,28.6,16.8,28.6,29.1C1039.5,806.2,1039.4,807.2,1039.2,808.3z"/>
				<g>
					<path class="st13" d="M949,801.4c0,1.2-1.2,2.1-2.8,2.1c-1.5,0-2.8-1-2.8-2.1s1.2-2.1,2.8-2.1C947.8,799.2,949,800.2,949,801.4
						z"/>
					<path class="st13" d="M965.9,791.2c0,1.2-1.2,2.1-2.8,2.1c-1.5,0-2.8-0.9-2.8-2.1c0-1.2,1.2-2.1,2.8-2.1
						C964.7,789,965.9,790,965.9,791.2z"/>
					<path class="st13" d="M955.5,785.5c0,1-1,1.7-2.3,1.7c-1.3,0-2.3-0.8-2.3-1.7c0-1,1-1.7,2.3-1.7
						C954.5,783.8,955.5,784.6,955.5,785.5z"/>
					<path class="st13" d="M976.2,781.2c0,1.1-1.1,1.9-2.5,1.9c-1.4,0-2.5-0.9-2.5-1.9c0-1.1,1.1-1.9,2.5-1.9
						C975,779.3,976.2,780.1,976.2,781.2z"/>
					<path class="st13" d="M976.2,801.4c0,1.7-1.8,3.1-4,3.1c-2.2,0-4-1.4-4-3.1s1.8-3.1,4-3.1C974.4,798.3,976.2,799.7,976.2,801.4
						z"/>
					<path class="st13" d="M984.9,790.1c0,1.2-1.2,2.1-2.8,2.1c-1.5,0-2.8-0.9-2.8-2.1c0-1.2,1.2-2.1,2.8-2.1
						C983.6,788,984.9,789,984.9,790.1z"/>
					<path class="st13" d="M997.7,791.2c0,0.6-0.6,1.1-1.4,1.1c-0.8,0-1.4-0.5-1.4-1.1c0-0.6,0.6-1.1,1.4-1.1
						C997.1,790.1,997.7,790.6,997.7,791.2z"/>
					<path class="st13" d="M991.9,782.1c0,0.6-0.6,1.1-1.4,1.1c-0.8,0-1.4-0.5-1.4-1.1c0-0.6,0.6-1.1,1.4-1.1
						C991.3,781,991.9,781.5,991.9,782.1z"/>
					<path class="st13" d="M976.2,816.3c0,0.6-0.6,1.1-1.4,1.1c-0.8,0-1.4-0.5-1.4-1.1c0-0.6,0.6-1.1,1.4-1.1
						C975.5,815.2,976.2,815.7,976.2,816.3z"/>
					<path class="st13" d="M985.7,821.1c0,0.6-0.6,1.1-1.4,1.1c-0.8,0-1.4-0.5-1.4-1.1c0-0.6,0.6-1.1,1.4-1.1
						C985,820,985.7,820.5,985.7,821.1z"/>
					<path class="st13" d="M964.6,812.8c0,1.3-1.4,2.4-3.1,2.4c-1.7,0-3.1-1.1-3.1-2.4c0-1.3,1.4-2.4,3.1-2.4
						C963.2,810.4,964.6,811.5,964.6,812.8z"/>
					<path class="st4" d="M946.7,813.4c0,0-2.1-1-4.1,1.1C942.6,814.4,945.2,816.5,946.7,813.4z"/>
					<path class="st4" d="M962.5,798.2c0,0-2.8-1.4-5.5,1.4C957,799.7,960.5,802.5,962.5,798.2z"/>
					<path class="st4" d="M992.5,790.2c0,0-2.9,0-5.1,4.1C987.3,794.3,991.1,795.3,992.5,790.2z"/>
					<path class="st4" d="M1005.8,793.2c0,0-2.4-3-5.4-2C1000.4,791.2,1003.3,796.1,1005.8,793.2z"/>
					<path class="st4" d="M984.5,801.9c0,0-1.4-4-3.9-5.3C980.6,796.6,982,802.4,984.5,801.9z"/>
					<path class="st4" d="M979.7,807.6c0,0-2.4-0.3-4.5,2.8C975.3,810.4,978.4,811.8,979.7,807.6z"/>
					<path class="st4" d="M982,825.6c0,0-2-2.8-4.5-2.2C977.5,823.5,979.8,827.8,982,825.6z"/>
					<path class="st4" d="M985.5,813.6c0,0-2.4-0.2-4.4,3.1C981.1,816.7,984.3,817.8,985.5,813.6z"/>
					<path class="st4" d="M974.4,791.3c0,0-2.4-1.1-4.6,1.4C969.8,792.7,972.8,795,974.4,791.3z"/>
					<path class="st4" d="M968.4,786.1c0,0-1.8-3.2-4.4-3.2C964,782.8,966.1,787.7,968.4,786.1z"/>
					<path class="st32" d="M950.4,816L950.4,816c-2.7,1.4-4.1,4.2-3,6.2l0,0c0.8,1.5,2.5,1.2,4.5,0.4l1,1.9c0.1,0.3,0.5,0.3,0.9,0.2
						l1.9-1c0.4-0.2,0.5-0.6,0.4-0.8l-1-1.9c1.8-1.1,3-2.2,2.1-3.8l0,0C956.2,815.2,953.1,814.6,950.4,816z"/>
					<path class="st32" d="M1002.2,780.5L1002.2,780.5c2.2,1.1,3.3,3.4,2.5,5.1l0,0c-0.6,1.2-2.1,1-3.7,0.3l-0.8,1.6
						c-0.1,0.2-0.4,0.3-0.7,0.1l-1.6-0.8c-0.3-0.1-0.4-0.4-0.3-0.7l0.8-1.6c-1.5-0.9-2.4-1.8-1.7-3.1l0,0
						C997.4,779.8,1000,779.3,1002.2,780.5z"/>
					<path class="st32" d="M970.5,807.4L970.5,807.4c2.2,1.1,3.3,3.4,2.5,5.1l0,0c-0.6,1.2-2.1,1-3.7,0.3l-0.8,1.6
						c-0.1,0.2-0.4,0.3-0.7,0.1l-1.6-0.8c-0.3-0.1-0.4-0.4-0.3-0.7l0.8-1.6c-1.5-0.9-2.4-1.8-1.7-3.1l0,0
						C965.7,806.7,968.2,806.3,970.5,807.4z"/>
					<path class="st32" d="M951.7,790.2L951.7,790.2c-2.2,1.1-3.3,3.4-2.5,5.1l0,0c0.6,1.2,2.1,1,3.7,0.3l0.8,1.6
						c0.1,0.2,0.4,0.3,0.7,0.1l1.6-0.8c0.3-0.1,0.4-0.4,0.3-0.7l-0.8-1.6c1.5-0.9,2.4-1.8,1.7-3.1l0,0
						C956.4,789.5,953.9,789,951.7,790.2z"/>
				</g>
			</g>
			<g>
				<path class="st33" d="M1048.4,804.9l-51-2.8l-7-3.9v3.5l39.8,29c12-6.3,20.1-15.4,21.5-25.7v-3.5L1048.4,804.9z"/>
				<path class="st34" d="M1051.8,801.6c-1.5,10.3-9.5,19.4-21.5,25.7l-18-13.2l-3.8-2.7c0,0,0,0,0,0l-18-13.1L1051.8,801.6z"/>
				<g>
					<path class="st13" d="M1010.9,804.5c0,1.2-1.2,2.1-2.8,2.1c-1.5,0-2.8-0.9-2.8-2.1c0-1.2,1.2-2.1,2.8-2.1
						C1009.7,802.4,1010.9,803.3,1010.9,804.5z"/>
					<path class="st13" d="M1013.8,812.2c0,0.8-0.6,1.6-1.6,1.9l-3.8-2.7c0.4-0.8,1.4-1.3,2.6-1.3
						C1012.6,810.1,1013.8,811.1,1013.8,812.2z"/>
					<path class="st13" d="M1023.8,812.7c0,0.6-0.6,1.1-1.4,1.1c-0.8,0-1.4-0.5-1.4-1.1c0-0.6,0.6-1.1,1.4-1.1
						C1023.1,811.6,1023.8,812.1,1023.8,812.7z"/>
					<path class="st13" d="M1031.2,806.6c0,0.6-0.6,1.1-1.4,1.1c-0.8,0-1.4-0.5-1.4-1.1c0-0.6,0.6-1.1,1.4-1.1
						C1030.6,805.6,1031.2,806.1,1031.2,806.6z"/>
					<path class="st13" d="M1017.1,805c0,0.6-0.6,1.1-1.4,1.1c-0.8,0-1.4-0.5-1.4-1.1c0-0.6,0.6-1.1,1.4-1.1
						C1016.5,804,1017.1,804.5,1017.1,805z"/>
					<path class="st13" d="M1024.2,803.2c0,1-1,1.7-2.3,1.7c-1.3,0-2.3-0.8-2.3-1.7c0-1,1-1.7,2.3-1.7
						C1023.2,801.4,1024.2,802.2,1024.2,803.2z"/>
					<path class="st13" d="M1021.9,808.9c0,0.7-0.7,1.2-1.5,1.2c-0.9,0-1.5-0.5-1.5-1.2c0-0.7,0.7-1.2,1.5-1.2
						C1021.2,807.7,1021.9,808.2,1021.9,808.9z"/>
					<path class="st13" d="M1001.6,802.4c0,0.4-0.5,0.8-1,0.8c-0.6,0-1-0.3-1-0.8c0-0.4,0.5-0.8,1-0.8
						C1001.2,801.6,1001.6,802,1001.6,802.4z"/>
					<path class="st4" d="M1013.4,805.2c0,0-2,0-3.6,2.8C1009.8,808,1012.4,808.7,1013.4,805.2z"/>
					<path class="st4" d="M1036.4,807.9c0,0-1.5-2.6-3.6-2.5C1032.7,805.4,1034.5,809.3,1036.4,807.9z"/>
					<path class="st4" d="M1018.3,812.2c0,0-1.6-2.5-3.7-2.2C1014.6,810,1016.4,813.8,1018.3,812.2z"/>
					<path class="st4" d="M1030.3,814.7c0,0-2-0.5-3.7,1.9C1026.6,816.6,1029.1,818,1030.3,814.7z"/>
					<path class="st4" d="M999.7,800c0,0-1.7-0.8-3.4,1.1C996.4,801.1,998.6,802.7,999.7,800z"/>
				</g>
			</g>
		</g>
		<path class="st27" d="M1253.7,1060.3c0,0-8.1,3.9-10.3,8.7c-2.3,4.9-11.3,3.2-15.4,6.3c-4.1,3.1-8.2,12.3-19.3,12.2v2l4.5,1.7
			c0,0,30.2-8.4,34.3-11.7c4.1-3.3,14-11.8,14-11.8l1.4-7.3L1253.7,1060.3z"/>
		<path class="st22" d="M1078.9,1263.7h-87.8c-2,0-3.6-1.6-3.6-3.6l0,0c0-2,1.6-3.6,3.6-3.6h87.8c2,0,3.6,1.6,3.6,3.6l0,0
			C1082.5,1262.1,1080.8,1263.7,1078.9,1263.7z"/>
		<path class="st22" d="M1078.9,1246.9h-87.8c-2,0-3.6-1.6-3.6-3.6l0,0c0-2,1.6-3.6,3.6-3.6h87.8c2,0,3.6,1.6,3.6,3.6l0,0
			C1082.5,1245.3,1080.8,1246.9,1078.9,1246.9z"/>
		<g>
			<path class="st32" d="M1030.3,678.5h-102c-2.2,0-3.9-1.8-3.9-3.9l0,0c0-2.2,1.8-3.9,3.9-3.9h102c2.2,0,3.9,1.8,3.9,3.9l0,0
				C1034.2,676.8,1032.5,678.5,1030.3,678.5z"/>
			<path class="st32" d="M1030.3,694.5h-102c-2.2,0-3.9-1.8-3.9-3.9l0,0c0-2.2,1.8-3.9,3.9-3.9h102c2.2,0,3.9,1.8,3.9,3.9l0,0
				C1034.2,692.8,1032.5,694.5,1030.3,694.5z"/>
			<path class="st32" d="M1030.3,710.5h-102c-2.2,0-3.9-1.8-3.9-3.9l0,0c0-2.2,1.8-3.9,3.9-3.9h102c2.2,0,3.9,1.8,3.9,3.9l0,0
				C1034.2,708.8,1032.5,710.5,1030.3,710.5z"/>
		</g>
		<g>
			<path class="st32" d="M1204.6,564.4h-102c-2.2,0-3.9-1.8-3.9-3.9l0,0c0-2.2,1.8-3.9,3.9-3.9h102c2.2,0,3.9,1.8,3.9,3.9l0,0
				C1208.5,562.6,1206.8,564.4,1204.6,564.4z"/>
			<path class="st32" d="M1204.6,580.4h-102c-2.2,0-3.9-1.8-3.9-3.9l0,0c0-2.2,1.8-3.9,3.9-3.9h102c2.2,0,3.9,1.8,3.9,3.9l0,0
				C1208.5,578.6,1206.8,580.4,1204.6,580.4z"/>
			<path class="st32" d="M1204.6,596.4h-102c-2.2,0-3.9-1.8-3.9-3.9l0,0c0-2.2,1.8-3.9,3.9-3.9h102c2.2,0,3.9,1.8,3.9,3.9l0,0
				C1208.5,594.6,1206.8,596.4,1204.6,596.4z"/>
		</g>
		<g>
			<path class="st32" d="M1204.6,791.4h-102c-2.2,0-3.9-1.8-3.9-3.9l0,0c0-2.2,1.8-3.9,3.9-3.9h102c2.2,0,3.9,1.8,3.9,3.9l0,0
				C1208.5,789.6,1206.8,791.4,1204.6,791.4z"/>
			<path class="st32" d="M1204.6,807.4h-102c-2.2,0-3.9-1.8-3.9-3.9l0,0c0-2.2,1.8-3.9,3.9-3.9h102c2.2,0,3.9,1.8,3.9,3.9l0,0
				C1208.5,805.6,1206.8,807.4,1204.6,807.4z"/>
			<path class="st32" d="M1204.6,823.4h-102c-2.2,0-3.9-1.8-3.9-3.9l0,0c0-2.2,1.8-3.9,3.9-3.9h102c2.2,0,3.9,1.8,3.9,3.9l0,0
				C1208.5,821.6,1206.8,823.4,1204.6,823.4z"/>
		</g>
		<path class="st0" d="M1483.5,803.5h-97.6c-16.1,0-29.2-13.1-29.2-29.2l0,0c0-16.1,13.1-29.2,29.2-29.2h97.6
			c16.1,0,29.2,13.1,29.2,29.2l0,0C1512.7,790.3,1499.5,803.5,1483.5,803.5z"/>
		<path class="st27" d="M1416,765.9c0,0,18.5,25.9,18.5,25c-0.1-1,18.9-36.8,18.9-36.8l-21.8,21.2L1416,765.9z"/>
		<polygon class="st27" points="1126.5,1123 1063.8,1138.1 1044.3,1129.8 1105,1115.7 		"/>
	</g>
</g>
</svg>
