<?xml version="1.0" encoding="UTF-8"?>
<svg id="OBJECTS" xmlns="http://www.w3.org/2000/svg" viewBox="0 0 221.19 21.51">
  <defs>
    <style>
      .cls-122222 {
        fill: none;
        stroke: #452f27;
        stroke-miterlimit: 10;
        stroke-width: .16px;
      }

      .cls-22222 {
        fill: #452f27;
      }
    </style>
  </defs>
  <g>
    <path class="cls-22222" d="m0,12.78c3.82-2.34,8.2-3.63,12.6-4.4,4.43-.74,8.92-.93,13.4-.79,4.49.14,8.94.81,13.33,1.73,2.18.45,4.39,1,6.52,1.68,2.14.67,4.23,1.27,6.42,1.58,2.18.36,4.39.59,6.6.74,2.21.14,4.44.12,6.67.18,4.45.14,8.91-.03,13.36-.11,4.46-.11,8.91-.32,13.36-.6,4.45-.25,8.9-.62,13.34-1-4.42.61-8.86,1.08-13.31,1.49-4.45.38-8.91.67-13.37.88-2.23.11-4.46.19-6.7.23-2.23.06-4.47.07-6.71.02-2.24-.05-4.47-.01-6.71-.14-2.24-.13-4.48-.35-6.7-.71-2.23-.33-4.44-.97-6.55-1.65-2.12-.7-4.24-1.24-6.42-1.71-4.34-.95-8.74-1.59-13.17-1.85-4.43-.22-8.9-.12-13.29.51-4.39.61-8.75,1.78-12.68,3.92Z"/>
    <path class="cls-22222" d="m73.58,11.62c-3.13.03-6.26.15-9.42-.13-1.58-.13-3.15-.41-4.69-.85-.77-.22-1.55-.53-2.27-.97-.72-.45-1.36-1.08-1.79-1.82-.87-1.48-.99-3.42-.2-4.96.76-1.52,2.28-2.71,4-2.86.84-.09,1.72.05,2.48.46.76.4,1.37,1.08,1.64,1.89.26.81.12,1.78-.51,2.37-.63.58-1.48.71-2.25.68.77-.07,1.57-.32,2.06-.87.48-.55.52-1.38.24-2.02-.27-.66-.81-1.2-1.46-1.49-.65-.3-1.39-.38-2.1-.26-1.42.22-2.65,1.21-3.24,2.5-.62,1.27-.51,2.83.21,4.05.69,1.25,2.03,1.96,3.48,2.4,1.46.47,2.98.75,4.51.99,3.07.44,6.22.51,9.33.89Z"/>
    <path class="cls-22222" d="m30.93,16.12c.82-.07,1.72-.2,2.52.25.79.48,1.13,1.49.98,2.39-.31,1.88-2.4,3.01-4.2,2.69-1.8-.28-3.39-1.44-4.27-3.06-.89-1.69-.54-3.8.56-5.26,1.12-1.49,2.87-2.3,4.58-2.61,1.74-.3,3.49-.16,5.15.11,3.33.61,6.61,1.28,9.9,1.93-1.68-.13-3.35-.31-5.03-.5-1.66-.22-3.32-.49-4.97-.67-1.65-.16-3.31-.28-4.87.05-1.55.31-3.06,1.04-3.96,2.28-.93,1.2-1.2,2.9-.52,4.24.66,1.36,2.05,2.41,3.55,2.73.75.15,1.54.07,2.2-.3.66-.37,1.22-.97,1.39-1.73.2-.73-.01-1.61-.64-2.07-.65-.46-1.55-.45-2.38-.47Z"/>
  </g>
  <g>
    <path class="cls-22222" d="m221.19,12.78c-3.93-2.14-8.29-3.31-12.68-3.92-4.4-.63-8.86-.73-13.29-.51-4.43.26-8.83.9-13.17,1.85-2.18.46-4.31,1.01-6.42,1.71-2.11.68-4.32,1.33-6.55,1.65-2.22.36-4.46.57-6.7.71-2.24.13-4.48.09-6.71.14-2.24.05-4.47.03-6.71-.02-2.23-.04-4.47-.12-6.7-.23-4.46-.21-8.92-.5-13.37-.88-4.45-.41-8.89-.88-13.31-1.49,4.45.39,8.89.76,13.34,1,4.45.28,8.9.49,13.36.6,4.45.08,8.92.24,13.36.11,2.22-.07,4.45-.04,6.67-.18,2.21-.15,4.42-.38,6.6-.74,2.2-.31,4.29-.91,6.42-1.58,2.12-.69,4.33-1.24,6.52-1.68,4.38-.92,8.84-1.59,13.33-1.73,4.48-.13,8.98.06,13.4.79,4.4.78,8.78,2.06,12.6,4.4Z"/>
    <path class="cls-22222" d="m147.62,11.62c3.12-.38,6.26-.45,9.33-.89,1.53-.24,3.05-.52,4.51-.99,1.44-.44,2.79-1.15,3.48-2.4.72-1.21.83-2.77.21-4.05-.59-1.29-1.83-2.28-3.24-2.5-.7-.12-1.45-.04-2.1.26-.64.29-1.19.83-1.46,1.49-.28.65-.24,1.47.24,2.02.49.55,1.29.79,2.06.87-.77.03-1.62-.1-2.25-.68-.62-.59-.77-1.56-.51-2.37.27-.82.88-1.49,1.64-1.89.76-.4,1.63-.54,2.48-.46,1.72.15,3.24,1.33,4,2.86.79,1.55.67,3.48-.2,4.96-.43.75-1.07,1.38-1.79,1.82-.72.45-1.5.75-2.27.97-1.54.43-3.12.71-4.69.85-3.16.28-6.29.16-9.42.13Z"/>
    <path class="cls-122222" d="m190.26,16.12c-1.24-.05-2.62-.11-3.16,1.28-.34.87-.07,1.92.55,2.61,2.39,2.65,6.88.19,7.5-2.81.37-1.78-.4-3.54-1.77-4.69-1.23-1.02-2.82-1.52-4.41-1.67s-3.19.05-4.77.28c-1.56.23-3.12.49-4.67.79s-2.99.43-4.51.66"/>
  </g>
  <circle class="cls-22222" cx="110.97" cy="11.95" r=".78"/>
  <circle class="cls-22222" cx="110.97" cy="9.75" r=".33"/>
  <circle class="cls-22222" cx="110.97" cy="14.16" r=".33"/>
  <circle class="cls-22222" cx="108.39" cy="11.95" r=".78"/>
  <circle class="cls-22222" cx="113.47" cy="11.95" r=".78"/>
</svg>