<?xml version="1.0" encoding="UTF-8"?>
<svg id="dividers" xmlns="http://www.w3.org/2000/svg" viewBox="0 0 563.22 33.49">
  <defs>
    <style>
      .cls-1 {
        fill: #452f27;
      }
    </style>
  </defs>
  <g id="line_08">
    <g>
      <g>
        <path class="cls-1" d="m280.93,33.49c-.24-.03-.23-1.53-.05-3.81.38-2.24.87-5.33,2.48-8.2.38-.72.89-1.38,1.34-2.07.54-.62,1.09-1.26,1.71-1.79.66-.49,1.27-1.03,1.98-1.35.35-.17.67-.37,1.02-.5.35-.12.69-.23,1.02-.34.66-.22,1.3-.28,1.86-.39.57-.03,1.08-.08,1.51-.06.86.02,1.4.11,1.53.13,1.06.17,1.66,1.26,1.26,2.17-.39.9-1.16,1.47-1.88,1.35-.09-.02-.47-.1-1.08-.16-.3-.04-.66-.01-1.07-.03-.39.06-.85.05-1.32.18-.23.06-.48.12-.73.18-.25.06-.49.2-.74.3-.53.17-1,.54-1.52.85-.5.36-.96.81-1.45,1.26-.41.53-.89,1.02-1.28,1.6-1.65,2.28-2.51,5.12-3.28,7.17-.58,2.12-1.07,3.54-1.31,3.51Z"/>
        <path class="cls-1" d="m280.93,33.49c-.24.03-.73-1.39-1.31-3.51-.76-2.05-1.63-4.89-3.28-7.17-.39-.58-.87-1.07-1.28-1.6-.49-.45-.95-.9-1.45-1.26-.53-.31-.99-.68-1.52-.85-.26-.1-.49-.23-.74-.3-.25-.06-.49-.12-.73-.18-.46-.12-.92-.12-1.32-.18-.41.02-.76,0-1.07.03-.61.06-.99.13-1.08.16-.72.12-1.49-.45-1.88-1.35-.4-.91.21-1.99,1.26-2.17.13-.03.67-.11,1.53-.13.43-.02.94.03,1.51.06.56.11,1.21.17,1.86.39.33.11.67.23,1.02.34.35.12.67.33,1.02.5.71.32,1.32.85,1.98,1.35.61.53,1.16,1.17,1.71,1.79.45.69.96,1.35,1.34,2.07,1.61,2.86,2.1,5.96,2.48,8.2.18,2.28.2,3.78-.05,3.81Z"/>
      </g>
      <polygon class="cls-1" points="284.87 3.94 280.93 21.91 276.99 3.94 280.93 0 284.87 3.94"/>
    </g>
    <g>
      <g>
        <g>
          <rect class="cls-1" x="322.96" y="31" width="238.14" height=".73"/>
          <path class="cls-1" d="m563.22,31.37c0,1.17-.95,2.12-2.12,2.12s-2.12-.95-2.12-2.12.95-2.12,2.12-2.12,2.12.95,2.12,2.12Z"/>
        </g>
        <g>
          <path class="cls-1" d="m308.71,31.37c0,.73-.59,1.32-1.32,1.32s-1.32-.59-1.32-1.32.59-1.32,1.32-1.32,1.32.59,1.32,1.32Z"/>
          <path class="cls-1" d="m315.16,31.37c0,.96.78,1.74,1.74,1.74s1.74-.78,1.74-1.74-.78-1.74-1.74-1.74-1.74.78-1.74,1.74Z"/>
        </g>
      </g>
      <g>
        <g>
          <rect class="cls-1" x="2.12" y="31" width="238.14" height=".73"/>
          <path class="cls-1" d="m0,31.37c0,1.17.95,2.12,2.12,2.12s2.12-.95,2.12-2.12-.95-2.12-2.12-2.12-2.12.95-2.12,2.12Z"/>
        </g>
        <g>
          <path class="cls-1" d="m254.51,31.37c0,.73.59,1.32,1.32,1.32s1.32-.59,1.32-1.32-.59-1.32-1.32-1.32-1.32.59-1.32,1.32Z"/>
          <path class="cls-1" d="m248.06,31.37c0,.96-.78,1.74-1.74,1.74s-1.74-.78-1.74-1.74.78-1.74,1.74-1.74,1.74.78,1.74,1.74Z"/>
        </g>
      </g>
    </g>
  </g>
</svg>