<?xml version="1.0" encoding="UTF-8"?>
<svg id="OBJECTS" xmlns="http://www.w3.org/2000/svg" viewBox="0 0 216.52 21.1">
  <defs>
    <style>
      .cls-1 {
        fill: #ddbf7c;
      }
    </style>
  </defs>
  <g>
    <path class="cls-1" d="m32.97,7.64c-1.76-.14-3.15,1.9-2.54,3.47.59,1.59,2.63,2.36,4.13,1.69,1.53-.65,2.47-2.36,2.34-3.98-.11-1.64-1.05-3.18-2.37-4.13-2.65-1.96-6.69-1.74-9.08.48-2.42,2.21-3.24,5.98-2.05,9,1.18,3.05,4.1,5.31,7.3,5.89,3.22.59,6.66-.41,9.22-2.44,1.29-1.02,2.36-2.3,3.21-3.72.42-.71.79-1.45,1.12-2.22.18-.41.32-.8.67-1.25.09-.11.21-.24.41-.33.19-.1.45-.1.62-.05.35.1.53.26.72.4.71.58,1.28,1.14,1.95,1.63.66.5,1.36.95,2.08,1.34,1.45.79,3.02,1.38,4.63,1.78,3.23.82,6.63.9,9.94.41,3.32-.49,6.56-1.49,9.71-2.71,3.16-1.22,6.23-2.66,9.35-4.03,3.13-1.39,6.38-2.5,9.68-3.4,3.3-.91,6.69-1.48,10.09-1.8,3.4-.32,6.84-.35,10.24,0,3.4.36,6.77.99,10.03,1.99,3.26,1.01,6.41,2.32,9.43,3.89-3.06-1.5-6.23-2.73-9.5-3.66-3.27-.92-6.63-1.46-10-1.73-3.37-.3-6.77-.22-10.14.14-3.36.36-6.7.97-9.95,1.91-3.25.93-6.44,2.06-9.53,3.45-3.1,1.38-6.18,2.84-9.37,4.09-3.18,1.25-6.48,2.29-9.9,2.81-3.41.53-6.95.46-10.32-.38-1.69-.42-3.33-1.05-4.86-1.89-.76-.42-1.5-.9-2.19-1.43-.7-.51-1.35-1.15-1.96-1.65-.14-.11-.31-.22-.37-.23-.03,0,0,0,0,0,0,0-.04.02-.08.08-.18.22-.36.63-.52,1-.34.8-.73,1.58-1.19,2.33-.91,1.49-2.06,2.86-3.45,3.95-2.77,2.17-6.44,3.22-9.94,2.57-3.49-.64-6.61-3.12-7.86-6.47-1.25-3.34-.32-7.37,2.34-9.74,2.67-2.39,6.97-2.56,9.8-.4,1.4,1.07,2.36,2.73,2.44,4.5.09,1.77-.96,3.56-2.62,4.22-1.65.68-3.75-.2-4.34-1.87-.59-1.68.9-3.7,2.66-3.51Z"/>
    <path class="cls-1" d="m22.57,10.27c-3.76.39-7.52.48-11.28.5-3.76-.01-7.52-.1-11.28-.5,3.76-.4,7.52-.49,11.28-.5,3.76.02,7.52.11,11.28.5Z"/>
  </g>
  <g>
    <path class="cls-1" d="m183.56,13.46c1.76.14,3.15-1.9,2.54-3.47-.59-1.59-2.63-2.36-4.13-1.69-1.53.65-2.47,2.36-2.34,3.98.11,1.64,1.05,3.18,2.37,4.13,2.65,1.96,6.69,1.74,9.08-.48,2.42-2.21,3.24-5.98,2.05-9-1.18-3.05-4.1-5.31-7.3-5.89-3.22-.59-6.66.41-9.22,2.44-1.29,1.02-2.36,2.3-3.21,3.72-.42.71-.79,1.45-1.12,2.22-.18.41-.32.8-.67,1.25-.09.11-.21.24-.41.33-.19.1-.45.1-.62.05-.35-.1-.53-.26-.72-.4-.71-.58-1.28-1.14-1.95-1.63-.66-.5-1.36-.95-2.08-1.34-1.45-.79-3.02-1.38-4.63-1.78-3.23-.82-6.63-.9-9.94-.41-3.32.49-6.56,1.49-9.71,2.71-3.16,1.22-6.23,2.66-9.35,4.03-3.13,1.39-6.38,2.5-9.68,3.4-3.3.91-6.69,1.48-10.09,1.8-3.4.32-6.84.35-10.24,0-3.4-.36-6.77-.99-10.03-1.99-3.26-1.01-6.41-2.32-9.43-3.89,3.06,1.5,6.23,2.73,9.5,3.66,3.27.92,6.63,1.46,10,1.73,3.37.3,6.77.22,10.14-.14,3.36-.36,6.7-.97,9.95-1.91,3.25-.93,6.44-2.06,9.53-3.45,3.1-1.38,6.18-2.84,9.37-4.09,3.18-1.25,6.48-2.29,9.9-2.81,3.41-.53,6.95-.46,10.32.38,1.69.42,3.33,1.05,4.86,1.89.76.42,1.5.9,2.19,1.43.7.51,1.35,1.15,1.96,1.65.14.11.31.22.37.23.03,0,0,0,0,0,0,0,.04-.02.08-.08.18-.22.36-.63.52-1,.34-.8.73-1.58,1.19-2.33.91-1.49,2.06-2.86,3.45-3.95,2.77-2.17,6.44-3.22,9.94-2.57,3.49.64,6.61,3.12,7.86,6.47,1.25,3.34.32,7.37-2.34,9.74-2.67,2.39-6.97,2.56-9.8.4-1.4-1.07-2.36-2.73-2.44-4.5-.09-1.77.96-3.56,2.62-4.22,1.65-.68,3.75.2,4.34,1.87.59,1.68-.9,3.7-2.66,3.51Z"/>
    <path class="cls-1" d="m193.96,10.82c3.76-.39,7.52-.48,11.28-.5,3.76.01,7.52.1,11.28.5-3.76.4-7.52.49-11.28.5-3.76-.02-7.52-.11-11.28-.5Z"/>
  </g>
</svg>