<!-- Generator: Adobe Illustrator 22.1.0, SVG Export Plug-In  -->
<svg version="1.1"
	 xmlns="http://www.w3.org/2000/svg" xmlns:xlink="http://www.w3.org/1999/xlink" xmlns:a="http://ns.adobe.com/AdobeSVGViewerExtensions/3.0/"
	 x="0px" y="0px" width="417.8px" height="20.6px" viewBox="0 0 417.8 20.6" style="enable-background:new 0 0 417.8 20.6;"
	 xml:space="preserve">
<style type="text/css">
	.st0{fill:#544744;}
</style>
<defs>
</defs>
<path class="st0" d="M417.3,16.6H264.9c0.3-0.6,0.6-1.2,0.7-1.8h144.6c0.3,0,0.5-0.2,0.5-0.5c0-0.3-0.2-0.5-0.5-0.5H265.8
	c0-0.3,0.1-0.6,0.1-0.9c0-2.8-1.7-5.8-5.4-5.8c-1.6,0-2.9,1.3-2.9,2.8c0,1.3,1.1,2.4,2.4,2.4c1.1,0,2-0.9,2-2c0-0.3-0.2-0.5-0.5-0.5
	c-0.3,0-0.5,0.2-0.5,0.5c0,0.5-0.5,1-1,1c-0.8,0-1.4-0.6-1.4-1.4c0-1,0.8-1.8,1.9-1.8c3.1,0,4.4,2.4,4.4,4.8c0,1.6-0.6,3.3-1.8,4.4
	c-1.3,1.4-3.2,2.1-5.5,2.1h0c-4.4,0-6.9-2.2-9.7-4.7c-3.2-2.8-6.8-5.9-13.6-6.4c-0.2-0.3-0.5-0.6-0.7-0.9c-3-3.9-5.6-7.3-11.4-7.5
	c-5.4-0.3-10.1,2.2-12.7,6.6c-0.8,1.3-1.3,2.7-1.6,4.1c-0.3-1.4-0.8-2.8-1.6-4.1c-2.6-4.5-7.2-6.9-12.7-6.6
	c-5.8,0.3-8.4,3.6-11.4,7.5c-0.2,0.3-0.5,0.6-0.7,0.9c-6.8,0.5-10.4,3.6-13.6,6.4c-2.9,2.5-5.4,4.7-9.7,4.7h0
	c-2.3,0-4.2-0.7-5.5-2.1c-1.1-1.2-1.8-2.8-1.8-4.4c0-2.4,1.4-4.8,4.4-4.8c1,0,1.9,0.8,1.9,1.8c0,0.7-0.6,1.4-1.4,1.4
	c-0.6,0-1-0.4-1-1c0-0.3-0.2-0.5-0.5-0.5c-0.3,0-0.5,0.2-0.5,0.5c0,1.1,0.9,2,2,2c1.3,0,2.4-1.1,2.4-2.4c0-1.6-1.3-2.8-2.9-2.8
	c-3.7,0-5.4,3-5.4,5.8c0,0.3,0,0.6,0.1,0.9H7.5c-0.3,0-0.5,0.2-0.5,0.5c0,0.3,0.2,0.5,0.5,0.5H150c0.2,0.6,0.4,1.2,0.7,1.8H0.5
	c-0.3,0-0.5,0.2-0.5,0.5c0,0.3,0.2,0.5,0.5,0.5h150.9c0.1,0.2,0.3,0.3,0.4,0.5c0.5,0.5,1.1,1,1.9,1.4H7.5C7.3,19.5,7,19.7,7,20
	c0,0.3,0.2,0.5,0.5,0.5h150.5c0,0,0,0,0,0c0,0,0,0,0,0h0.8c0.1,0,0.1,0.1,0.2,0.1c0,0,0,0,0,0c0.3,0,0.5,0,0.7-0.1h2
	c0.1,0,0.1,0.1,0.2,0.1c7.9,0,12.7-3.8,16.8-7.2c3.5-2.8,6.5-5.2,10.7-5.2c2.3,0,4.2,0.7,5.5,2.1c1.1,1.2,1.8,2.8,1.8,4.4
	c0,2.4-1.4,4.8-4.4,4.8c-1,0-1.9-0.8-1.9-1.8c0-0.7,0.6-1.4,1.4-1.4c0.6,0,1,0.4,1,1c0,0.3,0.2,0.5,0.5,0.5c0.3,0,0.5-0.2,0.5-0.5
	c0-1.1-0.9-2-2-2c-1.3,0-2.4,1.1-2.4,2.4c0,1.6,1.3,2.8,2.9,2.8c3.7,0,5.4-3,5.4-5.8c0-1.9-0.7-3.8-2-5.1c-1.1-1.1-3-2.4-6.2-2.4
	c-3.4,0-6.1,1.5-8.7,3.4c0.3-0.4,0.7-0.8,1-1.2c0.1-0.1,0.2-0.2,0.2-0.3c0.2-0.3,0.5-0.6,0.7-0.9c3-3.8,5.3-6.9,10.7-7.1
	c6.9-0.3,10.4,3.7,11.8,6.1c2.1,3.5,2.4,7.9,0.8,10.5c-0.8,1.3-2.1,2-3.8,1.9c-1.6-0.1-2.8-1.3-2.8-2.8c0-1.2,1-2.1,2.1-2.1
	c0.9,0,1.6,0.7,1.6,1.6c0,0.3,0.2,0.5,0.5,0.5c0.3,0,0.5-0.2,0.5-0.5c0-1.4-1.2-2.6-2.6-2.6c-1.7,0-3.1,1.4-3.1,3.1
	c0,2,1.6,3.6,3.7,3.8c2,0.1,3.7-0.7,4.7-2.3c0.3-0.6,0.6-1.2,0.8-1.9c0.2,0.7,0.4,1.3,0.8,1.9c1,1.7,2.7,2.5,4.7,2.3
	c2.1-0.2,3.7-1.8,3.7-3.8c0-1.7-1.4-3.1-3.1-3.1c-1.4,0-2.6,1.2-2.6,2.6c0,0.3,0.2,0.5,0.5,0.5c0.3,0,0.5-0.2,0.5-0.5
	c0-0.9,0.7-1.6,1.6-1.6c1.2,0,2.1,1,2.1,2.1c0,1.5-1.2,2.7-2.8,2.8c-1.6,0.1-2.9-0.5-3.8-1.9c-1.6-2.5-1.2-7,0.8-10.5
	c1.4-2.4,4.8-6.4,11.8-6.1c5.4,0.2,7.7,3.3,10.7,7.1c0.2,0.3,0.5,0.6,0.7,0.9c0,0.1,0.1,0.2,0.2,0.3c0.3,0.4,0.7,0.8,1,1.2
	c-2.6-1.9-5.3-3.4-8.7-3.4c-3.2,0-5.2,1.3-6.2,2.4c-1.3,1.4-2,3.2-2,5.1c0,2.8,1.7,5.8,5.4,5.8c1.6,0,2.9-1.3,2.9-2.8
	c0-1.3-1.1-2.4-2.4-2.4c-1.1,0-2,0.9-2,2c0,0.3,0.2,0.5,0.5,0.5c0.3,0,0.5-0.2,0.5-0.5c0-0.5,0.5-1,1-1c0.8,0,1.4,0.6,1.4,1.4
	c0,1-0.8,1.8-1.9,1.8c-3.1,0-4.4-2.4-4.4-4.8c0-1.6,0.6-3.3,1.8-4.4c1.3-1.4,3.2-2.1,5.5-2.1c4.2,0,7.2,2.4,10.7,5.2
	c4.2,3.4,9,7.2,16.8,7.2c0.1,0,0.1,0,0.2-0.1h2c0.2,0,0.5,0,0.7,0.1c0,0,0,0,0,0c0.1,0,0.1,0,0.2-0.1h0.9c0,0,0,0,0,0c0,0,0,0,0,0
	h152.6c0.3,0,0.5-0.2,0.5-0.5c0-0.3-0.2-0.5-0.5-0.5H261.9c0.8-0.4,1.5-0.9,1.9-1.4c0.1-0.1,0.3-0.3,0.4-0.5h153.1
	c0.3,0,0.5-0.2,0.5-0.5C417.8,16.9,417.6,16.6,417.3,16.6z M168.5,15.6c3-2.7,6.2-5.4,12.1-6.1c-3.3,4-7.6,8.1-16.7,9.5
	C165.5,18.1,167,16.9,168.5,15.6z M247.2,15.6c1.5,1.3,2.9,2.6,4.7,3.5c-9.2-1.5-13.5-5.5-16.7-9.5C241,10.2,244.2,12.9,247.2,15.6z
	"/>
</svg>
