<?xml version="1.0" encoding="utf-8"?>
<!-- Generator: Adobe Illustrator 22.1.0, SVG Export Plug-In . SVG Version: 6.00 Build 0)  -->
<svg version="1.1" id="Layer_1" xmlns="http://www.w3.org/2000/svg" xmlns:xlink="http://www.w3.org/1999/xlink" x="0px" y="0px"
	 viewBox="0 0 147.4 196.9" style="enable-background:new 0 0 147.4 196.9;" xml:space="preserve">
<style type="text/css">
	.st0{fill:#D3A868;}
	.st1{fill:#B1B3C2;}
	.st2{fill:#1F2538;}
	.st3{fill:#3D4357;}
	.st4{clip-path:url(#SVGID_1_);}
	.st5{fill:#F0D1BC;}
	.st6{opacity:0.5;fill:#F0D1BC;}
	.st7{fill:#CA8579;}
	.st8{fill:#B1615A;}
	.st9{fill:#FFFFFF;}
	.st10{opacity:0.75;}
	.st11{opacity:0.5;fill:#B1615A;}
	.st12{opacity:0.85;fill:#F0D1BC;}
	.st13{opacity:0.25;fill:#6E7289;}
	.st14{fill:#6E7289;}
	.st15{opacity:0.25;}
	.st16{opacity:0.25;fill:#B1615A;}
	.st17{fill:#86AE9A;}
	.st18{opacity:0.25;fill:#86AE9A;}
	.st19{fill:#D46965;}
	.st20{fill:#973C4F;}
	.st21{opacity:0.25;fill:#B15F95;}
</style>
<g>
	<g>
		<path class="st0" d="M135.9,93c-20-32.6-55-67.5-78.7-55.6c-9.8,4.9-12.6,21.9-15.2,31.5c-5.1,18.3-22.4,12.1-33.3,22
			c-35,31.5,46.1,131,83.2,100.2c9.7-8.1,10.3-25,22.3-30.8c13.3-6.5,28.9-8.6,32.7-27C149.1,121.5,144.5,107,135.9,93z"/>
	</g>
	<g>
		<g>
			<path class="st1" d="M36,125.8c-0.6,0.7-1.2,1.4-1.9,2.1c-1.3,1.3-2.6,2.4-4.1,3.4c-1.6,1.1-3.4,1.9-5.2,2.5
				c-0.3,0.1-0.6,0.1-0.9,0.2c-0.3,0-0.6,0-0.9-0.1c-1.2-0.2-2.3-0.6-3.4-1.1c-1-0.5-1.9-1.1-2.9-1.6c-2.2-1.3-4-2.9-5.6-4.9
				c-1.9-2.3-2.9-5-3.4-7.9c-0.1-0.8,0-1.6,0.3-2.4c0.2-0.7,0.7-1.1,1.3-1.4c0.9-0.4,1.9-0.6,2.8-0.5c1,0.1,1.9,0.4,2.8,0.7
				c0.3,0.1,0.7,0.4,1.1,0.3c0-0.4-0.4-0.6-0.5-1c-0.1-0.2-0.2-0.3-0.3-0.5c-1.8-2.9-3.5-5.9-4.7-9c-0.6-1.5-1.1-3.1-1.4-4.7
				c-0.2-0.8-0.3-1.6-0.2-2.4c0-0.3,0.1-0.7,0.2-1c0.3-1.3,1.6-2.4,3.5-1.8c1,0.3,1.9,0.7,2.7,1.4c0.2,0.2,0.4,0.3,0.7,0.5
				c0,0,0.1,0.1,0.2,0.1c0.1-0.1,0.1-0.2,0-0.2c-1-2.1-1.6-4.3-2.1-6.6c-0.3-1.6-0.4-3.2-0.4-4.8c0.2-1.1,0.4-2.2,0.8-3.2
				c0.2-0.6,0.6-1.2,1-1.7c0.6-0.7,1.5-1,2.3-0.7c0.3,0.1,0.6,0.2,0.8,0.4c0.7,0.4,1.3,1,1.9,1.6c0.2,0.2,0.4,0.5,0.6,0.7
				c1,1.2,1.8,2.6,2.4,4c0.1,0.3,0.2,0.7,0.5,0.8c0.1-0.3,0.1-0.6,0.2-0.8c0-0.2,0.1-0.4,0.1-0.5c0.5-2.4,1.2-4.7,2.2-6.9
				c1.2-2.6,2.9-4.7,5.3-6.3c1.4-0.9,2.9-1.4,4.5-1.3c1.6,0.2,2.8,1,3.4,2.5c0.7,1.7,0.6,3.5,0.4,5.3c-0.2,1.5-0.7,3-1.2,4.4
				c-0.7,1.8-1.5,3.5-2.5,5.1c-0.2,0.3-0.4,0.5-0.5,0.8c0.3,0.2,0.6-0.1,0.9-0.1c0.1,0,0.1,0,0.2,0c1.8-0.3,3,0.8,3.1,2.5
				c0,0.2,0,0.3,0,0.5c0,1.3-0.4,2.5-1,3.6c-0.9,1.8-2.2,3.3-3.7,4.6c-0.3,0.2-0.6,0.4-0.7,0.7c0.3,0.3,0.7,0.1,1,0.2
				c0.1,0,0.1,0,0.2,0c1.4,0.3,2.4,1.1,2.9,2.5c0.2,0.7,0.3,1.4,0.1,2.1c-0.3,1.7-0.8,3.3-1.8,4.8c-1.1,1.6-2.2,3.2-3.7,4.5
				c0,0-0.1,0.1-0.1,0.1c0,0-0.1,0.1,0,0.2c0,0,0.1,0.1,0.2,0.1c0.4,0,0.8-0.1,1.2-0.1c1-0.1,1.9,0.1,2.8,0.5
				c0.7,0.4,1.2,0.9,1.5,1.6c0.3,0.8,0.3,1.6,0.1,2.4c-0.1,0.6-0.3,1.1-0.5,1.7C37.9,123.1,37.1,124.5,36,125.8z"/>
			<g>
				<g>
					<path class="st2" d="M34.2,77.3c-2.5,5.6-4.6,11.3-6.4,17.2c-1.8,5.8-3.3,11.8-4.1,17.8c-0.4,3-0.7,6.1-0.8,9.1
						c0,3,0.1,6.1,0.6,9.1c0.5,3,1.4,5.9,2.8,8.6c1.4,2.7,3.3,5.1,5.7,6.9c0.1,0.1,0.2,0.3,0.1,0.5s-0.3,0.2-0.5,0.1
						c-2.4-1.9-4.5-4.4-5.9-7.1c-1.4-2.7-2.4-5.7-2.9-8.8c-0.6-3-0.7-6.1-0.6-9.2c0-3.1,0.3-6.1,0.8-9.2c0.9-6.1,2.4-12.1,4.2-17.9
						c1.8-5.9,4-11.6,6.5-17.2c0.1-0.1,0.2-0.2,0.3-0.1C34.2,77,34.2,77.2,34.2,77.3L34.2,77.3z"/>
				</g>
				<g>
					<path class="st2" d="M36.7,93.6c-1,0.9-2.1,1.8-3.2,2.6c-0.6,0.4-1.1,0.8-1.7,1.2c-0.6,0.4-1.2,0.8-1.9,1
						c-0.2,0.1-0.4,0-0.4-0.2c-0.1-0.2,0-0.4,0.2-0.4l0,0c0.6-0.2,1.2-0.6,1.7-0.9c0.6-0.4,1.1-0.8,1.7-1.2c1.1-0.8,2.2-1.6,3.3-2.5
						c0.1-0.1,0.3-0.1,0.4,0C36.8,93.3,36.8,93.5,36.7,93.6z"/>
				</g>
				<g>
					<path class="st2" d="M19.1,87.7c0.4,1.3,0.9,2.6,1.3,3.9c0.2,0.6,0.5,1.3,0.7,1.9c0.3,0.6,0.5,1.3,0.9,1.8l0,0
						c0.1,0.1,0.1,0.4-0.1,0.5c-0.1,0.1-0.3,0.1-0.5-0.1c-0.5-0.6-0.7-1.3-1-1.9c-0.3-0.6-0.5-1.3-0.7-2c-0.4-1.3-0.8-2.6-1.2-4
						c0-0.1,0-0.3,0.2-0.3C19,87.5,19.1,87.5,19.1,87.7z"/>
				</g>
				<g>
					<path class="st2" d="M14.5,101c0.7,1.2,1.5,2.3,2.3,3.5c0.4,0.6,0.8,1.1,1.2,1.7c0.4,0.5,0.8,1.1,1.3,1.5l0,0
						c0.1,0.1,0.2,0.3,0,0.5c-0.1,0.1-0.3,0.2-0.5,0c-0.6-0.5-1-1-1.5-1.6c-0.4-0.6-0.8-1.1-1.2-1.7c-0.7-1.2-1.5-2.4-2.1-3.6
						c-0.1-0.1,0-0.3,0.1-0.4C14.3,100.9,14.4,100.9,14.5,101z"/>
				</g>
				<g>
					<path class="st2" d="M12.3,118.6c0.9,1,1.8,2.1,2.8,3c0.5,0.5,0.9,1,1.4,1.5c0.5,0.5,1,0.9,1.5,1.3l0,0
						c0.2,0.1,0.2,0.3,0.1,0.5c-0.1,0.2-0.3,0.2-0.4,0.1c-0.7-0.4-1.2-0.9-1.7-1.3c-0.5-0.5-1-1-1.5-1.5c-0.9-1-1.8-2.1-2.7-3.2
						c-0.1-0.1-0.1-0.3,0-0.4C12.1,118.5,12.2,118.5,12.3,118.6z"/>
				</g>
				<g>
					<path class="st2" d="M34.6,106.7c-1,0.9-2.1,1.8-3.2,2.6c-0.6,0.4-1.1,0.8-1.7,1.2c-0.6,0.4-1.2,0.8-1.9,1
						c-0.2,0.1-0.4,0-0.4-0.2c-0.1-0.2,0-0.4,0.2-0.4l0,0c0.6-0.2,1.2-0.6,1.7-0.9c0.6-0.4,1.1-0.8,1.7-1.2c1.1-0.8,2.2-1.6,3.3-2.5
						c0.1-0.1,0.3-0.1,0.4,0C34.8,106.5,34.7,106.6,34.6,106.7z"/>
				</g>
				<g>
					<path class="st2" d="M33.9,121.3c-1,0.9-2.1,1.8-3.2,2.6c-0.6,0.4-1.1,0.8-1.7,1.2c-0.6,0.4-1.2,0.8-1.9,1
						c-0.2,0.1-0.4,0-0.4-0.2c-0.1-0.2,0-0.4,0.2-0.4l0,0c0.6-0.2,1.2-0.6,1.7-0.9c0.6-0.4,1.1-0.8,1.7-1.2c1.1-0.8,2.2-1.6,3.3-2.5
						c0.1-0.1,0.3-0.1,0.4,0C34,121,34,121.2,33.9,121.3z"/>
				</g>
			</g>
		</g>
	</g>
	<g>
		<g>
			<path class="st3" d="M85.3,132.7c2.3,2.7,5.4,4,9,3.9c3.7-0.1,6.5-1,9-1.7c0.3,2.8,0.4,5,2.5,8.2c1.4,2.1,3.2,3.6,5.7,4.3
				c2,0.6,4.1,0.7,6.1,0.4c4.4-0.6,8.3-2.4,11.8-5.1c2.8-2.2,5.5-4.7,7.8-7.5c0.9-1.1,1.7-2.4,2.4-3.7c0.5-0.9,0.5-1.7-0.1-2.5
				c-2.8-0.2-10.4,4.2-18.7,1.2c-0.9-0.3-1.8-0.7-2.5-1.4c-2.2-2,1.9-1.9,4.8-1.8c12.5,0.6,18.1,2,21.5-6.7c0.8-2.4,1.5-3.5,1.2-6
				c-0.2-2.2-2.2-1.1-4.2-0.4c-11.9,3.9-12.9,4.9-17.6,3.1c-1.1-0.4-0.8-1.4,0.1-2.1c4-3.4,13.2,0.3,20.2-4.8
				c1.7-1.2,2.7-2.9,2.6-5.1c0-0.7,0-0.9-0.1-1.5c-1.6-7.3-1.6-6.9-1.9-7.5c-0.5-0.9-1.3-1.2-2.2-0.6c-3,2-6.6,6.8-13.2,7.6
				c-0.6,0.1-1.4,0.1-1.7-0.6c-0.3-0.7,0.2-1.3,0.7-1.7c4.7-4.3,7.1-4.2,10.5-6.9c5.4-4.5-0.6-10.3,0.8-16.3c0.2-0.7,0.1-1.5-0.6-2
				c-1.6,0-3.6,2.9-9.4,2.7c-8.4-0.3-14.9-1.2-16.3,5.1c-1.5,6.8,5.5,13,5.4,18.8c-0.1,3.8-3.7,2.4-5.6-1.2
				c-1.4-2.7-2.5-5.5-2.8-8.6c-0.4-4.2-0.4-8.4,0.8-12.5c0.4-1.2-0.5-1.7-0.5-1.7c-0.6-0.3-1.3,0.3-1.7,0.6
				c-2.8,2.3-5.9,4.5-8.3,7.3c-6.1,7.3,2,16.6,6.9,24c0.8,1.2,1.4,2.4,1.7,3.8c0,0.3,0.1,0.5,0,0.8c0,0.1-0.1,0.3-0.3,0.4
				c-0.9,0-1.2-0.6-1.6-1.3c-2.8-4.4-5.4-9-7.6-13.7c-1.3-2.9-3-6.3-5.8-4.9c-3.1,1.5-5.5,4.2-5.2,7.8c0.6,11.2,12.3,16.9,12.7,19.4
				c-0.8,0.6-1.7-0.1-2.9-1c-1.5-1.2-2.9-2.5-4-4.1c-6.8-9.4-7.6-11.9-9.7-9.8c-1.9,1.9-3.5,4-4.2,6.7
				C79.1,121,80.6,127.3,85.3,132.7z M121.2,119c1,1.4-0.8,3.4-3,0.6C116.9,117.8,119.5,116.5,121.2,119z M102.1,114.5
				c0.2-0.1,0.6,0,0.8,0.1c0.2,0.1,0.3,0.3,0.4,0.5c1.2,2,2.3,1.6,3,2.4c0.1,0.1,0.2,0.4,0.1,0.6c-0.3,1-2.1,0.3-2.6,0
				c-1.1-0.7-2-1.7-2-3.1C101.9,114.9,102,114.6,102.1,114.5z M118.9,138.6c-2.7,1.1-5.9,0.2-7-1.1c-1-1.2,0.5-2.5,2.2-2.9
				C118.4,133.8,122.9,137,118.9,138.6z"/>
			<g>
				<g>
					<path class="st2" d="M138.5,121.4c-0.9-0.6-2-0.9-3.1-1c-1.1-0.1-2.2,0-3.4,0.2c-2.2,0.4-4.4,1.2-6.5,2
						c-2.2,0.7-4.6,1.2-6.9,0.8c-2.3-0.4-4.5-1.3-6.5-2.5c-0.2-0.1-0.2-0.3-0.1-0.5s0.3-0.2,0.5-0.1c1.9,1.2,4,2.1,6.3,2.4
						c2.2,0.4,4.5-0.1,6.6-0.8c2.2-0.7,4.3-1.6,6.7-1.9c1.2-0.2,2.3-0.2,3.5-0.1c1.2,0.1,2.3,0.4,3.4,1.1c0.1,0.1,0.1,0.2,0.1,0.4
						C138.8,121.5,138.7,121.5,138.5,121.4L138.5,121.4z"/>
				</g>
				<g>
					<path class="st2" d="M131,133.4c-1.9,1-4.2,1.5-6.4,1.3c-1.1-0.1-2.2-0.4-3.2-0.8c-1-0.4-1.9-1-2.9-1.5c-1.8-1-3.7-2.2-5.8-2.3
						c-2.1-0.1-4.2,0.3-6.3,0.5c-0.2,0-0.3-0.1-0.4-0.3s0.1-0.3,0.3-0.4c2.1-0.2,4.2-0.6,6.4-0.5c1.1,0,2.2,0.4,3.2,0.8
						c1,0.4,1.9,1,2.9,1.5c0.9,0.5,1.8,1.1,2.8,1.5c1,0.4,2,0.7,3,0.8c2.1,0.2,4.2-0.2,6.1-1.1c0.1-0.1,0.3,0,0.3,0.1
						C131.2,133.1,131.1,133.3,131,133.4z"/>
				</g>
				<g>
					<path class="st2" d="M103.7,134c-0.4-2.4-1.8-4.7-3.9-5.9c-1.1-0.6-2.2-0.9-3.5-1.1c-1.2-0.2-2.5-0.5-3.7-1
						c-0.6-0.2-1.2-0.5-1.8-0.9c-0.6-0.4-1-0.9-1.4-1.4c-0.8-1-1.4-2.2-1.9-3.4c-0.5-1.2-0.9-2.4-1.1-3.7c-0.2-1.3-0.2-2.6,0.1-3.9
						c0.1-0.2,0.2-0.3,0.4-0.2c0.2,0.1,0.3,0.2,0.2,0.4l0,0c-0.3,1.1-0.3,2.4-0.1,3.6c0.2,1.2,0.6,2.4,1.1,3.6
						c1,2.2,2.3,4.5,4.7,5.3c1.1,0.4,2.4,0.7,3.6,0.9c1.2,0.2,2.6,0.5,3.7,1.2c2.3,1.4,3.7,3.8,4.1,6.4c0,0.1-0.1,0.3-0.2,0.3
						C103.9,134.3,103.8,134.2,103.7,134L103.7,134z"/>
				</g>
				<g>
					<path class="st2" d="M114.7,116.3c-1.4-2.2-2.4-4.7-3-7.2c-0.4-2.6-1.1-5-2.4-7.2c-0.7-1.1-1.5-2-2.3-3.1
						c-0.8-1.1-1.4-2.3-1.8-3.5c-0.8-2.5-0.6-5.4,0.7-7.8c0.1-0.2,0.3-0.2,0.5-0.1s0.2,0.3,0.1,0.5l0,0c-1.2,2.1-1.4,4.8-0.6,7.2
						c0.4,1.2,1,2.3,1.7,3.3c0.7,1,1.6,2,2.3,3.1c0.7,1.1,1.2,2.3,1.6,3.6c0.4,1.2,0.6,2.6,0.8,3.8c0.5,2.5,1.5,4.9,2.8,7.1l0,0
						c0.1,0.1,0,0.3-0.1,0.4C114.9,116.4,114.8,116.4,114.7,116.3z"/>
				</g>
				<g>
					<path class="st2" d="M140.6,105c-1.5,1.4-3.4,2.2-5.3,2.8c-1,0.3-2,0.5-3,0.5c-1,0.1-2,0.1-3,0.1c-1.9,0.1-3.9,0.5-5.8,1
						c-0.9,0.3-1.9,0.6-2.8,0.9c-0.9,0.4-2,0.5-2.6,1.1l0,0c-0.1,0.1-0.4,0.1-0.5,0c-0.1-0.1-0.1-0.4,0-0.5c0,0,0,0,0,0
						c0.9-0.7,1.9-0.9,2.8-1.2c0.9-0.3,1.9-0.6,2.8-0.9c1.9-0.6,3.9-1,5.9-1c2,0,3.9,0,5.8-0.5c1.9-0.5,3.7-1.3,5.2-2.6
						c0.1-0.1,0.3-0.1,0.4,0C140.8,104.8,140.8,104.9,140.6,105z"/>
				</g>
				<g>
					<path class="st2" d="M125.8,99.3c0.2-1.6,0.1-3.2-0.3-4.7c-0.4-1.5-1.1-3-1.9-4.4c-0.8-1.4-1.7-2.8-2.5-4.2
						c-0.4-0.7-0.8-1.4-1.1-2.3c-0.1-0.4-0.2-0.9-0.2-1.4c0.1-0.5,0.4-0.9,0.7-1.2l0,0c0.1-0.1,0.4-0.1,0.5,0s0.1,0.4,0,0.5
						c0,0,0,0,0,0c-0.6,0.4-0.6,1.2-0.3,1.9c0.3,0.7,0.7,1.4,1.1,2.1c0.8,1.4,1.8,2.7,2.6,4.2c0.8,1.4,1.4,3,1.8,4.6
						c0.4,1.6,0.5,3.3,0.3,5c0,0.1-0.2,0.2-0.3,0.2C125.9,99.6,125.8,99.4,125.8,99.3z"/>
				</g>
				<g>
					<path class="st2" d="M140.1,88.4c-0.6,0.6-1.3,1.1-2,1.6c-0.7,0.5-1.5,0.9-2.3,1.3c-1.6,0.7-3.4,1.2-5.2,0.9
						c-0.2,0-0.3-0.2-0.3-0.4c0-0.2,0.2-0.3,0.4-0.3l0,0c0.8,0.1,1.6,0.1,2.4-0.1c0.8-0.2,1.6-0.5,2.3-0.8c0.8-0.3,1.5-0.8,2.2-1.2
						c0.7-0.5,1.4-1,2-1.5l0,0c0.1-0.1,0.3-0.1,0.4,0C140.2,88.2,140.2,88.4,140.1,88.4z"/>
				</g>
				<g>
					<path class="st2" d="M137.4,78.8c-2.3,3.1-3.5,6.8-5.1,10.3c-1.6,3.5-3.6,6.8-5.8,10c-2.1,3.2-4.4,6.3-6.5,9.5
						c-2.1,3.2-4.1,6.5-6.1,9.8c-2,3.3-3.9,6.6-5.9,9.9c-2,3.3-4.1,6.6-6.5,9.6c-2.4,3.1-5,5.9-8,8.4c-2.9,2.5-6.2,4.7-9.8,6.1
						c-0.2,0.1-0.4,0-0.4-0.2c-0.1-0.2,0-0.4,0.2-0.4l0,0c3.5-1.4,6.8-3.5,9.7-6c2.9-2.5,5.5-5.3,7.9-8.3c2.4-3,4.4-6.3,6.4-9.5
						c2-3.3,3.9-6.6,5.9-9.9c2-3.3,4-6.6,6.1-9.8c2.2-3.2,4.4-6.3,6.6-9.5c2.1-3.2,4.2-6.5,5.8-9.9c1.6-3.5,2.8-7.2,5.2-10.4
						c0.1-0.1,0.2-0.1,0.4-0.1S137.5,78.7,137.4,78.8z"/>
				</g>
			</g>
		</g>
	</g>
	<g>
		<g>
			<defs>
				<path id="SVGID_5_" d="M135.9,93c-8.2-13.3-22-74.6-33.4-85.4C86-8,53.8,4,39.7,11.1c-9.8,4.9,4.9,48.2,2.3,57.7
					c-5.1,18.3-22.4,12.1-33.3,22c-13.4,12-9.8,34,1.8,54.8c0.9,1.6,3,2.9,2.8,4.8c-0.3,4-3.7,14.4-0.8,18.1
					c2.1,2.7,4.5,5.8,9.3,6.4c3.2,0.4,9.2-1.9,10.8-0.4c19.4,19,43.3,29.7,59.2,16.5c4.4-3.7,7-9.1,9.5-14.6
					c3.1-6.5,11.9,22.3,18.4,19.1c3.8-1.9,11.8-7.4,15.6-9c9.6-4.1,8.7-40.2,11.4-53.3C149.2,121.5,144.5,107,135.9,93z"/>
			</defs>
			<clipPath id="SVGID_1_">
				<use xlink:href="#SVGID_5_"  style="overflow:visible;"/>
			</clipPath>
			<g class="st4">
				<g>
					<path class="st5" d="M98.4,30.4c-7.7,5.1-11.7,3.7-11.1,5.7c0.7,2.2,1.8,8.9,2,10.2c0.3,1.6-2-1.2-10.9-1.2c-0.1,0-0.2,0-0.4,0
						c-11.9,0.1-18.6,6-21.2,7.5c-0.8,0.5-0.8,0.5-1-0.4c-0.3-1.6-1.7-6.5-1.6-11.5c0.1-2.6-0.7-1.7-3.1-1.6
						c-6.5,0.3-14.2-3.2-13.4-10.8c0.4-4.5,3.2-6.8,6.6-8.5c4.4-2.2,9.6-3.4,12.6-7.6c4.1-5.8,10.6-10.4,18-8.6
						c7.2,1.8,7.9,6.6,10.3,8.8c2.3,2.3,5.4,1.4,8.3,2.2c3.1,0.8,6,3.2,7.2,6.2C101.9,24,101.3,28.5,98.4,30.4z"/>
					<path class="st6" d="M78,45.2c-11.9,0.1-18.6,6-21.2,7.5c-0.8,0.5-0.8,0.5-1-0.4c-0.3-1.6-1.7-6.5-1.6-11.5
						c0.1-2.6-0.7-1.7-3.1-1.6c-6.5,0.3-14.2-3.2-13.4-10.8c0.4-4.5,3.2-6.8,6.6-8.5c0.5,4.4,3.1,11.1,14.2,10.8
						C74.9,30.2,75.1,28.6,77,42C77.2,43.2,77.5,44.3,78,45.2z"/>
					<g>
						<g>
							<path class="st2" d="M75.9,9.3c-0.5,1-0.6,2.2-0.2,3.3c0.3,1.1,1,2,1.9,2.8c1.7,1.6,3.8,2.7,6,3.4c2.2,0.6,4.7,0.6,7,1.2
								c1.2,0.3,2.4,0.8,3.3,1.7c0.9,0.9,1.4,2.2,1.5,3.4c0,0.2-0.1,0.3-0.3,0.4c-0.2,0-0.3-0.1-0.4-0.3c-0.1-1.1-0.5-2.2-1.3-3
								c-0.8-0.8-1.9-1.2-3-1.5c-2.2-0.6-4.7-0.6-7-1.2c-2.3-0.7-4.5-1.9-6.3-3.6c-0.9-0.9-1.6-1.9-2-3.1c-0.4-1.2-0.3-2.5,0.3-3.7
								C75.5,9,75.6,8.9,75.7,9C75.9,9,75.9,9.2,75.9,9.3z"/>
						</g>
						<g>
							<path class="st2" d="M57.3,38.5c2.2-0.7,4.4-1.2,6.7-1.7c2.2-0.5,4.5-0.9,6.8-1.1c4.6-0.5,9.2-0.5,13.7,0.8
								c0.2,0.1,0.3,0.2,0.2,0.4S84.4,37,84.3,37l0,0l0,0c-2.2-0.6-4.4-0.9-6.7-1c-2.3-0.1-4.5,0.1-6.8,0.3c-2.3,0.2-4.5,0.6-6.7,1
								c-2.2,0.5-4.4,1-6.6,1.6l0,0c-0.1,0-0.3,0-0.3-0.2C57.1,38.6,57.2,38.5,57.3,38.5z"/>
						</g>
						<g>
							<path class="st2" d="M60.6,14.1c0,2.3-1.3,4.4-3.1,5.6c-0.9,0.7-2,1-3,1.4c-0.5,0.1-1.1,0.2-1.6,0.3l-1.6,0.2
								c-0.2,0-0.3-0.1-0.4-0.3c0-0.2,0.1-0.3,0.3-0.4l0,0l1.6-0.2c0.5-0.1,1-0.2,1.5-0.3c1-0.3,2-0.7,2.8-1.3
								c0.8-0.6,1.6-1.3,2.1-2.2c0.5-0.9,0.8-1.9,0.9-2.9l0,0c0-0.1,0.1-0.3,0.3-0.3C60.5,13.8,60.6,13.9,60.6,14.1z"/>
						</g>
					</g>
				</g>
				<path class="st7" d="M14.3,169.1c4.2,8.2,14.6,4.4,18.6-2c4.5-7.3,4.9-17.3,6.5-25.7c1.4-7.1,2.5-15.4,0.5-22.5
					c-2.6-9.5-12.3-9.1-15.6-3.1C17.2,128.7,9.9,160.6,14.3,169.1z"/>
				<g>
					<g>
						<path class="st5" d="M105.2,197.5c-8.1,1.9-33.7,2.7-52.6,1.9c-7.8-0.3-14.5-1-18.4-1.9c-1.7-0.4-2.3,0.9-1.9-7.8
							c0.5-9.1,2.1-29.1,5-73.3c1.1-18.7,0.6-17.7,1.3-18.2c14.4-8.6,47.9-8.3,62,0c0.7,0.4,0.2-0.6,1.3,18.2
							c0.3,4.3,0.6,8.4,0.8,12.3c0.5,7.8,1,14.6,1.4,20.8C107.9,201.1,108.1,196.8,105.2,197.5z"/>
						<path class="st5" d="M105.2,197.5c-8.1,1.9-33.7,2.7-52.6,1.9c-7.8-0.3-14.5-1-18.4-1.9c-1.7-0.4-2.3,0.9-1.9-7.8
							c3.6-0.9,7.9-1.3,9.7-1.7c31.7-6,50-31.1,60.8-59.3c0.5,7.8,1,14.6,1.4,20.8C107.9,201.1,108.1,196.8,105.2,197.5z"/>
					</g>
					<g>
						<g>
							<g>
								<g>
									<path class="st7" d="M82.2,97.4c-3.3,6.2-5,8.5-12.5,7.8c-7.5-0.7-13.4-2.8-12.7-10.2c0.2-1.8,0.7-3.5,1.5-5
										c0-0.1,0.1-0.1,0.1-0.2c1.5-3.1,2.4-5.3,2.9-7c0.4-1.3,0.6-2.3,0.8-3.5l0-0.1c0.5-5.4,5.4-9.4,10.8-8.8
										c5.4,0.5,9.4,5.4,8.8,10.8c0,1.3,0,2.3,0.1,3.7c0.2,1.9,0.7,4.2,1.5,7.7C84.1,94,83,95.8,82.2,97.4z"/>
								</g>
							</g>
							<path class="st8" d="M82,83.3L82,83.3c-1.6,2.5-4.5,4.7-7.1,6.1c-3.9,2.2-8,3.1-12.5,2.7c-1.7-0.2-3.6-0.5-4.6-1.1
								c0,0,0,0,0-0.1c0.1-0.2,0.2-0.4,0.3-0.6c0.1-0.2,0.2-0.4,0.3-0.6c0-0.1,0.1-0.1,0.1-0.2c1.5-3.1,2.4-5.3,2.9-7
								c0.4-1.3,0.6-2.3,0.8-3.5l0-0.1c0.5-5.4,5.4-9.4,10.8-8.8c5.4,0.5,9.4,5.4,8.8,10.8C82,81.8,82,82.6,82,83.3z"/>
						</g>
						<g>
							<g>
								<g>
									<g>
										<path class="st7" d="M59.2,64.1c-0.2,2.3,0.1,4.9-2.2,4.7c-3.6-0.4-5.6-3.4-5.4-5.7c0.2-2.3,1.5-3.8,3.8-3.5
											C57.8,59.8,59.5,61.8,59.2,64.1z"/>
									</g>
									<g>
										<path class="st2" d="M54.1,65.1c-0.2-0.3-0.3-0.7-0.5-1.1c-0.1-0.4-0.2-0.7-0.3-1.2c0-0.1,0.1-0.3,0.2-0.3
											c0.1,0,0.2,0.1,0.3,0.2l0,0c0.2,0.6,0.6,1.4,0.8,2l0,0c0.1,0.2,0,0.4-0.2,0.4C54.4,65.3,54.2,65.3,54.1,65.1z"/>
									</g>
								</g>
								<g>
									<g>
										<path class="st7" d="M87.9,67c-0.2,2.3-1.1,4.8,1.2,5c3.6,0.4,6.2-2.3,6.4-4.6c0.2-2.3-0.8-4-3.1-4.2
											C90.2,63,88.1,64.7,87.9,67z"/>
									</g>
									<g>
										<path class="st2" d="M92.2,68.5c0.4-0.6,0.9-1.2,1.2-1.8l0,0c0.1-0.1,0.2-0.2,0.4-0.1c0.1,0.1,0.2,0.2,0.1,0.3
											c-0.1,0.4-0.3,0.7-0.5,1.1c-0.2,0.3-0.4,0.7-0.7,1c-0.1,0.1-0.3,0.2-0.5,0C92.1,68.9,92.1,68.7,92.2,68.5L92.2,68.5z"/>
									</g>
								</g>
							</g>
							<path class="st7" d="M87.5,78.3c-2.7,3.6-8.8,8.5-15.9,7.9l-0.1,0c-7.1-0.8-12.1-6.8-14.1-10.9c-3.6-7.4-1.3-21.2,2.6-27.6
								c3.7-6.1,9.6-9,16.2-8.5c0,0,0,0,0.1,0c0,0,0,0,0.1,0C82.8,40.1,88,44,90.4,50.8C92.9,57.7,92.5,71.7,87.5,78.3z"/>
							<g>
								<path class="st2" d="M79.7,57.1c0.2-2.1,5.4-1,4.9,1.1C84.2,59.9,79.5,58.8,79.7,57.1z"/>
								<g>
									<path class="st9" d="M76.2,75.8c-0.4,0.3-0.9,0.5-1.4,0.6c-1.9,0.4-4.1-0.7-5-2.4c0-0.1-0.1-0.1-0.1-0.2
										c-0.2-0.5-0.3-1-0.3-1.5c0-0.5,0.2-1.3,0.7-1.5c0.5-0.2,1.2-0.1,1.6,0.3c0.2,0.2,0.4,0.4,0.6,0.7c0.7,0.9,1.6,1.4,2.7,1.7
										c0.3,0.1,0.7,0.1,1,0.3C76.9,74.2,77,75.3,76.2,75.8z"/>
								</g>
								<path class="st2" d="M82.8,63.6c-0.2,0.7-0.7,1-1.3,0.9c-1.2-0.2-1.5-1.9-0.8-2.8c0.6-0.8,1.9-0.4,2.1,0.5
									C83,62.7,83,63.2,82.8,63.6z"/>
								<path class="st2" d="M67.6,62.2c-0.2,0.7-0.7,1-1.3,0.9c-1.2-0.2-1.5-1.9-0.8-2.8c0.6-0.8,1.9-0.4,2.1,0.5
									C67.8,61.3,67.8,61.8,67.6,62.2z"/>
								<path class="st2" d="M64.2,56.2c-0.3-2.1,5-2.2,5-0.1C69.3,57.9,64.4,57.9,64.2,56.2z"/>
								<g>
									<path class="st2" d="M75.4,59.7c0.3,1.9,0.4,3.8,0.4,5.7c0,0.5,0,1-0.1,1.5c-0.1,0.5-0.5,1.1-1,1.3c-0.5,0.3-1,0.4-1.5,0.4
										l-0.7,0c-0.3,0-0.5,0-0.8-0.1c-0.2,0-0.3-0.2-0.2-0.3c0-0.1,0.1-0.2,0.3-0.2c0.2,0,0.5,0,0.7,0l0.7-0.1
										c0.4,0,0.9-0.1,1.2-0.3c0.7-0.4,0.8-1.4,0.8-2.3c0-0.9,0-1.9-0.1-2.8c0-0.9-0.1-1.9-0.1-2.8l0,0c0-0.1,0.1-0.2,0.2-0.2
										C75.3,59.5,75.4,59.6,75.4,59.7z"/>
								</g>
								<g class="st10">
									<g>
										<path class="st11" d="M59,68.3c0-1.4,1.9-2.8,4.1-2.6c2.1,0.1,3.8,1.3,3.7,3.2c0,1.5-1.9,2.9-3.9,2.8
											C60.8,71.5,58.9,70.3,59,68.3z"/>
									</g>
									<g>
										<path class="st11" d="M87.6,71.1c0.2-1.4-1.3-3.1-3.5-3.4c-2-0.3-3.9,0.5-4.3,2.4c-0.3,1.5,1.3,3.2,3.2,3.5
											C85.2,73.9,87.3,73.1,87.6,71.1z"/>
									</g>
								</g>
							</g>
							<g>
								<defs>
									<path id="SVGID_7_" d="M87.5,78.3c-2.7,3.6-8.8,8.5-15.9,7.9l-0.1,0c-7.1-0.8-12.1-6.8-14.1-10.9
										c-3.6-7.4-1.3-21.2,2.6-27.6c3.7-6.1,9.6-9,16.2-8.5c0,0,0,0,0.1,0c0,0,0,0,0.1,0C82.8,40.1,88,44,90.4,50.8
										C92.9,57.7,92.5,71.7,87.5,78.3z"/>
								</defs>
								<clipPath id="SVGID_2_">
									<use xlink:href="#SVGID_7_"  style="overflow:visible;"/>
								</clipPath>
							</g>
						</g>
						<g>
							<g>
								<path class="st2" d="M63.2,54c-0.2,0-0.4,0.1-0.6,0.1c-1.2,0.2-0.2,0.5-0.9,2.7c-0.8,2.3-2.2,4-4.6,4.6
									c-1.9,0.5-3.7,0-5.1-1.7c-1.4-1.8-1.8-3.8-1.3-6c1.5-5.9,7-11.3,14.5-12.4c1.2-0.2,2,0.3,2.6,1.2C70.2,46,69.4,52.8,63.2,54
									z"/>
								<path class="st2" d="M92.7,44.5c6.1,1.2,12.7,7.6,10.4,13.9c-1.8,5-9,7.9-13.4,4.4c-4.9-4-5.3-8.2-7-11
									c-4.1-7-10-5.9-15.5-6.1c-1.7-0.1-4-1.7-2.6-3.7c6.7-9.9,21.1-11.5,26.9-6.8c1.5,1.2,3,3.4,2.9,5.4
									C94.4,41.4,92.1,44.4,92.7,44.5z"/>
							</g>
							<g>
								<g>
									<path class="st3" d="M65.6,41.6c0.8,0.3,1.4,0.7,1.9,1.3c0.5,0.6,0.9,1.2,1.2,1.9c0.1,0.2,0,0.4-0.2,0.4
										c-0.2,0.1-0.3,0-0.4-0.2c-0.3-0.6-0.6-1.2-1-1.7c-0.2-0.3-0.5-0.5-0.7-0.7c-0.3-0.2-0.6-0.4-0.8-0.5l0,0
										c-0.1-0.1-0.2-0.2-0.1-0.3C65.3,41.6,65.5,41.6,65.6,41.6z"/>
								</g>
								<g>
									<path class="st3" d="M79.6,44.5c1.5,0.6,2.9,1.3,4.3,2.2c1.4,0.9,2.6,1.9,3.8,3c1.1,1.2,2.1,2.5,2.8,4
										c0.7,1.5,1.1,3.1,1.3,4.7c0,0.2-0.1,0.3-0.3,0.4c-0.2,0-0.3-0.1-0.4-0.3l0,0C91,56.9,90.7,55.4,90,54
										c-0.7-1.4-1.6-2.7-2.7-3.8c-1.1-1.1-2.3-2.1-3.6-3c-1.3-0.9-2.7-1.6-4.2-2.2l0,0c-0.1-0.1-0.2-0.2-0.1-0.3
										C79.3,44.5,79.5,44.4,79.6,44.5z"/>
								</g>
								<g>
									<path class="st3" d="M65.8,46.2c-1.1,0.6-2.2,1.4-3.2,2.2c-1,0.8-1.9,1.7-2.8,2.7c-0.8,1-1.5,2.1-2,3.3
										c-0.5,1.2-0.8,2.5-0.8,3.7l0,0c0,0.2-0.2,0.3-0.4,0.3c-0.2,0-0.3-0.2-0.3-0.4c0.1-1.4,0.3-2.7,0.9-4
										c0.5-1.2,1.3-2.4,2.1-3.4c0.9-1,1.9-1.9,2.9-2.8c1.1-0.8,2.2-1.6,3.4-2.2c0.1-0.1,0.3,0,0.3,0.1C66,46,66,46.2,65.8,46.2
										L65.8,46.2z"/>
								</g>
							</g>
						</g>
					</g>
					<g>
						<path class="st5" d="M72.5,111.7c-0.7-0.8-1.2-1.6-1.7-2.5c-0.1-0.3-0.7-1.5-1-1.6c-0.3-0.1-0.4,0.4-0.5,0.6
							c-2.1,3.8-3.4,6.1-7.2,3.9c-3-1.6-5.8-3.5-8.1-5.9c-2.4-2.5-4.7-5.2-6.6-8.3c-0.3-0.6-0.5-1.2-0.8-1.7c-0.3-0.5-0.2-1,0.2-1.4
							c1.9-2.1,4.8-4.3,7-5.3c0.7-0.3,1.3-0.3,2,0.1c6,3.6,10.4,8.4,13.6,14.4c0.3,0.6,0.4,1,0.7,0.4c2.4-4.2,4.7-7.6,8.6-11
							c1.1-1,4.3-3.2,5.1-3.6c0.9-0.5,1.7-0.5,2.5,0c2.7,1.4,4.4,2.9,6.4,4.8c0.5,0.5,0.6,1,0.4,1.7c-0.9,2.3-3.4,5.6-5.1,7.5
							c-3.8,4.4-7.1,6.7-11,8.7C75,113.4,73.6,113,72.5,111.7z"/>
						<path class="st9" d="M72,116.9c0,1.3-1,2.3-2.3,2.3c-1.3,0-2.3-1-2.3-2.3c0-1.3,1-2.3,2.3-2.3C71,114.6,72,115.7,72,116.9z"/>
						<path class="st9" d="M72,124.8c0,1.3-1,2.3-2.3,2.3c-1.3,0-2.3-1-2.3-2.3c0-1.3,1-2.3,2.3-2.3C71,122.5,72,123.5,72,124.8z"/>
						<path class="st12" d="M72.5,111.7c-0.7-0.8-1.2-1.6-1.7-2.5c-0.1-0.3-0.7-1.5-1-1.6c-0.3-0.1-0.4,0.4-0.5,0.6
							c-2.1,3.8-3.4,6.1-7.2,3.9c-3-1.6-5.8-3.5-8.1-5.9c-2.4-2.5-4.7-5.2-6.6-8.3c-0.3-0.6-0.5-1.2-0.8-1.7c-0.3-0.5-0.2-1,0.2-1.4
							c1.9-2.1,4.8-4.3,7-5.3c0.7-0.3,1.3-0.3,2,0.1c6,3.6,10.4,8.4,13.6,14.4c0.3,0.6,0.4,1,0.7,0.4c2.4-4.2,4.7-7.6,8.6-11
							c1.1-1,4.3-3.2,5.1-3.6c0.9-0.5,1.7-0.5,2.5,0c2.7,1.4,4.4,2.9,6.4,4.8c0.5,0.5,0.6,1,0.4,1.7c-0.9,2.3-3.4,5.6-5.1,7.5
							c-3.8,4.4-7.1,6.7-11,8.7C75,113.4,73.6,113,72.5,111.7z"/>
					</g>
				</g>
				<g>
					<g>
						<g>
							<path class="st7" d="M97.2,114.2c-0.9,0.1-1.4,0.4-1.5,1.3c-0.8,9.5,11.9,43,18,56.1c1.4,3,2.5,6.5,5.3,8.6
								c3.2,2.5,7.3,1.1,9.8-1.9c2.1-2.6,2.6-5.5,2.1-9.4c-1.5-9.2-4.4-18.4-7.8-27.1C118.1,128.7,111.4,113.1,97.2,114.2z"/>
						</g>
					</g>
					<g>
						<g>
							<g>
								<g>
									<g>
										<path class="st7" d="M129.9,167.1c2.7,4.6,0.5,9.9-2.9,14.1c-16.8,20.5-19.4,9-20.1,5.5
											C106.4,184.1,116.8,144.6,129.9,167.1z"/>
									</g>
								</g>
								<g>
									<path class="st2" d="M116.8,164.8c2.3-1.3,5-1.8,7.6-1.6c0.2,0,0.3,0.2,0.3,0.4c0,0.2-0.2,0.3-0.4,0.3
										c-2.5-0.2-5.1,0.3-7.3,1.4c-0.1,0.1-0.3,0-0.3-0.1C116.6,165.1,116.7,164.9,116.8,164.8z"/>
								</g>
							</g>
						</g>
					</g>
					<path class="st5" d="M94.5,97.4c0.2-0.7,0.6-1.8,1.2-1.6c7.3,2.4,13,8.4,16.8,14.2c2.6,4,9.7,21.2,12,32.3
						c0.2,1.1-0.6,2.3-1.4,2.9c-6.3,4.7-12.9,5.9-20,7.2C101.7,152.8,90.9,109.2,94.5,97.4z"/>
					<g>
						<g>
							<path class="st2" d="M95.8,119c0.3,2.8,0.8,5.6,1.3,8.3c0.5,2.8,1,5.6,1.5,8.3c1.1,5.5,2.3,11.1,3.8,16.5
								c0.1,0.2-0.1,0.4-0.2,0.4s-0.4-0.1-0.4-0.2c-1.5-5.5-2.7-11-3.8-16.5c-0.5-2.8-1-5.6-1.5-8.4c-0.4-2.8-0.9-5.6-1.2-8.4
								c0-0.1,0.1-0.3,0.2-0.3C95.7,118.7,95.8,118.8,95.8,119L95.8,119z"/>
						</g>
						<g>
							<path class="st2" d="M120.7,137.1c-2.8,2.1-5.8,3.7-9,5.1c-3.2,1.4-6.4,2.5-9.8,3.3c-0.2,0-0.4-0.1-0.4-0.2
								c0-0.2,0.1-0.4,0.2-0.4c3.3-0.9,6.5-2,9.7-3.3c3.1-1.3,6.2-2.9,8.9-4.9c0.1-0.1,0.3-0.1,0.4,0.1
								C120.8,136.8,120.8,137,120.7,137.1z"/>
						</g>
					</g>
				</g>
				<g>
					<path class="st5" d="M44.8,97.4c-0.2-0.7-0.6-1.8-1.2-1.6c-7.3,2.4-13,8.4-16.8,14.2c-2.6,4-9.7,21.2-12,32.3
						c-0.2,1.1,0.6,2.3,1.4,2.9c6.3,4.7,12.9,5.9,20,7.2C37.6,152.8,48.4,109.2,44.8,97.4z"/>
					<g>
						<g>
							<path class="st2" d="M43.2,119c-0.3,2.9-0.8,5.6-1.2,8.4c-0.5,2.8-0.9,5.6-1.5,8.4c-1.1,5.6-2.3,11.1-3.8,16.5
								c0,0.2-0.2,0.3-0.4,0.2c-0.2,0-0.3-0.2-0.2-0.4c1.5-5.4,2.7-11,3.8-16.5c0.5-2.8,1.1-5.5,1.5-8.3c0.5-2.8,1-5.6,1.3-8.3l0,0
								c0-0.1,0.1-0.2,0.3-0.2C43.1,118.8,43.3,118.9,43.2,119z"/>
						</g>
						<g>
							<path class="st2" d="M18.9,136.7c2.8,2,5.8,3.6,8.9,4.9c3.1,1.3,6.4,2.4,9.7,3.3c0.2,0,0.3,0.2,0.2,0.4s-0.2,0.3-0.4,0.2
								c-3.3-0.9-6.6-2-9.8-3.3c-3.2-1.4-6.2-3.1-9-5.1c-0.1-0.1-0.1-0.2-0.1-0.4C18.7,136.6,18.8,136.6,18.9,136.7z"/>
						</g>
					</g>
				</g>
				<g>
					<g>
						<path class="st2" d="M43.1,119c-0.3,2.9-0.8,5.6-1.2,8.4c-0.5,2.8-0.9,5.6-1.5,8.4c-1.1,5.6-2.3,11.1-3.8,16.5
							c0,0.2-0.2,0.3-0.4,0.2c-0.2,0-0.3-0.2-0.2-0.4c1.5-5.4,2.7-11,3.8-16.5c0.5-2.8,1.1-5.5,1.5-8.3c0.5-2.8,1-5.6,1.3-8.3l0,0
							c0-0.1,0.1-0.2,0.3-0.2C43,118.8,43.1,118.9,43.1,119z"/>
					</g>
					<g>
						<path class="st2" d="M18.8,136.7c2.8,2,5.8,3.6,8.9,4.9c3.1,1.3,6.4,2.4,9.7,3.3c0.2,0,0.3,0.2,0.2,0.4c0,0.2-0.2,0.3-0.4,0.2
							c-3.3-0.9-6.6-2-9.8-3.3c-3.2-1.4-6.2-3.1-9-5.1c-0.1-0.1-0.1-0.2-0.1-0.4C18.5,136.6,18.7,136.6,18.8,136.7z"/>
					</g>
				</g>
			</g>
		</g>
		<g>
			<g>
				<g>
					<g>
						<g>
							<g>
								<path class="st7" d="M13.4,163.6c-0.3,3.7,3.7,8.8,7.2,9.6c8.1,1.8,13.4-7.6,16.8-13.4c4.5-7.5,8.1-15.4,11.5-23.4
									c3.1-7.2,7.6-15,8.5-22.9c0.7-5.9-4.9-6-7.9-3.7c-3.5,2.8-5.8,5.5-13.4,15.5C24.8,140.7,14.5,150.6,13.4,163.6z"/>
							</g>
						</g>
						<g>
							<path class="st2" d="M13.6,155.3c0.7-1.3,1.6-2.6,2.4-3.8c0.9-1.2,1.8-2.4,2.7-3.6c0.1-0.1,0.3-0.2,0.5-0.1
								c0.1,0.1,0.2,0.3,0.1,0.5l-2.7,3.6c-0.9,1.2-1.8,2.4-2.5,3.6l0,0c-0.1,0.1-0.2,0.2-0.4,0.1C13.6,155.5,13.6,155.4,13.6,155.3
								z"/>
						</g>
					</g>
				</g>
			</g>
			<g>
				<g>
					<path class="st3" d="M123.6,121l-75.9,25.4c-0.2-0.9-0.3-1.8-0.5-2.8C43.7,117.8,62,95,86.9,95.8c14.3,0.5,27.9,9,35.5,22.6
						C122.8,119.3,123.2,120.1,123.6,121z"/>
					<path class="st13" d="M123.6,121L93,131.2c0.8-1.1,1.5-2.3,2-3.6c1.7-4.2,1.6-8.9,0.5-11.1c-3-5.8-11.8-8.8-8.7-20.7
						c14.3,0.5,27.9,9,35.5,22.6C122.8,119.3,123.2,120.1,123.6,121z"/>
					<g>
						<path class="st9" d="M69.7,107c-1.9,2-3.5,4.2-4.9,6.4c-1.4,2.2-2.6,4.6-3.7,7c-0.5,1.2-1.1,2.4-1.5,3.7
							c-0.5,1.2-0.9,2.5-1.4,3.7c-0.3,0.6-0.4,1.3-0.6,1.9l-0.6,1.9c-0.4,1.3-0.7,2.6-1.2,3.9c-0.1-1.4-0.1-2.8-0.1-4.2
							c0.1-1.4,0.2-2.8,0.5-4.1c0.3-1.4,0.5-2.7,1-4.1c0.2-0.7,0.4-1.3,0.7-2l0.8-1.9c1.2-2.5,2.6-5,4.5-7.1
							C65,110.1,67.1,108.1,69.7,107z"/>
					</g>
				</g>
				<g>
					<path class="st14" d="M80.2,95.1c1.2,3.7-0.7,7.7-4.4,8.9c-1.9,0.6-3.9,0.4-5.5-0.4c-1.6-0.8-2.8-2.2-3.4-4
						c-1.2-3.7,0.7-7.7,4.4-8.9c0.5-0.2,1.1-0.3,1.6-0.3C76.1,90,79.2,92,80.2,95.1z"/>
					<path class="st13" d="M80.2,95.1c1.2,3.7-0.7,7.7-4.4,8.9c-1.9,0.6-3.9,0.4-5.5-0.4c8.1-5.5,4-11.6,2.6-13.3
						C76.1,90,79.2,92,80.2,95.1z"/>
				</g>
			</g>
			<g>
				<g>
					<g>
						<path class="st7" d="M47.8,116.6c1.4,2.2,5,4.4,7.5,3.7c1.6-0.5,1.9-1.6,0.7-3.3c-0.3-0.5,0.3-0.3,0.6-0.3
							c1.1,0.1,2.2,0,2.8-1.1c0.3-0.6,0.2-1.4-0.1-2c-0.2-0.4-1-0.9-1-1.4c0,0,1.3-0.1,1.4-0.1c0.5,0,1-0.1,1.5-0.4
							c0.9-0.5,1.1-1.7,0.7-2.6c-0.5-1-1-1.1-1.3-1.6c0.4-0.2,0.7-0.2,1.2-0.3c2.7-0.9,1.2-3.4-0.4-4.4c-2.2-1.5-5.7-2.7-8.3-1.5
							c-1.9,0.8-3.3,2.5-4.4,4.2C47,108.4,45.3,113.6,47.8,116.6z"/>
					</g>
					<g>
						<g>
							<path class="st2" d="M55.8,116.8c-0.8-0.4-1.5-0.8-2.3-1.1c-0.8-0.4-1.5-0.8-2.2-1.3c-0.1-0.1-0.2-0.3-0.1-0.4
								c0.1-0.1,0.2-0.2,0.3-0.1c0.8,0.3,1.5,0.8,2.3,1.2c0.7,0.4,1.5,0.9,2.2,1.3c0.1,0.1,0.1,0.2,0.1,0.3
								C56.1,116.8,55.9,116.9,55.8,116.8z"/>
						</g>
						<g>
							<path class="st2" d="M58.2,112.6c-0.8-0.4-1.5-0.8-2.3-1.1c-0.8-0.4-1.5-0.8-2.2-1.3c-0.1-0.1-0.2-0.3-0.1-0.4
								c0.1-0.1,0.2-0.2,0.3-0.1c0.8,0.3,1.5,0.8,2.3,1.2c0.7,0.4,1.5,0.9,2.2,1.3c0.1,0.1,0.1,0.2,0.1,0.3
								C58.4,112.6,58.3,112.6,58.2,112.6z"/>
						</g>
						<g>
							<path class="st2" d="M60.3,107.7c-0.8-0.4-1.5-0.8-2.3-1.1c-0.8-0.4-1.5-0.8-2.2-1.3c-0.1-0.1-0.2-0.3-0.1-0.4
								c0.1-0.1,0.2-0.2,0.3-0.1c0.8,0.3,1.5,0.8,2.3,1.2c0.7,0.4,1.5,0.9,2.2,1.3c0.1,0.1,0.1,0.2,0.1,0.3
								C60.5,107.7,60.4,107.7,60.3,107.7z"/>
						</g>
					</g>
				</g>
			</g>
		</g>
		<g>
			<g>
				<path class="st8" d="M50.4,177.6c-6.4-3.1-8.6-13.2-1.4-20.2c2.2-2.1,3.5-2.9,7.1-5.2c5.4-3.5,8.1-6.5,11.6-8.2
					c3.3-1.6,6.9-2.3,9.1-2.3c0.4,0,0.6-0.2,1-0.1c0.7,0.1,3.1-0.1,6.7,1c4.4,1.4,4.4,3.6,8.8,3.6c0.9,0,1.8,0.1,2.7,0.3
					c8.3,1.7,7.4,6.9,12.4,13.5c1.1,1.4,2.4,2,3.6,2.9c2.5,2,4.8,5.4,4.2,8.5c-0.9,4.9-6.7,6.7-11.5,7.4
					C91.8,180.7,62.6,183.6,50.4,177.6z"/>
				<g class="st15">
					<path class="st8" d="M48.7,176.6c-0.2-0.1-0.3-0.2-0.2-0.4c0.5-0.5,1.6-1.3,2.2-1.6c7.3-4.5,16.8-3.3,25-0.9
						c7.4,2.2,10.3,4.3,14.8,2.6c12.7-5-0.6-13.7,6.1-25.5c0.5-1,1.5-2.4,2.3-3.1c0.2-0.2,0.2-0.2,0.5-0.1c4.9,2.7,4.7,6.9,8.9,12.3
						c1.5,2,3.5,2.3,5.7,5.1c4.8,6.2,1.1,11.5-7,13.3C99.2,180,60.4,184.4,48.7,176.6z"/>
				</g>
				<g>
					<path class="st2" d="M85.6,146.7c-2.2-1-4.6-1.4-7-1.4c-1.2,0-2.4,0.1-3.6,0.2c-1.2,0.1-2.3,0.4-3.7,0.4
						c-0.2,0-0.3-0.2-0.3-0.3c0-0.2,0.2-0.3,0.3-0.3c0,0,0,0,0,0l0.1,0c0.5,0,1.1-0.1,1.7-0.2l1.8-0.2c1.2-0.1,2.4-0.2,3.7-0.2
						c1.2,0,2.5,0.1,3.7,0.4c1.2,0.3,2.4,0.7,3.5,1.2c0.1,0.1,0.2,0.2,0.1,0.3C85.9,146.7,85.7,146.8,85.6,146.7L85.6,146.7z"/>
				</g>
			</g>
			<g>
				<g>
					<g>
						<path class="st9" d="M108.5,153.8c2.1-2.8,8.9-8.3,9.6-5c0.3,1.4,1.4,0.2,2.9,0.1c2.9-0.1,4.3,3.1-0.8,5.3
							c-2.1,1-4.1,1.2-6,1.9c-1.7,0.6-1.7,0.9-2.9,1.2C108.1,158.3,107.3,155.4,108.5,153.8z"/>
						<g>
							<path class="st2" d="M118.4,150.3c-0.3,0.5-0.7,0.9-1.3,1.2c-0.5,0.2-1.1,0.3-1.6,0.4c-0.5,0.1-1,0.3-1.5,0.4
								c-0.5,0.2-0.9,0.4-1.4,0.6l0,0c-0.2,0.1-0.4,0-0.4-0.2c-0.1-0.2,0-0.3,0.1-0.4c0.9-0.6,2-0.9,3.1-1.2
								c0.5-0.1,1.1-0.2,1.5-0.4c0.4-0.2,0.8-0.5,1.1-0.9c0.1-0.1,0.2-0.2,0.4-0.1C118.4,150.1,118.4,150.2,118.4,150.3L118.4,150.3
								z"/>
						</g>
					</g>
					<g>
						<path class="st7" d="M103.5,152c2.7,0.1,3-0.2,3.8-0.1c3.7,0.2,6.4,2.9,4.8,5.6c-1.5,2.5-3.9,1.9-9.5,8.5
							c-7,8.3-24,7.8-23.8-3.4c0.1-6.9,8.7-10.5,15.9-11.1C99.8,151.1,102.8,152,103.5,152z"/>
						<g>
							<g>
								<path class="st2" d="M83.3,163.6c0.5,0.3,1,0.7,1.5,1c0.5,0.3,1,0.6,1.5,0.8c1,0.5,2.2,0.8,3.3,1c1.1,0.2,2.3,0.2,3.4-0.1
									c0.6-0.1,1.1-0.3,1.7-0.5c0.6-0.2,1-0.4,1.8-0.6c0.2,0,0.4,0.1,0.4,0.3c0,0.2-0.1,0.3-0.2,0.4l-0.1,0
									c-0.4,0.1-1,0.4-1.6,0.6c-0.6,0.2-1.2,0.4-1.8,0.5c-1.2,0.2-2.5,0.3-3.7,0.1c-1.2-0.2-2.4-0.6-3.5-1.1
									c-0.6-0.2-1.1-0.6-1.6-0.9c-0.5-0.3-1-0.7-1.5-1.1c-0.1-0.1-0.1-0.2-0.1-0.4C83,163.5,83.1,163.5,83.3,163.6L83.3,163.6z"/>
							</g>
							<g>
								<path class="st2" d="M105.3,154.6c0.1,0.3,0.3,0.7,0.4,1.1c0.1,0.4,0.2,0.8,0.3,1.2c0.1,0.4,0.1,0.8,0.2,1.2
									c0,0.2,0,0.4,0,0.6l0,0.3c0,0.1,0,0.1,0,0.1l0,0.1c0.1,0.2,0,0.4-0.2,0.4c-0.1,0-0.3,0-0.4-0.1c-0.1-0.2-0.1-0.3-0.1-0.4
									l0-0.3c0-0.2,0-0.4,0-0.6c0-0.4-0.1-0.7-0.1-1.1c-0.1-0.4-0.1-0.7-0.2-1.1l-0.3-1.1c0-0.1,0-0.3,0.2-0.3
									C105.1,154.4,105.3,154.5,105.3,154.6L105.3,154.6z"/>
							</g>
						</g>
						<path class="st16" d="M85.3,157.3c2.5,1.2,3.6,2.5,5.8,4c3.1,2,7.7,1.1,11-0.8c3.9-2.3,5.4-5.4,8.9-6.9
							c0.4-0.2,0.4-0.1,0.7,0.2c1,1.2,1.1,2.8,0,4.2c-1.5,1.9-4.5,2.6-7.8,6.5c-1.8,2.1-1.9,2.2-2.7,2.9c-3.6,3-8.3,4.4-11.8,4.3
							c-10.7-0.2-13-8.9-8.3-14.6c0.2-0.2,0.4-0.4,0.8-0.4C82.8,156.8,83.4,156.5,85.3,157.3z"/>
					</g>
				</g>
				<g>
					<path class="st7" d="M55.1,173.1c-0.6-0.6-1.9-2.7-2.3-5.1c-0.4-2.6,1-7.5,4.2-10.6c0.2-0.2,0.3-0.2,0.5,0
						c1.4,1.3,1.4,3,1.5,3.3c0.2,0.5,5.3-8.5,10.3-11.4c0.6-0.3,1.3-0.7,1.4-0.1c0.5,4-1.5,10.3-5.4,14.3c-0.2,0.2-0.4,0.4-0.2,0.5
						c1.3,0.6,1.9,0.5,3.4,0.5c13.4-0.3,15.3,11.5,1.6,13.1C65.1,178.2,58.6,176.5,55.1,173.1z"/>
					<g>
						<g>
							<path class="st2" d="M76,171.9c-1.2,1-2.7,1.6-4.2,1.9c-0.8,0.1-1.5,0.2-2.3,0.2l-2.3,0l0,0c-0.2,0-0.3-0.2-0.3-0.3
								c0-0.2,0.1-0.3,0.3-0.3c0.8,0,1.5,0,2.3,0c0.7,0,1.5-0.1,2.2-0.2c1.5-0.2,2.8-0.8,4-1.6c0.1-0.1,0.3-0.1,0.4,0.1
								C76.1,171.6,76.1,171.8,76,171.9z"/>
						</g>
						<g>
							<path class="st2" d="M64.9,164.1c-1.1,1.6-2.6,2.8-4,4.1c-0.1,0.1-0.3,0.1-0.5,0c-0.1-0.1-0.1-0.3,0-0.5
								c0.7-0.7,1.4-1.3,2.1-1.9c0.7-0.6,1.3-1.3,1.9-2c0.1-0.1,0.3-0.1,0.4,0C64.9,163.9,64.9,164,64.9,164.1z"/>
						</g>
					</g>
					<path class="st16" d="M60.8,176.4c-3.4-1.2-6.6-3.2-7.5-6.7c-0.1-0.3-0.1-0.3,0.2-0.4c2.4-1.1,3.8-1,6.5-0.6
						c5.7,1,8.1,4,11.2,1.2c1.8-1.6,3.2-4.8,4.2-4.3c7.4,3.4,4.1,10.5-4.4,11.8C70,177.6,64,177.6,60.8,176.4z"/>
				</g>
			</g>
		</g>
		<g>
			<path class="st17" d="M118.6,179.1c-0.6,0.1-1.2,0.2-1.8,0.3c-0.2,0-2.5,0.1-2.8,0.1c-0.3,0-0.6,0-0.9-0.1
				c-0.7-0.1-0.3,0.1-2.9-0.2c-0.3,0-0.6,0-0.9-0.1c-0.7,0.1-1.4,0.1-2.1,0.3c-2.6,0.8-5,4.4-8.6,5c-0.6,0.1-1.1-0.2-0.8-0.8
				c0.4-0.8,2.1-2,2.8-2.5c1.8-1.1,3.4-2.8,3-4.9c-0.1-0.8-0.2-0.7-0.2-2.3c0.1-1.4,1.1-3.6,2.6-4.6c2.1-1.4,3.4-1.6,5.9-2.1
				c2.6-0.6,4.5-2.7,6.8-3c1.6-0.2,3.1,0.3,4,1.9c0.7,1.1,1,2.3,1.2,3.6C124.3,173.7,122.6,178.1,118.6,179.1z"/>
			<path class="st18" d="M121.2,165c0.1-0.2,0.2-0.2,0.3-0.1c2.4,1.5,3.7,7.7,0.7,11.8c-1.4,1.9-3.1,2.4-5.4,2.7
				c-0.5,0.1-1.1,0-1.6,0.1c-1.9,0.2-5.9-0.4-5.9-0.4c-1.6,0.2-2.3-0.3-5.4,2.4c-1.4,1.2-3.5,2.6-5.3,2.9c-0.7,0.1-1-0.3-0.8-0.8
				c0.4-0.9,2.3-2.1,3.1-2.7c1.8-1.2,1.7-1.7,2.2-1.9c1.8-0.8,2.8-1.7,7-2c2.6-0.2,9.4,0.3,10.3-6.3
				C120.6,168.9,120.1,166.7,121.2,165z"/>
			<g>
				<g>
					<path class="st2" d="M119.6,167.2c-0.2,0.7-0.6,1.4-1,2c-0.4,0.6-0.9,1.2-1.5,1.7c-1.1,1-2.5,1.7-3.9,2.2
						c-1.4,0.4-2.8,0.8-4,1.5c-0.6,0.3-1.2,0.8-1.7,1.3l-0.8,0.8l-0.4,0.4c-0.1,0.1-0.3,0.3-0.6,0.4l0,0c-0.2,0.1-0.4,0-0.4-0.2
						c-0.1-0.2,0-0.4,0.2-0.4c0,0,0,0,0,0c0.1,0,0.1-0.1,0.3-0.3l0.4-0.4l0.8-0.8c0.5-0.5,1.2-1,1.8-1.4c1.3-0.8,2.8-1.2,4.2-1.6
						c1.4-0.4,2.7-1,3.8-2c1-0.9,2-2.1,2.4-3.4c0-0.1,0.2-0.2,0.3-0.2C119.5,166.9,119.6,167.1,119.6,167.2z"/>
				</g>
			</g>
		</g>
		<g>
			<path class="st17" d="M83.6,183.1c-0.6,0-1.2-0.1-1.8-0.1c-0.2,0-2.5-0.5-2.7-0.5c-0.3-0.1-0.6-0.2-0.9-0.3
				c-0.7-0.3-0.3,0-2.8-0.9c-0.3-0.1-0.6-0.2-0.9-0.3c-0.7-0.1-1.4-0.3-2.1-0.2c-2.8,0.2-5.9,3.2-9.5,2.9c-0.7,0-1-0.5-0.6-0.9
				c0.5-0.7,2.5-1.5,3.3-1.8c2-0.7,3.9-2,4-4.1c0-0.8-0.1-0.7,0.4-2.3c0.4-1.3,1.9-3.2,3.6-3.9c2.4-0.9,3.7-0.7,6.2-0.7
				c2.7,0,5-1.6,7.3-1.3c1.6,0.2,2.9,1,3.5,2.7c0.4,1.2,0.5,2.5,0.3,3.8C90.4,179.2,87.8,183.1,83.6,183.1z"/>
			<path class="st18" d="M89.3,170c0.1-0.1,0.2-0.1,0.3,0c1.9,2,1.8,8.4-2.1,11.7c-1.8,1.5-3.5,1.6-5.9,1.3c-0.5-0.1-1-0.2-1.6-0.3
				c-1.9-0.2-5.7-1.7-5.7-1.7c-1.6-0.2-2.1-0.8-5.8,1.1c-1.6,0.8-4,1.7-5.8,1.6c-0.8-0.1-0.9-0.5-0.6-0.9c0.6-0.8,2.7-1.5,3.6-1.9
				c2-0.8,2-1.3,2.5-1.4c1.9-0.4,3.1-1,7.3-0.3c2.6,0.4,9.1,2.5,11.5-3.7C87.9,173.6,87.9,171.4,89.3,170z"/>
			<g>
				<g>
					<path class="st2" d="M87.3,171.8c-0.4,0.7-0.9,1.3-1.5,1.7c-0.6,0.5-1.2,0.9-1.9,1.3c-1.3,0.7-2.8,1.1-4.3,1.2
						c-1.5,0.1-2.9,0.1-4.3,0.5c-0.7,0.2-1.3,0.5-1.9,0.8l-0.9,0.6l-0.5,0.3c-0.1,0.1-0.3,0.3-0.6,0.3l0,0c-0.2,0-0.3-0.1-0.4-0.3
						c0-0.2,0.1-0.3,0.3-0.4c0,0,0,0,0,0c0.1,0,0.1-0.1,0.3-0.2l0.5-0.3l0.9-0.6c0.6-0.4,1.4-0.7,2.1-0.9c1.5-0.4,3-0.5,4.4-0.6
						c1.4-0.1,2.8-0.4,4.1-1c1.2-0.7,2.5-1.5,3.2-2.7c0.1-0.1,0.2-0.2,0.4-0.1C87.3,171.5,87.3,171.7,87.3,171.8z"/>
				</g>
			</g>
		</g>
		<g>
			<path class="st17" d="M41.4,178.5c0.6,0.1,1.2,0.2,1.8,0.3c0.2,0,2.5,0.1,2.8,0.1c0.3,0,0.6,0,0.9-0.1c0.7-0.1,0.3,0.1,2.9-0.3
				c0.3,0,0.6,0,0.9-0.1c0.7,0.1,1.4,0,2.1,0.2c2.7,0.8,5.1,4.3,8.7,4.8c0.7,0.1,1.1-0.3,0.8-0.8c-0.4-0.8-2.1-2-2.8-2.4
				c-1.8-1.1-3.4-2.7-3.1-4.8c0.1-0.8,0.2-0.7,0.1-2.3c-0.1-1.4-1.2-3.5-2.7-4.5c-2.1-1.4-3.4-1.5-5.9-2c-2.6-0.6-4.5-2.6-6.9-2.8
				c-1.6-0.2-3.1,0.4-4,1.9c-0.6,1.1-1,2.4-1.1,3.6C35.5,173.1,37.3,177.6,41.4,178.5z"/>
			<path class="st18" d="M38.5,164.4c-0.1-0.2-0.2-0.2-0.3-0.1c-2.3,1.6-3.5,7.8-0.4,11.8c1.4,1.9,3.1,2.3,5.5,2.6
				c0.5,0,1.1,0,1.6,0c1.9,0.2,5.9-0.5,5.9-0.5c1.6,0.2,2.3-0.3,5.5,2.3c1.4,1.1,3.5,2.5,5.3,2.8c0.8,0.1,1-0.3,0.8-0.8
				c-0.4-0.9-2.3-2.1-3.1-2.6c-1.8-1.2-1.7-1.7-2.2-1.9c-1.8-0.8-2.8-1.6-7.1-1.8c-2.6-0.2-9.4,0.5-10.5-6.1
				C39.1,168.3,39.6,166.1,38.5,164.4z"/>
			<g>
				<g>
					<path class="st2" d="M40.6,166.4c0.4,1.3,1.4,2.4,2.5,3.3c1.1,0.9,2.4,1.5,3.8,1.9c1.4,0.4,2.9,0.7,4.2,1.5
						c0.7,0.4,1.3,0.8,1.8,1.3l0.8,0.8l0.4,0.4c0.1,0.2,0.2,0.2,0.3,0.2c0.2,0,0.3,0.2,0.3,0.4c0,0.2-0.2,0.3-0.4,0.3c0,0,0,0,0,0
						l0,0c-0.3-0.1-0.5-0.3-0.6-0.4l-0.4-0.4l-0.8-0.8c-0.5-0.5-1.1-0.9-1.7-1.2c-1.3-0.7-2.6-1-4.1-1.4c-1.4-0.4-2.8-1.1-4-2.1
						c-0.6-0.5-1.1-1-1.6-1.6c-0.5-0.6-0.9-1.3-1.1-2c0-0.1,0-0.3,0.2-0.3C40.4,166.2,40.6,166.3,40.6,166.4z"/>
				</g>
			</g>
		</g>
		<g>
			<path class="st19" d="M107.5,163.6c0.2-0.1,0.3-0.1,0.4,0.2c1.1,2,1.7,6,0.6,9.5c-1.7,5.1-6.5,8.3-11.9,7.5
				c-4.1-0.6-7.8-3.8-8.7-8c0-0.2-0.1-0.4,0.1-0.5C88.4,172.1,107.3,163.7,107.5,163.6z"/>
			<g>
				<path class="st20" d="M103.7,166.4c0.1,0,0.8-0.6,1.7-0.2c0.6,0.3,1,1.1,1.1,1.6c0.1,0.7,0.3,1.5,0.4,2.2
					c0.5,9.8-13.3,10-15.4,4.5c-0.5-1.2,0.2-2.2,1.2-3C93.3,171.1,103.6,166.4,103.7,166.4z"/>
				<g>
					<path class="st9" d="M96.6,175.3c-0.3,0.3-0.6,0.2-0.8-0.1c-0.1-0.2-0.2-0.4-0.3-0.6c-0.1-0.9,0.3-1.8,0.6-2.2
						c0.2-0.2,0.4-0.2,0.5,0C97.1,173.1,97.2,174.6,96.6,175.3z"/>
					<path class="st9" d="M100.2,173.5c-0.1,0.3-0.5,0.4-0.8,0.2c-0.2-0.1-0.4-0.3-0.5-0.5c-0.4-0.8-0.4-1.8-0.2-2.3
						c0.1-0.3,0.3-0.3,0.5-0.2C100,171.3,100.6,172.6,100.2,173.5z"/>
					<path class="st9" d="M103.7,171.7c0.4-0.1,0.6-0.3,0.4-0.7c-0.1-0.2-0.2-0.4-0.4-0.6c-0.6-0.6-1.7-0.8-2.1-0.8
						c-0.3,0-0.4,0.2-0.3,0.4C101.7,170.8,102.9,171.8,103.7,171.7z"/>
				</g>
			</g>
			<path class="st21" d="M109.1,169.1c0,7.2-5.1,12.7-12.4,11.7c-0.5-0.1-0.9-0.2-1.4-0.3c-1.3-0.4-1.2-0.4-1.4-0.5c0,0,0-0.1,0-0.1
				c0.1,0,1.1-0.1,2.6-0.6c2.8-1,5.2-3.2,5.6-6c0.3-2.5-0.9-4.5,0.6-6.9c0.4-0.7,0.3-0.6,1-0.9c0.2-0.1,3.7-1.7,3.7-1.7
				c0.4-0.1,0.4-0.1,0.6,0.2C108.5,165,109.1,167.3,109.1,169.1z"/>
		</g>
		<g>
			<path class="st19" d="M74.5,175.7c0.2,0.2,0.2,0.2,0.1,0.4c-1.2,1.9-4.3,4.5-7.9,5.3c-5.3,1.2-10.4-1.4-12.5-6.5
				c-1.6-3.9-0.6-8.6,2.5-11.6c0.2-0.1,0.3-0.3,0.5-0.1C57.6,163.4,74.3,175.6,74.5,175.7z"/>
			<g>
				<path class="st20" d="M70.2,173.8c0.1,0.1,0.9,0.3,1.1,1.4c0.1,0.7-0.4,1.4-0.9,1.7c-0.6,0.5-1.1,1-1.7,1.4
					c-8.2,5.3-15.3-6.4-11.7-11c0.8-1,1.9-1,3.2-0.4C60.9,167.2,70.1,173.7,70.2,173.8z"/>
				<g>
					<path class="st9" d="M58.9,172.2c-0.4-0.1-0.5-0.4-0.4-0.7c0.1-0.2,0.2-0.4,0.4-0.6c0.7-0.6,1.7-0.7,2.2-0.6
						c0.3,0.1,0.4,0.2,0.2,0.5C61.1,171.5,59.8,172.4,58.9,172.2z"/>
					<path class="st9" d="M62.3,174.4c-0.4,0-0.6-0.2-0.6-0.6c0-0.2,0.1-0.5,0.2-0.7c0.5-0.8,1.4-1.2,1.8-1.3
						c0.3-0.1,0.4,0.1,0.4,0.4C64.1,173,63.2,174.3,62.3,174.4z"/>
					<path class="st9" d="M65.6,176.5c0.2,0.3,0.6,0.3,0.8,0c0.2-0.2,0.3-0.4,0.3-0.6c0.2-0.9-0.1-1.9-0.4-2.2
						c-0.2-0.2-0.3-0.3-0.5,0C65.4,174.3,65.1,175.8,65.6,176.5z"/>
				</g>
			</g>
			<path class="st21" d="M70.5,179.8c-6.2,3.7-13.5,2-16.3-4.9c-0.2-0.4-0.3-0.9-0.4-1.3c-0.3-1.3-0.3-1.2-0.3-1.5
				c0-0.1,0.1-0.1,0.1-0.1c0.1,0.1,0.7,0.9,1.9,1.9c2.3,1.9,5.4,2.9,8,1.8c2.3-1,3.4-3,6.3-3c0.8,0,0.6,0,1.3,0.4
				c0.1,0.1,3.3,2.4,3.3,2.4c0.3,0.2,0.3,0.3,0.1,0.6C73.8,177.3,72.1,178.9,70.5,179.8z"/>
		</g>
		<g>
			<g>
				<path class="st14" d="M124.3,181.3c0,0.9-0.4,1.8-1,2.4c-0.6,0.6-1.4,1-2.4,1H39.8c-1.8,0-3.3-1.5-3.3-3.3c0-0.9,0.4-1.8,1-2.4
					c0.6-0.6,1.4-1,2.4-1H121C122.8,178,124.3,179.5,124.3,181.3z"/>
				<path class="st13" d="M124.3,181.3c0,0.9-0.4,1.8-1,2.4c-0.6,0.6-1.4,1-2.4,1H79.9c2.7-1,5.7-2.2,8.2-3.9
					c1.2-0.8,2.2-1.7,3.1-2.8H121C122.8,178,124.3,179.5,124.3,181.3z"/>
			</g>
		</g>
		<g>
			<g>
				<g>
					<path class="st7" d="M116.9,190.5c1.7-2,2.7-6.1,1.3-8.2c-0.9-1.4-2.1-1.3-3.4,0.3c-0.3,0.4-0.4-0.2-0.4-0.5
						c-0.2-1-0.6-2.1-1.8-2.3c-0.7-0.1-1.4,0.2-1.8,0.7c-0.3,0.4-0.5,1.2-1,1.4c0,0-0.5-1.2-0.5-1.3c-0.2-0.5-0.4-0.9-0.8-1.3
						c-0.8-0.7-1.9-0.5-2.7,0.1c-0.8,0.7-0.8,1.3-1.1,1.7c-0.3-0.3-0.4-0.6-0.7-1.1c-1.6-2.3-3.6-0.1-4.1,1.7
						c-0.8,2.6-0.8,6.2,1,8.4c1.3,1.6,3.3,2.5,5.3,2.9C109.4,193.7,114.8,193.8,116.9,190.5z"/>
				</g>
				<g>
					<g>
						<path class="st2" d="M114.8,182.8c-0.1,0.8-0.3,1.7-0.4,2.5c-0.1,0.8-0.3,1.7-0.5,2.5c0,0.1-0.2,0.2-0.4,0.2
							c-0.1,0-0.2-0.2-0.2-0.3c0.1-0.9,0.3-1.7,0.5-2.5c0.2-0.8,0.4-1.7,0.6-2.5c0-0.1,0.2-0.2,0.3-0.2
							C114.7,182.6,114.8,182.7,114.8,182.8z"/>
					</g>
					<g>
						<path class="st2" d="M110.1,181.8c-0.1,0.8-0.3,1.7-0.4,2.5c-0.1,0.8-0.3,1.7-0.5,2.5c0,0.1-0.2,0.2-0.4,0.2
							c-0.1,0-0.2-0.2-0.2-0.3c0.1-0.9,0.3-1.7,0.5-2.5c0.2-0.8,0.4-1.7,0.6-2.5c0-0.1,0.2-0.2,0.3-0.2
							C110,181.6,110.1,181.7,110.1,181.8z"/>
					</g>
					<g>
						<path class="st2" d="M104.7,181.2c-0.1,0.8-0.3,1.7-0.4,2.5c-0.1,0.8-0.3,1.7-0.5,2.5c0,0.1-0.2,0.2-0.4,0.2
							c-0.1,0-0.2-0.2-0.2-0.3c0.1-0.9,0.3-1.7,0.5-2.5c0.2-0.8,0.4-1.7,0.6-2.5c0-0.1,0.2-0.2,0.3-0.2
							C104.7,181,104.8,181.1,104.7,181.2z"/>
					</g>
				</g>
			</g>
		</g>
	</g>
</g>
</svg>
