 <svg
 xmlns="http://www.w3.org/2000/svg"
 xmlns:xlink="http://www.w3.org/1999/xlink"
 width="65.37cm" height="70.979cm">
<path fill-rule="evenodd"  fill="rgb(255, 255, 255)"
 d="M492.398,34.315 C621.783,4.771 788.554,-9.862 961.448,10.316 C1133.438,29.394 1311.551,83.283 1442.679,165.228 C1577.984,244.567 1666.329,351.996 1717.054,452.326 C1769.449,555.324 1784.224,651.223 1810.861,769.022 C1821.708,827.839 1834.111,889.585 1842.947,955.260 C1851.638,1020.675 1856.763,1090.019 1849.686,1158.020 C1842.690,1226.002 1823.498,1292.648 1785.485,1352.289 C1747.784,1412.157 1691.262,1465.022 1616.647,1510.576 C1469.105,1602.342 1243.378,1661.653 1014.660,1727.972 C900.879,1761.289 787.933,1797.243 685.082,1836.611 C581.790,1875.395 488.592,1917.594 404.168,1949.950 C320.516,1980.590 254.452,2006.642 200.631,2011.101 C147.007,2016.222 105.627,1999.749 75.983,1960.531 C15.468,1883.906 6.003,1712.973 32.311,1526.335 C57.221,1339.007 116.017,1145.748 149.770,1008.950 C166.509,939.617 176.334,882.860 174.423,837.414 C172.901,791.632 159.642,757.161 139.147,724.661 C120.838,693.958 92.225,670.201 67.910,646.941 C43.186,623.821 22.759,601.199 11.447,575.930 C-12.236,526.269 2.427,463.901 41.050,392.630 C79.796,322.558 137.499,244.578 206.387,180.898 C277.255,116.454 359.308,66.310 492.398,34.315 L492.398,34.315 Z"/>
</svg>