<?xml version="1.0" encoding="UTF-8" standalone="no"?>
<!DOCTYPE svg PUBLIC "-//W3C//DTD SVG 1.1//EN" "http://www.w3.org/Graphics/SVG/1.1/DTD/svg11.dtd">
<svg xmlns="http://www.w3.org/2000/svg" version="1.1" viewBox="0.00 0.00 621.00 402.00">
<g stroke-width="2.00" fill="none" stroke-linecap="butt">
<path stroke="#f3f3f3" vector-effect="non-scaling-stroke" d="
  M 538.25 307.96
  Q 537.98 308.08 537.93 308.42
  Q 537.92 308.47 537.91 308.46
  L 537.72 308.24
  Q 537.50 307.99 537.42 308.32
  Q 535.73 315.25 529.39 318.31
  Q 528.94 318.53 528.68 318.96
  L 528.25 319.71"
/>
<path stroke="#f3f3f3" vector-effect="non-scaling-stroke" d="
  M 391.50 319.96
  Q 391.12 319.64 391.48 319.25
  Q 391.92 318.79 391.36 318.50
  C 383.99 314.68 382.21 309.07 382.13 300.62
  Q 381.89 276.36 382.05 252.05
  Q 382.05 251.50 381.50 251.50
  L 334.51 251.50
  Q 333.99 251.50 333.99 252.02
  L 334.00 309.21"
/>
<path stroke="#d9d9d9" vector-effect="non-scaling-stroke" d="
  M 334.00 309.21
  L 289.04 309.00"
/>
<path stroke="#8b8a94" vector-effect="non-scaling-stroke" d="
  M 289.04 309.00
  L 283.71 246.75"
/>
<path stroke="#ddc7a7" vector-effect="non-scaling-stroke" d="
  M 283.71 246.75
  L 284.25 246.04"
/>
<path stroke="#8b8a94" vector-effect="non-scaling-stroke" d="
  M 284.25 246.04
  L 286.50 244.71"
/>
<path stroke="#f3f3f3" vector-effect="non-scaling-stroke" d="
  M 286.50 244.71
  L 286.85 244.96
  Q 287.14 245.16 287.48 245.12
  Q 290.10 244.76 292.75 244.79
  Q 315.74 245.02 338.84 244.46"
/>
<path stroke="#ddc7a7" vector-effect="non-scaling-stroke" d="
  M 338.84 244.46
  Q 342.33 245.18 345.95 245.01
  C 358.75 244.42 371.68 244.76 384.50 244.71"
/>
<path stroke="#8b8a94" vector-effect="non-scaling-stroke" d="
  M 384.50 244.71
  Q 395.27 245.41 406.04 244.75"
/>
<path stroke="#ddc7a7" vector-effect="non-scaling-stroke" d="
  M 406.04 244.75
  Q 420.38 244.75 434.74 244.75
  C 438.65 244.75 441.02 243.34 441.03 239.25
  Q 441.06 224.63 440.96 210.00"
/>
<path stroke="#c8b69d" vector-effect="non-scaling-stroke" d="
  M 440.96 210.00
  L 440.96 207.50"
/>
<path stroke="#ddc7a7" vector-effect="non-scaling-stroke" d="
  M 440.96 207.50
  L 441.01 167.11"
/>
<path stroke="#c8b69d" vector-effect="non-scaling-stroke" d="
  M 441.01 167.11
  Q 441.51 165.86 440.96 165.00"
/>
<path stroke="#ddc7a7" vector-effect="non-scaling-stroke" d="
  M 440.96 165.00
  L 440.96 114.00"
/>
<path stroke="#c8b69d" vector-effect="non-scaling-stroke" d="
  M 440.96 114.00
  L 440.96 111.75"
/>
<path stroke="#ddc7a7" vector-effect="non-scaling-stroke" d="
  M 440.96 111.75
  Q 441.07 84.72 440.94 57.68
  C 440.92 51.77 436.77 51.77 432.25 51.76
  Q 400.48 51.74 368.70 51.76
  C 367.89 51.76 366.99 52.16 366.25 52.46"
/>
<path stroke="#f3f3f3" vector-effect="non-scaling-stroke" d="
  M 366.25 52.46
  Q 366.27 52.30 366.22 52.14
  Q 366.09 51.75 365.68 51.75
  Q 264.09 51.75 162.50 51.75
  C 158.43 51.75 157.25 54.84 157.25 58.55
  Q 157.25 94.49 157.25 130.35
  A 0.41 0.41 0.0 0 0 157.66 130.76
  Q 179.22 130.71 200.68 130.79
  Q 207.45 130.81 213.19 136.84"
/>
<path stroke="#ddc7a7" vector-effect="non-scaling-stroke" d="
  M 213.19 136.84
  Q 215.63 140.57 216.70 144.95
  Q 216.76 145.19 216.99 145.25
  Q 217.12 145.28 217.25 145.29"
/>
<path stroke="#f3f3f3" vector-effect="non-scaling-stroke" d="
  M 217.25 145.29
  C 216.23 145.69 216.73 152.61 216.64 153.58
  Q 216.59 154.10 217.11 154.10
  L 243.50 154.42"
/>
<path stroke="#8b8a94" vector-effect="non-scaling-stroke" d="
  M 243.50 154.42
  L 240.60 162.83"
/>
<path stroke="#f3f3f3" vector-effect="non-scaling-stroke" d="
  M 240.60 162.83
  L 217.25 162.77
  Q 216.75 162.77 216.75 163.27
  L 216.75 171.01
  Q 216.75 171.54 217.28 171.54
  L 238.50 171.41"
/>
<path stroke="#8b8a94" vector-effect="non-scaling-stroke" d="
  M 238.50 171.41
  L 240.16 178.87
  Q 240.26 179.36 240.63 179.70
  Q 240.80 179.87 241.04 180.12"
/>
<path stroke="#f3f3f3" vector-effect="non-scaling-stroke" d="
  M 241.04 180.12
  L 218.37 180.26
  Q 217.81 180.26 217.80 180.83
  Q 217.64 187.48 217.78 194.13
  C 217.81 195.67 216.79 196.68 216.78 198.25
  Q 216.66 221.24 216.79 244.33
  Q 216.79 244.85 217.31 244.85
  L 246.21 245.00"
/>
<path stroke="#8b8a94" vector-effect="non-scaling-stroke" d="
  M 246.21 245.00
  L 246.25 251.21"
/>
<path stroke="#f3f3f3" vector-effect="non-scaling-stroke" d="
  M 246.25 251.21
  Q 232.10 251.80 217.38 251.37
  A 0.62 0.62 0.0 0 0 216.74 251.99
  Q 216.76 275.17 216.74 298.53
  Q 216.73 306.97 215.51 310.29
  Q 213.37 316.13 207.67 319.89"
/>
<path stroke="#be975e" vector-effect="non-scaling-stroke" d="
  M 441.01 167.11
  Q 409.59 167.69 399.54 196.80
  Q 398.26 200.52 398.29 206.99
  Q 398.29 207.49 398.80 207.49
  L 440.96 207.50"
/>
<path stroke="#be975e" vector-effect="non-scaling-stroke" d="
  M 440.96 210.00
  L 398.77 210.05
  Q 398.28 210.05 398.22 210.54
  Q 397.87 213.34 398.75 215.96"
/>
<path stroke="#be975e" vector-effect="non-scaling-stroke" d="
  M 395.79 216.25
  L 395.49 210.49
  Q 395.46 209.97 394.94 209.97
  L 378.63 210.08
  Q 378.52 210.08 378.51 210.18
  Q 378.48 210.38 378.46 210.50"
/>
<path stroke="#be975e" vector-effect="non-scaling-stroke" d="
  M 378.54 207.75
  L 394.97 207.53
  Q 395.50 207.52 395.50 207.00
  L 395.50 168.11
  Q 395.50 167.56 394.95 167.53
  L 389.00 167.21"
/>
<path stroke="#be975e" vector-effect="non-scaling-stroke" d="
  M 390.50 164.71
  L 394.75 164.76
  Q 395.26 164.77 395.36 164.26
  Q 395.97 161.07 395.00 157.96"
/>
<path stroke="#e6e6e6" vector-effect="non-scaling-stroke" d="
  M 314.56 321.29
  L 290.04 321.50"
/>
<path stroke="#be975e" vector-effect="non-scaling-stroke" d="
  M 440.96 114.00
  C 439.92 114.06 439.35 114.51 438.32 114.51
  Q 418.58 114.47 398.75 114.51
  Q 398.21 114.51 398.22 115.05
  L 398.50 129.54"
/>
<path stroke="#6c5a4a" vector-effect="non-scaling-stroke" d="
  M 398.50 129.54
  L 395.79 130.75"
/>
<path stroke="#be975e" vector-effect="non-scaling-stroke" d="
  M 395.79 130.75
  L 395.54 115.01
  Q 395.53 114.48 395.01 114.49
  C 367.47 114.97 346.42 136.65 346.27 164.13
  Q 346.26 164.55 346.68 164.58
  Q 356.07 165.35 365.38 163.97"
/>
<path stroke="#6c5a4a" vector-effect="non-scaling-stroke" d="
  M 365.38 163.97
  L 367.71 167.50"
/>
<path stroke="#be975e" vector-effect="non-scaling-stroke" d="
  M 367.71 167.50
  L 346.77 167.36
  Q 346.28 167.36 346.28 167.85
  L 346.32 191.30"
/>
<path stroke="#6c5a4a" vector-effect="non-scaling-stroke" d="
  M 346.32 191.30
  Q 344.74 191.58 343.79 192.50"
/>
<path stroke="#be975e" vector-effect="non-scaling-stroke" d="
  M 343.79 192.50
  Q 343.43 191.02 343.47 189.50
  Q 343.72 178.74 343.59 168.04
  Q 343.59 167.53 343.07 167.52
  L 302.04 167.25"
/>
<path stroke="#be975e" vector-effect="non-scaling-stroke" d="
  M 301.79 164.75
  L 343.00 164.73
  Q 343.49 164.73 343.49 164.24
  L 343.51 114.99
  Q 343.51 114.48 343.00 114.48
  L 310.00 114.46"
/>
<path stroke="#e9d4b4" vector-effect="non-scaling-stroke" d="
  M 366.25 52.46
  Q 349.54 61.19 336.21 74.50"
/>
<path stroke="#e6e6e6" vector-effect="non-scaling-stroke" d="
  M 336.21 74.50
  Q 335.27 75.00 334.75 75.00
  Q 250.27 75.00 165.71 75.00
  A 0.77 0.77 0.0 0 0 164.95 75.87
  Q 165.13 77.10 166.56 77.10
  Q 249.65 77.25 332.74 77.27
  Q 332.95 77.27 332.99 77.47
  Q 333.03 77.63 333.04 77.75"
/>
<path stroke="#e9d4b4" vector-effect="non-scaling-stroke" d="
  M 333.04 77.75
  Q 319.13 92.80 311.25 111.71"
/>
<path stroke="#d4c3a9" vector-effect="non-scaling-stroke" d="
  M 311.25 111.71
  L 310.00 114.46"
/>
<path stroke="#e9d4b4" vector-effect="non-scaling-stroke" d="
  M 310.00 114.46
  Q 300.59 138.69 301.79 164.75"
/>
<path stroke="#d4c3a9" vector-effect="non-scaling-stroke" d="
  M 301.79 164.75
  L 302.04 167.25"
/>
<path stroke="#e9d4b4" vector-effect="non-scaling-stroke" d="
  M 302.04 167.25
  L 302.96 176.00"
/>
<path stroke="#ffdbdb" vector-effect="non-scaling-stroke" d="
  M 302.96 176.00
  C 295.62 177.11 299.61 182.66 295.25 184.79"
/>
<path stroke="#9797a0" vector-effect="non-scaling-stroke" d="
  M 295.25 184.79
  L 294.24 183.88
  Q 293.88 183.55 293.58 183.94
  C 291.83 186.20 290.56 188.27 287.82 189.56
  Q 282.45 192.09 277.39 195.40
  Q 276.96 195.68 276.64 195.28
  Q 271.41 188.81 264.31 184.54
  Q 263.82 184.25 263.46 183.80
  L 260.46 180.00"
/>
<path stroke="#f3f3f3" vector-effect="non-scaling-stroke" d="
  M 260.46 180.00
  L 265.50 180.24
  Q 266.06 180.27 266.43 179.84
  Q 268.30 177.63 267.12 174.52"
/>
<path stroke="#9797a0" vector-effect="non-scaling-stroke" d="
  M 267.12 174.52
  Q 270.94 174.47 271.56 171.14
  Q 271.73 170.25 272.19 171.03
  Q 272.46 171.48 272.16 172.11
  Q 271.89 172.70 272.42 173.07
  Q 273.14 173.57 274.25 172.88
  Q 274.66 172.63 274.87 172.19
  C 278.03 165.79 272.75 163.52 271.39 158.12
  Q 271.25 157.55 271.83 157.43
  C 273.82 157.04 273.29 155.31 272.51 154.04
  Q 266.92 144.86 256.77 148.52
  C 251.12 150.56 247.71 148.45 243.50 154.42"
/>
<path stroke="#e9d4b4" vector-effect="non-scaling-stroke" d="
  M 217.25 145.29
  L 245.04 145.36
  A 1.70 1.69 0.0 0 0 246.74 143.67
  L 246.75 138.57
  A 1.79 1.78 -90.0 0 0 244.96 136.77
  L 213.19 136.84"
/>
<path stroke="#e6e6e6" vector-effect="non-scaling-stroke" d="
  M 334.50 320.21
  L 334.00 309.21"
/>
<path stroke="#be975e" vector-effect="non-scaling-stroke" d="
  M 440.96 111.75
  L 398.73 111.72
  Q 398.21 111.72 398.22 111.21
  Q 398.30 97.38 398.24 83.54
  C 398.23 81.70 397.45 81.78 395.91 82.05
  A 0.51 0.51 0.0 0 0 395.50 82.55
  L 395.50 111.25
  Q 395.50 111.75 395.00 111.75
  L 346.75 111.75
  Q 346.25 111.75 346.25 111.25
  L 346.25 82.62
  Q 346.25 82.00 345.62 82.00
  L 344.22 82.00
  Q 343.50 82.00 343.50 82.72
  L 343.52 111.24
  Q 343.52 111.73 343.04 111.73
  L 311.25 111.71"
/>
<path stroke="#d0ba9a" vector-effect="non-scaling-stroke" d="
  M 333.04 77.75
  Q 333.63 77.17 334.06 77.17
  Q 378.00 77.32 421.94 77.01
  Q 422.98 77.00 423.32 76.05
  A 0.79 0.79 0.0 0 0 422.58 75.00
  Q 379.61 74.90 336.71 75.04
  C 336.36 75.04 336.15 74.85 336.21 74.50"
/>
<path stroke="#be975e" vector-effect="non-scaling-stroke" d="
  M 440.96 165.00
  L 398.76 164.73
  Q 398.17 164.73 398.16 164.14
  L 397.96 154.50"
/>
<path stroke="#816b55" vector-effect="non-scaling-stroke" d="
  M 397.96 154.50
  Q 405.63 149.67 408.26 140.88
  Q 408.50 140.07 407.67 140.22
  Q 404.21 140.86 403.68 137.49
  Q 403.59 136.95 403.93 136.51
  L 406.60 133.07
  Q 406.90 132.68 406.60 132.29
  Q 403.53 128.43 398.50 129.54"
/>
<path stroke="#6c5a4a" vector-effect="non-scaling-stroke" d="
  M 397.96 154.50
  Q 396.01 155.81 395.00 157.96"
/>
<path stroke="#816b55" vector-effect="non-scaling-stroke" d="
  M 395.00 157.96
  L 390.50 164.71"
/>
<path stroke="#6c5a4a" vector-effect="non-scaling-stroke" d="
  M 390.50 164.71
  L 389.00 167.21"
/>
<path stroke="#816b55" vector-effect="non-scaling-stroke" d="
  M 389.00 167.21
  Q 378.72 186.14 378.54 207.75"
/>
<path stroke="#6c5a4a" vector-effect="non-scaling-stroke" d="
  M 378.54 207.75
  Q 377.88 209.11 378.46 210.50"
/>
<path stroke="#816b55" vector-effect="non-scaling-stroke" d="
  M 378.46 210.50
  Q 379.03 227.05 385.62 242.49
  A 0.21 0.21 0.0 0 0 386.02 242.38
  C 384.83 234.76 388.02 227.09 392.20 218.94
  Q 392.99 217.39 395.79 216.25"
/>
<path stroke="#6c5a4a" vector-effect="non-scaling-stroke" d="
  M 395.79 216.25
  L 398.75 215.96"
/>
<path stroke="#816b55" vector-effect="non-scaling-stroke" d="
  M 398.75 215.96
  Q 403.00 216.54 404.68 220.40
  Q 404.88 220.85 404.55 221.21
  Q 403.04 222.88 404.34 224.80
  Q 404.68 225.31 405.26 225.52
  L 406.20 225.87
  Q 406.79 226.09 406.86 226.72
  L 407.64 234.16
  Q 407.70 234.71 407.35 235.14
  L 400.87 243.16
  A 0.54 0.54 0.0 0 0 401.34 244.04
  Q 403.69 243.83 406.04 244.75"
/>
<path stroke="#816b55" vector-effect="non-scaling-stroke" d="
  M 384.50 244.71
  L 378.75 228.12
  Q 378.58 227.62 378.04 227.58
  Q 358.54 226.17 346.93 209.93"
/>
<path stroke="#6c5a4a" vector-effect="non-scaling-stroke" d="
  M 346.93 209.93
  Q 346.60 207.89 345.23 205.98
  Q 344.84 205.43 345.43 205.11
  L 346.50 204.54"
/>
<path stroke="#816b55" vector-effect="non-scaling-stroke" d="
  M 346.50 204.54
  Q 350.07 201.53 346.50 198.46"
/>
<path stroke="#6c5a4a" vector-effect="non-scaling-stroke" d="
  M 346.50 198.46
  L 343.75 196.79"
/>
<path stroke="#816b55" vector-effect="non-scaling-stroke" d="
  M 343.75 196.79
  C 340.93 195.92 342.94 193.76 343.79 192.50"
/>
<path stroke="#816b55" vector-effect="non-scaling-stroke" d="
  M 346.32 191.30
  C 359.90 196.78 372.19 200.78 376.14 212.82
  A 0.30 0.30 0.0 0 0 376.73 212.71
  Q 375.77 195.86 381.45 179.95
  Q 381.64 179.43 381.15 179.17
  Q 373.12 174.77 367.71 167.50"
/>
<path stroke="#8b8a94" vector-effect="non-scaling-stroke" d="
  M 267.12 174.52
  L 257.54 176.65
  Q 256.95 176.78 257.39 177.19
  L 260.46 180.00"
/>
<path stroke="#97727c" vector-effect="non-scaling-stroke" d="
  M 295.25 184.79
  L 299.71 189.50"
/>
<path stroke="#9797a0" vector-effect="non-scaling-stroke" d="
  M 299.71 189.50
  C 293.92 200.39 289.65 206.86 277.96 211.25"
/>
<path stroke="#97727c" vector-effect="non-scaling-stroke" d="
  M 277.96 211.25
  L 275.00 211.21"
/>
<path stroke="#816b55" vector-effect="non-scaling-stroke" d="
  M 275.00 211.21
  Q 274.22 210.16 274.47 208.73
  Q 276.72 195.77 266.01 189.33
  Q 265.61 189.09 265.77 189.53
  L 273.79 211.25"
/>
<path stroke="#97727c" vector-effect="non-scaling-stroke" d="
  M 273.79 211.25
  Q 272.26 213.61 269.70 212.07
  Q 269.07 211.70 268.92 212.41
  L 267.84 217.64
  Q 267.73 218.16 268.25 218.31
  L 277.21 220.75"
/>
<path stroke="#9797a0" vector-effect="non-scaling-stroke" d="
  M 277.21 220.75
  C 279.38 224.31 289.79 241.48 286.50 244.71"
/>
<path stroke="#816b55" vector-effect="non-scaling-stroke" d="
  M 284.25 246.04
  C 282.65 245.06 276.77 227.45 275.67 224.44
  A 0.33 0.33 0.0 0 0 275.04 224.60
  C 275.74 229.32 275.63 236.33 272.22 240.17
  Q 269.48 243.26 269.17 247.56
  Q 269.13 248.09 268.87 248.54
  L 268.02 250.02
  Q 267.73 250.52 268.30 250.41
  C 269.94 250.09 283.47 246.52 283.71 246.75"
/>
<path stroke="#7e7d87" vector-effect="non-scaling-stroke" d="
  M 289.04 309.00
  L 290.04 321.50"
/>
<path stroke="#9797a0" vector-effect="non-scaling-stroke" d="
  M 290.04 321.50
  L 291.25 336.54"
/>
<path stroke="#8b8a94" vector-effect="non-scaling-stroke" d="
  M 290.00 337.29
  L 288.00 337.54"
/>
<path stroke="#97727c" vector-effect="non-scaling-stroke" d="
  M 288.00 337.54
  L 281.75 337.79"
/>
<path stroke="#9797a0" vector-effect="non-scaling-stroke" d="
  M 281.75 337.79
  L 281.00 337.71"
/>
<path stroke="#7e7d87" vector-effect="non-scaling-stroke" d="
  M 281.00 337.71
  L 280.00 335.21"
/>
<path stroke="#9797a0" vector-effect="non-scaling-stroke" d="
  M 280.00 335.21
  L 277.00 321.21"
/>
<path stroke="#7e7d87" vector-effect="non-scaling-stroke" d="
  M 277.00 321.21
  L 274.04 307.50"
/>
<path stroke="#8b8a94" vector-effect="non-scaling-stroke" d="
  M 274.04 307.50
  L 266.67 273.77
  Q 266.48 272.87 266.22 273.75
  L 261.70 289.19"
/>
<path stroke="#9797a0" vector-effect="non-scaling-stroke" d="
  M 261.70 289.19
  C 259.86 293.92 258.91 300.16 255.89 304.11
  Q 250.09 311.71 244.21 319.25"
/>
<path stroke="#7e7d87" vector-effect="non-scaling-stroke" d="
  M 244.21 319.25
  L 242.50 321.46"
/>
<path stroke="#9797a0" vector-effect="non-scaling-stroke" d="
  M 242.50 321.46
  L 235.07 331.18
  Q 234.71 331.65 234.20 331.36
  L 233.50 330.96"
/>
<path stroke="#97727c" vector-effect="non-scaling-stroke" d="
  M 233.50 330.96
  L 227.70 326.99"
/>
<path stroke="#9797a0" vector-effect="non-scaling-stroke" d="
  M 227.70 326.99
  Q 226.74 324.01 229.04 321.50"
/>
<path stroke="#7e7d87" vector-effect="non-scaling-stroke" d="
  M 229.04 321.50
  L 229.75 320.04"
/>
<path stroke="#9797a0" vector-effect="non-scaling-stroke" d="
  M 229.75 320.04
  Q 236.16 308.64 242.17 297.05
  Q 243.40 294.69 243.62 292.01
  Q 245.21 272.33 246.86 252.63
  Q 246.90 252.13 246.62 251.73
  L 246.25 251.21"
/>
<path stroke="#9797a0" vector-effect="non-scaling-stroke" d="
  M 246.21 245.00
  Q 247.39 239.30 248.73 233.61
  C 249.89 228.67 248.71 223.42 248.31 218.42
  Q 248.27 217.91 247.81 217.71
  Q 241.51 214.92 235.91 210.94
  C 230.81 207.31 236.49 200.83 237.94 196.84
  C 239.66 192.14 241.41 183.34 246.89 181.85
  Q 247.39 181.71 247.77 181.35
  L 251.13 178.09
  Q 251.55 177.68 250.98 177.80
  L 245.31 178.97
  Q 244.57 179.13 244.78 178.40
  Q 245.13 177.25 244.74 176.08
  Q 244.51 175.40 244.23 176.06
  Q 243.20 178.49 241.04 180.12"
/>
<path stroke="#9797a0" vector-effect="non-scaling-stroke" d="
  M 238.50 171.41
  Q 238.79 166.66 240.60 162.83"
/>
<path stroke="#e6e6e6" vector-effect="non-scaling-stroke" d="
  M 229.75 320.04
  Q 224.08 319.23 218.46 320.25"
/>
<path stroke="#d4c3a9" vector-effect="non-scaling-stroke" d="
  M 312.71 207.75
  L 313.79 210.00"
/>
<path stroke="#e9d4b4" vector-effect="non-scaling-stroke" d="
  M 313.79 210.00
  Q 323.21 229.18 338.84 244.46"
/>
<path stroke="#ffdbdb" vector-effect="non-scaling-stroke" d="
  M 277.21 220.75
  Q 280.56 219.05 280.55 215.62
  C 280.55 213.37 279.21 212.80 277.96 211.25"
/>
<path stroke="#be975e" vector-effect="non-scaling-stroke" d="
  M 346.50 198.46
  Q 346.36 198.51 346.22 198.57
  Q 346.03 198.65 346.04 198.86
  L 346.50 204.54"
/>
<path stroke="#be975e" vector-effect="non-scaling-stroke" d="
  M 346.93 209.93
  Q 345.75 226.43 346.39 242.97
  Q 346.41 243.65 345.74 243.79
  L 344.80 243.99
  A 1.07 1.07 0.0 0 1 343.50 242.94
  L 343.50 210.75
  Q 343.50 210.17 342.92 210.17
  L 313.79 210.00"
/>
<path stroke="#e6e6e6" vector-effect="non-scaling-stroke" d="
  M 319.79 331.75
  Q 319.62 332.80 320.47 333.09
  Q 320.90 333.24 320.65 333.62
  Q 320.41 333.98 320.00 334.21"
/>
<path stroke="#e6e6e6" vector-effect="non-scaling-stroke" d="
  M 301.46 347.75
  L 300.40 343.00
  Q 300.34 342.75 300.08 342.75
  Q 299.94 342.75 299.79 342.75"
/>
<path stroke="#816b55" vector-effect="non-scaling-stroke" d="
  M 395.79 130.75
  C 388.30 136.84 390.80 146.50 395.46 153.45
  Q 395.75 153.89 395.42 154.30
  Q 390.29 160.76 386.44 168.06
  Q 385.96 168.98 386.03 167.95
  C 386.89 155.85 382.43 148.00 374.71 139.17
  C 370.30 134.14 363.96 135.05 361.32 141.45
  A 1.24 1.23 26.0 0 0 361.86 143.00
  Q 365.68 145.16 363.43 148.95
  Q 363.17 149.39 362.69 149.56
  L 361.79 149.86
  Q 361.13 150.09 361.22 150.78
  Q 362.08 157.17 365.38 163.97"
/>
<path stroke="#be975e" vector-effect="non-scaling-stroke" d="
  M 343.75 196.79
  L 343.43 207.00
  A 0.60 0.59 -89.0 0 1 342.84 207.58
  L 312.71 207.75"
/>
<path stroke="#e9d4b4" vector-effect="non-scaling-stroke" d="
  M 312.71 207.75
  Q 307.61 196.92 304.75 185.29"
/>
<path stroke="#e9af8f" vector-effect="non-scaling-stroke" d="
  M 304.75 185.29
  C 308.89 181.87 306.70 178.25 302.96 176.00"
/>
<path stroke="#ffdbdb" vector-effect="non-scaling-stroke" d="
  M 304.75 185.29
  Q 301.90 187.00 299.71 189.50"
/>
<path stroke="#e6e6e6" vector-effect="non-scaling-stroke" d="
  M 246.54 322.25
  Q 244.84 320.74 242.50 321.46"
/>
<path stroke="#9797a0" vector-effect="non-scaling-stroke" d="
  M 281.96 343.00
  L 280.79 343.00"
/>
<path stroke="#97727c" vector-effect="non-scaling-stroke" d="
  M 226.90 340.73
  L 222.15 338.21
  Q 221.76 338.01 221.75 337.58
  Q 221.75 337.39 221.71 337.25"
/>
<path stroke="#ffdbdb" vector-effect="non-scaling-stroke" d="
  M 227.70 326.99
  L 223.37 334.33
  A 0.33 0.33 0.0 0 1 222.76 334.17
  L 222.71 332.75"
/>
<path stroke="#e6e6e6" vector-effect="non-scaling-stroke" d="
  M 223.71 329.25
  L 223.76 330.69
  Q 223.77 331.08 223.94 330.73
  Q 225.40 327.49 223.75 324.29"
/>
<path stroke="#d9d9d9" vector-effect="non-scaling-stroke" d="
  M 274.04 307.50
  L 274.00 308.98
  Q 273.99 309.45 273.52 309.44
  L 261.79 309.25"
/>
<path stroke="#f3f3f3" vector-effect="non-scaling-stroke" d="
  M 261.79 309.25
  L 261.70 289.19"
/>
<path stroke="#f3cece" vector-effect="non-scaling-stroke" d="
  M 288.46 342.50
  L 288.09 342.26
  Q 287.71 342.01 287.74 341.56
  L 288.00 337.54"
/>
<path stroke="#e9af8f" vector-effect="non-scaling-stroke" d="
  M 275.00 211.21
  L 273.79 211.25"
/>
<path stroke="#e6e6e6" vector-effect="non-scaling-stroke" d="
  M 281.00 337.71
  L 280.29 338.00"
/>
<path stroke="#e6e6e6" vector-effect="non-scaling-stroke" d="
  M 277.00 321.21
  Q 274.02 320.90 271.21 321.75"
/>
<path stroke="#e6e6e6" vector-effect="non-scaling-stroke" d="
  M 229.04 321.50
  L 224.51 321.34
  Q 223.97 321.32 223.78 321.83
  Q 223.38 322.85 223.46 324.00"
/>
<path stroke="#e6e6e6" vector-effect="non-scaling-stroke" d="
  M 235.75 337.29
  Q 231.83 338.47 230.89 342.37
  Q 230.77 342.85 230.39 343.16
  Q 228.24 344.94 228.79 347.75"
/>
<path stroke="#9797a0" vector-effect="non-scaling-stroke" d="
  M 228.46 348.50
  Q 224.94 345.25 226.90 340.73"
/>
<path stroke="#ffdbdb" vector-effect="non-scaling-stroke" d="
  M 226.90 340.73
  Q 229.30 335.33 233.50 330.96"
/>
<path stroke="#e6e6e6" vector-effect="non-scaling-stroke" d="
  M 280.00 335.21
  L 279.25 335.54"
/>
<path stroke="#e6e6e6" vector-effect="non-scaling-stroke" d="
  M 277.46 333.00
  Q 278.24 330.05 275.75 329.04"
/>
<path stroke="#e6e6e6" vector-effect="non-scaling-stroke" d="
  M 261.79 309.25
  L 261.75 320.21"
/>
<path stroke="#e6e6e6" vector-effect="non-scaling-stroke" d="
  M 251.75 320.46
  Q 248.50 319.25 245.08 320.01
  Q 244.58 320.12 244.32 319.69
  Q 244.21 319.51 244.21 319.25"
/>
<path stroke="#97727c" vector-effect="non-scaling-stroke" d="
  M 288.46 342.75
  Q 285.21 343.49 281.96 343.00"
/>
<path stroke="#ffdbdb" vector-effect="non-scaling-stroke" d="
  M 281.96 343.00
  L 281.75 337.79"
/>
<path stroke="#7e7d87" vector-effect="non-scaling-stroke" d="
  M 284.85 353.72
  Q 284.70 352.09 283.32 353.62
  Q 283.22 353.74 283.29 353.87
  Q 283.36 353.99 283.50 354.04"
/>
<path stroke="#7e7d87" vector-effect="non-scaling-stroke" d="
  M 218.29 349.75
  C 219.25 348.86 218.19 346.63 216.91 348.22
  Q 216.61 348.58 217.02 348.82
  L 217.25 348.96"
/>
<path stroke="#d9d9d9" vector-effect="non-scaling-stroke" d="
  M 447.75 118.79
  Q 446.86 119.96 448.25 120.71"
/>
<path stroke="#f3f3f3" vector-effect="non-scaling-stroke" d="
  M 448.25 120.71
  L 447.89 121.02
  Q 447.47 121.40 447.47 121.96
  L 447.54 153.75"
/>
<path stroke="#ddc7a7" vector-effect="non-scaling-stroke" d="
  M 447.54 153.75
  L 447.75 161.46"
/>
<path stroke="#f3f3f3" vector-effect="non-scaling-stroke" d="
  M 447.75 161.46
  L 447.58 169.01
  Q 447.57 169.60 448.17 169.61
  L 495.17 169.77
  A 1.55 1.53 -8.2 0 1 496.63 170.85
  C 497.38 173.26 497.85 177.55 493.99 177.51
  Q 484.13 177.41 448.01 177.54
  Q 447.50 177.54 447.50 178.05
  L 447.50 185.00
  Q 447.50 185.50 448.00 185.50
  L 494.84 185.51
  A 2.14 2.13 -1.1 0 1 496.98 187.56
  C 497.10 190.88 497.85 193.48 493.41 193.48
  Q 470.61 193.51 447.91 193.50
  A 0.43 0.42 0.0 0 0 447.48 193.92
  Q 447.51 213.31 447.50 232.34
  C 447.50 233.74 448.03 234.33 449.22 234.87
  Q 449.69 235.08 449.87 235.56
  Q 450.32 236.68 451.24 236.58"
/>
<path stroke="#d9d9d9" vector-effect="non-scaling-stroke" d="
  M 451.24 236.58
  L 453.36 240.93
  Q 453.68 241.58 453.04 241.91
  Q 450.86 243.03 451.56 245.73
  Q 454.67 257.73 464.98 263.53
  Q 465.47 263.81 465.29 264.35
  Q 461.67 274.88 461.76 286.05
  Q 461.77 287.39 461.23 286.16
  C 457.82 278.49 449.71 276.11 442.49 272.80
  C 440.29 271.80 438.55 272.42 437.84 274.72
  Q 437.68 275.26 438.14 275.58
  C 439.80 276.73 442.55 277.41 441.86 280.26
  Q 441.73 280.80 441.28 281.12
  L 440.20 281.89
  Q 439.74 282.22 440.00 282.73
  Q 447.04 296.23 462.39 297.56
  A 1.29 1.28 83.0 0 1 463.50 298.43
  L 467.07 308.94
  Q 467.27 309.53 467.89 309.60
  Q 473.64 310.23 479.18 309.20"
/>
<path stroke="#f3f3f3" vector-effect="non-scaling-stroke" d="
  M 479.18 309.20
  Q 480.68 308.98 482.12 309.30
  Q 484.12 309.75 484.94 309.75
  Q 503.97 309.89 523.01 309.72
  C 526.41 309.69 528.75 308.30 528.75 304.75
  Q 528.76 207.50 528.75 110.25
  C 528.75 105.96 527.28 103.24 522.75 103.24
  Q 485.47 103.20 448.13 103.28
  Q 447.60 103.28 447.60 103.82
  L 447.75 118.79"
/>
<path stroke="#e6e6e6" vector-effect="non-scaling-stroke" d="
  M 479.18 309.20
  L 483.47 303.36
  Q 483.77 302.96 483.77 302.45
  C 483.75 300.37 484.00 296.67 481.48 295.88
  Q 480.74 295.65 480.99 294.92
  L 481.66 292.90
  Q 481.78 292.52 481.57 292.18
  Q 479.97 289.55 476.75 289.46"
/>
<path stroke="#f3f3f3" vector-effect="non-scaling-stroke" d="
  M 476.75 289.46
  Q 474.99 276.14 469.31 263.94
  Q 468.85 262.94 467.71 262.00"
/>
<path stroke="#e6e6e6" vector-effect="non-scaling-stroke" d="
  M 467.71 262.00
  Q 470.40 254.82 475.00 248.73
  C 478.15 244.55 482.00 243.06 484.09 237.30
  Q 484.34 236.61 483.63 236.42
  L 482.21 236.05
  Q 481.67 235.91 481.45 235.40
  Q 480.64 233.54 482.41 232.03
  Q 483.39 231.20 482.63 230.17
  C 479.80 226.30 473.09 229.95 472.51 233.78
  Q 471.57 240.05 475.10 245.14
  A 0.70 0.69 -45.9 0 1 475.11 245.91
  L 469.03 255.30
  A 0.08 0.08 0.0 0 1 468.88 255.26
  Q 468.33 243.40 460.93 235.85
  C 457.54 232.39 453.90 232.10 451.24 236.58"
/>
<path stroke="#e9d4b4" vector-effect="non-scaling-stroke" d="
  M 447.75 161.46
  L 476.59 161.48
  Q 477.10 161.48 477.34 161.04
  Q 479.30 157.53 477.24 154.26
  Q 476.92 153.74 476.31 153.74
  L 447.54 153.75"
/>
<path stroke="#e6e6e6" vector-effect="non-scaling-stroke" d="
  M 448.25 120.71
  L 517.68 120.53
  Q 518.25 120.53 518.25 119.96
  L 518.25 119.52
  A 0.76 0.75 0.0 0 0 517.49 118.77
  L 447.75 118.79"
/>
<path stroke="#d9d9d9" vector-effect="non-scaling-stroke" d="
  M 467.71 262.00
  Q 458.85 284.76 468.05 307.31
  Q 468.26 307.83 468.30 307.26
  C 468.54 302.70 470.98 290.28 476.75 289.46"
/>
<path stroke="#d9d9d9" vector-effect="non-scaling-stroke" d="
  M 182.75 262.46
  C 176.26 263.21 177.20 269.27 179.57 273.59
  Q 179.80 274.02 179.53 274.43
  L 175.85 279.87
  Q 175.60 280.25 175.57 279.80
  Q 175.04 272.13 169.71 266.93
  C 167.61 264.88 165.07 265.47 163.90 268.01
  Q 163.66 268.53 164.06 268.94
  L 165.12 270.00
  Q 165.62 270.49 165.17 271.04
  L 163.98 272.49
  Q 163.67 272.86 163.77 273.33
  Q 165.55 281.39 172.64 285.71
  Q 173.17 286.03 173.02 286.63
  C 171.75 291.71 170.82 295.46 171.00 300.80
  A 0.32 0.32 0.0 0 1 170.39 300.95
  C 167.69 295.70 162.76 294.18 157.58 292.05
  Q 155.92 291.36 155.09 292.85
  A 0.93 0.92 -57.7 0 0 155.36 294.06
  L 157.54 295.61
  Q 158.13 296.02 157.71 296.60
  L 156.54 298.23
  Q 156.22 298.67 156.49 299.14
  Q 161.41 307.67 171.23 308.60
  Q 171.75 308.65 171.91 309.15
  L 174.07 315.90
  Q 174.25 316.47 174.85 316.50
  L 181.45 316.81
  Q 181.97 316.83 182.24 316.38
  C 183.94 313.50 187.92 310.50 183.77 307.19
  Q 183.32 306.84 183.61 306.35
  L 183.97 305.73
  Q 184.22 305.29 183.90 304.90
  C 178.44 298.29 175.59 311.30 175.08 314.08
  Q 174.91 314.98 174.58 314.12
  C 169.39 300.49 171.83 282.61 183.12 272.41
  C 184.29 271.36 184.92 270.08 185.60 268.75
  Q 185.84 268.27 185.44 267.90
  Q 184.93 267.45 184.12 267.36"
/>
<path stroke="#f3f3f3" vector-effect="non-scaling-stroke" d="
  M 184.12 267.36
  Q 186.35 266.32 187.83 268.68
  Q 200.59 288.94 201.11 311.06
  Q 201.17 313.80 200.70 315.82
  Q 200.40 317.10 201.69 316.85
  C 211.45 314.97 213.17 309.38 213.15 299.95
  Q 213.01 225.49 213.29 151.03
  C 213.32 144.57 212.36 139.92 206.85 136.79
  C 203.22 134.73 197.99 135.08 193.65 134.98
  Q 193.04 134.97 193.13 135.57
  C 194.01 141.76 190.02 143.24 184.63 143.25
  Q 170.33 143.27 156.05 143.23
  C 150.51 143.21 146.12 142.10 146.93 135.55
  Q 146.99 135.05 146.48 135.03
  C 136.26 134.57 127.56 136.62 127.53 148.71
  Q 127.43 191.46 127.52 234.23
  Q 127.52 234.74 128.04 234.75
  C 148.63 235.19 168.15 245.76 181.76 260.75
  Q 182.10 261.12 182.75 262.46"
/>
<path stroke="#e6e6e6" vector-effect="non-scaling-stroke" d="
  M 184.12 267.36
  Q 183.47 265.99 184.75 265.01
  Q 185.25 264.64 184.95 264.10
  Q 184.23 262.79 182.75 262.46"
/>
<path stroke="#f3f3f3" vector-effect="non-scaling-stroke" d="
  M 172.79 136.67
  A 1.18 1.18 0.0 0 0 171.61 135.49
  L 161.71 135.49
  A 1.18 1.18 0.0 0 0 160.53 136.67
  L 160.53 136.81
  A 1.18 1.18 0.0 0 0 161.71 137.99
  L 171.61 137.99
  A 1.18 1.18 0.0 0 0 172.79 136.81
  L 172.79 136.67"
/>
<path stroke="#f3f3f3" vector-effect="non-scaling-stroke" d="
  M 178.23 136.69
  A 1.34 1.34 0.0 0 0 176.89 135.35
  A 1.34 1.34 0.0 0 0 175.55 136.69
  A 1.34 1.34 0.0 0 0 176.89 138.03
  A 1.34 1.34 0.0 0 0 178.23 136.69"
/>
<path stroke="#f3f3f3" vector-effect="non-scaling-stroke" d="
  M 305.65 251.55
  L 290.61 251.39
  A 0.20 0.20 0.0 0 0 290.41 251.59
  L 290.36 256.16
  A 8.15 7.67 -89.4 0 0 297.94 264.39
  L 298.04 264.39
  A 8.15 7.67 -89.4 0 0 305.80 256.32
  L 305.85 251.75
  A 0.20 0.20 0.0 0 0 305.65 251.55"
/>
<path stroke="#9797a0" vector-effect="non-scaling-stroke" d="
  M 189.32 63.69
  A 5.93 5.93 0.0 0 0 183.39 57.76
  A 5.93 5.93 0.0 0 0 177.46 63.69
  A 5.93 5.93 0.0 0 0 183.39 69.62
  A 5.93 5.93 0.0 0 0 189.32 63.69"
/>
<path stroke="#9797a0" vector-effect="non-scaling-stroke" d="
  M 209.94 63.69
  A 5.92 5.92 0.0 0 0 204.02 57.77
  A 5.92 5.92 0.0 0 0 198.10 63.69
  A 5.92 5.92 0.0 0 0 204.02 69.61
  A 5.92 5.92 0.0 0 0 209.94 63.69"
/>
<path stroke="#9797a0" vector-effect="non-scaling-stroke" d="
  M 230.62 63.71
  A 5.93 5.93 0.0 0 0 224.69 57.78
  A 5.93 5.93 0.0 0 0 218.76 63.71
  A 5.93 5.93 0.0 0 0 224.69 69.64
  A 5.93 5.93 0.0 0 0 230.62 63.71"
/>
<path stroke="#816b55" vector-effect="non-scaling-stroke" d="
  M 410.98 60.23
  A 0.98 0.98 0.0 0 0 410.00 59.25
  L 395.26 59.25
  A 0.98 0.98 0.0 0 0 394.28 60.23
  L 394.28 60.27
  A 0.98 0.98 0.0 0 0 395.26 61.25
  L 410.00 61.25
  A 0.98 0.98 0.0 0 0 410.98 60.27
  L 410.98 60.23"
/>
<path stroke="#816b55" vector-effect="non-scaling-stroke" d="
  M 410.9201 64.3787
  A 1.05 1.05 0.0 0 0 409.8738 63.3250
  L 395.5538 63.2750
  A 1.05 1.05 0.0 0 0 394.5002 64.3213
  L 394.4999 64.4013
  A 1.05 1.05 0.0 0 0 395.5462 65.4550
  L 409.8662 65.5050
  A 1.05 1.05 0.0 0 0 410.9198 64.4587
  L 410.9201 64.3787"
/>
<path stroke="#816b55" vector-effect="non-scaling-stroke" d="
  M 410.79 68.36
  A 0.86 0.86 0.0 0 0 409.93 67.50
  L 395.17 67.50
  A 0.86 0.86 0.0 0 0 394.31 68.36
  L 394.31 68.64
  A 0.86 0.86 0.0 0 0 395.17 69.50
  L 409.93 69.50
  A 0.86 0.86 0.0 0 0 410.79 68.64
  L 410.79 68.36"
/>
<path stroke="#e6e6e6" vector-effect="non-scaling-stroke" d="
  M 506.56 115.08
  Q 506.45 115.26 506.50 115.47
  Q 506.59 115.93 507.05 115.94
  L 512.60 116.12
  Q 513.15 116.14 513.16 115.59
  L 513.26 111.61
  Q 513.28 110.93 512.60 110.95
  L 507.00 111.13
  Q 506.40 111.15 506.45 111.75
  L 506.68 114.58
  Q 506.70 114.85 506.56 115.08"
/>
<path stroke="#e9d4b4" vector-effect="non-scaling-stroke" d="
  M 180.2533 186.8772
  A 2.37 2.37 0.0 0 0 177.8874 184.5031
  L 162.8674 184.4769
  A 2.37 2.37 0.0 0 0 160.4933 186.8428
  L 160.4867 190.6028
  A 2.37 2.37 0.0 0 0 162.8526 192.9769
  L 177.8726 193.0031
  A 2.37 2.37 0.0 0 0 180.2467 190.6372
  L 180.2533 186.8772"
/>
<path stroke="#f3f3f3" vector-effect="non-scaling-stroke" d="
  M 200.95 204.45
  A 2.69 2.69 0.0 0 0 198.26 201.76
  L 142.44 201.76
  A 2.69 2.69 0.0 0 0 139.75 204.45
  L 139.75 207.81
  A 2.69 2.69 0.0 0 0 142.44 210.50
  L 198.26 210.50
  A 2.69 2.69 0.0 0 0 200.95 207.81
  L 200.95 204.45"
/>
<path stroke="#f3f3f3" vector-effect="non-scaling-stroke" d="
  M 200.97 222.00
  A 2.75 2.75 0.0 0 0 198.22 219.25
  L 142.50 219.25
  A 2.75 2.75 0.0 0 0 139.75 222.00
  L 139.75 225.24
  A 2.75 2.75 0.0 0 0 142.50 227.99
  L 198.22 227.99
  A 2.75 2.75 0.0 0 0 200.97 225.24
  L 200.97 222.00"
/>
<path stroke="#97727c" vector-effect="non-scaling-stroke" d="
  M 266.27 158.60
  L 266.24 156.92
  Q 266.23 156.47 265.80 156.59
  C 265.65 156.63 264.96 158.64 264.70 158.98
  C 263.76 160.21 258.36 160.59 256.79 160.79
  A 0.82 0.82 0.0 0 0 256.19 162.04
  L 262.91 172.82
  Q 263.21 173.30 263.73 173.09
  Q 273.52 169.21 270.45 158.77
  Q 270.24 158.07 269.54 158.29
  L 266.99 159.11
  Q 266.29 159.34 266.27 158.60"
/>
</g>
<path fill="#e6e6e6" d="
  M 538.25 307.96
  Q 537.98 308.08 537.93 308.42
  Q 537.92 308.47 537.91 308.46
  L 537.72 308.24
  Q 537.50 307.99 537.42 308.32
  Q 535.73 315.25 529.39 318.31
  Q 528.94 318.53 528.68 318.96
  L 528.25 319.71
  L 391.50 319.96
  Q 391.12 319.64 391.48 319.25
  Q 391.92 318.79 391.36 318.50
  C 383.99 314.68 382.21 309.07 382.13 300.62
  Q 381.89 276.36 382.05 252.05
  Q 382.05 251.50 381.50 251.50
  L 334.51 251.50
  Q 333.99 251.50 333.99 252.02
  L 334.00 309.21
  L 289.04 309.00
  L 283.71 246.75
  L 284.25 246.04
  L 286.50 244.71
  L 286.85 244.96
  Q 287.14 245.16 287.48 245.12
  Q 290.10 244.76 292.75 244.79
  Q 315.74 245.02 338.84 244.46
  Q 342.33 245.18 345.95 245.01
  C 358.75 244.42 371.68 244.76 384.50 244.71
  Q 395.27 245.41 406.04 244.75
  Q 420.38 244.75 434.74 244.75
  C 438.65 244.75 441.02 243.34 441.03 239.25
  Q 441.06 224.63 440.96 210.00
  L 440.96 207.50
  L 441.01 167.11
  Q 441.51 165.86 440.96 165.00
  L 440.96 114.00
  L 440.96 111.75
  Q 441.07 84.72 440.94 57.68
  C 440.92 51.77 436.77 51.77 432.25 51.76
  Q 400.48 51.74 368.70 51.76
  C 367.89 51.76 366.99 52.16 366.25 52.46
  Q 366.27 52.30 366.22 52.14
  Q 366.09 51.75 365.68 51.75
  Q 264.09 51.75 162.50 51.75
  C 158.43 51.75 157.25 54.84 157.25 58.55
  Q 157.25 94.49 157.25 130.35
  A 0.41 0.41 0.0 0 0 157.66 130.76
  Q 179.22 130.71 200.68 130.79
  Q 207.45 130.81 213.19 136.84
  Q 215.63 140.57 216.70 144.95
  Q 216.76 145.19 216.99 145.25
  Q 217.12 145.28 217.25 145.29
  C 216.23 145.69 216.73 152.61 216.64 153.58
  Q 216.59 154.10 217.11 154.10
  L 243.50 154.42
  L 240.60 162.83
  L 217.25 162.77
  Q 216.75 162.77 216.75 163.27
  L 216.75 171.01
  Q 216.75 171.54 217.28 171.54
  L 238.50 171.41
  L 240.16 178.87
  Q 240.26 179.36 240.63 179.70
  Q 240.80 179.87 241.04 180.12
  L 218.37 180.26
  Q 217.81 180.26 217.80 180.83
  Q 217.64 187.48 217.78 194.13
  C 217.81 195.67 216.79 196.68 216.78 198.25
  Q 216.66 221.24 216.79 244.33
  Q 216.79 244.85 217.31 244.85
  L 246.21 245.00
  L 246.25 251.21
  Q 232.10 251.80 217.38 251.37
  A 0.62 0.62 0.0 0 0 216.74 251.99
  Q 216.76 275.17 216.74 298.53
  Q 216.73 306.97 215.51 310.29
  Q 213.37 316.13 207.67 319.89
  Q 177.09 320.12 146.32 319.76
  C 139.00 319.67 130.08 320.61 126.09 314.13
  Q 123.19 309.42 123.22 304.50
  Q 123.44 263.38 123.30 222.26
  C 123.27 214.70 122.50 205.61 122.54 197.23
  Q 122.55 195.00 122.29 187.67
  C 122.11 182.72 123.18 177.81 122.32 172.91
  Q 121.35 167.34 122.36 161.79
  C 123.40 156.02 122.45 149.35 123.28 145.02
  C 125.99 131.02 137.15 130.80 148.70 130.95
  Q 150.97 130.98 150.97 128.69
  Q 151.01 92.97 150.96 57.25
  C 150.95 51.44 152.80 45.59 159.81 45.61
  C 249.85 45.82 339.97 46.34 430.00 45.67
  C 437.99 45.61 447.21 44.21 447.19 55.57
  Q 447.17 73.13 447.46 90.79
  A 2.07 2.06 5.4 0 0 449.12 92.79
  Q 451.84 93.35 455.00 93.41
  Q 487.51 94.07 501.50 92.90
  Q 515.18 91.75 525.01 93.96
  C 535.85 96.39 537.99 104.75 537.99 115.18
  Q 538.01 205.59 538.00 296.01
  C 538.00 299.46 538.38 303.95 538.25 307.96
  Z
  M 447.75 118.79
  Q 446.86 119.96 448.25 120.71
  L 447.89 121.02
  Q 447.47 121.40 447.47 121.96
  L 447.54 153.75
  L 447.75 161.46
  L 447.58 169.01
  Q 447.57 169.60 448.17 169.61
  L 495.17 169.77
  A 1.55 1.53 -8.2 0 1 496.63 170.85
  C 497.38 173.26 497.85 177.55 493.99 177.51
  Q 484.13 177.41 448.01 177.54
  Q 447.50 177.54 447.50 178.05
  L 447.50 185.00
  Q 447.50 185.50 448.00 185.50
  L 494.84 185.51
  A 2.14 2.13 -1.1 0 1 496.98 187.56
  C 497.10 190.88 497.85 193.48 493.41 193.48
  Q 470.61 193.51 447.91 193.50
  A 0.43 0.42 0.0 0 0 447.48 193.92
  Q 447.51 213.31 447.50 232.34
  C 447.50 233.74 448.03 234.33 449.22 234.87
  Q 449.69 235.08 449.87 235.56
  Q 450.32 236.68 451.24 236.58
  L 453.36 240.93
  Q 453.68 241.58 453.04 241.91
  Q 450.86 243.03 451.56 245.73
  Q 454.67 257.73 464.98 263.53
  Q 465.47 263.81 465.29 264.35
  Q 461.67 274.88 461.76 286.05
  Q 461.77 287.39 461.23 286.16
  C 457.82 278.49 449.71 276.11 442.49 272.80
  C 440.29 271.80 438.55 272.42 437.84 274.72
  Q 437.68 275.26 438.14 275.58
  C 439.80 276.73 442.55 277.41 441.86 280.26
  Q 441.73 280.80 441.28 281.12
  L 440.20 281.89
  Q 439.74 282.22 440.00 282.73
  Q 447.04 296.23 462.39 297.56
  A 1.29 1.28 83.0 0 1 463.50 298.43
  L 467.07 308.94
  Q 467.27 309.53 467.89 309.60
  Q 473.64 310.23 479.18 309.20
  Q 480.68 308.98 482.12 309.30
  Q 484.12 309.75 484.94 309.75
  Q 503.97 309.89 523.01 309.72
  C 526.41 309.69 528.75 308.30 528.75 304.75
  Q 528.76 207.50 528.75 110.25
  C 528.75 105.96 527.28 103.24 522.75 103.24
  Q 485.47 103.20 448.13 103.28
  Q 447.60 103.28 447.60 103.82
  L 447.75 118.79
  Z
  M 182.75 262.46
  C 176.26 263.21 177.20 269.27 179.57 273.59
  Q 179.80 274.02 179.53 274.43
  L 175.85 279.87
  Q 175.60 280.25 175.57 279.80
  Q 175.04 272.13 169.71 266.93
  C 167.61 264.88 165.07 265.47 163.90 268.01
  Q 163.66 268.53 164.06 268.94
  L 165.12 270.00
  Q 165.62 270.49 165.17 271.04
  L 163.98 272.49
  Q 163.67 272.86 163.77 273.33
  Q 165.55 281.39 172.64 285.71
  Q 173.17 286.03 173.02 286.63
  C 171.75 291.71 170.82 295.46 171.00 300.80
  A 0.32 0.32 0.0 0 1 170.39 300.95
  C 167.69 295.70 162.76 294.18 157.58 292.05
  Q 155.92 291.36 155.09 292.85
  A 0.93 0.92 -57.7 0 0 155.36 294.06
  L 157.54 295.61
  Q 158.13 296.02 157.71 296.60
  L 156.54 298.23
  Q 156.22 298.67 156.49 299.14
  Q 161.41 307.67 171.23 308.60
  Q 171.75 308.65 171.91 309.15
  L 174.07 315.90
  Q 174.25 316.47 174.85 316.50
  L 181.45 316.81
  Q 181.97 316.83 182.24 316.38
  C 183.94 313.50 187.92 310.50 183.77 307.19
  Q 183.32 306.84 183.61 306.35
  L 183.97 305.73
  Q 184.22 305.29 183.90 304.90
  C 178.44 298.29 175.59 311.30 175.08 314.08
  Q 174.91 314.98 174.58 314.12
  C 169.39 300.49 171.83 282.61 183.12 272.41
  C 184.29 271.36 184.92 270.08 185.60 268.75
  Q 185.84 268.27 185.44 267.90
  Q 184.93 267.45 184.12 267.36
  Q 186.35 266.32 187.83 268.68
  Q 200.59 288.94 201.11 311.06
  Q 201.17 313.80 200.70 315.82
  Q 200.40 317.10 201.69 316.85
  C 211.45 314.97 213.17 309.38 213.15 299.95
  Q 213.01 225.49 213.29 151.03
  C 213.32 144.57 212.36 139.92 206.85 136.79
  C 203.22 134.73 197.99 135.08 193.65 134.98
  Q 193.04 134.97 193.13 135.57
  C 194.01 141.76 190.02 143.24 184.63 143.25
  Q 170.33 143.27 156.05 143.23
  C 150.51 143.21 146.12 142.10 146.93 135.55
  Q 146.99 135.05 146.48 135.03
  C 136.26 134.57 127.56 136.62 127.53 148.71
  Q 127.43 191.46 127.52 234.23
  Q 127.52 234.74 128.04 234.75
  C 148.63 235.19 168.15 245.76 181.76 260.75
  Q 182.10 261.12 182.75 262.46
  Z
  M 172.79 136.67
  A 1.18 1.18 0.0 0 0 171.61 135.49
  L 161.71 135.49
  A 1.18 1.18 0.0 0 0 160.53 136.67
  L 160.53 136.81
  A 1.18 1.18 0.0 0 0 161.71 137.99
  L 171.61 137.99
  A 1.18 1.18 0.0 0 0 172.79 136.81
  L 172.79 136.67
  Z
  M 178.23 136.69
  A 1.34 1.34 0.0 0 0 176.89 135.35
  A 1.34 1.34 0.0 0 0 175.55 136.69
  A 1.34 1.34 0.0 0 0 176.89 138.03
  A 1.34 1.34 0.0 0 0 178.23 136.69
  Z
  M 305.65 251.55
  L 290.61 251.39
  A 0.20 0.20 0.0 0 0 290.41 251.59
  L 290.36 256.16
  A 8.15 7.67 -89.4 0 0 297.94 264.39
  L 298.04 264.39
  A 8.15 7.67 -89.4 0 0 305.80 256.32
  L 305.85 251.75
  A 0.20 0.20 0.0 0 0 305.65 251.55
  Z"
/>
<path fill="#ffffff" d="
  M 366.25 52.46
  Q 349.54 61.19 336.21 74.50
  Q 335.27 75.00 334.75 75.00
  Q 250.27 75.00 165.71 75.00
  A 0.77 0.77 0.0 0 0 164.95 75.87
  Q 165.13 77.10 166.56 77.10
  Q 249.65 77.25 332.74 77.27
  Q 332.95 77.27 332.99 77.47
  Q 333.03 77.63 333.04 77.75
  Q 319.13 92.80 311.25 111.71
  L 310.00 114.46
  Q 300.59 138.69 301.79 164.75
  L 302.04 167.25
  L 302.96 176.00
  C 295.62 177.11 299.61 182.66 295.25 184.79
  L 294.24 183.88
  Q 293.88 183.55 293.58 183.94
  C 291.83 186.20 290.56 188.27 287.82 189.56
  Q 282.45 192.09 277.39 195.40
  Q 276.96 195.68 276.64 195.28
  Q 271.41 188.81 264.31 184.54
  Q 263.82 184.25 263.46 183.80
  L 260.46 180.00
  L 265.50 180.24
  Q 266.06 180.27 266.43 179.84
  Q 268.30 177.63 267.12 174.52
  Q 270.94 174.47 271.56 171.14
  Q 271.73 170.25 272.19 171.03
  Q 272.46 171.48 272.16 172.11
  Q 271.89 172.70 272.42 173.07
  Q 273.14 173.57 274.25 172.88
  Q 274.66 172.63 274.87 172.19
  C 278.03 165.79 272.75 163.52 271.39 158.12
  Q 271.25 157.55 271.83 157.43
  C 273.82 157.04 273.29 155.31 272.51 154.04
  Q 266.92 144.86 256.77 148.52
  C 251.12 150.56 247.71 148.45 243.50 154.42
  L 217.11 154.10
  Q 216.59 154.10 216.64 153.58
  C 216.73 152.61 216.23 145.69 217.25 145.29
  L 245.04 145.36
  A 1.70 1.69 0.0 0 0 246.74 143.67
  L 246.75 138.57
  A 1.79 1.78 -90.0 0 0 244.96 136.77
  L 213.19 136.84
  Q 207.45 130.81 200.68 130.79
  Q 179.22 130.71 157.66 130.76
  A 0.41 0.41 0.0 0 1 157.25 130.35
  Q 157.25 94.49 157.25 58.55
  C 157.25 54.84 158.43 51.75 162.50 51.75
  Q 264.09 51.75 365.68 51.75
  Q 366.09 51.75 366.22 52.14
  Q 366.27 52.30 366.25 52.46
  Z
  M 189.32 63.69
  A 5.93 5.93 0.0 0 0 183.39 57.76
  A 5.93 5.93 0.0 0 0 177.46 63.69
  A 5.93 5.93 0.0 0 0 183.39 69.62
  A 5.93 5.93 0.0 0 0 189.32 63.69
  Z
  M 209.94 63.69
  A 5.92 5.92 0.0 0 0 204.02 57.77
  A 5.92 5.92 0.0 0 0 198.10 63.69
  A 5.92 5.92 0.0 0 0 204.02 69.61
  A 5.92 5.92 0.0 0 0 209.94 63.69
  Z
  M 230.62 63.71
  A 5.93 5.93 0.0 0 0 224.69 57.78
  A 5.93 5.93 0.0 0 0 218.76 63.71
  A 5.93 5.93 0.0 0 0 224.69 69.64
  A 5.93 5.93 0.0 0 0 230.62 63.71
  Z"
/>
<path fill="#d3a868" d="
  M 440.96 111.75
  L 398.73 111.72
  Q 398.21 111.72 398.22 111.21
  Q 398.30 97.38 398.24 83.54
  C 398.23 81.70 397.45 81.78 395.91 82.05
  A 0.51 0.51 0.0 0 0 395.50 82.55
  L 395.50 111.25
  Q 395.50 111.75 395.00 111.75
  L 346.75 111.75
  Q 346.25 111.75 346.25 111.25
  L 346.25 82.62
  Q 346.25 82.00 345.62 82.00
  L 344.22 82.00
  Q 343.50 82.00 343.50 82.72
  L 343.52 111.24
  Q 343.52 111.73 343.04 111.73
  L 311.25 111.71
  Q 319.13 92.80 333.04 77.75
  Q 333.63 77.17 334.06 77.17
  Q 378.00 77.32 421.94 77.01
  Q 422.98 77.00 423.32 76.05
  A 0.79 0.79 0.0 0 0 422.58 75.00
  Q 379.61 74.90 336.71 75.04
  C 336.36 75.04 336.15 74.85 336.21 74.50
  Q 349.54 61.19 366.25 52.46
  C 366.99 52.16 367.89 51.76 368.70 51.76
  Q 400.48 51.74 432.25 51.76
  C 436.77 51.77 440.92 51.77 440.94 57.68
  Q 441.07 84.72 440.96 111.75
  Z
  M 410.98 60.23
  A 0.98 0.98 0.0 0 0 410.00 59.25
  L 395.26 59.25
  A 0.98 0.98 0.0 0 0 394.28 60.23
  L 394.28 60.27
  A 0.98 0.98 0.0 0 0 395.26 61.25
  L 410.00 61.25
  A 0.98 0.98 0.0 0 0 410.98 60.27
  L 410.98 60.23
  Z
  M 410.9201 64.3787
  A 1.05 1.05 0.0 0 0 409.8738 63.3250
  L 395.5538 63.2750
  A 1.05 1.05 0.0 0 0 394.5002 64.3213
  L 394.4999 64.4013
  A 1.05 1.05 0.0 0 0 395.5462 65.4550
  L 409.8662 65.5050
  A 1.05 1.05 0.0 0 0 410.9198 64.4587
  L 410.9201 64.3787
  Z
  M 410.79 68.36
  A 0.86 0.86 0.0 0 0 409.93 67.50
  L 395.17 67.50
  A 0.86 0.86 0.0 0 0 394.31 68.36
  L 394.31 68.64
  A 0.86 0.86 0.0 0 0 395.17 69.50
  L 409.93 69.50
  A 0.86 0.86 0.0 0 0 410.79 68.64
  L 410.79 68.36
  Z"
/>
<circle fill="#2f2e41" cx="183.39" cy="63.69" r="5.93"/>
<circle fill="#2f2e41" cx="204.02" cy="63.69" r="5.92"/>
<circle fill="#2f2e41" cx="224.69" cy="63.71" r="5.93"/>
<rect fill="#2f2e41" x="394.28" y="59.25" width="16.70" height="2.00" rx="0.98"/>
<rect fill="#2f2e41" x="-8.21" y="-1.09" transform="translate(402.71,64.39) rotate(0.2)" width="16.42" height="2.18" rx="1.05"/>
<rect fill="#2f2e41" x="394.31" y="67.50" width="16.48" height="2.00" rx="0.86"/>
<path fill="#cccccc" d="
  M 336.21 74.50
  C 336.15 74.85 336.36 75.04 336.71 75.04
  Q 379.61 74.90 422.58 75.00
  A 0.79 0.79 0.0 0 1 423.32 76.05
  Q 422.98 77.00 421.94 77.01
  Q 378.00 77.32 334.06 77.17
  Q 333.63 77.17 333.04 77.75
  Q 333.03 77.63 332.99 77.47
  Q 332.95 77.27 332.74 77.27
  Q 249.65 77.25 166.56 77.10
  Q 165.13 77.10 164.95 75.87
  A 0.77 0.77 0.0 0 1 165.71 75.00
  Q 250.27 75.00 334.75 75.00
  Q 335.27 75.00 336.21 74.50
  Z"
/>
<path fill="#a98653" d="
  M 440.96 111.75
  L 440.96 114.00
  C 439.92 114.06 439.35 114.51 438.32 114.51
  Q 418.58 114.47 398.75 114.51
  Q 398.21 114.51 398.22 115.05
  L 398.50 129.54
  L 395.79 130.75
  L 395.54 115.01
  Q 395.53 114.48 395.01 114.49
  C 367.47 114.97 346.42 136.65 346.27 164.13
  Q 346.26 164.55 346.68 164.58
  Q 356.07 165.35 365.38 163.97
  L 367.71 167.50
  L 346.77 167.36
  Q 346.28 167.36 346.28 167.85
  L 346.32 191.30
  Q 344.74 191.58 343.79 192.50
  Q 343.43 191.02 343.47 189.50
  Q 343.72 178.74 343.59 168.04
  Q 343.59 167.53 343.07 167.52
  L 302.04 167.25
  L 301.79 164.75
  L 343.00 164.73
  Q 343.49 164.73 343.49 164.24
  L 343.51 114.99
  Q 343.51 114.48 343.00 114.48
  L 310.00 114.46
  L 311.25 111.71
  L 343.04 111.73
  Q 343.52 111.73 343.52 111.24
  L 343.50 82.72
  Q 343.50 82.00 344.22 82.00
  L 345.62 82.00
  Q 346.25 82.00 346.25 82.62
  L 346.25 111.25
  Q 346.25 111.75 346.75 111.75
  L 395.00 111.75
  Q 395.50 111.75 395.50 111.25
  L 395.50 82.55
  A 0.51 0.51 0.0 0 1 395.91 82.05
  C 397.45 81.78 398.23 81.70 398.24 83.54
  Q 398.30 97.38 398.22 111.21
  Q 398.21 111.72 398.73 111.72
  L 440.96 111.75
  Z"
/>
<path fill="#ffffff" d="
  M 479.18 309.20
  L 483.47 303.36
  Q 483.77 302.96 483.77 302.45
  C 483.75 300.37 484.00 296.67 481.48 295.88
  Q 480.74 295.65 480.99 294.92
  L 481.66 292.90
  Q 481.78 292.52 481.57 292.18
  Q 479.97 289.55 476.75 289.46
  Q 474.99 276.14 469.31 263.94
  Q 468.85 262.94 467.71 262.00
  Q 470.40 254.82 475.00 248.73
  C 478.15 244.55 482.00 243.06 484.09 237.30
  Q 484.34 236.61 483.63 236.42
  L 482.21 236.05
  Q 481.67 235.91 481.45 235.40
  Q 480.64 233.54 482.41 232.03
  Q 483.39 231.20 482.63 230.17
  C 479.80 226.30 473.09 229.95 472.51 233.78
  Q 471.57 240.05 475.10 245.14
  A 0.70 0.69 -45.9 0 1 475.11 245.91
  L 469.03 255.30
  A 0.08 0.08 0.0 0 1 468.88 255.26
  Q 468.33 243.40 460.93 235.85
  C 457.54 232.39 453.90 232.10 451.24 236.58
  Q 450.32 236.68 449.87 235.56
  Q 449.69 235.08 449.22 234.87
  C 448.03 234.33 447.50 233.74 447.50 232.34
  Q 447.51 213.31 447.48 193.92
  A 0.43 0.42 -0.0 0 1 447.91 193.50
  Q 470.61 193.51 493.41 193.48
  C 497.85 193.48 497.10 190.88 496.98 187.56
  A 2.14 2.13 -1.1 0 0 494.84 185.51
  L 448.00 185.50
  Q 447.50 185.50 447.50 185.00
  L 447.50 178.05
  Q 447.50 177.54 448.01 177.54
  Q 484.13 177.41 493.99 177.51
  C 497.85 177.55 497.38 173.26 496.63 170.85
  A 1.55 1.53 -8.2 0 0 495.17 169.77
  L 448.17 169.61
  Q 447.57 169.60 447.58 169.01
  L 447.75 161.46
  L 476.59 161.48
  Q 477.10 161.48 477.34 161.04
  Q 479.30 157.53 477.24 154.26
  Q 476.92 153.74 476.31 153.74
  L 447.54 153.75
  L 447.47 121.96
  Q 447.47 121.40 447.89 121.02
  L 448.25 120.71
  L 517.68 120.53
  Q 518.25 120.53 518.25 119.96
  L 518.25 119.52
  A 0.76 0.75 0.0 0 0 517.49 118.77
  L 447.75 118.79
  L 447.60 103.82
  Q 447.60 103.28 448.13 103.28
  Q 485.47 103.20 522.75 103.24
  C 527.28 103.24 528.75 105.96 528.75 110.25
  Q 528.76 207.50 528.75 304.75
  C 528.75 308.30 526.41 309.69 523.01 309.72
  Q 503.97 309.89 484.94 309.75
  Q 484.12 309.75 482.12 309.30
  Q 480.68 308.98 479.18 309.20
  Z
  M 506.56 115.08
  Q 506.45 115.26 506.50 115.47
  Q 506.59 115.93 507.05 115.94
  L 512.60 116.12
  Q 513.15 116.14 513.16 115.59
  L 513.26 111.61
  Q 513.28 110.93 512.60 110.95
  L 507.00 111.13
  Q 506.40 111.15 506.45 111.75
  L 506.68 114.58
  Q 506.70 114.85 506.56 115.08
  Z"
/>
<path fill="#cccccc" d="
  M 506.68 114.58
  L 506.45 111.75
  Q 506.40 111.15 507.00 111.13
  L 512.60 110.95
  Q 513.28 110.93 513.26 111.61
  L 513.16 115.59
  Q 513.15 116.14 512.60 116.12
  L 507.05 115.94
  Q 506.59 115.93 506.50 115.47
  Q 506.45 115.26 506.56 115.08
  Q 506.70 114.85 506.68 114.58
  Z"
/>
<path fill="#d3a868" d="
  M 440.96 114.00
  L 440.96 165.00
  L 398.76 164.73
  Q 398.17 164.73 398.16 164.14
  L 397.96 154.50
  Q 405.63 149.67 408.26 140.88
  Q 408.50 140.07 407.67 140.22
  Q 404.21 140.86 403.68 137.49
  Q 403.59 136.95 403.93 136.51
  L 406.60 133.07
  Q 406.90 132.68 406.60 132.29
  Q 403.53 128.43 398.50 129.54
  L 398.22 115.05
  Q 398.21 114.51 398.75 114.51
  Q 418.58 114.47 438.32 114.51
  C 439.35 114.51 439.92 114.06 440.96 114.00
  Z"
/>
<path fill="#d3a868" d="
  M 301.79 164.75
  Q 300.59 138.69 310.00 114.46
  L 343.00 114.48
  Q 343.51 114.48 343.51 114.99
  L 343.49 164.24
  Q 343.49 164.73 343.00 164.73
  L 301.79 164.75
  Z"
/>
<path fill="#d3a868" d="
  M 395.79 130.75
  C 388.30 136.84 390.80 146.50 395.46 153.45
  Q 395.75 153.89 395.42 154.30
  Q 390.29 160.76 386.44 168.06
  Q 385.96 168.98 386.03 167.95
  C 386.89 155.85 382.43 148.00 374.71 139.17
  C 370.30 134.14 363.96 135.05 361.32 141.45
  A 1.24 1.23 26.0 0 0 361.86 143.00
  Q 365.68 145.16 363.43 148.95
  Q 363.17 149.39 362.69 149.56
  L 361.79 149.86
  Q 361.13 150.09 361.22 150.78
  Q 362.08 157.17 365.38 163.97
  Q 356.07 165.35 346.68 164.58
  Q 346.26 164.55 346.27 164.13
  C 346.42 136.65 367.47 114.97 395.01 114.49
  Q 395.53 114.48 395.54 115.01
  L 395.79 130.75
  Z"
/>
<path fill="#cccccc" d="
  M 447.75 118.79
  L 517.49 118.77
  A 0.76 0.75 0.0 0 1 518.25 119.52
  L 518.25 119.96
  Q 518.25 120.53 517.68 120.53
  L 448.25 120.71
  Q 446.86 119.96 447.75 118.79
  Z"
/>
<path fill="#2f2e41" d="
  M 397.96 154.50
  Q 396.01 155.81 395.00 157.96
  L 390.50 164.71
  L 389.00 167.21
  Q 378.72 186.14 378.54 207.75
  Q 377.88 209.11 378.46 210.50
  Q 379.03 227.05 385.62 242.49
  A 0.21 0.21 0.0 0 0 386.02 242.38
  C 384.83 234.76 388.02 227.09 392.20 218.94
  Q 392.99 217.39 395.79 216.25
  L 398.75 215.96
  Q 403.00 216.54 404.68 220.40
  Q 404.88 220.85 404.55 221.21
  Q 403.04 222.88 404.34 224.80
  Q 404.68 225.31 405.26 225.52
  L 406.20 225.87
  Q 406.79 226.09 406.86 226.72
  L 407.64 234.16
  Q 407.70 234.71 407.35 235.14
  L 400.87 243.16
  A 0.54 0.54 0.0 0 0 401.34 244.04
  Q 403.69 243.83 406.04 244.75
  Q 395.27 245.41 384.50 244.71
  L 378.75 228.12
  Q 378.58 227.62 378.04 227.58
  Q 358.54 226.17 346.93 209.93
  Q 346.60 207.89 345.23 205.98
  Q 344.84 205.43 345.43 205.11
  L 346.50 204.54
  Q 350.07 201.53 346.50 198.46
  L 343.75 196.79
  C 340.93 195.92 342.94 193.76 343.79 192.50
  Q 344.74 191.58 346.32 191.30
  C 359.90 196.78 372.19 200.78 376.14 212.82
  A 0.30 0.30 0.0 0 0 376.73 212.71
  Q 375.77 195.86 381.45 179.95
  Q 381.64 179.43 381.15 179.17
  Q 373.12 174.77 367.71 167.50
  L 365.38 163.97
  Q 362.08 157.17 361.22 150.78
  Q 361.13 150.09 361.79 149.86
  L 362.69 149.56
  Q 363.17 149.39 363.43 148.95
  Q 365.68 145.16 361.86 143.00
  A 1.24 1.23 26.0 0 1 361.32 141.45
  C 363.96 135.05 370.30 134.14 374.71 139.17
  C 382.43 148.00 386.89 155.85 386.03 167.95
  Q 385.96 168.98 386.44 168.06
  Q 390.29 160.76 395.42 154.30
  Q 395.75 153.89 395.46 153.45
  C 390.80 146.50 388.30 136.84 395.79 130.75
  L 398.50 129.54
  Q 403.53 128.43 406.60 132.29
  Q 406.90 132.68 406.60 133.07
  L 403.93 136.51
  Q 403.59 136.95 403.68 137.49
  Q 404.21 140.86 407.67 140.22
  Q 408.50 140.07 408.26 140.88
  Q 405.63 149.67 397.96 154.50
  Z"
/>
<path fill="#ffffff" d="
  M 184.12 267.36
  Q 183.47 265.99 184.75 265.01
  Q 185.25 264.64 184.95 264.10
  Q 184.23 262.79 182.75 262.46
  Q 182.10 261.12 181.76 260.75
  C 168.15 245.76 148.63 235.19 128.04 234.75
  Q 127.52 234.74 127.52 234.23
  Q 127.43 191.46 127.53 148.71
  C 127.56 136.62 136.26 134.57 146.48 135.03
  Q 146.99 135.05 146.93 135.55
  C 146.12 142.10 150.51 143.21 156.05 143.23
  Q 170.33 143.27 184.63 143.25
  C 190.02 143.24 194.01 141.76 193.13 135.57
  Q 193.04 134.97 193.65 134.98
  C 197.99 135.08 203.22 134.73 206.85 136.79
  C 212.36 139.92 213.32 144.57 213.29 151.03
  Q 213.01 225.49 213.15 299.95
  C 213.17 309.38 211.45 314.97 201.69 316.85
  Q 200.40 317.10 200.70 315.82
  Q 201.17 313.80 201.11 311.06
  Q 200.59 288.94 187.83 268.68
  Q 186.35 266.32 184.12 267.36
  Z
  M 180.2533 186.8772
  A 2.37 2.37 0.0 0 0 177.8874 184.5031
  L 162.8674 184.4769
  A 2.37 2.37 0.0 0 0 160.4933 186.8428
  L 160.4867 190.6028
  A 2.37 2.37 0.0 0 0 162.8526 192.9769
  L 177.8726 193.0031
  A 2.37 2.37 0.0 0 0 180.2467 190.6372
  L 180.2533 186.8772
  Z
  M 200.95 204.45
  A 2.69 2.69 0.0 0 0 198.26 201.76
  L 142.44 201.76
  A 2.69 2.69 0.0 0 0 139.75 204.45
  L 139.75 207.81
  A 2.69 2.69 0.0 0 0 142.44 210.50
  L 198.26 210.50
  A 2.69 2.69 0.0 0 0 200.95 207.81
  L 200.95 204.45
  Z
  M 200.97 222.00
  A 2.75 2.75 0.0 0 0 198.22 219.25
  L 142.50 219.25
  A 2.75 2.75 0.0 0 0 139.75 222.00
  L 139.75 225.24
  A 2.75 2.75 0.0 0 0 142.50 227.99
  L 198.22 227.99
  A 2.75 2.75 0.0 0 0 200.97 225.24
  L 200.97 222.00
  Z"
/>
<rect fill="#ffffff" x="160.53" y="135.49" width="12.26" height="2.50" rx="1.18"/>
<circle fill="#ffffff" cx="176.89" cy="136.69" r="1.34"/>
<path fill="#d3a868" d="
  M 213.19 136.84
  L 244.96 136.77
  A 1.79 1.78 -90.0 0 1 246.75 138.57
  L 246.74 143.67
  A 1.70 1.69 0.0 0 1 245.04 145.36
  L 217.25 145.29
  Q 217.12 145.28 216.99 145.25
  Q 216.76 145.19 216.70 144.95
  Q 215.63 140.57 213.19 136.84
  Z"
/>
<path fill="#2f2e41" d="
  M 267.12 174.52
  L 257.54 176.65
  Q 256.95 176.78 257.39 177.19
  L 260.46 180.00
  L 263.46 183.80
  Q 263.82 184.25 264.31 184.54
  Q 271.41 188.81 276.64 195.28
  Q 276.96 195.68 277.39 195.40
  Q 282.45 192.09 287.82 189.56
  C 290.56 188.27 291.83 186.20 293.58 183.94
  Q 293.88 183.55 294.24 183.88
  L 295.25 184.79
  L 299.71 189.50
  C 293.92 200.39 289.65 206.86 277.96 211.25
  L 275.00 211.21
  Q 274.22 210.16 274.47 208.73
  Q 276.72 195.77 266.01 189.33
  Q 265.61 189.09 265.77 189.53
  L 273.79 211.25
  Q 272.26 213.61 269.70 212.07
  Q 269.07 211.70 268.92 212.41
  L 267.84 217.64
  Q 267.73 218.16 268.25 218.31
  L 277.21 220.75
  C 279.38 224.31 289.79 241.48 286.50 244.71
  L 284.25 246.04
  C 282.65 245.06 276.77 227.45 275.67 224.44
  A 0.33 0.33 0.0 0 0 275.04 224.60
  C 275.74 229.32 275.63 236.33 272.22 240.17
  Q 269.48 243.26 269.17 247.56
  Q 269.13 248.09 268.87 248.54
  L 268.02 250.02
  Q 267.73 250.52 268.30 250.41
  C 269.94 250.09 283.47 246.52 283.71 246.75
  L 289.04 309.00
  L 290.04 321.50
  L 291.25 336.54
  L 290.00 337.29
  L 288.00 337.54
  L 281.75 337.79
  L 281.00 337.71
  L 280.00 335.21
  L 277.00 321.21
  L 274.04 307.50
  L 266.67 273.77
  Q 266.48 272.87 266.22 273.75
  L 261.70 289.19
  C 259.86 293.92 258.91 300.16 255.89 304.11
  Q 250.09 311.71 244.21 319.25
  L 242.50 321.46
  L 235.07 331.18
  Q 234.71 331.65 234.20 331.36
  L 233.50 330.96
  L 227.70 326.99
  Q 226.74 324.01 229.04 321.50
  L 229.75 320.04
  Q 236.16 308.64 242.17 297.05
  Q 243.40 294.69 243.62 292.01
  Q 245.21 272.33 246.86 252.63
  Q 246.90 252.13 246.62 251.73
  L 246.25 251.21
  L 246.21 245.00
  Q 247.39 239.30 248.73 233.61
  C 249.89 228.67 248.71 223.42 248.31 218.42
  Q 248.27 217.91 247.81 217.71
  Q 241.51 214.92 235.91 210.94
  C 230.81 207.31 236.49 200.83 237.94 196.84
  C 239.66 192.14 241.41 183.34 246.89 181.85
  Q 247.39 181.71 247.77 181.35
  L 251.13 178.09
  Q 251.55 177.68 250.98 177.80
  L 245.31 178.97
  Q 244.57 179.13 244.78 178.40
  Q 245.13 177.25 244.74 176.08
  Q 244.51 175.40 244.23 176.06
  Q 243.20 178.49 241.04 180.12
  Q 240.80 179.87 240.63 179.70
  Q 240.26 179.36 240.16 178.87
  L 238.50 171.41
  Q 238.79 166.66 240.60 162.83
  L 243.50 154.42
  C 247.71 148.45 251.12 150.56 256.77 148.52
  Q 266.92 144.86 272.51 154.04
  C 273.29 155.31 273.82 157.04 271.83 157.43
  Q 271.25 157.55 271.39 158.12
  C 272.75 163.52 278.03 165.79 274.87 172.19
  Q 274.66 172.63 274.25 172.88
  Q 273.14 173.57 272.42 173.07
  Q 271.89 172.70 272.16 172.11
  Q 272.46 171.48 272.19 171.03
  Q 271.73 170.25 271.56 171.14
  Q 270.94 174.47 267.12 174.52
  Z
  M 266.27 158.60
  L 266.24 156.92
  Q 266.23 156.47 265.80 156.59
  C 265.65 156.63 264.96 158.64 264.70 158.98
  C 263.76 160.21 258.36 160.59 256.79 160.79
  A 0.82 0.82 0.0 0 0 256.19 162.04
  L 262.91 172.82
  Q 263.21 173.30 263.73 173.09
  Q 273.52 169.21 270.45 158.77
  Q 270.24 158.07 269.54 158.29
  L 266.99 159.11
  Q 266.29 159.34 266.27 158.60
  Z"
/>
<path fill="#d3a868" d="
  M 447.54 153.75
  L 476.31 153.74
  Q 476.92 153.74 477.24 154.26
  Q 479.30 157.53 477.34 161.04
  Q 477.10 161.48 476.59 161.48
  L 447.75 161.46
  L 447.54 153.75
  Z"
/>
<path fill="#a98653" d="
  M 397.96 154.50
  L 398.16 164.14
  Q 398.17 164.73 398.76 164.73
  L 440.96 165.00
  Q 441.51 165.86 441.01 167.11
  Q 409.59 167.69 399.54 196.80
  Q 398.26 200.52 398.29 206.99
  Q 398.29 207.49 398.80 207.49
  L 440.96 207.50
  L 440.96 210.00
  L 398.77 210.05
  Q 398.28 210.05 398.22 210.54
  Q 397.87 213.34 398.75 215.96
  L 395.79 216.25
  L 395.49 210.49
  Q 395.46 209.97 394.94 209.97
  L 378.63 210.08
  Q 378.52 210.08 378.51 210.18
  Q 378.48 210.38 378.46 210.50
  Q 377.88 209.11 378.54 207.75
  L 394.97 207.53
  Q 395.50 207.52 395.50 207.00
  L 395.50 168.11
  Q 395.50 167.56 394.95 167.53
  L 389.00 167.21
  L 390.50 164.71
  L 394.75 164.76
  Q 395.26 164.77 395.36 164.26
  Q 395.97 161.07 395.00 157.96
  Q 396.01 155.81 397.96 154.50
  Z"
/>
<path fill="#ffb6b6" d="
  M 266.99 159.11
  L 269.54 158.29
  Q 270.24 158.07 270.45 158.77
  Q 273.52 169.21 263.73 173.09
  Q 263.21 173.30 262.91 172.82
  L 256.19 162.04
  A 0.82 0.82 0.0 0 1 256.79 160.79
  C 258.36 160.59 263.76 160.21 264.70 158.98
  C 264.96 158.64 265.65 156.63 265.80 156.59
  Q 266.23 156.47 266.24 156.92
  L 266.27 158.60
  Q 266.29 159.34 266.99 159.11
  Z"
/>
<path fill="#d3a868" d="
  M 395.00 157.96
  Q 395.97 161.07 395.36 164.26
  Q 395.26 164.77 394.75 164.76
  L 390.50 164.71
  L 395.00 157.96
  Z"
/>
<path fill="#ffffff" d="
  M 240.60 162.83
  Q 238.79 166.66 238.50 171.41
  L 217.28 171.54
  Q 216.75 171.54 216.75 171.01
  L 216.75 163.27
  Q 216.75 162.77 217.25 162.77
  L 240.60 162.83
  Z"
/>
<path fill="#d3a868" d="
  M 441.01 167.11
  L 440.96 207.50
  L 398.80 207.49
  Q 398.29 207.49 398.29 206.99
  Q 398.26 200.52 399.54 196.80
  Q 409.59 167.69 441.01 167.11
  Z"
/>
<path fill="#d3a868" d="
  M 302.04 167.25
  L 343.07 167.52
  Q 343.59 167.53 343.59 168.04
  Q 343.72 178.74 343.47 189.50
  Q 343.43 191.02 343.79 192.50
  C 342.94 193.76 340.93 195.92 343.75 196.79
  L 343.43 207.00
  A 0.60 0.59 -89.0 0 1 342.84 207.58
  L 312.71 207.75
  Q 307.61 196.92 304.75 185.29
  C 308.89 181.87 306.70 178.25 302.96 176.00
  L 302.04 167.25
  Z"
/>
<path fill="#d3a868" d="
  M 367.71 167.50
  Q 373.12 174.77 381.15 179.17
  Q 381.64 179.43 381.45 179.95
  Q 375.77 195.86 376.73 212.71
  A 0.30 0.30 0.0 0 1 376.14 212.82
  C 372.19 200.78 359.90 196.78 346.32 191.30
  L 346.28 167.85
  Q 346.28 167.36 346.77 167.36
  L 367.71 167.50
  Z"
/>
<path fill="#d3a868" d="
  M 389.00 167.21
  L 394.95 167.53
  Q 395.50 167.56 395.50 168.11
  L 395.50 207.00
  Q 395.50 207.52 394.97 207.53
  L 378.54 207.75
  Q 378.72 186.14 389.00 167.21
  Z"
/>
<path fill="#e6e6e6" d="
  M 267.12 174.52
  Q 268.30 177.63 266.43 179.84
  Q 266.06 180.27 265.50 180.24
  L 260.46 180.00
  L 257.39 177.19
  Q 256.95 176.78 257.54 176.65
  L 267.12 174.52
  Z"
/>
<path fill="#ffffff" d="
  M 246.21 245.00
  L 217.31 244.85
  Q 216.79 244.85 216.79 244.33
  Q 216.66 221.24 216.78 198.25
  C 216.79 196.68 217.81 195.67 217.78 194.13
  Q 217.64 187.48 217.80 180.83
  Q 217.81 180.26 218.37 180.26
  L 241.04 180.12
  Q 243.20 178.49 244.23 176.06
  Q 244.51 175.40 244.74 176.08
  Q 245.13 177.25 244.78 178.40
  Q 244.57 179.13 245.31 178.97
  L 250.98 177.80
  Q 251.55 177.68 251.13 178.09
  L 247.77 181.35
  Q 247.39 181.71 246.89 181.85
  C 241.41 183.34 239.66 192.14 237.94 196.84
  C 236.49 200.83 230.81 207.31 235.91 210.94
  Q 241.51 214.92 247.81 217.71
  Q 248.27 217.91 248.31 218.42
  C 248.71 223.42 249.89 228.67 248.73 233.61
  Q 247.39 239.30 246.21 245.00
  Z"
/>
<path fill="#ffb6b6" d="
  M 302.96 176.00
  C 306.70 178.25 308.89 181.87 304.75 185.29
  Q 301.90 187.00 299.71 189.50
  L 295.25 184.79
  C 299.61 182.66 295.62 177.11 302.96 176.00
  Z"
/>
<rect fill="#d3a868" x="-9.88" y="-4.25" transform="translate(170.37,188.74) rotate(0.1)" width="19.76" height="8.50" rx="2.37"/>
<path fill="#ffffff" d="
  M 304.75 185.29
  Q 307.61 196.92 312.71 207.75
  L 313.79 210.00
  Q 323.21 229.18 338.84 244.46
  Q 315.74 245.02 292.75 244.79
  Q 290.10 244.76 287.48 245.12
  Q 287.14 245.16 286.85 244.96
  L 286.50 244.71
  C 289.79 241.48 279.38 224.31 277.21 220.75
  Q 280.56 219.05 280.55 215.62
  C 280.55 213.37 279.21 212.80 277.96 211.25
  C 289.65 206.86 293.92 200.39 299.71 189.50
  Q 301.90 187.00 304.75 185.29
  Z"
/>
<path fill="#d3a868" d="
  M 275.00 211.21
  L 273.79 211.25
  L 265.77 189.53
  Q 265.61 189.09 266.01 189.33
  Q 276.72 195.77 274.47 208.73
  Q 274.22 210.16 275.00 211.21
  Z"
/>
<path fill="#a98653" d="
  M 343.75 196.79
  L 346.50 198.46
  Q 346.36 198.51 346.22 198.57
  Q 346.03 198.65 346.04 198.86
  L 346.50 204.54
  L 345.43 205.11
  Q 344.84 205.43 345.23 205.98
  Q 346.60 207.89 346.93 209.93
  Q 345.75 226.43 346.39 242.97
  Q 346.41 243.65 345.74 243.79
  L 344.80 243.99
  A 1.07 1.07 0.0 0 1 343.50 242.94
  L 343.50 210.75
  Q 343.50 210.17 342.92 210.17
  L 313.79 210.00
  L 312.71 207.75
  L 342.84 207.58
  A 0.60 0.59 -89.0 0 0 343.43 207.00
  L 343.75 196.79
  Z"
/>
<path fill="#d3a868" d="
  M 346.50 198.46
  Q 350.07 201.53 346.50 204.54
  L 346.04 198.86
  Q 346.03 198.65 346.22 198.57
  Q 346.36 198.51 346.50 198.46
  Z"
/>
<rect fill="#e6e6e6" x="139.75" y="201.76" width="61.20" height="8.74" rx="2.69"/>
<path fill="#d3a868" d="
  M 313.79 210.00
  L 342.92 210.17
  Q 343.50 210.17 343.50 210.75
  L 343.50 242.94
  A 1.07 1.07 0.0 0 0 344.80 243.99
  L 345.74 243.79
  Q 346.41 243.65 346.39 242.97
  Q 345.75 226.43 346.93 209.93
  Q 358.54 226.17 378.04 227.58
  Q 378.58 227.62 378.75 228.12
  L 384.50 244.71
  C 371.68 244.76 358.75 244.42 345.95 245.01
  Q 342.33 245.18 338.84 244.46
  Q 323.21 229.18 313.79 210.00
  Z"
/>
<path fill="#d3a868" d="
  M 395.79 216.25
  Q 392.99 217.39 392.20 218.94
  C 388.02 227.09 384.83 234.76 386.02 242.38
  A 0.21 0.21 0.0 0 1 385.62 242.49
  Q 379.03 227.05 378.46 210.50
  Q 378.48 210.38 378.51 210.18
  Q 378.52 210.08 378.63 210.08
  L 394.94 209.97
  Q 395.46 209.97 395.49 210.49
  L 395.79 216.25
  Z"
/>
<path fill="#d3a868" d="
  M 440.96 210.00
  Q 441.06 224.63 441.03 239.25
  C 441.02 243.34 438.65 244.75 434.74 244.75
  Q 420.38 244.75 406.04 244.75
  Q 403.69 243.83 401.34 244.04
  A 0.54 0.54 0.0 0 1 400.87 243.16
  L 407.35 235.14
  Q 407.70 234.71 407.64 234.16
  L 406.86 226.72
  Q 406.79 226.09 406.20 225.87
  L 405.26 225.52
  Q 404.68 225.31 404.34 224.80
  Q 403.04 222.88 404.55 221.21
  Q 404.88 220.85 404.68 220.40
  Q 403.00 216.54 398.75 215.96
  Q 397.87 213.34 398.22 210.54
  Q 398.28 210.05 398.77 210.05
  L 440.96 210.00
  Z"
/>
<path fill="#ffb6b6" d="
  M 273.79 211.25
  L 275.00 211.21
  L 277.96 211.25
  C 279.21 212.80 280.55 213.37 280.55 215.62
  Q 280.56 219.05 277.21 220.75
  L 268.25 218.31
  Q 267.73 218.16 267.84 217.64
  L 268.92 212.41
  Q 269.07 211.70 269.70 212.07
  Q 272.26 213.61 273.79 211.25
  Z"
/>
<rect fill="#e6e6e6" x="139.75" y="219.25" width="61.22" height="8.74" rx="2.75"/>
<path fill="#d3a868" d="
  M 284.25 246.04
  L 283.71 246.75
  C 283.47 246.52 269.94 250.09 268.30 250.41
  Q 267.73 250.52 268.02 250.02
  L 268.87 248.54
  Q 269.13 248.09 269.17 247.56
  Q 269.48 243.26 272.22 240.17
  C 275.63 236.33 275.74 229.32 275.04 224.60
  A 0.33 0.33 0.0 0 1 275.67 224.44
  C 276.77 227.45 282.65 245.06 284.25 246.04
  Z"
/>
<path fill="#cccccc" d="
  M 467.71 262.00
  Q 458.85 284.76 468.05 307.31
  Q 468.26 307.83 468.30 307.26
  C 468.54 302.70 470.98 290.28 476.75 289.46
  Q 479.97 289.55 481.57 292.18
  Q 481.78 292.52 481.66 292.90
  L 480.99 294.92
  Q 480.74 295.65 481.48 295.88
  C 484.00 296.67 483.75 300.37 483.77 302.45
  Q 483.77 302.96 483.47 303.36
  L 479.18 309.20
  Q 473.64 310.23 467.89 309.60
  Q 467.27 309.53 467.07 308.94
  L 463.50 298.43
  A 1.29 1.28 83.0 0 0 462.39 297.56
  Q 447.04 296.23 440.00 282.73
  Q 439.74 282.22 440.20 281.89
  L 441.28 281.12
  Q 441.73 280.80 441.86 280.26
  C 442.55 277.41 439.80 276.73 438.14 275.58
  Q 437.68 275.26 437.84 274.72
  C 438.55 272.42 440.29 271.80 442.49 272.80
  C 449.71 276.11 457.82 278.49 461.23 286.16
  Q 461.77 287.39 461.76 286.05
  Q 461.67 274.88 465.29 264.35
  Q 465.47 263.81 464.98 263.53
  Q 454.67 257.73 451.56 245.73
  Q 450.86 243.03 453.04 241.91
  Q 453.68 241.58 453.36 240.93
  L 451.24 236.58
  C 453.90 232.10 457.54 232.39 460.93 235.85
  Q 468.33 243.40 468.88 255.26
  A 0.08 0.08 0.0 0 0 469.03 255.30
  L 475.11 245.91
  A 0.70 0.69 -45.9 0 0 475.10 245.14
  Q 471.57 240.05 472.51 233.78
  C 473.09 229.95 479.80 226.30 482.63 230.17
  Q 483.39 231.20 482.41 232.03
  Q 480.64 233.54 481.45 235.40
  Q 481.67 235.91 482.21 236.05
  L 483.63 236.42
  Q 484.34 236.61 484.09 237.30
  C 482.00 243.06 478.15 244.55 475.00 248.73
  Q 470.40 254.82 467.71 262.00
  Z"
/>
<path fill="#ffffff" d="
  M 246.25 251.21
  L 246.62 251.73
  Q 246.90 252.13 246.86 252.63
  Q 245.21 272.33 243.62 292.01
  Q 243.40 294.69 242.17 297.05
  Q 236.16 308.64 229.75 320.04
  Q 224.08 319.23 218.46 320.25
  L 207.67 319.89
  Q 213.37 316.13 215.51 310.29
  Q 216.73 306.97 216.74 298.53
  Q 216.76 275.17 216.74 251.99
  A 0.62 0.62 0.0 0 1 217.38 251.37
  Q 232.10 251.80 246.25 251.21
  Z"
/>
<path fill="#ffffff" d="
  M 305.65 251.55
  A 0.20 0.20 0.0 0 1 305.85 251.75
  L 305.80 256.32
  A 8.15 7.67 -89.4 0 1 298.04 264.39
  L 297.94 264.39
  A 8.15 7.67 -89.4 0 1 290.36 256.16
  L 290.41 251.59
  A 0.20 0.20 0.0 0 1 290.61 251.39
  L 305.65 251.55
  Z"
/>
<path fill="#ffffff" d="
  M 391.50 319.96
  L 334.50 320.21
  L 334.00 309.21
  L 333.99 252.02
  Q 333.99 251.50 334.51 251.50
  L 381.50 251.50
  Q 382.05 251.50 382.05 252.05
  Q 381.89 276.36 382.13 300.62
  C 382.21 309.07 383.99 314.68 391.36 318.50
  Q 391.92 318.79 391.48 319.25
  Q 391.12 319.64 391.50 319.96
  Z"
/>
<path fill="#e6e6e6" d="
  M 467.71 262.00
  Q 468.85 262.94 469.31 263.94
  Q 474.99 276.14 476.75 289.46
  C 470.98 290.28 468.54 302.70 468.30 307.26
  Q 468.26 307.83 468.05 307.31
  Q 458.85 284.76 467.71 262.00
  Z"
/>
<path fill="#cccccc" d="
  M 182.75 262.46
  Q 184.23 262.79 184.95 264.10
  Q 185.25 264.64 184.75 265.01
  Q 183.47 265.99 184.12 267.36
  Q 184.93 267.45 185.44 267.90
  Q 185.84 268.27 185.60 268.75
  C 184.92 270.08 184.29 271.36 183.12 272.41
  C 171.83 282.61 169.39 300.49 174.58 314.12
  Q 174.91 314.98 175.08 314.08
  C 175.59 311.30 178.44 298.29 183.90 304.90
  Q 184.22 305.29 183.97 305.73
  L 183.61 306.35
  Q 183.32 306.84 183.77 307.19
  C 187.92 310.50 183.94 313.50 182.24 316.38
  Q 181.97 316.83 181.45 316.81
  L 174.85 316.50
  Q 174.25 316.47 174.07 315.90
  L 171.91 309.15
  Q 171.75 308.65 171.23 308.60
  Q 161.41 307.67 156.49 299.14
  Q 156.22 298.67 156.54 298.23
  L 157.71 296.60
  Q 158.13 296.02 157.54 295.61
  L 155.36 294.06
  A 0.93 0.92 -57.7 0 1 155.09 292.85
  Q 155.92 291.36 157.58 292.05
  C 162.76 294.18 167.69 295.70 170.39 300.95
  A 0.32 0.32 0.0 0 0 171.00 300.80
  C 170.82 295.46 171.75 291.71 173.02 286.63
  Q 173.17 286.03 172.64 285.71
  Q 165.55 281.39 163.77 273.33
  Q 163.67 272.86 163.98 272.49
  L 165.17 271.04
  Q 165.62 270.49 165.12 270.00
  L 164.06 268.94
  Q 163.66 268.53 163.90 268.01
  C 165.07 265.47 167.61 264.88 169.71 266.93
  Q 175.04 272.13 175.57 279.80
  Q 175.60 280.25 175.85 279.87
  L 179.53 274.43
  Q 179.80 274.02 179.57 273.59
  C 177.20 269.27 176.26 263.21 182.75 262.46
  Z"
/>
<path fill="#e6e6e6" d="
  M 274.04 307.50
  L 274.00 308.98
  Q 273.99 309.45 273.52 309.44
  L 261.79 309.25
  L 261.70 289.19
  L 266.22 273.75
  Q 266.48 272.87 266.67 273.77
  L 274.04 307.50
  Z"
/>
<path fill="#ffffff" d="
  M 261.70 289.19
  L 261.79 309.25
  L 261.75 320.21
  L 251.75 320.46
  Q 248.50 319.25 245.08 320.01
  Q 244.58 320.12 244.32 319.69
  Q 244.21 319.51 244.21 319.25
  Q 250.09 311.71 255.89 304.11
  C 258.91 300.16 259.86 293.92 261.70 289.19
  Z"
/>
<path fill="#cccccc" d="
  M 274.04 307.50
  L 277.00 321.21
  Q 274.02 320.90 271.21 321.75
  Q 266.58 320.45 261.75 320.21
  L 261.79 309.25
  L 273.52 309.44
  Q 273.99 309.45 274.00 308.98
  L 274.04 307.50
  Z"
/>
<path fill="#ffffff" d="
  M 538.25 307.96
  C 539.86 310.96 542.42 311.63 544.46 314.00
  Q 546.92 316.85 550.15 318.96
  Q 550.71 319.32 550.06 319.44
  Q 546.99 320.04 544.50 319.93
  Q 535.14 319.52 528.25 319.71
  L 528.68 318.96
  Q 528.94 318.53 529.39 318.31
  Q 535.73 315.25 537.42 308.32
  Q 537.50 307.99 537.72 308.24
  L 537.91 308.46
  Q 537.92 308.47 537.93 308.42
  Q 537.98 308.08 538.25 307.96
  Z"
/>
<path fill="#cccccc" d="
  M 289.04 309.00
  L 334.00 309.21
  L 334.50 320.21
  L 314.56 321.29
  L 290.04 321.50
  L 289.04 309.00
  Z"
/>
<path fill="#cccccc" d="
  M 244.21 319.25
  Q 244.21 319.51 244.32 319.69
  Q 244.58 320.12 245.08 320.01
  Q 248.50 319.25 251.75 320.46
  Q 248.91 320.74 246.54 322.25
  Q 244.84 320.74 242.50 321.46
  L 244.21 319.25
  Z"
/>
<path fill="#cccccc" d="
  M 229.75 320.04
  L 229.04 321.50
  L 224.51 321.34
  Q 223.97 321.32 223.78 321.83
  Q 223.38 322.85 223.46 324.00
  Q 222.54 320.31 218.46 320.25
  Q 224.08 319.23 229.75 320.04
  Z"
/>
<path fill="#ffffff" d="
  M 229.04 321.50
  Q 226.74 324.01 227.70 326.99
  L 223.37 334.33
  A 0.33 0.33 0.0 0 1 222.76 334.17
  L 222.71 332.75
  L 223.71 329.25
  L 223.76 330.69
  Q 223.77 331.08 223.94 330.73
  Q 225.40 327.49 223.75 324.29
  L 223.46 324.00
  Q 223.38 322.85 223.78 321.83
  Q 223.97 321.32 224.51 321.34
  L 229.04 321.50
  Z"
/>
<path fill="#ffffff" d="
  M 246.54 322.25
  C 245.49 323.56 244.82 324.54 244.55 326.33
  Q 243.33 334.19 235.75 337.29
  Q 231.83 338.47 230.89 342.37
  Q 230.77 342.85 230.39 343.16
  Q 228.24 344.94 228.79 347.75
  L 228.46 348.50
  Q 224.94 345.25 226.90 340.73
  Q 229.30 335.33 233.50 330.96
  L 234.20 331.36
  Q 234.71 331.65 235.07 331.18
  L 242.50 321.46
  Q 244.84 320.74 246.54 322.25
  Z"
/>
<path fill="#ffffff" d="
  M 277.00 321.21
  L 280.00 335.21
  L 279.25 335.54
  Q 277.60 334.88 277.46 333.00
  Q 278.24 330.05 275.75 329.04
  C 274.27 325.88 273.89 324.20 271.21 321.75
  Q 274.02 320.90 277.00 321.21
  Z"
/>
<path fill="#ffffff" d="
  M 314.56 321.29
  Q 315.28 327.47 319.79 331.75
  Q 319.62 332.80 320.47 333.09
  Q 320.90 333.24 320.65 333.62
  Q 320.41 333.98 320.00 334.21
  C 314.83 334.72 308.56 344.85 306.40 349.41
  Q 306.18 349.88 305.66 349.94
  Q 302.96 350.23 301.46 347.75
  L 300.40 343.00
  Q 300.34 342.75 300.08 342.75
  Q 299.94 342.75 299.79 342.75
  Q 298.39 338.18 295.22 334.61
  Q 294.89 334.23 294.46 334.50
  L 291.25 336.54
  L 290.04 321.50
  L 314.56 321.29
  Z"
/>
<path fill="#cccccc" d="
  M 223.75 324.29
  Q 225.40 327.49 223.94 330.73
  Q 223.77 331.08 223.76 330.69
  L 223.71 329.25
  L 223.75 324.29
  Z"
/>
<path fill="#ffb6b6" d="
  M 227.70 326.99
  L 233.50 330.96
  Q 229.30 335.33 226.90 340.73
  L 222.15 338.21
  Q 221.76 338.01 221.75 337.58
  Q 221.75 337.39 221.71 337.25
  L 222.71 332.75
  L 222.76 334.17
  A 0.33 0.33 0.0 0 0 223.37 334.33
  L 227.70 326.99
  Z"
/>
<path fill="#cccccc" d="
  M 275.75 329.04
  Q 278.24 330.05 277.46 333.00
  L 275.75 329.04
  Z"
/>
<path fill="#cccccc" d="
  M 319.79 331.75
  L 322.08 332.84
  Q 322.62 333.10 322.16 333.49
  Q 321.25 334.25 320.00 334.21
  Q 320.41 333.98 320.65 333.62
  Q 320.90 333.24 320.47 333.09
  Q 319.62 332.80 319.79 331.75
  Z"
/>
<path fill="#cccccc" d="
  M 280.00 335.21
  L 281.00 337.71
  L 280.29 338.00
  Q 280.36 336.51 279.25 335.54
  L 280.00 335.21
  Z"
/>
<path fill="#2f2e41" d="
  M 221.71 337.25
  Q 221.75 337.39 221.75 337.58
  Q 221.76 338.01 222.15 338.21
  L 226.90 340.73
  Q 224.94 345.25 228.46 348.50
  Q 230.05 351.70 229.58 353.54
  A 2.21 2.21 0.0 0 1 226.39 354.94
  C 224.86 354.12 218.63 351.16 218.29 349.75
  C 219.25 348.86 218.19 346.63 216.91 348.22
  Q 216.61 348.58 217.02 348.82
  L 217.25 348.96
  Q 215.18 349.33 213.82 347.82
  Q 213.48 347.44 213.76 347.00
  L 219.62 338.14
  Q 219.92 337.68 220.46 337.55
  L 221.71 337.25
  Z"
/>
<path fill="#cccccc" d="
  M 235.75 337.29
  Q 230.89 341.61 228.79 347.75
  Q 228.24 344.94 230.39 343.16
  Q 230.77 342.85 230.89 342.37
  Q 231.83 338.47 235.75 337.29
  Z"
/>
<path fill="#e6e6e6" d="
  M 290.00 337.29
  L 288.46 342.50
  L 288.09 342.26
  Q 287.71 342.01 287.74 341.56
  L 288.00 337.54
  L 290.00 337.29
  Z"
/>
<path fill="#ffb6b6" d="
  M 288.00 337.54
  L 287.74 341.56
  Q 287.71 342.01 288.09 342.26
  L 288.46 342.50
  Q 288.46 342.62 288.46 342.75
  Q 285.21 343.49 281.96 343.00
  L 281.75 337.79
  L 288.00 337.54
  Z"
/>
<path fill="#ffffff" d="
  M 281.00 337.71
  L 281.75 337.79
  L 281.96 343.00
  L 280.79 343.00
  L 280.29 338.00
  L 281.00 337.71
  Z"
/>
<path fill="#2f2e41" d="
  M 288.46 342.75
  L 289.13 346.20
  Q 289.24 346.77 289.71 347.10
  L 297.11 352.29
  Q 297.47 352.54 297.62 352.94
  C 298.26 354.55 297.68 355.56 295.91 355.47
  C 293.84 355.37 285.37 355.76 284.85 353.72
  Q 284.70 352.09 283.32 353.62
  Q 283.22 353.74 283.29 353.87
  Q 283.36 353.99 283.50 354.04
  Q 282.39 355.68 280.67 354.96
  Q 280.18 354.76 280.21 354.23
  L 280.79 343.00
  L 281.96 343.00
  Q 285.21 343.49 288.46 342.75
  Z"
/>
<path fill="#cccccc" d="
  M 299.79 342.75
  Q 299.94 342.75 300.08 342.75
  Q 300.34 342.75 300.40 343.00
  L 301.46 347.75
  L 299.79 342.75
  Z"
/>
<path fill="#cccccc" d="
  M 218.29 349.75
  L 217.25 348.96
  L 217.02 348.82
  Q 216.61 348.58 216.91 348.22
  C 218.19 346.63 219.25 348.86 218.29 349.75
  Z"
/>
<path fill="#cccccc" d="
  M 284.85 353.72
  L 283.50 354.04
  Q 283.36 353.99 283.29 353.87
  Q 283.22 353.74 283.32 353.62
  Q 284.70 352.09 284.85 353.72
  Z"
/>
</svg>
