<?xml version="1.0" encoding="UTF-8" standalone="no"?>
<!DOCTYPE svg PUBLIC "-//W3C//DTD SVG 1.1//EN" "http://www.w3.org/Graphics/SVG/1.1/DTD/svg11.dtd">
<svg xmlns="http://www.w3.org/2000/svg" version="1.1" viewBox="0.00 0.00 611.00 408.00">
<g stroke-width="2.00" fill="none" stroke-linecap="butt">
<path stroke="#9f7b87" vector-effect="non-scaling-stroke" d="
  M 414.46 211.50
  Q 413.87 215.88 414.54 220.25"
/>
<path stroke="#868591" vector-effect="non-scaling-stroke" d="
  M 413.96 253.00
  L 63.40 253.06
  Q 63.06 253.06 62.80 253.28
  L 62.54 253.50"
/>
<path stroke="#e6e6e6" vector-effect="non-scaling-stroke" d="
  M 273.13 284.79
  L 203.99 284.76
  Q 203.52 284.76 203.15 285.04
  L 202.54 285.50"
/>
<path stroke="#c8c7ce" vector-effect="non-scaling-stroke" d="
  M 280.50 319.46
  Q 280.31 320.96 282.00 321.29"
/>
<path stroke="#e6e6e6" vector-effect="non-scaling-stroke" d="
  M 282.00 321.29
  Q 281.32 322.72 279.30 322.65
  Q 265.38 322.14 247.15 322.51
  C 245.92 322.54 244.18 322.05 242.55 322.61
  C 237.22 324.43 233.90 322.67 228.94 322.58
  Q 212.60 322.30 196.25 322.50
  C 194.27 322.53 192.40 323.81 190.23 322.79"
/>
<path stroke="#c8c7ce" vector-effect="non-scaling-stroke" d="
  M 190.79 322.00
  Q 192.67 321.97 193.50 320.29"
/>
<path stroke="#37364c" vector-effect="non-scaling-stroke" d="
  M 445.46 246.75
  L 445.09 246.90
  Q 444.60 247.11 444.47 247.63
  Q 442.18 256.84 439.99 266.09
  C 439.88 266.54 440.10 267.02 439.25 267.04"
/>
<path stroke="#9f7b87" vector-effect="non-scaling-stroke" d="
  M 418.75 222.29
  L 419.10 222.09
  Q 419.36 221.93 419.41 221.63
  L 420.50 214.79"
/>
<path stroke="#aeaeb4" vector-effect="non-scaling-stroke" d="
  M 285.00 321.71
  L 282.00 321.29"
/>
<path stroke="#e9b090" vector-effect="non-scaling-stroke" d="
  M 469.50 242.21
  Q 466.06 244.70 467.21 249.00"
/>
<path stroke="#816b55" vector-effect="non-scaling-stroke" d="
  M 467.21 249.00
  C 461.42 251.10 447.63 255.97 445.46 246.75"
/>
<path stroke="#89735f" vector-effect="non-scaling-stroke" d="
  M 445.46 246.75
  Q 445.09 244.41 445.58 242.06
  Q 448.00 230.46 450.74 218.88
  Q 450.85 218.38 450.59 217.94
  C 446.71 211.58 452.27 207.07 455.20 202.05
  Q 455.44 201.63 455.82 201.31
  L 458.99 198.63"
/>
<path stroke="#605f6f" vector-effect="non-scaling-stroke" d="
  M 505.25 347.46
  Q 502.51 346.73 499.94 347.80"
/>
<path stroke="#97737d" vector-effect="non-scaling-stroke" d="
  M 435.04 352.00
  Q 431.54 350.71 428.58 352.19"
/>
<path stroke="#97737d" vector-effect="non-scaling-stroke" d="
  M 471.00 252.04
  Q 468.53 251.24 467.21 249.00"
/>
<path stroke="#37364c" vector-effect="non-scaling-stroke" d="
  M 483.58 262.88
  Q 479.55 264.29 475.36 263.88
  Q 474.80 263.82 474.62 263.28
  L 471.00 252.04"
/>
<path stroke="#9f7b87" vector-effect="non-scaling-stroke" d="
  M 471.00 252.04
  Q 477.29 252.15 477.52 246.10
  Q 477.54 245.56 477.99 245.26
  L 481.16 243.14
  Q 481.76 242.74 481.18 242.31
  L 476.05 238.51
  A 0.83 0.83 0.0 0 0 475.11 238.48
  L 469.50 242.21"
/>
<path stroke="#89735f" vector-effect="non-scaling-stroke" d="
  M 469.50 242.21
  Q 464.85 219.02 465.34 195.39
  Q 465.34 195.29 465.25 195.27
  Q 465.12 195.24 465.00 195.21"
/>
<path stroke="#c8a4aa" vector-effect="non-scaling-stroke" d="
  M 502.96 348.98
  Q 501.97 350.82 503.25 352.29"
/>
<path stroke="#605f6f" vector-effect="non-scaling-stroke" d="
  M 503.25 352.29
  L 502.21 352.50"
/>
<path stroke="#97737d" vector-effect="non-scaling-stroke" d="
  M 435.54 355.75
  L 435.31 356.07
  Q 435.22 356.21 435.05 356.21
  L 428.37 356.34
  Q 428.28 356.34 428.25 356.26
  Q 428.22 356.14 428.21 356.00"
/>
<path stroke="#37364c" vector-effect="non-scaling-stroke" d="
  M 480.21 190.50
  L 476.79 191.05"
/>
<path stroke="#97737d" vector-effect="non-scaling-stroke" d="
  M 462.25 189.04
  C 468.64 187.19 473.17 185.83 474.01 178.31
  Q 474.08 177.73 473.50 177.66
  L 470.06 177.25
  Q 469.42 177.17 469.29 176.55
  L 468.66 173.62
  Q 468.27 171.82 467.90 173.62
  Q 467.69 174.64 467.69 175.67
  Q 467.69 176.28 467.20 176.66
  Q 466.47 177.24 465.76 176.76
  Q 465.05 176.28 465.01 176.00
  L 464.96 175.61
  Q 464.87 174.97 464.45 175.46
  C 463.20 176.92 453.30 175.18 450.71 175.25"
/>
<path stroke="#97737d" vector-effect="non-scaling-stroke" d="
  M 508.50 350.04
  Q 508.50 350.17 508.50 350.30
  Q 508.50 350.55 508.26 350.63
  L 503.25 352.29"
/>
<path stroke="#605f6f" vector-effect="non-scaling-stroke" d="
  M 440.00 366.04
  Q 440.12 366.30 440.25 366.39"
/>
<path stroke="#97737d" vector-effect="non-scaling-stroke" d="
  M 459.75 188.71
  L 459.38 188.21
  Q 459.09 187.82 458.63 187.67
  C 454.09 186.19 451.44 182.63 451.64 177.76
  Q 451.68 176.83 451.04 176.00"
/>
<path stroke="#9f9eab" vector-effect="non-scaling-stroke" d="
  M 399.49 62.58
  A 6.57 6.57 0.0 0 0 392.92 56.01
  L 83.60 56.01
  A 6.57 6.57 0.0 0 0 77.03 62.58
  L 77.03 231.68
  A 6.57 6.57 0.0 0 0 83.60 238.25
  L 392.92 238.25
  A 6.57 6.57 0.0 0 0 399.49 231.68
  L 399.49 62.58"
/>
<path stroke="#e9d4b4" vector-effect="non-scaling-stroke" d="
  M 351.93 104.26
  L 352.17 89.09
  Q 352.18 88.41 351.50 88.49
  Q 345.51 89.21 340.86 93.02
  A 0.43 0.43 0.0 0 0 340.83 93.66
  L 351.31 104.50
  A 0.36 0.36 0.0 0 0 351.93 104.26"
/>
<path stroke="#9f9eab" vector-effect="non-scaling-stroke" d="
  M 353.79 89.25
  L 353.29 123.76
  Q 353.28 124.25 353.77 124.22
  C 375.72 122.69 376.39 91.77 354.44 88.69
  A 0.57 0.57 0.0 0 0 353.79 89.25"
/>
<path stroke="#9f9eab" vector-effect="non-scaling-stroke" d="
  M 174.51 130.42
  C 174.73 126.54 169.20 126.02 169.24 130.43
  Q 169.24 130.96 168.82 131.27
  L 150.58 144.86
  Q 150.15 145.18 149.67 144.97
  Q 146.90 143.75 145.70 146.65
  A 2.17 2.16 21.4 0 0 146.96 149.52
  C 149.33 150.38 150.95 149.08 150.74 146.66
  Q 150.69 146.09 151.15 145.75
  L 169.39 132.05
  Q 169.76 131.77 170.16 132.02
  Q 171.82 133.03 173.43 131.99
  Q 173.91 131.68 174.36 132.03
  Q 183.36 138.84 192.46 145.54
  Q 193.23 146.11 192.91 146.94
  Q 192.75 147.36 192.89 147.78
  C 194.04 151.30 199.10 149.77 197.74 146.19
  Q 197.54 145.65 197.93 145.22
  L 217.21 124.20
  Q 217.59 123.79 218.14 123.89
  Q 221.29 124.46 221.66 121.46
  Q 221.73 120.93 222.23 120.72
  C 224.56 119.79 240.19 112.88 241.31 113.86
  Q 241.69 114.20 242.19 114.26
  C 247.27 114.83 245.25 106.48 240.83 109.80
  Q 240.40 110.12 240.27 110.65
  L 239.94 112.08
  Q 239.83 112.54 239.39 112.72
  L 221.84 119.79
  Q 221.28 120.01 220.81 119.64
  L 219.92 118.93
  Q 219.52 118.61 219.03 118.73
  Q 215.75 119.54 216.70 122.68
  Q 216.85 123.16 216.51 123.53
  L 197.62 144.16
  Q 197.29 144.52 196.81 144.57
  L 193.67 144.85
  Q 193.14 144.90 192.72 144.58
  L 174.91 131.27
  Q 174.48 130.95 174.51 130.42"
/>
<path stroke="#c8c7ce" vector-effect="non-scaling-stroke" d="
  M 125.53 179.31
  Q 125.00 179.31 125.00 178.78
  L 125.00 112.33
  Q 125.00 111.94 124.63 111.79
  Q 124.41 111.70 124.15 111.77
  Q 123.75 111.89 123.75 112.31
  L 123.75 179.72
  A 1.22 1.22 0.0 0 0 124.97 180.94
  L 266.02 181.03
  Q 266.46 181.03 266.72 180.68
  L 266.94 180.38
  A 0.72 0.72 0.0 0 0 266.36 179.23
  L 125.53 179.31"
/>
<path stroke="#e9d4b4" vector-effect="non-scaling-stroke" d="
  M 250.50 121.20
  A 1.45 1.45 0.0 0 0 249.05 119.75
  L 236.23 119.75
  A 1.45 1.45 0.0 0 0 234.78 121.20
  L 234.78 174.18
  A 1.45 1.45 0.0 0 0 236.23 175.63
  L 249.05 175.63
  A 1.45 1.45 0.0 0 0 250.50 174.18
  L 250.50 121.20"
/>
<path stroke="#e9d4b4" vector-effect="non-scaling-stroke" d="
  M 346.32 131.67
  A 3.12 3.12 0.0 0 0 343.20 128.55
  A 3.12 3.12 0.0 0 0 340.08 131.67
  A 3.12 3.12 0.0 0 0 343.20 134.79
  A 3.12 3.12 0.0 0 0 346.32 131.67"
/>
<path stroke="#9f9eab" vector-effect="non-scaling-stroke" d="
  M 355.56 131.80
  A 3.13 3.13 0.0 0 0 352.43 128.67
  A 3.13 3.13 0.0 0 0 349.30 131.80
  A 3.13 3.13 0.0 0 0 352.43 134.93
  A 3.13 3.13 0.0 0 0 355.56 131.80"
/>
<path stroke="#e9d4b4" vector-effect="non-scaling-stroke" d="
  M 226.75 133.05
  A 1.30 1.30 0.0 0 0 225.45 131.75
  L 212.55 131.75
  A 1.30 1.30 0.0 0 0 211.25 133.05
  L 211.25 174.33
  A 1.30 1.30 0.0 0 0 212.55 175.63
  L 225.45 175.63
  A 1.30 1.30 0.0 0 0 226.75 174.33
  L 226.75 133.05"
/>
<path stroke="#e9d4b4" vector-effect="non-scaling-stroke" d="
  M 179.51 139.35
  A 0.85 0.85 0.0 0 0 178.66 138.50
  L 165.10 138.50
  A 0.85 0.85 0.0 0 0 164.25 139.35
  L 164.25 174.65
  A 0.85 0.85 0.0 0 0 165.10 175.50
  L 178.66 175.50
  A 0.85 0.85 0.0 0 0 179.51 174.65
  L 179.51 139.35"
/>
<path stroke="#e9d4b4" vector-effect="non-scaling-stroke" d="
  M 155.9844 156.4265
  A 1.17 1.17 0.0 0 0 154.8123 155.2585
  L 141.6523 155.2815
  A 1.17 1.17 0.0 0 0 140.4844 156.4535
  L 140.5156 174.3535
  A 1.17 1.17 0.0 0 0 141.6877 175.5215
  L 154.8477 175.4985
  A 1.17 1.17 0.0 0 0 156.0156 174.3265
  L 155.9844 156.4265"
/>
<path stroke="#e9d4b4" vector-effect="non-scaling-stroke" d="
  M 203.2241 156.2865
  A 1.03 1.03 0.0 0 0 202.1923 155.2583
  L 188.7523 155.2817
  A 1.03 1.03 0.0 0 0 187.7241 156.3135
  L 187.7559 174.4935
  A 1.03 1.03 0.0 0 0 188.7877 175.5217
  L 202.2277 175.4983
  A 1.03 1.03 0.0 0 0 203.2559 174.4665
  L 203.2241 156.2865"
/>
<path stroke="#e9d4b4" vector-effect="non-scaling-stroke" d="
  M 364.25 163.79
  Q 352.73 163.61 341.20 163.90
  C 338.98 163.96 338.00 165.14 338.64 167.32
  A 1.62 1.62 0.0 0 0 340.18 168.48
  L 364.50 168.71"
/>
<path stroke="#c8c7ce" vector-effect="non-scaling-stroke" d="
  M 364.50 168.71
  C 367.67 168.77 376.14 170.18 377.12 166.19
  A 1.83 1.82 10.3 0 0 375.56 163.95
  Q 370.01 163.29 364.25 163.79"
/>
<path stroke="#b29c82" vector-effect="non-scaling-stroke" d="
  M 364.50 168.71
  L 364.79 167.75"
/>
<path stroke="#c8c7ce" vector-effect="non-scaling-stroke" d="
  M 364.79 167.75
  C 366.14 167.92 377.95 169.38 375.70 165.38
  Q 375.45 164.94 374.95 164.89
  Q 369.86 164.39 364.79 165.00"
/>
<path stroke="#b29c82" vector-effect="non-scaling-stroke" d="
  M 364.79 165.00
  L 364.25 163.79"
/>
<path stroke="#e9d4b4" vector-effect="non-scaling-stroke" d="
  M 364.79 165.00
  L 364.79 167.75"
/>
<path stroke="#9f9eab" vector-effect="non-scaling-stroke" d="
  M 332.18 166.52
  A 2.72 2.72 0.0 0 0 329.46 163.80
  A 2.72 2.72 0.0 0 0 326.74 166.52
  A 2.72 2.72 0.0 0 0 329.46 169.24
  A 2.72 2.72 0.0 0 0 332.18 166.52"
/>
<path stroke="#e9d4b4" vector-effect="non-scaling-stroke" d="
  M 376.9299 177.8365
  A 2.44 2.44 0.0 0 0 374.4856 175.4008
  L 340.9857 175.4592
  A 2.44 2.44 0.0 0 0 338.5499 177.9035
  L 338.5501 178.0035
  A 2.44 2.44 0.0 0 0 340.9944 180.4392
  L 374.4943 180.3808
  A 2.44 2.44 0.0 0 0 376.9301 177.9365
  L 376.9299 177.8365"
/>
<path stroke="#9f9eab" vector-effect="non-scaling-stroke" d="
  M 332.17 178.12
  A 2.70 2.70 0.0 0 0 329.47 175.42
  A 2.70 2.70 0.0 0 0 326.77 178.12
  A 2.70 2.70 0.0 0 0 329.47 180.82
  A 2.70 2.70 0.0 0 0 332.17 178.12"
/>
<path stroke="#e9d4b4" vector-effect="non-scaling-stroke" d="
  M 354.25 187.04
  Q 347.53 186.86 340.83 187.27
  C 338.93 187.39 338.17 188.27 338.56 190.17
  A 2.02 2.01 -5.3 0 0 340.51 191.78
  L 354.00 191.96"
/>
<path stroke="#c8c7ce" vector-effect="non-scaling-stroke" d="
  M 354.00 191.96
  L 374.82 191.99
  A 2.19 2.19 0.0 0 0 377.01 189.78
  Q 376.98 187.11 374.06 186.96
  Q 364.15 186.44 354.25 187.04"
/>
<path stroke="#b29c82" vector-effect="non-scaling-stroke" d="
  M 354.00 191.96
  L 355.00 190.96"
/>
<path stroke="#c8c7ce" vector-effect="non-scaling-stroke" d="
  M 355.00 190.96
  Q 364.66 191.59 374.32 190.89
  C 375.70 190.79 376.28 190.13 375.93 188.75
  A 1.30 1.30 0.0 0 0 374.67 187.77
  L 355.00 187.79"
/>
<path stroke="#b29c82" vector-effect="non-scaling-stroke" d="
  M 355.00 187.79
  L 354.25 187.04"
/>
<path stroke="#e9d4b4" vector-effect="non-scaling-stroke" d="
  M 355.00 187.79
  Q 355.59 189.40 355.00 190.96"
/>
<path stroke="#9f9eab" vector-effect="non-scaling-stroke" d="
  M 332.18 189.71
  A 2.71 2.71 0.0 0 0 329.47 187.00
  A 2.71 2.71 0.0 0 0 326.76 189.71
  A 2.71 2.71 0.0 0 0 329.47 192.42
  A 2.71 2.71 0.0 0 0 332.18 189.71"
/>
<path stroke="#e9d4b4" vector-effect="non-scaling-stroke" d="
  M 373.25 179.34
  A 0.25 0.25 0.0 0 0 373.58 179.60
  L 375.56 178.89
  Q 376.31 178.62 376.08 177.86
  Q 375.65 176.40 374.23 176.19
  Q 373.57 176.10 373.50 176.77
  L 373.25 179.34"
/>
</g>
<path fill="#3f3d56" d="
  M 414.46 211.50
  Q 413.87 215.88 414.54 220.25
  C 413.66 221.38 414.08 249.12 413.96 253.00
  L 63.40 253.06
  Q 63.06 253.06 62.80 253.28
  L 62.54 253.50
  Q 62.55 253.10 62.41 252.72
  Q 62.25 252.27 62.25 251.78
  Q 62.25 152.17 62.25 52.55
  C 62.25 45.06 64.34 41.25 72.11 41.25
  Q 237.98 41.24 403.85 41.25
  C 410.49 41.25 414.33 43.79 414.31 50.60
  Q 414.05 131.05 414.46 211.50
  Z
  M 399.49 62.58
  A 6.57 6.57 0.0 0 0 392.92 56.01
  L 83.60 56.01
  A 6.57 6.57 0.0 0 0 77.03 62.58
  L 77.03 231.68
  A 6.57 6.57 0.0 0 0 83.60 238.25
  L 392.92 238.25
  A 6.57 6.57 0.0 0 0 399.49 231.68
  L 399.49 62.58
  Z"
/>
<path fill="#ffffff" d="
  M 399.49 231.68
  A 6.57 6.57 0.0 0 1 392.92 238.25
  L 83.60 238.25
  A 6.57 6.57 0.0 0 1 77.03 231.68
  L 77.03 62.58
  A 6.57 6.57 0.0 0 1 83.60 56.01
  L 392.92 56.01
  A 6.57 6.57 0.0 0 1 399.49 62.58
  L 399.49 231.68
  Z
  M 351.93 104.26
  L 352.17 89.09
  Q 352.18 88.41 351.50 88.49
  Q 345.51 89.21 340.86 93.02
  A 0.43 0.43 0.0 0 0 340.83 93.66
  L 351.31 104.50
  A 0.36 0.36 0.0 0 0 351.93 104.26
  Z
  M 353.79 89.25
  L 353.29 123.76
  Q 353.28 124.25 353.77 124.22
  C 375.72 122.69 376.39 91.77 354.44 88.69
  A 0.57 0.57 0.0 0 0 353.79 89.25
  Z
  M 174.51 130.42
  C 174.73 126.54 169.20 126.02 169.24 130.43
  Q 169.24 130.96 168.82 131.27
  L 150.58 144.86
  Q 150.15 145.18 149.67 144.97
  Q 146.90 143.75 145.70 146.65
  A 2.17 2.16 21.4 0 0 146.96 149.52
  C 149.33 150.38 150.95 149.08 150.74 146.66
  Q 150.69 146.09 151.15 145.75
  L 169.39 132.05
  Q 169.76 131.77 170.16 132.02
  Q 171.82 133.03 173.43 131.99
  Q 173.91 131.68 174.36 132.03
  Q 183.36 138.84 192.46 145.54
  Q 193.23 146.11 192.91 146.94
  Q 192.75 147.36 192.89 147.78
  C 194.04 151.30 199.10 149.77 197.74 146.19
  Q 197.54 145.65 197.93 145.22
  L 217.21 124.20
  Q 217.59 123.79 218.14 123.89
  Q 221.29 124.46 221.66 121.46
  Q 221.73 120.93 222.23 120.72
  C 224.56 119.79 240.19 112.88 241.31 113.86
  Q 241.69 114.20 242.19 114.26
  C 247.27 114.83 245.25 106.48 240.83 109.80
  Q 240.40 110.12 240.27 110.65
  L 239.94 112.08
  Q 239.83 112.54 239.39 112.72
  L 221.84 119.79
  Q 221.28 120.01 220.81 119.64
  L 219.92 118.93
  Q 219.52 118.61 219.03 118.73
  Q 215.75 119.54 216.70 122.68
  Q 216.85 123.16 216.51 123.53
  L 197.62 144.16
  Q 197.29 144.52 196.81 144.57
  L 193.67 144.85
  Q 193.14 144.90 192.72 144.58
  L 174.91 131.27
  Q 174.48 130.95 174.51 130.42
  Z
  M 125.53 179.31
  Q 125.00 179.31 125.00 178.78
  L 125.00 112.33
  Q 125.00 111.94 124.63 111.79
  Q 124.41 111.70 124.15 111.77
  Q 123.75 111.89 123.75 112.31
  L 123.75 179.72
  A 1.22 1.22 0.0 0 0 124.97 180.94
  L 266.02 181.03
  Q 266.46 181.03 266.72 180.68
  L 266.94 180.38
  A 0.72 0.72 0.0 0 0 266.36 179.23
  L 125.53 179.31
  Z
  M 250.50 121.20
  A 1.45 1.45 0.0 0 0 249.05 119.75
  L 236.23 119.75
  A 1.45 1.45 0.0 0 0 234.78 121.20
  L 234.78 174.18
  A 1.45 1.45 0.0 0 0 236.23 175.63
  L 249.05 175.63
  A 1.45 1.45 0.0 0 0 250.50 174.18
  L 250.50 121.20
  Z
  M 346.32 131.67
  A 3.12 3.12 0.0 0 0 343.20 128.55
  A 3.12 3.12 0.0 0 0 340.08 131.67
  A 3.12 3.12 0.0 0 0 343.20 134.79
  A 3.12 3.12 0.0 0 0 346.32 131.67
  Z
  M 355.56 131.80
  A 3.13 3.13 0.0 0 0 352.43 128.67
  A 3.13 3.13 0.0 0 0 349.30 131.80
  A 3.13 3.13 0.0 0 0 352.43 134.93
  A 3.13 3.13 0.0 0 0 355.56 131.80
  Z
  M 226.75 133.05
  A 1.30 1.30 0.0 0 0 225.45 131.75
  L 212.55 131.75
  A 1.30 1.30 0.0 0 0 211.25 133.05
  L 211.25 174.33
  A 1.30 1.30 0.0 0 0 212.55 175.63
  L 225.45 175.63
  A 1.30 1.30 0.0 0 0 226.75 174.33
  L 226.75 133.05
  Z
  M 179.51 139.35
  A 0.85 0.85 0.0 0 0 178.66 138.50
  L 165.10 138.50
  A 0.85 0.85 0.0 0 0 164.25 139.35
  L 164.25 174.65
  A 0.85 0.85 0.0 0 0 165.10 175.50
  L 178.66 175.50
  A 0.85 0.85 0.0 0 0 179.51 174.65
  L 179.51 139.35
  Z
  M 155.9844 156.4265
  A 1.17 1.17 0.0 0 0 154.8123 155.2585
  L 141.6523 155.2815
  A 1.17 1.17 0.0 0 0 140.4844 156.4535
  L 140.5156 174.3535
  A 1.17 1.17 0.0 0 0 141.6877 175.5215
  L 154.8477 175.4985
  A 1.17 1.17 0.0 0 0 156.0156 174.3265
  L 155.9844 156.4265
  Z
  M 203.2241 156.2865
  A 1.03 1.03 0.0 0 0 202.1923 155.2583
  L 188.7523 155.2817
  A 1.03 1.03 0.0 0 0 187.7241 156.3135
  L 187.7559 174.4935
  A 1.03 1.03 0.0 0 0 188.7877 175.5217
  L 202.2277 175.4983
  A 1.03 1.03 0.0 0 0 203.2559 174.4665
  L 203.2241 156.2865
  Z
  M 364.25 163.79
  Q 352.73 163.61 341.20 163.90
  C 338.98 163.96 338.00 165.14 338.64 167.32
  A 1.62 1.62 0.0 0 0 340.18 168.48
  L 364.50 168.71
  C 367.67 168.77 376.14 170.18 377.12 166.19
  A 1.83 1.82 10.3 0 0 375.56 163.95
  Q 370.01 163.29 364.25 163.79
  Z
  M 332.18 166.52
  A 2.72 2.72 0.0 0 0 329.46 163.80
  A 2.72 2.72 0.0 0 0 326.74 166.52
  A 2.72 2.72 0.0 0 0 329.46 169.24
  A 2.72 2.72 0.0 0 0 332.18 166.52
  Z
  M 376.9299 177.8365
  A 2.44 2.44 0.0 0 0 374.4856 175.4008
  L 340.9857 175.4592
  A 2.44 2.44 0.0 0 0 338.5499 177.9035
  L 338.5501 178.0035
  A 2.44 2.44 0.0 0 0 340.9944 180.4392
  L 374.4943 180.3808
  A 2.44 2.44 0.0 0 0 376.9301 177.9365
  L 376.9299 177.8365
  Z
  M 332.17 178.12
  A 2.70 2.70 0.0 0 0 329.47 175.42
  A 2.70 2.70 0.0 0 0 326.77 178.12
  A 2.70 2.70 0.0 0 0 329.47 180.82
  A 2.70 2.70 0.0 0 0 332.17 178.12
  Z
  M 354.25 187.04
  Q 347.53 186.86 340.83 187.27
  C 338.93 187.39 338.17 188.27 338.56 190.17
  A 2.02 2.01 -5.3 0 0 340.51 191.78
  L 354.00 191.96
  L 374.82 191.99
  A 2.19 2.19 0.0 0 0 377.01 189.78
  Q 376.98 187.11 374.06 186.96
  Q 364.15 186.44 354.25 187.04
  Z
  M 332.18 189.71
  A 2.71 2.71 0.0 0 0 329.47 187.00
  A 2.71 2.71 0.0 0 0 326.76 189.71
  A 2.71 2.71 0.0 0 0 329.47 192.42
  A 2.71 2.71 0.0 0 0 332.18 189.71
  Z"
/>
<path fill="#d3a868" d="
  M 352.17 89.09
  L 351.93 104.26
  A 0.36 0.36 0.0 0 1 351.31 104.50
  L 340.83 93.66
  A 0.43 0.43 0.0 0 1 340.86 93.02
  Q 345.51 89.21 351.50 88.49
  Q 352.18 88.41 352.17 89.09
  Z"
/>
<path fill="#3f3d56" d="
  M 353.29 123.76
  L 353.79 89.25
  A 0.57 0.57 0.0 0 1 354.44 88.69
  C 376.39 91.77 375.72 122.69 353.77 124.22
  Q 353.28 124.25 353.29 123.76
  Z"
/>
<path fill="#3f3d56" d="
  M 174.91 131.27
  L 192.72 144.58
  Q 193.14 144.90 193.67 144.85
  L 196.81 144.57
  Q 197.29 144.52 197.62 144.16
  L 216.51 123.53
  Q 216.85 123.16 216.70 122.68
  Q 215.75 119.54 219.03 118.73
  Q 219.52 118.61 219.92 118.93
  L 220.81 119.64
  Q 221.28 120.01 221.84 119.79
  L 239.39 112.72
  Q 239.83 112.54 239.94 112.08
  L 240.27 110.65
  Q 240.40 110.12 240.83 109.80
  C 245.25 106.48 247.27 114.83 242.19 114.26
  Q 241.69 114.20 241.31 113.86
  C 240.19 112.88 224.56 119.79 222.23 120.72
  Q 221.73 120.93 221.66 121.46
  Q 221.29 124.46 218.14 123.89
  Q 217.59 123.79 217.21 124.20
  L 197.93 145.22
  Q 197.54 145.65 197.74 146.19
  C 199.10 149.77 194.04 151.30 192.89 147.78
  Q 192.75 147.36 192.91 146.94
  Q 193.23 146.11 192.46 145.54
  Q 183.36 138.84 174.36 132.03
  Q 173.91 131.68 173.43 131.99
  Q 171.82 133.03 170.16 132.02
  Q 169.76 131.77 169.39 132.05
  L 151.15 145.75
  Q 150.69 146.09 150.74 146.66
  C 150.95 149.08 149.33 150.38 146.96 149.52
  A 2.17 2.16 21.4 0 1 145.70 146.65
  Q 146.90 143.75 149.67 144.97
  Q 150.15 145.18 150.58 144.86
  L 168.82 131.27
  Q 169.24 130.96 169.24 130.43
  C 169.20 126.02 174.73 126.54 174.51 130.42
  Q 174.48 130.95 174.91 131.27
  Z"
/>
<path fill="#908f9c" d="
  M 125.53 179.31
  L 266.36 179.23
  A 0.72 0.72 0.0 0 1 266.94 180.38
  L 266.72 180.68
  Q 266.46 181.03 266.02 181.03
  L 124.97 180.94
  A 1.22 1.22 0.0 0 1 123.75 179.72
  L 123.75 112.31
  Q 123.75 111.89 124.15 111.77
  Q 124.41 111.70 124.63 111.79
  Q 125.00 111.94 125.00 112.33
  L 125.00 178.78
  Q 125.00 179.31 125.53 179.31
  Z"
/>
<rect fill="#d3a868" x="234.78" y="119.75" width="15.72" height="55.88" rx="1.45"/>
<circle fill="#d3a868" cx="343.20" cy="131.67" r="3.12"/>
<circle fill="#3f3d56" cx="352.43" cy="131.80" r="3.13"/>
<rect fill="#d3a868" x="211.25" y="131.75" width="15.50" height="43.88" rx="1.30"/>
<rect fill="#d3a868" x="164.25" y="138.50" width="15.26" height="37.00" rx="0.85"/>
<rect fill="#d3a868" x="-7.75" y="-10.12" transform="translate(148.25,165.39) rotate(-0.1)" width="15.50" height="20.24" rx="1.17"/>
<rect fill="#d3a868" x="-7.75" y="-10.12" transform="translate(195.49,165.39) rotate(-0.1)" width="15.50" height="20.24" rx="1.03"/>
<path fill="#2f2e41" d="
  M 480.21 190.50
  L 476.79 191.05
  L 462.25 189.04
  C 468.64 187.19 473.17 185.83 474.01 178.31
  Q 474.08 177.73 473.50 177.66
  L 470.06 177.25
  Q 469.42 177.17 469.29 176.55
  L 468.66 173.62
  Q 468.27 171.82 467.90 173.62
  Q 467.69 174.64 467.69 175.67
  Q 467.69 176.28 467.20 176.66
  Q 466.47 177.24 465.76 176.76
  Q 465.05 176.28 465.01 176.00
  L 464.96 175.61
  Q 464.87 174.97 464.45 175.46
  C 463.20 176.92 453.30 175.18 450.71 175.25
  L 448.01 174.47
  Q 447.47 174.32 447.57 173.77
  C 448.88 166.78 453.33 165.42 458.87 162.43
  C 470.62 156.09 483.24 164.33 482.19 177.49
  Q 481.59 184.92 480.21 190.50
  Z"
/>
<path fill="#908f9c" d="
  M 364.50 168.71
  L 364.79 167.75
  C 366.14 167.92 377.95 169.38 375.70 165.38
  Q 375.45 164.94 374.95 164.89
  Q 369.86 164.39 364.79 165.00
  L 364.25 163.79
  Q 370.01 163.29 375.56 163.95
  A 1.83 1.82 10.3 0 1 377.12 166.19
  C 376.14 170.18 367.67 168.77 364.50 168.71
  Z"
/>
<circle fill="#3f3d56" cx="329.46" cy="166.52" r="2.72"/>
<path fill="#d3a868" d="
  M 364.25 163.79
  L 364.79 165.00
  L 364.79 167.75
  L 364.50 168.71
  L 340.18 168.48
  A 1.62 1.62 0.0 0 1 338.64 167.32
  C 338.00 165.14 338.98 163.96 341.20 163.90
  Q 352.73 163.61 364.25 163.79
  Z"
/>
<path fill="#ffffff" d="
  M 364.79 167.75
  L 364.79 165.00
  Q 369.86 164.39 374.95 164.89
  Q 375.45 164.94 375.70 165.38
  C 377.95 169.38 366.14 167.92 364.79 167.75
  Z"
/>
<path fill="#ffb8b8" d="
  M 462.25 189.04
  L 459.75 188.71
  L 459.38 188.21
  Q 459.09 187.82 458.63 187.67
  C 454.09 186.19 451.44 182.63 451.64 177.76
  Q 451.68 176.83 451.04 176.00
  L 450.71 175.25
  C 453.30 175.18 463.20 176.92 464.45 175.46
  Q 464.87 174.97 464.96 175.61
  L 465.01 176.00
  Q 465.05 176.28 465.76 176.76
  Q 466.47 177.24 467.20 176.66
  Q 467.69 176.28 467.69 175.67
  Q 467.69 174.64 467.90 173.62
  Q 468.27 171.82 468.66 173.62
  L 469.29 176.55
  Q 469.42 177.17 470.06 177.25
  L 473.50 177.66
  Q 474.08 177.73 474.01 178.31
  C 473.17 185.83 468.64 187.19 462.25 189.04
  Z"
/>
<path fill="#d3a868" d="
  M 376.9301 177.9365
  A 2.44 2.44 0.0 0 1 374.4943 180.3808
  L 340.9944 180.4392
  A 2.44 2.44 0.0 0 1 338.5501 178.0035
  L 338.5499 177.9035
  A 2.44 2.44 0.0 0 1 340.9857 175.4592
  L 374.4856 175.4008
  A 2.44 2.44 0.0 0 1 376.9299 177.8365
  L 376.9301 177.9365
  Z
  M 373.25 179.34
  A 0.25 0.25 0.0 0 0 373.58 179.60
  L 375.56 178.89
  Q 376.31 178.62 376.08 177.86
  Q 375.65 176.40 374.23 176.19
  Q 373.57 176.10 373.50 176.77
  L 373.25 179.34
  Z"
/>
<circle fill="#3f3d56" cx="329.47" cy="178.12" r="2.70"/>
<path fill="#ffffff" d="
  M 373.25 179.34
  L 373.50 176.77
  Q 373.57 176.10 374.23 176.19
  Q 375.65 176.40 376.08 177.86
  Q 376.31 178.62 375.56 178.89
  L 373.58 179.60
  A 0.25 0.25 0.0 0 1 373.25 179.34
  Z"
/>
<path fill="#2f2e41" d="
  M 451.04 176.00
  Q 451.68 176.83 451.64 177.76
  C 451.44 182.63 454.09 186.19 458.63 187.67
  Q 459.09 187.82 459.38 188.21
  L 459.75 188.71
  L 451.68 187.50
  A 2.01 1.99 -86.1 0 1 449.98 185.54
  Q 449.92 180.72 451.04 176.00
  Z"
/>
<path fill="#908f9c" d="
  M 354.00 191.96
  L 355.00 190.96
  Q 364.66 191.59 374.32 190.89
  C 375.70 190.79 376.28 190.13 375.93 188.75
  A 1.30 1.30 0.0 0 0 374.67 187.77
  L 355.00 187.79
  L 354.25 187.04
  Q 364.15 186.44 374.06 186.96
  Q 376.98 187.11 377.01 189.78
  A 2.19 2.19 0.0 0 1 374.82 191.99
  L 354.00 191.96
  Z"
/>
<circle fill="#3f3d56" cx="329.47" cy="189.71" r="2.71"/>
<path fill="#d3a868" d="
  M 354.25 187.04
  L 355.00 187.79
  Q 355.59 189.40 355.00 190.96
  L 354.00 191.96
  L 340.51 191.78
  A 2.02 2.01 -5.3 0 1 338.56 190.17
  C 338.17 188.27 338.93 187.39 340.83 187.27
  Q 347.53 186.86 354.25 187.04
  Z"
/>
<path fill="#ffffff" d="
  M 355.00 187.79
  L 374.67 187.77
  A 1.30 1.30 0.0 0 1 375.93 188.75
  C 376.28 190.13 375.70 190.79 374.32 190.89
  Q 364.66 191.59 355.00 190.96
  Q 355.59 189.40 355.00 187.79
  Z"
/>
<path fill="#3f3d56" d="
  M 480.21 190.50
  C 481.28 191.38 482.25 191.85 482.93 193.14
  Q 490.14 206.80 497.43 220.41
  C 499.49 224.25 490.78 235.36 488.55 238.65
  Q 488.27 239.06 488.38 239.56
  L 492.58 258.74
  Q 492.71 259.32 492.16 259.53
  L 483.58 262.88
  Q 479.55 264.29 475.36 263.88
  Q 474.80 263.82 474.62 263.28
  L 471.00 252.04
  Q 477.29 252.15 477.52 246.10
  Q 477.54 245.56 477.99 245.26
  L 481.16 243.14
  Q 481.76 242.74 481.18 242.31
  L 476.05 238.51
  A 0.83 0.83 0.0 0 0 475.11 238.48
  L 469.50 242.21
  Q 464.85 219.02 465.34 195.39
  Q 465.34 195.29 465.25 195.27
  Q 465.12 195.24 465.00 195.21
  L 466.69 192.03
  Q 467.02 191.42 467.65 191.69
  Q 472.40 193.76 476.79 191.05
  L 480.21 190.50
  Z
  M 484.84 223.67
  A 0.39 0.39 0.0 0 0 485.54 223.88
  L 487.51 221.25
  A 0.39 0.39 0.0 0 0 487.54 220.83
  L 484.99 216.23
  A 0.39 0.39 0.0 0 0 484.26 216.45
  L 484.84 223.67
  Z"
/>
<path fill="#d3a868" d="
  M 465.00 195.21
  Q 465.12 195.24 465.25 195.27
  Q 465.34 195.29 465.34 195.39
  Q 464.85 219.02 469.50 242.21
  Q 466.06 244.70 467.21 249.00
  C 461.42 251.10 447.63 255.97 445.46 246.75
  Q 445.09 244.41 445.58 242.06
  Q 448.00 230.46 450.74 218.88
  Q 450.85 218.38 450.59 217.94
  C 446.71 211.58 452.27 207.07 455.20 202.05
  Q 455.44 201.63 455.82 201.31
  L 458.99 198.63
  L 465.00 195.21
  Z"
/>
<path fill="#3f3d56" d="
  M 458.99 198.63
  L 455.82 201.31
  Q 455.44 201.63 455.20 202.05
  C 452.27 207.07 446.71 211.58 450.59 217.94
  Q 450.85 218.38 450.74 218.88
  Q 448.00 230.46 445.58 242.06
  Q 445.09 244.41 445.46 246.75
  L 445.09 246.90
  Q 444.60 247.11 444.47 247.63
  Q 442.18 256.84 439.99 266.09
  C 439.88 266.54 440.10 267.02 439.25 267.04
  C 434.60 263.84 430.79 259.71 432.75 253.62
  Q 436.76 241.12 443.79 229.87
  A 0.70 0.70 0.0 0 0 443.03 228.82
  C 437.51 230.16 424.97 227.00 419.29 225.52
  Q 418.76 225.38 418.76 224.84
  L 418.75 222.29
  L 419.10 222.09
  Q 419.36 221.93 419.41 221.63
  L 420.50 214.79
  L 440.61 218.68
  Q 441.09 218.77 441.41 218.39
  Q 446.77 211.94 450.73 204.60
  Q 452.14 201.99 453.91 200.85
  Q 456.25 199.36 458.99 198.63
  Z"
/>
<path fill="#ffb8b8" d="
  M 414.46 211.50
  Q 417.20 213.66 420.50 214.79
  L 419.41 221.63
  Q 419.36 221.93 419.10 222.09
  L 418.75 222.29
  Q 416.88 220.78 414.54 220.25
  Q 413.87 215.88 414.46 211.50
  Z"
/>
<path fill="#ffb8b8" d="
  M 471.00 252.04
  Q 468.53 251.24 467.21 249.00
  Q 466.06 244.70 469.50 242.21
  L 475.11 238.48
  A 0.83 0.83 0.0 0 1 476.05 238.51
  L 481.18 242.31
  Q 481.76 242.74 481.16 243.14
  L 477.99 245.26
  Q 477.54 245.56 477.52 246.10
  Q 477.29 252.15 471.00 252.04
  Z"
/>
<path fill="#2f2e41" d="
  M 445.46 246.75
  C 447.63 255.97 461.42 251.10 467.21 249.00
  Q 468.53 251.24 471.00 252.04
  L 474.62 263.28
  Q 474.80 263.82 475.36 263.88
  Q 479.55 264.29 483.58 262.88
  Q 484.11 267.23 483.09 270.68
  Q 482.94 271.17 483.10 271.66
  Q 486.47 282.18 490.13 292.59
  C 496.45 310.55 505.31 328.11 513.10 345.56
  A 0.41 0.41 0.0 0 1 512.80 346.13
  L 508.72 346.80
  Q 508.19 346.88 507.75 347.19
  Q 506.71 347.94 505.25 347.46
  Q 502.51 346.73 499.94 347.80
  Q 498.31 348.28 496.65 347.91
  Q 496.14 347.80 495.87 347.36
  C 488.00 334.19 479.58 321.16 472.97 307.44
  Q 466.70 294.45 460.55 281.18
  A 0.55 0.54 -44.9 0 0 459.56 281.18
  Q 453.29 294.45 446.67 307.79
  Q 445.20 310.76 444.69 314.02
  Q 441.84 332.25 439.30 350.53
  Q 439.23 351.06 438.71 351.18
  L 435.04 352.00
  Q 431.54 350.71 428.58 352.19
  Q 423.97 350.92 419.24 351.94
  A 0.63 0.63 0.0 0 1 418.50 351.17
  Q 429.03 309.54 439.32 267.95
  Q 439.42 267.53 439.25 267.04
  C 440.10 267.02 439.88 266.54 439.99 266.09
  Q 442.18 256.84 444.47 247.63
  Q 444.60 247.11 445.09 246.90
  L 445.46 246.75
  Z"
/>
<path fill="#cccccc" d="
  M 413.96 253.00
  Q 413.69 262.52 413.78 277.26
  C 413.81 283.69 409.53 284.73 403.87 284.74
  Q 341.75 284.77 279.62 284.74
  Q 279.54 284.74 276.38 284.92
  Q 274.80 285.01 273.13 284.79
  L 203.99 284.76
  Q 203.52 284.76 203.15 285.04
  L 202.54 285.50
  Q 201.52 284.75 200.94 284.75
  Q 135.47 284.75 70.00 284.71
  C 64.66 284.71 62.79 281.66 62.66 276.54
  Q 62.35 265.01 62.54 253.50
  L 62.80 253.28
  Q 63.06 253.06 63.40 253.06
  L 413.96 253.00
  Z"
/>
<path fill="#ffffff" d="
  M 273.13 284.79
  Q 274.81 299.78 276.84 314.69
  Q 277.35 318.38 280.50 319.46
  Q 280.31 320.96 282.00 321.29
  Q 281.32 322.72 279.30 322.65
  Q 265.38 322.14 247.15 322.51
  C 245.92 322.54 244.18 322.05 242.55 322.61
  C 237.22 324.43 233.90 322.67 228.94 322.58
  Q 212.60 322.30 196.25 322.50
  C 194.27 322.53 192.40 323.81 190.23 322.79
  L 190.79 322.00
  Q 192.67 321.97 193.50 320.29
  L 196.90 318.19
  Q 197.34 317.92 197.53 317.44
  Q 198.17 315.88 198.41 314.18
  Q 200.44 299.84 202.54 285.50
  L 203.15 285.04
  Q 203.52 284.76 203.99 284.76
  L 273.13 284.79
  Z"
/>
<path fill="#908f9c" d="
  M 280.50 319.46
  L 285.00 321.71
  L 282.00 321.29
  Q 280.31 320.96 280.50 319.46
  Z"
/>
<path fill="#908f9c" d="
  M 193.50 320.29
  Q 192.67 321.97 190.79 322.00
  Q 191.81 320.60 193.50 320.29
  Z"
/>
<path fill="#cccccc" d="
  M 282.00 321.29
  L 285.00 321.71
  C 287.85 324.03 319.21 322.75 324.98 322.74
  Q 325.31 322.74 325.43 323.06
  Q 325.48 323.19 325.52 323.32
  Q 325.59 323.52 325.38 323.52
  C 277.02 324.12 213.52 325.08 151.00 323.39
  Q 140.43 323.11 151.00 322.88
  Q 170.66 322.47 190.23 322.79
  C 192.40 323.81 194.27 322.53 196.25 322.50
  Q 212.60 322.30 228.94 322.58
  C 233.90 322.67 237.22 324.43 242.55 322.61
  C 244.18 322.05 245.92 322.54 247.15 322.51
  Q 265.38 322.14 279.30 322.65
  Q 281.32 322.72 282.00 321.29
  Z"
/>
<path fill="#908f9c" d="
  M 505.25 347.46
  Q 502.30 347.59 502.96 348.98
  Q 501.97 350.82 503.25 352.29
  L 502.21 352.50
  Q 502.33 351.22 501.61 350.21
  Q 501.33 349.81 501.37 349.33
  Q 501.44 348.24 499.94 347.80
  Q 502.51 346.73 505.25 347.46
  Z"
/>
<path fill="#ffb8b8" d="
  M 508.50 350.04
  Q 508.50 350.17 508.50 350.30
  Q 508.50 350.55 508.26 350.63
  L 503.25 352.29
  Q 501.97 350.82 502.96 348.98
  Q 504.47 347.78 505.90 348.74
  Q 506.19 348.93 506.44 348.69
  L 506.80 348.32
  Q 507.29 347.84 507.62 348.44
  L 508.50 350.04
  Z"
/>
<path fill="#2f2e41" d="
  M 508.50 350.04
  L 510.33 350.27
  Q 510.83 350.33 510.99 350.82
  L 513.23 357.70
  Q 513.43 358.32 512.81 358.53
  L 493.07 365.06
  A 1.01 1.01 0.0 0 1 491.75 364.16
  C 491.27 356.02 495.99 355.02 502.21 352.50
  L 503.25 352.29
  L 508.26 350.63
  Q 508.50 350.55 508.50 350.30
  Q 508.50 350.17 508.50 350.04
  Z"
/>
<path fill="#ffb8b8" d="
  M 435.04 352.00
  L 435.54 355.75
  L 435.31 356.07
  Q 435.22 356.21 435.05 356.21
  L 428.37 356.34
  Q 428.28 356.34 428.25 356.26
  Q 428.22 356.14 428.21 356.00
  L 428.58 352.19
  Q 431.54 350.71 435.04 352.00
  Z"
/>
<path fill="#2f2e41" d="
  M 435.54 355.75
  L 436.74 356.30
  Q 437.22 356.52 437.23 357.05
  L 437.34 365.32
  Q 437.34 365.94 437.96 365.97
  L 440.00 366.04
  Q 440.12 366.30 440.25 366.39
  Q 428.29 364.89 416.19 365.29
  Q 416.04 365.81 415.26 365.40
  A 0.74 0.74 0.0 0 1 414.88 364.60
  C 416.55 356.45 421.32 356.76 428.21 356.00
  Q 428.22 356.14 428.25 356.26
  Q 428.28 356.34 428.37 356.34
  L 435.05 356.21
  Q 435.22 356.21 435.31 356.07
  L 435.54 355.75
  Z"
/>
<rect fill="#908f9c" x="351.51" y="366.00" width="62.90" height="0.50" rx="0.25"/>
<path fill="#908f9c" d="
  M 440.25 366.39
  Q 440.12 366.30 440.00 366.04
  Q 465.10 365.66 490.20 365.95
  C 490.47 365.96 490.79 366.10 490.99 366.25
  Q 491.29 366.47 490.92 366.47
  L 440.25 366.39
  Z"
/>
<rect fill="#908f9c" x="-23.17" y="-0.31" transform="translate(525.04,366.18) rotate(0.1)" width="46.34" height="0.62" rx="0.29"/>
</svg>
