<?xml version="1.0" encoding="UTF-8" standalone="no"?>
<!DOCTYPE svg PUBLIC "-//W3C//DTD SVG 1.1//EN" "http://www.w3.org/Graphics/SVG/1.1/DTD/svg11.dtd">
<svg xmlns="http://www.w3.org/2000/svg" version="1.1" viewBox="0.00 0.00 533.00 468.00">
<g stroke-width="2.00" fill="none" stroke-linecap="butt">
<path stroke="#37364c" vector-effect="non-scaling-stroke" d="
  M 331.46 423.75
  Q 332.47 424.11 332.25 424.96"
/>
<path stroke="#684856" vector-effect="non-scaling-stroke" d="
  M 352.00 403.71
  L 344.75 403.96"
/>
<path stroke="#684856" vector-effect="non-scaling-stroke" d="
  M 398.50 403.21
  Q 394.74 404.37 390.79 404.00"
/>
<path stroke="#684856" vector-effect="non-scaling-stroke" d="
  M 404.75 348.04
  L 387.21 352.50"
/>
<path stroke="#684856" vector-effect="non-scaling-stroke" d="
  M 357.79 353.75
  L 340.96 351.50"
/>
<path stroke="#ba8569" vector-effect="non-scaling-stroke" d="
  M 371.75 224.54
  Q 371.31 231.03 371.96 237.91"
/>
<path stroke="#684856" vector-effect="non-scaling-stroke" d="
  M 371.96 237.91
  Q 363.65 260.13 354.65 282.10
  C 352.55 287.22 353.03 295.02 352.50 300.63
  C 351.79 308.06 342.26 304.82 345.64 297.69
  Q 345.81 297.34 345.47 297.52
  L 345.24 297.64
  Q 344.79 297.88 344.77 297.38
  L 344.71 296.25"
/>
<path stroke="#704f60" vector-effect="non-scaling-stroke" d="
  M 353.29 252.00
  L 354.20 250.98
  Q 354.50 250.65 354.58 250.20
  L 356.76 239.06"
/>
<path stroke="#816b55" vector-effect="non-scaling-stroke" d="
  M 384.96 237.25
  L 371.96 237.91"
/>
<path stroke="#684856" vector-effect="non-scaling-stroke" d="
  M 392.25 248.54
  Q 389.79 246.12 389.00 242.79"
/>
<path stroke="#ba8569" vector-effect="non-scaling-stroke" d="
  M 361.00 209.29
  L 358.83 211.29
  Q 358.44 211.64 358.43 212.17
  L 358.29 218.00"
/>
<path stroke="#ba8569" vector-effect="non-scaling-stroke" d="
  M 356.50 224.54
  Q 356.93 224.76 357.46 224.77
  Q 357.97 224.77 357.95 225.27
  C 357.83 228.63 358.50 236.57 356.76 239.06"
/>
<path stroke="#89735f" vector-effect="non-scaling-stroke" d="
  M 356.76 239.06
  L 354.29 239.50"
/>
<path stroke="#816b55" vector-effect="non-scaling-stroke" d="
  M 399.00 197.21
  Q 398.90 197.28 398.79 197.36
  Q 398.66 197.45 398.69 197.61
  L 400.04 207.00"
/>
<path stroke="#684856" vector-effect="non-scaling-stroke" d="
  M 400.04 207.00
  L 402.29 222.75"
/>
<path stroke="#816b55" vector-effect="non-scaling-stroke" d="
  M 386.04 224.75
  L 371.75 224.54"
/>
<path stroke="#684856" vector-effect="non-scaling-stroke" d="
  M 371.75 224.54
  L 356.50 224.54"
/>
<path stroke="#816b55" vector-effect="non-scaling-stroke" d="
  M 356.50 224.54
  Q 356.91 221.15 358.29 218.00"
/>
<path stroke="#684856" vector-effect="non-scaling-stroke" d="
  M 358.29 218.00
  L 361.00 209.29"
/>
<path stroke="#816b55" vector-effect="non-scaling-stroke" d="
  M 361.00 209.29
  Q 365.04 195.76 365.34 181.83"
/>
<path stroke="#684856" vector-effect="non-scaling-stroke" d="
  M 364.54 171.50
  Q 363.68 159.73 357.50 149.71"
/>
<path stroke="#ba8569" vector-effect="non-scaling-stroke" d="
  M 404.71 206.25
  L 400.04 207.00"
/>
<path stroke="#93929e" vector-effect="non-scaling-stroke" d="
  M 72.92 290.95
  Q 72.00 303.99 72.77 316.99"
/>
<path stroke="#93929e" vector-effect="non-scaling-stroke" d="
  M 245.47 336.75
  L 245.69 286.98
  Q 245.69 286.69 245.50 286.48
  L 245.29 286.25"
/>
<path stroke="#ddc7a7" vector-effect="non-scaling-stroke" d="
  M 151.75 122.50
  L 152.04 123.75"
/>
<path stroke="#93929e" vector-effect="non-scaling-stroke" d="
  M 152.04 123.75
  Q 153.29 139.15 145.94 152.19
  Q 145.69 152.62 145.00 152.54"
/>
<path stroke="#93929e" vector-effect="non-scaling-stroke" d="
  M 143.29 155.75
  Q 142.85 169.13 143.71 182.50"
/>
<path stroke="#ddc7a7" vector-effect="non-scaling-stroke" d="
  M 143.71 182.50
  Q 142.44 181.79 142.38 182.75"
/>
<path stroke="#ddc7a7" vector-effect="non-scaling-stroke" d="
  M 151.75 198.96
  L 153.50 197.71"
/>
<path stroke="#93929e" vector-effect="non-scaling-stroke" d="
  M 153.50 197.71
  L 167.21 197.75"
/>
<path stroke="#ddc7a7" vector-effect="non-scaling-stroke" d="
  M 167.21 197.75
  L 168.50 198.46"
/>
<path stroke="#93929e" vector-effect="non-scaling-stroke" d="
  M 175.34 184.99
  L 175.27 157.42
  Q 175.26 156.91 174.98 156.49
  C 167.43 145.36 165.57 136.05 164.75 122.79"
/>
<path stroke="#ddc7a7" vector-effect="non-scaling-stroke" d="
  M 165.46 121.00
  L 165.39 114.97
  Q 165.38 114.39 164.81 114.30
  C 161.16 113.75 149.27 111.66 148.74 116.24
  Q 148.33 119.73 151.75 122.50"
/>
<path stroke="#89735f" vector-effect="non-scaling-stroke" d="
  M 164.50 121.54
  Q 159.41 120.46 154.25 121.17
  Q 153.78 121.23 153.77 121.72
  Q 153.74 123.38 152.04 123.75"
/>
<path stroke="#89735f" vector-effect="non-scaling-stroke" d="
  M 173.29 197.50
  Q 170.19 196.76 167.21 197.75"
/>
<path stroke="#89735f" vector-effect="non-scaling-stroke" d="
  M 153.50 197.71
  Q 149.68 196.71 144.91 197.12"
/>
<path stroke="#89735f" vector-effect="non-scaling-stroke" d="
  M 143.21 184.25
  L 143.71 182.50"
/>
<path stroke="#89735f" vector-effect="non-scaling-stroke" d="
  M 151.52 167.50
  L 148.53 167.50
  Q 148.03 167.50 147.71 167.89
  C 146.03 169.90 149.42 186.94 149.98 190.42
  Q 150.06 190.93 150.58 190.94
  L 167.98 191.03
  Q 168.57 191.03 168.67 190.45
  L 172.43 169.68
  A 1.85 1.85 0.0 0 0 170.61 167.50
  L 167.77 167.50
  Q 167.27 167.50 167.14 167.02
  C 165.01 158.92 154.50 158.92 152.19 167.00
  Q 152.04 167.50 151.52 167.50"
/>
</g>
<path fill="#3f3d56" d="
  M 331.46 423.75
  Q 332.47 424.11 332.25 424.96
  Q 281.13 425.04 230.00 424.96
  C 226.37 424.96 222.57 425.74 219.24 425.74
  Q 157.50 425.76 95.75 425.75
  C 82.15 425.74 68.55 415.27 64.73 401.93
  Q 63.29 396.89 63.27 383.30
  C 63.13 281.21 63.23 179.10 63.29 77.00
  C 63.30 61.26 72.46 47.94 87.69 43.63
  Q 92.62 42.23 102.44 42.24
  Q 160.48 42.27 218.50 42.26
  C 233.99 42.26 247.40 51.88 251.52 66.77
  Q 252.79 71.36 252.72 81.84
  Q 252.56 107.05 253.27 132.25
  Q 253.29 132.78 254.17 133.81
  Q 254.47 134.16 254.47 134.62
  L 254.82 173.84
  Q 254.83 174.50 254.16 174.50
  L 253.45 174.50
  Q 252.75 174.50 252.75 175.20
  Q 252.74 280.43 252.75 385.65
  Q 252.76 396.64 251.30 401.70
  Q 247.11 416.25 232.35 423.12
  A 0.33 0.33 0.0 0 0 232.49 423.75
  L 331.46 423.75
  Z
  M 72.92 290.95
  Q 72.00 303.99 72.77 316.99
  Q 72.35 351.32 72.53 385.64
  Q 72.59 396.05 74.14 400.57
  Q 78.24 412.49 91.81 416.45
  C 96.15 417.72 103.83 416.99 107.21 417.01
  Q 162.09 417.34 216.98 416.97
  Q 224.73 416.92 228.86 415.52
  C 241.35 411.29 245.49 401.14 245.50 388.77
  Q 245.51 362.76 245.47 336.75
  L 245.69 286.98
  Q 245.69 286.69 245.50 286.48
  L 245.29 286.25
  Q 245.79 182.40 245.56 78.55
  C 245.52 62.63 236.99 51.92 220.49 51.03
  Q 212.99 50.63 205.38 50.88
  Q 204.88 50.90 204.97 51.39
  C 206.97 61.91 200.89 67.28 191.20 67.27
  Q 158.73 67.22 126.26 67.26
  C 116.44 67.28 110.18 62.31 112.13 51.38
  Q 112.23 50.82 111.66 50.81
  C 96.17 50.28 79.72 50.45 74.01 67.86
  Q 72.50 72.45 72.50 83.31
  C 72.49 152.49 71.81 221.78 72.92 290.95
  Z"
/>
<path fill="#e6e6e6" d="
  M 224.05 210.01
  A 1.44 1.44 0.0 0 1 222.61 211.45
  L 95.45 211.45
  A 1.44 1.44 0.0 0 1 94.01 210.01
  L 94.01 101.71
  A 1.44 1.44 0.0 0 1 95.45 100.27
  L 222.61 100.27
  A 1.44 1.44 0.0 0 1 224.05 101.71
  L 224.05 210.01
  Z
  M 151.75 122.50
  L 152.04 123.75
  Q 153.29 139.15 145.94 152.19
  Q 145.69 152.62 145.00 152.54
  Q 142.59 153.33 143.29 155.75
  Q 142.85 169.13 143.71 182.50
  Q 142.44 181.79 142.38 182.75
  C 139.58 187.56 138.42 196.12 144.09 199.31
  Q 147.54 201.25 151.75 198.96
  L 153.50 197.71
  L 167.21 197.75
  L 168.50 198.46
  Q 174.62 200.51 178.00 195.71
  C 178.86 194.48 175.86 186.47 175.34 184.99
  L 175.27 157.42
  Q 175.26 156.91 174.98 156.49
  C 167.43 145.36 165.57 136.05 164.75 122.79
  Q 165.95 122.40 165.46 121.00
  L 165.39 114.97
  Q 165.38 114.39 164.81 114.30
  C 161.16 113.75 149.27 111.66 148.74 116.24
  Q 148.33 119.73 151.75 122.50
  Z"
/>
<path fill="#d3a868" d="
  M 165.46 121.00
  L 164.50 121.54
  Q 159.41 120.46 154.25 121.17
  Q 153.78 121.23 153.77 121.72
  Q 153.74 123.38 152.04 123.75
  L 151.75 122.50
  L 152.36 123.02
  A 0.30 0.29 -58.1 0 0 152.81 122.91
  Q 153.35 121.70 152.43 121.00
  Q 152.08 120.73 152.06 120.29
  L 151.84 115.04
  Q 151.79 113.90 150.99 114.72
  C 149.86 115.86 151.44 120.88 151.75 122.50
  Q 148.33 119.73 148.74 116.24
  C 149.27 111.66 161.16 113.75 164.81 114.30
  Q 165.38 114.39 165.39 114.97
  L 165.46 121.00
  Z"
/>
<path fill="#3f3d56" d="
  M 164.50 121.54
  L 164.75 122.79
  C 165.57 136.05 167.43 145.36 174.98 156.49
  Q 175.26 156.91 175.27 157.42
  L 175.34 184.99
  C 175.31 188.09 175.82 195.49 173.29 197.50
  Q 170.19 196.76 167.21 197.75
  L 153.50 197.71
  Q 149.68 196.71 144.91 197.12
  L 143.21 184.25
  L 143.71 182.50
  Q 142.85 169.13 143.29 155.75
  Q 144.61 154.39 145.00 152.54
  Q 145.69 152.62 145.94 152.19
  Q 153.29 139.15 152.04 123.75
  Q 153.74 123.38 153.77 121.72
  Q 153.78 121.23 154.25 121.17
  Q 159.41 120.46 164.50 121.54
  Z
  M 151.52 167.50
  L 148.53 167.50
  Q 148.03 167.50 147.71 167.89
  C 146.03 169.90 149.42 186.94 149.98 190.42
  Q 150.06 190.93 150.58 190.94
  L 167.98 191.03
  Q 168.57 191.03 168.67 190.45
  L 172.43 169.68
  A 1.85 1.85 0.0 0 0 170.61 167.50
  L 167.77 167.50
  Q 167.27 167.50 167.14 167.02
  C 165.01 158.92 154.50 158.92 152.19 167.00
  Q 152.04 167.50 151.52 167.50
  Z"
/>
<path fill="#2f2e41" d="
  M 399.00 197.21
  Q 398.90 197.28 398.79 197.36
  Q 398.66 197.45 398.69 197.61
  L 400.04 207.00
  L 402.29 222.75
  Q 402.06 223.39 402.22 223.89
  A 0.57 0.56 -9.7 0 1 401.69 224.63
  L 386.04 224.75
  L 371.75 224.54
  L 356.50 224.54
  Q 356.91 221.15 358.29 218.00
  L 361.00 209.29
  Q 365.04 195.76 365.34 181.83
  Q 365.77 176.48 364.54 171.50
  Q 363.68 159.73 357.50 149.71
  L 356.06 146.47
  Q 355.85 145.99 356.04 145.50
  C 363.12 126.97 390.40 135.17 392.53 151.40
  Q 395.41 173.24 398.40 195.07
  Q 398.56 196.17 399.00 197.21
  Z"
/>
<path fill="#a0616a" d="
  M 357.50 149.71
  Q 363.68 159.73 364.54 171.50
  Q 351.03 164.11 357.50 149.71
  Z"
/>
<path fill="#d3a868" d="
  M 152.19 167.00
  C 154.50 158.92 165.01 158.92 167.14 167.02
  Q 167.27 167.50 167.77 167.50
  L 170.61 167.50
  A 1.85 1.85 0.0 0 1 172.43 169.68
  L 168.67 190.45
  Q 168.57 191.03 167.98 191.03
  L 150.58 190.94
  Q 150.06 190.93 149.98 190.42
  C 149.42 186.94 146.03 169.90 147.71 167.89
  Q 148.03 167.50 148.53 167.50
  L 151.52 167.50
  Q 152.04 167.50 152.19 167.00
  Z"
/>
<path fill="#d3a868" d="
  M 365.34 181.83
  Q 365.04 195.76 361.00 209.29
  L 358.83 211.29
  Q 358.44 211.64 358.43 212.17
  L 358.29 218.00
  Q 356.91 221.15 356.50 224.54
  Q 356.93 224.76 357.46 224.77
  Q 357.97 224.77 357.95 225.27
  C 357.83 228.63 358.50 236.57 356.76 239.06
  L 354.29 239.50
  C 348.72 223.13 344.75 203.58 357.45 189.95
  Q 357.79 189.58 357.84 189.08
  Q 358.48 182.49 365.34 181.83
  Z"
/>
<path fill="#d3a868" d="
  M 143.71 182.50
  L 143.21 184.25
  L 142.38 182.75
  Q 142.44 181.79 143.71 182.50
  Z"
/>
<path fill="#d3a868" d="
  M 153.50 197.71
  L 151.75 198.96
  C 151.97 197.87 146.23 197.55 144.91 197.12
  Q 149.68 196.71 153.50 197.71
  Z"
/>
<path fill="#d3a868" d="
  M 173.29 197.50
  C 172.37 197.96 168.65 198.09 168.50 198.46
  L 167.21 197.75
  Q 170.19 196.76 173.29 197.50
  Z"
/>
<path fill="#d3a868" d="
  M 399.00 197.21
  L 405.29 204.62
  Q 405.70 205.11 405.29 205.58
  L 404.71 206.25
  L 400.04 207.00
  L 398.69 197.61
  Q 398.66 197.45 398.79 197.36
  Q 398.90 197.28 399.00 197.21
  Z"
/>
<path fill="#a0616a" d="
  M 404.71 206.25
  L 404.63 206.50
  Q 404.58 206.67 404.69 206.80
  Q 410.69 213.73 416.61 220.73
  C 419.80 224.51 421.80 228.28 416.96 231.71
  Q 406.98 238.79 392.25 248.54
  Q 389.79 246.12 389.00 242.79
  L 405.58 226.75
  Q 405.95 226.38 405.67 225.95
  Q 404.35 223.93 402.29 222.75
  L 400.04 207.00
  L 404.71 206.25
  Z"
/>
<path fill="#a0616a" d="
  M 361.00 209.29
  L 358.29 218.00
  L 358.43 212.17
  Q 358.44 211.64 358.83 211.29
  L 361.00 209.29
  Z"
/>
<path fill="#d3a868" d="
  M 142.17 225.21
  A 9.47 9.47 0.0 0 1 132.70 234.68
  A 9.47 9.47 0.0 0 1 123.23 225.21
  A 9.47 9.47 0.0 0 1 132.70 215.74
  A 9.47 9.47 0.0 0 1 142.17 225.21
  Z
  M 134.04 224.35
  A 0.54 0.54 0.0 0 1 133.55 223.87
  L 133.21 220.76
  A 0.54 0.54 0.0 0 0 132.13 220.77
  L 131.83 223.88
  A 0.54 0.54 0.0 0 1 131.35 224.37
  L 128.24 224.71
  A 0.54 0.54 0.0 0 0 128.25 225.79
  L 131.36 226.09
  A 0.54 0.54 0.0 0 1 131.85 226.57
  L 132.19 229.68
  A 0.54 0.54 0.0 0 0 133.27 229.67
  L 133.57 226.56
  A 0.54 0.54 0.0 0 1 134.05 226.07
  L 137.16 225.73
  A 0.54 0.54 0.0 0 0 137.15 224.65
  L 134.04 224.35
  Z"
/>
<path fill="#d3a868" d="
  M 192.30 225.20
  A 9.45 9.45 0.0 0 1 182.85 234.65
  A 9.45 9.45 0.0 0 1 173.40 225.20
  A 9.45 9.45 0.0 0 1 182.85 215.75
  A 9.45 9.45 0.0 0 1 192.30 225.20
  Z
  M 187.73 225.19
  A 0.70 0.70 0.0 0 0 187.03 224.49
  L 178.67 224.49
  A 0.70 0.70 0.0 0 0 177.97 225.19
  L 177.97 225.29
  A 0.70 0.70 0.0 0 0 178.67 225.99
  L 187.03 225.99
  A 0.70 0.70 0.0 0 0 187.73 225.29
  L 187.73 225.19
  Z"
/>
<path fill="#a0616a" d="
  M 356.50 224.54
  L 371.75 224.54
  Q 371.31 231.03 371.96 237.91
  Q 363.65 260.13 354.65 282.10
  C 352.55 287.22 353.03 295.02 352.50 300.63
  C 351.79 308.06 342.26 304.82 345.64 297.69
  Q 345.81 297.34 345.47 297.52
  L 345.24 297.64
  Q 344.79 297.88 344.77 297.38
  L 344.71 296.25
  C 345.08 290.69 344.85 285.53 346.33 280.10
  Q 350.14 266.13 353.29 252.00
  L 354.20 250.98
  Q 354.50 250.65 354.58 250.20
  L 356.76 239.06
  C 358.50 236.57 357.83 228.63 357.95 225.27
  Q 357.97 224.77 357.46 224.77
  Q 356.93 224.76 356.50 224.54
  Z"
/>
<path fill="#d3a868" d="
  M 371.75 224.54
  L 386.04 224.75
  Q 384.95 230.95 384.96 237.25
  L 371.96 237.91
  Q 371.31 231.03 371.75 224.54
  Z"
/>
<path fill="#2f2e41" d="
  M 384.96 237.25
  L 388.18 242.43
  Q 388.37 242.72 388.71 242.76
  Q 388.85 242.78 389.00 242.79
  Q 389.79 246.12 392.25 248.54
  L 392.25 248.96
  Q 392.25 249.27 392.40 249.55
  C 408.31 278.45 412.29 310.43 417.98 342.33
  A 0.76 0.75 74.7 0 1 417.51 343.17
  L 404.75 348.04
  L 387.21 352.50
  Q 372.54 354.11 357.79 353.75
  L 340.96 351.50
  L 331.45 349.14
  A 0.89 0.88 14.6 0 1 330.81 348.06
  L 344.71 296.25
  L 344.77 297.38
  Q 344.79 297.88 345.24 297.64
  L 345.47 297.52
  Q 345.81 297.34 345.64 297.69
  C 342.26 304.82 351.79 308.06 352.50 300.63
  C 353.03 295.02 352.55 287.22 354.65 282.10
  Q 363.65 260.13 371.96 237.91
  L 384.96 237.25
  Z"
/>
<path fill="#3f3d56" d="
  M 356.76 239.06
  L 354.58 250.20
  Q 354.50 250.65 354.20 250.98
  L 353.29 252.00
  L 354.29 239.50
  L 356.76 239.06
  Z"
/>
<path fill="#e6e6e6" d="
  M 95.81 367.86
  A 1.88 1.88 0.0 0 1 93.97 365.96
  Q 94.13 341.95 93.84 318.34
  C 93.79 314.18 92.09 310.55 92.03 306.47
  C 91.96 301.66 91.23 296.90 92.53 292.16
  Q 93.66 288.05 93.72 286.00
  Q 94.13 272.31 93.98 258.52
  A 1.75 1.75 0.0 0 1 95.73 256.75
  L 222.48 256.75
  Q 224.23 256.75 224.23 258.50
  C 224.25 269.14 224.13 278.74 224.97 290.10
  Q 226.21 306.79 225.11 323.47
  C 224.13 338.54 224.23 351.04 224.20 364.95
  Q 224.20 368.16 221.27 368.16
  C 205.17 368.17 189.25 368.80 173.01 368.42
  C 147.28 367.82 121.46 368.47 95.81 367.86
  Z
  M 135.34 345.86
  Q 137.26 347.45 135.99 345.30
  Q 132.57 339.51 131.04 332.32
  C 129.97 327.30 133.90 320.77 138.82 319.34
  Q 141.05 318.70 144.56 319.93
  C 149.52 321.66 154.49 323.85 159.39 324.70
  C 169.46 326.45 179.69 324.93 189.70 327.55
  Q 190.18 327.67 190.38 328.12
  L 191.81 331.41
  Q 192.05 331.95 192.62 331.79
  C 194.42 331.28 194.56 329.64 195.19 328.50
  Q 199.74 320.35 198.61 310.95
  Q 195.95 288.59 178.19 278.84
  C 155.80 266.54 127.45 278.14 120.71 302.97
  C 116.24 319.47 122.47 335.16 135.34 345.86
  Z"
/>
<path fill="#e6e6e6" d="
  M 245.29 286.25
  L 245.50 286.48
  Q 245.69 286.69 245.69 286.98
  L 245.47 336.75
  Q 243.92 311.50 245.29 286.25
  Z"
/>
<path fill="#e6e6e6" d="
  M 72.92 290.95
  C 80.05 292.22 77.92 301.54 78.16 306.38
  C 78.38 310.80 75.77 314.08 72.77 316.99
  Q 72.00 303.99 72.92 290.95
  Z"
/>
<circle fill="#f9a825" cx="164.20" cy="310.76" r="13.13"/>
<path fill="#a0616a" d="
  M 404.75 348.04
  L 398.50 403.21
  Q 394.74 404.37 390.79 404.00
  L 387.21 352.50
  L 404.75 348.04
  Z"
/>
<path fill="#a0616a" d="
  M 357.79 353.75
  L 352.00 403.71
  L 344.75 403.96
  L 340.96 351.50
  L 357.79 353.75
  Z"
/>
<path fill="#d3a868" d="
  M 142.18 381.76
  A 9.47 9.47 0.0 0 1 132.71 391.23
  A 9.47 9.47 0.0 0 1 123.24 381.76
  A 9.47 9.47 0.0 0 1 132.71 372.29
  A 9.47 9.47 0.0 0 1 142.18 381.76
  Z
  M 131.98 383.15
  L 132.01 386.01
  Q 132.01 386.50 132.51 386.50
  L 132.87 386.50
  Q 133.50 386.50 133.50 385.87
  L 133.50 383.25
  Q 133.50 382.64 134.11 382.56
  C 134.90 382.46 137.51 382.92 137.54 381.76
  Q 137.56 381.02 136.82 381.02
  L 134.12 380.99
  Q 133.50 380.99 133.50 380.37
  L 133.50 377.37
  A 0.51 0.51 0.0 0 0 132.65 376.99
  L 131.93 377.63
  Q 131.53 377.98 131.75 378.46
  Q 132.25 379.57 131.89 380.70
  Q 131.72 381.23 131.17 381.09
  Q 129.32 380.61 127.74 381.51
  Q 126.03 382.47 127.99 382.48
  L 131.34 382.51
  Q 131.98 382.51 131.98 383.15
  Z"
/>
<path fill="#d3a868" d="
  M 192.29 381.73
  A 9.45 9.45 0.0 0 1 182.84 391.18
  A 9.45 9.45 0.0 0 1 173.39 381.73
  A 9.45 9.45 0.0 0 1 182.84 372.28
  A 9.45 9.45 0.0 0 1 192.29 381.73
  Z
  M 187.7000 381.7384
  A 0.72 0.72 0.0 0 0 186.9813 381.0172
  L 178.7413 381.0028
  A 0.72 0.72 0.0 0 0 178.0201 381.7216
  L 178.0200 381.7816
  A 0.72 0.72 0.0 0 0 178.7387 382.5028
  L 186.9787 382.5172
  A 0.72 0.72 0.0 0 0 187.6999 381.7984
  L 187.7000 381.7384
  Z"
/>
<path fill="#2f2e41" d="
  M 398.50 403.21
  Q 404.10 411.84 400.29 423.11
  Q 400.08 423.76 400.76 423.76
  L 469.21 423.75
  A 0.54 0.54 0.0 0 1 469.75 424.30
  C 469.72 425.24 468.76 425.01 468.13 425.01
  Q 400.19 424.98 332.25 424.96
  Q 332.47 424.11 331.46 423.75
  Q 331.45 422.80 330.90 422.04
  Q 330.63 421.66 330.62 421.20
  C 330.55 417.95 334.64 417.98 336.89 417.20
  Q 337.37 417.03 337.62 416.58
  L 344.75 403.96
  L 352.00 403.71
  Q 358.43 412.77 353.84 423.10
  Q 353.55 423.75 354.26 423.75
  L 377.27 423.75
  Q 378.17 423.75 377.63 423.02
  C 374.48 418.78 380.32 417.93 382.87 417.42
  Q 383.38 417.31 383.64 416.85
  L 390.79 404.00
  Q 394.74 404.37 398.50 403.21
  Z
  M 342.94 423.18
  A 0.31 0.31 0.0 0 0 343.10 423.75
  L 350.18 423.75
  A 0.31 0.31 0.0 0 0 350.44 423.27
  L 348.36 420.15
  A 0.31 0.31 0.0 0 0 347.93 420.06
  L 342.94 423.18
  Z
  M 389.27 423.82
  L 396.18 423.72
  Q 397.08 423.71 396.54 422.99
  L 394.49 420.26
  Q 393.93 419.51 393.33 420.24
  Q 391.70 422.27 389.23 422.91
  Q 389.00 422.97 389.00 423.20
  Q 389.00 423.36 388.99 423.53
  A 0.28 0.27 -90.0 0 0 389.27 423.82
  Z"
/>
</svg>
