<?xml version="1.0" encoding="UTF-8" standalone="no"?>
<!DOCTYPE svg PUBLIC "-//W3C//DTD SVG 1.1//EN" "http://www.w3.org/Graphics/SVG/1.1/DTD/svg11.dtd">
<svg xmlns="http://www.w3.org/2000/svg" version="1.1" viewBox="0.00 0.00 565.00 442.00">
<g stroke-width="2.00" fill="none" stroke-linecap="butt">
<path stroke="#89735f" vector-effect="non-scaling-stroke" d="
  M 283.25 251.29
  L 276.50 253.04"
/>
<path stroke="#89735f" vector-effect="non-scaling-stroke" d="
  M 270.00 253.04
  Q 269.57 252.69 269.61 251.75
  Q 271.33 215.32 275.07 183.59
  C 275.97 175.96 277.24 161.83 279.14 151.00
  Q 279.22 150.53 279.68 150.38
  C 287.28 147.92 294.29 144.76 301.62 141.61
  C 309.14 138.37 320.42 134.28 329.60 129.87
  A 0.57 0.57 0.0 0 0 329.46 128.80
  Q 328.54 128.62 327.57 129.08
  C 312.10 136.23 296.06 142.07 280.39 149.03
  A 0.62 0.62 0.0 0 1 279.53 148.36
  C 282.35 130.97 285.80 113.60 289.12 96.21
  Q 291.65 82.93 295.29 69.89
  Q 295.58 68.82 294.67 68.78
  Q 294.09 68.75 293.92 69.31
  C 290.80 79.83 288.56 92.44 286.76 100.88
  Q 280.37 130.74 276.08 161.09
  Q 275.97 161.81 275.38 161.40
  L 231.48 131.97
  A 0.74 0.74 0.0 0 0 230.51 132.10
  Q 229.78 132.94 230.70 133.54
  Q 246.88 144.02 262.85 154.83
  C 266.86 157.55 270.77 160.72 275.67 162.87
  Q 276.10 163.06 276.03 163.52
  C 271.95 192.64 268.38 222.90 268.22 252.33
  Q 268.21 252.70 267.84 252.75
  Q 267.66 252.78 267.50 252.79"
/>
<path stroke="#89735f" vector-effect="non-scaling-stroke" d="
  M 245.89 237.89
  C 241.03 230.45 237.54 223.42 232.96 211.00"
/>
<path stroke="#89735f" vector-effect="non-scaling-stroke" d="
  M 252.75 62.54
  L 258.50 54.79"
/>
<path stroke="#89735f" vector-effect="non-scaling-stroke" d="
  M 119.79 320.00
  Q 119.02 345.36 118.75 370.76
  C 118.55 388.28 129.10 397.53 146.25 397.53
  Q 196.68 397.50 247.12 397.50
  Q 256.15 397.50 259.81 396.49
  C 270.09 393.64 277.56 385.21 277.47 374.24
  Q 277.28 347.27 276.50 320.29"
/>
<path stroke="#37364c" vector-effect="non-scaling-stroke" d="
  M 337.25 402.29
  L 335.50 403.21"
/>
<path stroke="#89735f" vector-effect="non-scaling-stroke" d="
  M 270.50 317.96
  L 268.71 317.25"
/>
<path stroke="#89735f" vector-effect="non-scaling-stroke" d="
  M 222.29 290.75
  Q 222.72 272.33 225.77 253.50
  Q 225.87 252.86 226.46 252.60
  L 243.70 245.05
  Q 244.02 244.91 244.00 244.56
  Q 244.00 244.40 244.01 244.20
  Q 244.06 243.43 243.35 243.72
  L 226.65 250.57
  Q 226.12 250.79 226.22 250.22
  L 231.40 222.17
  A 0.58 0.58 0.0 0 0 231.05 221.52
  Q 230.39 221.25 230.23 221.96
  Q 226.56 238.43 223.79 255.27
  Q 223.70 255.84 223.22 255.51
  L 206.50 243.96"
/>
<path stroke="#89735f" vector-effect="non-scaling-stroke" d="
  M 220.46 290.50
  Q 221.27 274.18 223.44 257.95
  Q 223.51 257.44 223.08 257.14
  L 206.01 245.12"
/>
<path stroke="#93929e" vector-effect="non-scaling-stroke" d="
  M 216.40 219.28
  Q 213.39 229.74 207.94 239.24
  C 207.04 240.81 206.86 242.25 206.50 243.96"
/>
<path stroke="#ddc7a7" vector-effect="non-scaling-stroke" d="
  M 206.50 243.96
  L 206.00 244.29"
/>
<path stroke="#93929e" vector-effect="non-scaling-stroke" d="
  M 178.75 261.71
  L 177.68 261.22
  Q 177.19 261.00 177.21 260.47
  C 178.42 235.33 180.64 216.35 183.02 194.25
  Q 183.36 191.15 184.05 188.16
  Q 184.16 187.67 184.63 187.47
  C 187.83 186.12 191.32 185.26 194.32 183.95
  Q 207.39 178.24 220.59 172.77
  A 0.47 0.46 -43.9 0 0 220.61 171.92
  C 218.27 170.86 190.86 183.58 186.43 185.46
  Q 184.79 186.15 184.74 184.38
  Q 184.69 182.85 185.41 181.65
  Q 185.68 181.22 185.61 180.71
  Q 185.32 178.53 186.46 176.50"
/>
<path stroke="#8b8a94" vector-effect="non-scaling-stroke" d="
  M 186.46 176.50
  L 186.71 175.00"
/>
<path stroke="#93929e" vector-effect="non-scaling-stroke" d="
  M 186.71 175.00
  Q 186.35 173.91 186.57 172.76
  Q 190.71 150.78 195.73 128.34
  A 0.49 0.48 5.5 0 0 195.24 127.75
  Q 195.04 127.76 194.88 127.75
  Q 194.66 127.75 194.61 127.96
  Q 188.04 153.67 183.60 179.82
  Q 183.17 182.32 182.46 184.75"
/>
<path stroke="#8b8a94" vector-effect="non-scaling-stroke" d="
  M 180.57 187.85
  Q 178.01 189.20 175.25 189.29"
/>
<path stroke="#93929e" vector-effect="non-scaling-stroke" d="
  M 168.95 186.49
  Q 167.19 186.27 166.12 184.88
  Q 165.84 184.52 165.40 184.41
  Q 164.59 184.22 164.27 183.99
  Q 157.10 178.87 149.73 174.02
  Q 149.31 173.74 148.81 173.75
  L 147.54 173.75"
/>
<path stroke="#f3a6b5" vector-effect="non-scaling-stroke" d="
  M 199.79 106.75
  C 199.42 107.29 198.93 107.51 198.29 107.25
  Q 187.78 102.96 178.35 109.35
  Q 172.97 113.00 171.52 114.52
  C 166.91 119.37 160.06 128.99 157.46 137.00"
/>
<path stroke="#93929e" vector-effect="non-scaling-stroke" d="
  M 170.46 187.25
  Q 170.29 187.21 170.16 187.26
  Q 169.93 187.36 170.08 187.56
  Q 172.17 190.32 175.46 191.18"
/>
<path stroke="#93929e" vector-effect="non-scaling-stroke" d="
  M 181.25 195.04
  Q 180.54 195.82 181.25 196.75"
/>
<path stroke="#93929e" vector-effect="non-scaling-stroke" d="
  M 181.25 196.75
  L 180.80 196.75
  Q 180.33 196.75 179.95 196.47
  C 172.64 191.03 164.66 186.34 157.39 181.27
  C 155.85 180.19 148.92 174.93 147.54 175.00"
/>
<path stroke="#37364c" vector-effect="non-scaling-stroke" d="
  M 186.71 175.00
  C 185.76 174.70 185.66 176.31 186.46 176.50"
/>
<path stroke="#89735f" vector-effect="non-scaling-stroke" d="
  M 177.75 305.21
  L 175.79 305.50"
/>
<path stroke="#93929e" vector-effect="non-scaling-stroke" d="
  M 175.46 261.75
  Q 176.17 261.00 175.69 259.90
  Q 175.49 259.44 175.52 258.93
  Q 177.21 227.74 181.25 196.75"
/>
<path stroke="#93929e" vector-effect="non-scaling-stroke" d="
  M 181.25 196.75
  Q 182.44 195.94 181.50 194.96"
/>
<path stroke="#93929e" vector-effect="non-scaling-stroke" d="
  M 182.25 189.88
  Q 183.43 187.88 182.54 185.50"
/>
<path stroke="#97747d" vector-effect="non-scaling-stroke" d="
  M 449.50 386.96
  L 443.50 387.71"
/>
<path stroke="#97747d" vector-effect="non-scaling-stroke" d="
  M 384.04 386.75
  Q 381.75 387.91 379.21 387.50"
/>
<path stroke="#f3d0d0" vector-effect="non-scaling-stroke" d="
  M 450.54 350.73
  L 450.52 342.05
  Q 450.52 341.61 450.10 341.49
  L 438.57 338.14
  Q 437.89 337.94 437.98 338.64
  L 438.87 345.11
  Q 438.94 345.65 438.40 345.72
  L 436.50 345.96"
/>
<path stroke="#f3d0d0" vector-effect="non-scaling-stroke" d="
  M 400.50 343.71
  L 399.48 343.01
  Q 399.06 342.73 399.24 342.26
  L 401.62 335.72
  Q 401.92 334.90 401.05 334.97
  L 388.92 336.02
  Q 388.35 336.07 388.26 336.64
  L 387.59 340.85
  Q 387.50 341.37 387.12 341.73
  L 386.00 342.79"
/>
<path stroke="#93929e" vector-effect="non-scaling-stroke" d="
  M 405.21 293.00
  Q 406.92 294.66 409.19 295.19
  Q 410.57 295.52 409.36 294.78
  L 405.50 292.46"
/>
<path stroke="#f3d0d0" vector-effect="non-scaling-stroke" d="
  M 447.96 259.50
  L 447.49 259.63
  Q 447.04 259.76 446.67 259.46
  Q 441.68 255.43 438.29 250.00"
/>
<path stroke="#f3d0d0" vector-effect="non-scaling-stroke" d="
  M 420.04 244.00
  C 417.76 255.30 412.91 266.18 408.01 278.73
  C 406.24 283.27 406.18 287.67 405.50 292.46"
/>
<path stroke="#9f7b88" vector-effect="non-scaling-stroke" d="
  M 405.50 292.46
  L 405.21 293.00"
/>
<path stroke="#f3d0d0" vector-effect="non-scaling-stroke" d="
  M 405.21 293.00
  Q 398.72 298.40 394.29 291.25"
/>
<path stroke="#9f7b88" vector-effect="non-scaling-stroke" d="
  M 395.29 287.25
  L 396.25 285.54"
/>
<path stroke="#f3d0d0" vector-effect="non-scaling-stroke" d="
  M 400.54 273.25
  Q 401.53 273.54 401.75 272.75
  Q 406.45 256.07 409.46 242.00"
/>
<path stroke="#97747d" vector-effect="non-scaling-stroke" d="
  M 446.55 224.18
  Q 440.76 231.35 437.92 240.18"
/>
<path stroke="#8b8a94" vector-effect="non-scaling-stroke" d="
  M 435.78 245.39
  L 420.04 244.00"
/>
<path stroke="#97747d" vector-effect="non-scaling-stroke" d="
  M 420.04 244.00
  L 421.07 220.93
  Q 421.10 220.40 420.58 220.27
  Q 415.99 219.18 411.24 219.54
  Q 410.61 219.59 410.58 220.22
  L 409.46 242.00"
/>
<path stroke="#8b8a94" vector-effect="non-scaling-stroke" d="
  M 409.46 242.00
  Q 408.75 241.78 406.96 242.81"
/>
<path stroke="#97747d" vector-effect="non-scaling-stroke" d="
  M 423.21 199.75
  Q 424.80 201.08 426.85 200.34
  Q 427.28 200.18 427.11 199.75
  Q 424.98 194.47 424.63 188.82
  Q 424.37 184.71 423.54 182.84
  Q 420.96 177.00 415.01 174.18"
/>
<path stroke="#89735f" vector-effect="non-scaling-stroke" d="
  M 387.37 235.89
  L 392.43 225.59
  Q 393.77 222.86 392.10 225.40
  Q 390.31 228.13 389.13 231.22
  Q 388.87 231.89 388.36 231.40
  C 387.54 230.63 387.48 227.54 386.83 226.17
  Q 386.27 224.98 386.56 226.26
  L 387.87 232.05
  Q 387.98 232.56 387.83 233.06
  Q 387.38 234.55 386.25 235.54"
/>
<path stroke="#8b8a94" vector-effect="non-scaling-stroke" d="
  M 202.29 264.25
  Q 201.03 264.85 200.42 264.10
  Q 200.14 263.75 199.70 263.75
  L 198.79 263.75
  Q 198.14 263.75 198.18 264.39
  Q 198.25 265.56 197.50 266.29"
/>
<path stroke="#8b8a94" vector-effect="non-scaling-stroke" d="
  M 203.04 267.00
  Q 203.15 269.60 200.50 269.29"
/>
</g>
<path fill="#d3a868" d="
  M 283.25 251.29
  L 276.50 253.04
  L 270.00 253.04
  Q 269.57 252.69 269.61 251.75
  Q 271.33 215.32 275.07 183.59
  C 275.97 175.96 277.24 161.83 279.14 151.00
  Q 279.22 150.53 279.68 150.38
  C 287.28 147.92 294.29 144.76 301.62 141.61
  C 309.14 138.37 320.42 134.28 329.60 129.87
  A 0.57 0.57 0.0 0 0 329.46 128.80
  Q 328.54 128.62 327.57 129.08
  C 312.10 136.23 296.06 142.07 280.39 149.03
  A 0.62 0.62 0.0 0 1 279.53 148.36
  C 282.35 130.97 285.80 113.60 289.12 96.21
  Q 291.65 82.93 295.29 69.89
  Q 295.58 68.82 294.67 68.78
  Q 294.09 68.75 293.92 69.31
  C 290.80 79.83 288.56 92.44 286.76 100.88
  Q 280.37 130.74 276.08 161.09
  Q 275.97 161.81 275.38 161.40
  L 231.48 131.97
  A 0.74 0.74 0.0 0 0 230.51 132.10
  Q 229.78 132.94 230.70 133.54
  Q 246.88 144.02 262.85 154.83
  C 266.86 157.55 270.77 160.72 275.67 162.87
  Q 276.10 163.06 276.03 163.52
  C 271.95 192.64 268.38 222.90 268.22 252.33
  Q 268.21 252.70 267.84 252.75
  Q 267.66 252.78 267.50 252.79
  Q 254.30 249.15 245.89 237.89
  C 241.03 230.45 237.54 223.42 232.96 211.00
  C 221.79 168.22 225.62 119.11 243.76 78.72
  Q 247.03 71.44 252.89 63.18
  Q 253.04 62.98 252.90 62.77
  L 252.75 62.54
  L 258.50 54.79
  C 262.24 51.53 265.90 47.30 269.54 44.83
  C 296.37 26.58 316.73 50.98 324.72 73.79
  C 338.57 113.29 335.96 157.75 322.93 196.98
  C 318.62 209.95 311.89 224.23 302.92 234.91
  C 300.29 238.03 298.21 241.12 294.91 243.54
  Q 289.25 247.70 283.25 251.29
  Z"
/>
<path fill="#3f3d56" d="
  M 258.50 54.79
  L 252.75 62.54
  L 240.28 62.33
  A 0.22 0.21 86.7 0 0 240.06 62.58
  C 242.02 74.04 235.04 77.32 225.29 77.29
  Q 197.15 77.20 168.98 77.27
  C 161.18 77.30 155.95 75.02 155.13 66.71
  C 155.00 65.43 155.56 64.34 155.71 63.02
  Q 155.79 62.40 155.16 62.41
  C 148.78 62.52 141.31 61.89 135.72 63.49
  Q 124.80 66.60 121.21 76.99
  Q 119.77 81.18 119.76 90.18
  Q 119.71 205.09 119.79 320.00
  Q 119.02 345.36 118.75 370.76
  C 118.55 388.28 129.10 397.53 146.25 397.53
  Q 196.68 397.50 247.12 397.50
  Q 256.15 397.50 259.81 396.49
  C 270.09 393.64 277.56 385.21 277.47 374.24
  Q 277.28 347.27 276.50 320.29
  Q 277.13 286.67 276.50 253.04
  L 283.25 251.29
  Q 283.25 309.99 283.25 368.70
  Q 283.25 377.38 281.94 381.66
  C 279.22 390.60 272.79 398.44 263.52 401.33
  A 0.35 0.35 0.0 0 0 263.47 401.98
  Q 264.38 402.45 265.75 402.38
  Q 275.55 401.86 285.36 402.01
  C 302.66 402.27 319.95 402.27 337.25 402.29
  L 335.50 403.21
  C 243.56 403.44 151.63 403.47 59.69 403.21
  Q 58.26 403.21 57.61 402.72
  Q 56.99 402.25 57.77 402.25
  L 130.95 402.20
  A 0.47 0.47 0.0 0 0 131.05 401.27
  C 124.32 399.84 118.48 393.61 115.07 388.18
  C 111.88 383.10 111.27 377.66 111.27 371.01
  C 111.22 275.17 111.50 179.33 111.22 83.50
  C 111.17 66.69 126.40 54.42 142.56 54.29
  Q 199.19 53.83 255.80 54.22
  C 256.66 54.23 257.66 54.59 258.50 54.79
  Z"
/>
<path fill="#3f3d56" d="
  M 450.62 71.80
  L 452.95 75.19
  A 0.31 0.31 0.0 0 1 452.59 75.65
  L 441.92 71.74
  A 0.38 0.38 0.0 0 1 441.91 71.03
  Q 445.01 69.72 448.22 70.74
  Q 448.69 70.89 448.91 70.45
  Q 450.71 66.84 454.77 66.69
  Q 455.83 66.65 455.03 67.34
  L 450.71 71.11
  Q 450.36 71.42 450.62 71.80
  Z"
/>
<path fill="#3f3d56" d="
  M 270.00 253.04
  Q 269.70 253.46 269.69 253.69
  Q 268.17 285.85 270.50 317.96
  L 268.71 317.25
  Q 266.76 285.46 267.99 253.63
  Q 268.01 253.29 267.77 253.06
  L 267.50 252.79
  Q 267.66 252.78 267.84 252.75
  Q 268.21 252.70 268.22 252.33
  C 268.38 222.90 271.95 192.64 276.03 163.52
  Q 276.10 163.06 275.67 162.87
  C 270.77 160.72 266.86 157.55 262.85 154.83
  Q 246.88 144.02 230.70 133.54
  Q 229.78 132.94 230.51 132.10
  A 0.74 0.74 0.0 0 1 231.48 131.97
  L 275.38 161.40
  Q 275.97 161.81 276.08 161.09
  Q 280.37 130.74 286.76 100.88
  C 288.56 92.44 290.80 79.83 293.92 69.31
  Q 294.09 68.75 294.67 68.78
  Q 295.58 68.82 295.29 69.89
  Q 291.65 82.93 289.12 96.21
  C 285.80 113.60 282.35 130.97 279.53 148.36
  A 0.62 0.62 0.0 0 0 280.39 149.03
  C 296.06 142.07 312.10 136.23 327.57 129.08
  Q 328.54 128.62 329.46 128.80
  A 0.57 0.57 0.0 0 1 329.60 129.87
  C 320.42 134.28 309.14 138.37 301.62 141.61
  C 294.29 144.76 287.28 147.92 279.68 150.38
  Q 279.22 150.53 279.14 151.00
  C 277.24 161.83 275.97 175.96 275.07 183.59
  Q 271.33 215.32 269.61 251.75
  Q 269.57 252.69 270.00 253.04
  Z"
/>
<path fill="#ff6584" d="
  M 199.79 106.75
  C 199.42 107.29 198.93 107.51 198.29 107.25
  Q 187.78 102.96 178.35 109.35
  Q 172.97 113.00 171.52 114.52
  C 166.91 119.37 160.06 128.99 157.46 137.00
  C 139.52 127.50 134.73 105.26 148.20 89.93
  C 160.16 76.34 181.63 77.17 193.02 90.76
  Q 197.92 96.61 199.79 106.75
  Z"
/>
<path fill="#3f3d56" d="
  M 213.25 90.46
  L 215.63 93.68
  Q 216.34 94.64 215.22 94.23
  L 204.69 90.32
  A 0.49 0.49 0.0 0 1 204.85 89.37
  L 211.21 89.33
  Q 211.56 89.33 211.74 89.02
  Q 213.60 85.78 217.48 85.74
  Q 218.62 85.72 217.81 86.52
  Q 215.86 88.46 213.42 89.71
  Q 212.90 89.98 213.25 90.46
  Z"
/>
<path fill="#e6e6e6" d="
  M 199.79 106.75
  L 200.06 108.13
  Q 200.16 108.65 200.62 108.90
  C 209.94 114.00 215.57 125.77 218.52 135.65
  C 223.63 152.71 223.93 167.65 223.01 186.55
  C 222.64 194.12 221.22 204.06 218.39 211.13
  Q 216.82 215.06 216.40 219.28
  Q 213.39 229.74 207.94 239.24
  C 207.04 240.81 206.86 242.25 206.50 243.96
  L 206.00 244.29
  Q 204.61 244.18 203.80 245.56
  C 199.74 252.47 187.87 264.62 178.75 261.71
  L 177.68 261.22
  Q 177.19 261.00 177.21 260.47
  C 178.42 235.33 180.64 216.35 183.02 194.25
  Q 183.36 191.15 184.05 188.16
  Q 184.16 187.67 184.63 187.47
  C 187.83 186.12 191.32 185.26 194.32 183.95
  Q 207.39 178.24 220.59 172.77
  A 0.47 0.46 -43.9 0 0 220.61 171.92
  C 218.27 170.86 190.86 183.58 186.43 185.46
  Q 184.79 186.15 184.74 184.38
  Q 184.69 182.85 185.41 181.65
  Q 185.68 181.22 185.61 180.71
  Q 185.32 178.53 186.46 176.50
  L 186.71 175.00
  Q 186.35 173.91 186.57 172.76
  Q 190.71 150.78 195.73 128.34
  A 0.49 0.48 5.5 0 0 195.24 127.75
  Q 195.04 127.76 194.88 127.75
  Q 194.66 127.75 194.61 127.96
  Q 188.04 153.67 183.60 179.82
  Q 183.17 182.32 182.46 184.75
  Q 180.80 185.77 180.57 187.85
  Q 178.01 189.20 175.25 189.29
  C 173.70 188.49 168.96 184.60 168.95 186.49
  Q 167.19 186.27 166.12 184.88
  Q 165.84 184.52 165.40 184.41
  Q 164.59 184.22 164.27 183.99
  Q 157.10 178.87 149.73 174.02
  Q 149.31 173.74 148.81 173.75
  L 147.54 173.75
  C 147.34 161.99 152.51 147.57 157.46 137.00
  C 160.06 128.99 166.91 119.37 171.52 114.52
  Q 172.97 113.00 178.35 109.35
  Q 187.78 102.96 198.29 107.25
  C 198.93 107.51 199.42 107.29 199.79 106.75
  Z"
/>
<path fill="#3f3d56" d="
  M 357.22 131.13
  Q 359.04 127.64 362.98 127.47
  Q 364.10 127.42 363.25 128.15
  L 358.81 131.95
  Q 358.41 132.29 358.69 132.74
  L 360.69 135.95
  A 0.28 0.28 0.0 0 1 360.36 136.36
  L 349.78 132.45
  A 0.18 0.18 0.0 0 1 349.76 132.12
  Q 352.97 130.48 356.37 131.49
  Q 356.94 131.66 357.22 131.13
  Z"
/>
<path fill="#3f3d56" d="
  M 186.71 175.00
  C 185.76 174.70 185.66 176.31 186.46 176.50
  Q 185.32 178.53 185.61 180.71
  Q 185.68 181.22 185.41 181.65
  Q 184.69 182.85 184.74 184.38
  Q 184.79 186.15 186.43 185.46
  C 190.86 183.58 218.27 170.86 220.61 171.92
  A 0.47 0.46 -43.9 0 1 220.59 172.77
  Q 207.39 178.24 194.32 183.95
  C 191.32 185.26 187.83 186.12 184.63 187.47
  Q 184.16 187.67 184.05 188.16
  Q 183.36 191.15 183.02 194.25
  C 180.64 216.35 178.42 235.33 177.21 260.47
  Q 177.19 261.00 177.68 261.22
  L 178.75 261.71
  C 176.52 261.96 177.08 263.57 177.06 265.22
  Q 176.82 284.05 177.21 302.90
  C 177.22 303.59 177.56 304.54 177.75 305.21
  L 175.79 305.50
  Q 174.69 283.68 175.46 261.75
  Q 176.17 261.00 175.69 259.90
  Q 175.49 259.44 175.52 258.93
  Q 177.21 227.74 181.25 196.75
  Q 182.44 195.94 181.50 194.96
  L 182.25 189.88
  Q 183.43 187.88 182.54 185.50
  L 182.46 184.75
  Q 183.17 182.32 183.60 179.82
  Q 188.04 153.67 194.61 127.96
  Q 194.66 127.75 194.88 127.75
  Q 195.04 127.76 195.24 127.75
  A 0.49 0.48 5.5 0 1 195.73 128.34
  Q 190.71 150.78 186.57 172.76
  Q 186.35 173.91 186.71 175.00
  Z"
/>
<path fill="#2f2e41" d="
  M 446.55 224.18
  Q 440.76 231.35 437.92 240.18
  Q 435.96 242.07 435.78 245.39
  L 420.04 244.00
  L 421.07 220.93
  Q 421.10 220.40 420.58 220.27
  Q 415.99 219.18 411.24 219.54
  Q 410.61 219.59 410.58 220.22
  L 409.46 242.00
  Q 408.75 241.78 406.96 242.81
  Q 406.76 234.89 407.16 227.01
  Q 407.31 224.02 407.66 221.04
  Q 407.72 220.52 407.22 220.36
  L 406.76 220.22
  Q 406.16 220.03 406.31 219.42
  C 407.31 215.14 409.25 203.21 412.36 200.48
  C 416.37 196.95 419.12 201.11 423.21 199.75
  Q 424.80 201.08 426.85 200.34
  Q 427.28 200.18 427.11 199.75
  Q 424.98 194.47 424.63 188.82
  Q 424.37 184.71 423.54 182.84
  Q 420.96 177.00 415.01 174.18
  L 412.64 174.49
  Q 410.85 174.73 411.26 172.96
  C 414.57 159.03 430.66 162.58 440.22 165.75
  Q 440.72 165.92 441.04 166.33
  Q 443.91 170.03 443.51 175.49
  C 443.04 181.82 452.06 185.59 452.89 192.66
  C 453.30 196.19 451.12 200.33 450.39 204.02
  C 449.45 208.74 451.79 210.51 454.67 213.06
  Q 455.05 213.40 455.02 213.90
  Q 454.79 217.59 453.07 219.80
  Q 450.99 222.48 446.55 224.18
  Z"
/>
<path fill="#3f3d56" d="
  M 147.54 173.75
  L 148.81 173.75
  Q 149.31 173.74 149.73 174.02
  Q 157.10 178.87 164.27 183.99
  Q 164.59 184.22 165.40 184.41
  Q 165.84 184.52 166.12 184.88
  Q 167.19 186.27 168.95 186.49
  Q 169.84 186.70 170.46 187.25
  Q 170.29 187.21 170.16 187.26
  Q 169.93 187.36 170.08 187.56
  Q 172.17 190.32 175.46 191.18
  L 181.25 195.04
  Q 180.54 195.82 181.25 196.75
  L 180.80 196.75
  Q 180.33 196.75 179.95 196.47
  C 172.64 191.03 164.66 186.34 157.39 181.27
  C 155.85 180.19 148.92 174.93 147.54 175.00
  L 147.54 173.75
  Z"
/>
<path fill="#ffb9b9" d="
  M 423.21 199.75
  L 421.79 192.46
  Q 421.70 191.96 421.25 191.72
  C 419.91 190.98 418.75 190.58 417.61 189.65
  Q 410.34 183.72 415.01 174.18
  Q 420.96 177.00 423.54 182.84
  Q 424.37 184.71 424.63 188.82
  Q 424.98 194.47 427.11 199.75
  Q 427.28 200.18 426.85 200.34
  Q 424.80 201.08 423.21 199.75
  Z"
/>
<path fill="#e6e6e6" d="
  M 147.54 175.00
  C 148.92 174.93 155.85 180.19 157.39 181.27
  C 164.66 186.34 172.64 191.03 179.95 196.47
  Q 180.33 196.75 180.80 196.75
  L 181.25 196.75
  Q 177.21 227.74 175.52 258.93
  Q 175.49 259.44 175.69 259.90
  Q 176.17 261.00 175.46 261.75
  Q 170.09 260.22 165.62 257.13
  C 155.03 249.81 149.05 230.74 147.30 218.49
  C 145.39 205.06 143.94 187.78 147.54 175.00
  Z"
/>
<path fill="#2f2e41" d="
  M 186.71 175.00
  L 186.46 176.50
  C 185.66 176.31 185.76 174.70 186.71 175.00
  Z"
/>
<path fill="#e6e6e6" d="
  M 182.54 185.50
  Q 183.43 187.88 182.25 189.88
  Q 181.46 187.40 182.54 185.50
  Z"
/>
<path fill="#e6e6e6" d="
  M 170.46 187.25
  L 175.46 191.18
  Q 172.17 190.32 170.08 187.56
  Q 169.93 187.36 170.16 187.26
  Q 170.29 187.21 170.46 187.25
  Z"
/>
<path fill="#2f2e41" d="
  M 180.57 187.85
  Q 178.39 190.47 175.25 189.29
  Q 178.01 189.20 180.57 187.85
  Z"
/>
<path fill="#e6e6e6" d="
  M 181.25 195.04
  Q 181.38 195.00 181.50 194.96
  Q 182.44 195.94 181.25 196.75
  Q 180.54 195.82 181.25 195.04
  Z"
/>
<path fill="#3f3d56" d="
  M 232.96 211.00
  C 237.54 223.42 241.03 230.45 245.89 237.89
  Q 246.16 252.84 242.26 267.01
  C 239.86 275.76 232.85 290.83 222.29 290.75
  Q 222.72 272.33 225.77 253.50
  Q 225.87 252.86 226.46 252.60
  L 243.70 245.05
  Q 244.02 244.91 244.00 244.56
  Q 244.00 244.40 244.01 244.20
  Q 244.06 243.43 243.35 243.72
  L 226.65 250.57
  Q 226.12 250.79 226.22 250.22
  L 231.40 222.17
  A 0.58 0.58 0.0 0 0 231.05 221.52
  Q 230.39 221.25 230.23 221.96
  Q 226.56 238.43 223.79 255.27
  Q 223.70 255.84 223.22 255.51
  L 206.50 243.96
  C 206.86 242.25 207.04 240.81 207.94 239.24
  Q 213.39 229.74 216.40 219.28
  C 218.88 212.76 226.11 208.60 232.96 211.00
  Z"
/>
<path fill="#d3a868" d="
  M 387.37 235.89
  L 392.43 225.59
  Q 393.77 222.86 392.10 225.40
  Q 390.31 228.13 389.13 231.22
  Q 388.87 231.89 388.36 231.40
  C 387.54 230.63 387.48 227.54 386.83 226.17
  Q 386.27 224.98 386.56 226.26
  L 387.87 232.05
  Q 387.98 232.56 387.83 233.06
  Q 387.38 234.55 386.25 235.54
  C 377.64 230.92 378.69 218.33 388.12 215.45
  C 397.04 212.73 405.96 223.10 400.45 231.51
  C 397.78 235.58 392.21 238.01 387.37 235.89
  Z"
/>
<path fill="#ffb9b9" d="
  M 420.04 244.00
  C 417.76 255.30 412.91 266.18 408.01 278.73
  C 406.24 283.27 406.18 287.67 405.50 292.46
  L 405.21 293.00
  Q 398.72 298.40 394.29 291.25
  L 395.29 287.25
  L 396.25 285.54
  C 398.60 280.96 400.72 277.72 400.54 273.25
  Q 401.53 273.54 401.75 272.75
  Q 406.45 256.07 409.46 242.00
  L 410.58 220.22
  Q 410.61 219.59 411.24 219.54
  Q 415.99 219.18 420.58 220.27
  Q 421.10 220.40 421.07 220.93
  L 420.04 244.00
  Z"
/>
<path fill="#d3a868" d="
  M 222.29 290.75
  Q 221.61 298.17 222.14 305.72
  Q 222.18 306.27 222.72 306.35
  Q 244.65 309.71 265.61 316.52
  Q 267.14 317.02 268.71 317.25
  L 270.50 317.96
  L 276.50 320.29
  Q 277.28 347.27 277.47 374.24
  C 277.56 385.21 270.09 393.64 259.81 396.49
  Q 256.15 397.50 247.12 397.50
  Q 196.68 397.50 146.25 397.53
  C 129.10 397.53 118.55 388.28 118.75 370.76
  Q 119.02 345.36 119.79 320.00
  Q 146.92 309.41 175.79 305.50
  L 177.75 305.21
  Q 198.92 303.93 219.66 305.90
  A 0.74 0.73 2.8 0 0 220.47 305.17
  L 220.46 290.50
  Q 221.27 274.18 223.44 257.95
  Q 223.51 257.44 223.08 257.14
  L 206.01 245.12
  L 206.00 244.29
  L 206.50 243.96
  L 223.22 255.51
  Q 223.70 255.84 223.79 255.27
  Q 226.56 238.43 230.23 221.96
  Q 230.39 221.25 231.05 221.52
  A 0.58 0.58 0.0 0 1 231.40 222.17
  L 226.22 250.22
  Q 226.12 250.79 226.65 250.57
  L 243.35 243.72
  Q 244.06 243.43 244.01 244.20
  Q 244.00 244.40 244.00 244.56
  Q 244.02 244.91 243.70 245.05
  L 226.46 252.60
  Q 225.87 252.86 225.77 253.50
  Q 222.72 272.33 222.29 290.75
  Z"
/>
<path fill="#ffb9b9" d="
  M 446.55 224.18
  Q 448.06 228.44 448.14 232.38
  C 448.28 239.23 448.94 245.94 449.23 252.77
  C 449.33 255.17 448.48 257.19 447.96 259.50
  L 447.49 259.63
  Q 447.04 259.76 446.67 259.46
  Q 441.68 255.43 438.29 250.00
  Q 439.20 245.12 437.92 240.18
  Q 440.76 231.35 446.55 224.18
  Z"
/>
<path fill="#3f3d56" d="
  M 387.37 235.89
  C 381.91 246.38 379.92 260.06 384.95 271.05
  Q 386.86 275.23 389.52 279.08
  A 0.34 0.33 23.3 0 0 390.13 278.84
  C 389.72 276.21 389.34 270.82 391.88 269.07
  A 2.12 2.11 57.0 0 1 394.89 269.72
  C 397.38 273.82 399.08 280.10 395.05 283.89
  Q 394.66 284.26 394.91 284.73
  Q 395.32 285.54 396.25 285.54
  L 395.29 287.25
  C 392.56 283.16 388.55 279.58 386.39 275.88
  Q 383.94 271.68 382.58 266.99
  C 382.15 265.53 382.31 263.39 381.63 261.59
  Q 381.47 261.19 381.04 261.25
  C 375.99 262.04 371.14 256.49 370.27 252.17
  C 369.91 250.38 371.00 248.63 373.00 249.24
  Q 377.76 250.68 380.34 254.99
  A 0.60 0.59 -58.5 0 0 381.44 254.72
  Q 382.15 244.96 386.25 235.54
  Q 387.38 234.55 387.83 233.06
  Q 387.98 232.56 387.87 232.05
  L 386.56 226.26
  Q 386.27 224.98 386.83 226.17
  C 387.48 227.54 387.54 230.63 388.36 231.40
  Q 388.87 231.89 389.13 231.22
  Q 390.31 228.13 392.10 225.40
  Q 393.77 222.86 392.43 225.59
  L 387.37 235.89
  Z"
/>
<path fill="#e6e6e6" d="
  M 409.46 242.00
  Q 406.45 256.07 401.75 272.75
  Q 401.53 273.54 400.54 273.25
  Q 400.36 271.10 399.16 269.26
  Q 398.88 268.83 398.97 268.33
  C 400.21 261.63 402.41 255.06 404.32 248.52
  Q 404.73 247.11 405.55 245.64
  Q 406.42 244.06 406.96 242.81
  Q 408.75 241.78 409.46 242.00
  Z"
/>
<path fill="#e6e6e6" d="
  M 420.04 244.00
  L 435.78 245.39
  Q 435.60 248.15 438.29 250.00
  Q 441.68 255.43 446.67 259.46
  Q 447.04 259.76 447.49 259.63
  L 447.96 259.50
  Q 447.50 261.10 448.30 261.95
  C 456.19 270.30 461.98 283.70 469.94 293.45
  C 477.08 302.21 486.47 312.34 496.12 318.32
  C 499.08 320.16 502.71 321.35 505.45 323.51
  A 1.33 1.33 0.0 0 1 505.40 325.64
  C 491.07 335.91 477.93 345.16 460.75 349.86
  C 457.29 350.81 454.19 350.70 450.54 350.73
  L 450.52 342.05
  Q 450.52 341.61 450.10 341.49
  L 438.57 338.14
  Q 437.89 337.94 437.98 338.64
  L 438.87 345.11
  Q 438.94 345.65 438.40 345.72
  L 436.50 345.96
  Q 430.98 345.56 425.48 344.94
  C 417.21 343.99 408.90 344.48 400.50 343.71
  L 399.48 343.01
  Q 399.06 342.73 399.24 342.26
  L 401.62 335.72
  Q 401.92 334.90 401.05 334.97
  L 388.92 336.02
  Q 388.35 336.07 388.26 336.64
  L 387.59 340.85
  Q 387.50 341.37 387.12 341.73
  L 386.00 342.79
  Q 385.37 338.22 385.94 334.44
  Q 389.01 314.17 394.29 291.25
  Q 398.72 298.40 405.21 293.00
  Q 406.92 294.66 409.19 295.19
  Q 410.57 295.52 409.36 294.78
  L 405.50 292.46
  C 406.18 287.67 406.24 283.27 408.01 278.73
  C 412.91 266.18 417.76 255.30 420.04 244.00
  Z"
/>
<path fill="#3f3d56" d="
  M 206.01 245.12
  L 223.08 257.14
  Q 223.51 257.44 223.44 257.95
  Q 221.27 274.18 220.46 290.50
  C 213.87 288.29 209.96 280.67 207.85 274.58
  C 204.88 266.00 205.32 254.45 206.01 245.12
  Z"
/>
<path fill="#2f2e41" d="
  M 202.29 264.25
  Q 201.03 264.85 200.42 264.10
  Q 200.14 263.75 199.70 263.75
  L 198.79 263.75
  Q 198.14 263.75 198.18 264.39
  Q 198.25 265.56 197.50 266.29
  Q 196.33 265.37 195.88 264.01
  Q 195.71 263.49 196.14 263.15
  Q 199.52 260.48 202.29 264.25
  Z"
/>
<path fill="#e6e6e6" d="
  M 202.29 264.25
  L 203.04 267.00
  Q 203.15 269.60 200.50 269.29
  L 197.50 266.29
  Q 198.25 265.56 198.18 264.39
  Q 198.14 263.75 198.79 263.75
  L 199.70 263.75
  Q 200.14 263.75 200.42 264.10
  Q 201.03 264.85 202.29 264.25
  Z"
/>
<path fill="#2f2e41" d="
  M 203.04 267.00
  L 204.97 269.75
  Q 205.33 270.27 204.80 270.63
  L 203.76 271.33
  Q 203.21 271.71 202.71 271.26
  L 200.50 269.29
  Q 203.15 269.60 203.04 267.00
  Z"
/>
<path fill="#3f3d56" d="
  M 405.50 292.46
  L 409.36 294.78
  Q 410.57 295.52 409.19 295.19
  Q 406.92 294.66 405.21 293.00
  L 405.50 292.46
  Z"
/>
<path fill="#ffb9b9" d="
  M 400.50 343.71
  Q 399.76 343.66 399.08 343.93
  Q 398.60 344.13 398.43 344.63
  L 384.04 386.75
  Q 381.75 387.91 379.21 387.50
  Q 382.43 368.87 385.75 350.25
  Q 386.62 345.40 386.00 342.79
  L 387.12 341.73
  Q 387.50 341.37 387.59 340.85
  L 388.26 336.64
  Q 388.35 336.07 388.92 336.02
  L 401.05 334.97
  Q 401.92 334.90 401.62 335.72
  L 399.24 342.26
  Q 399.06 342.73 399.48 343.01
  L 400.50 343.71
  Z"
/>
<path fill="#ffb9b9" d="
  M 450.54 350.73
  L 449.50 386.96
  L 443.50 387.71
  C 441.73 374.37 440.76 360.78 439.03 347.65
  C 438.82 346.07 437.99 345.65 436.50 345.96
  L 438.40 345.72
  Q 438.94 345.65 438.87 345.11
  L 437.98 338.64
  Q 437.89 337.94 438.57 338.14
  L 450.10 341.49
  Q 450.52 341.61 450.52 342.05
  L 450.54 350.73
  Z"
/>
<path fill="#2f2e41" d="
  M 384.04 386.75
  C 387.77 391.38 387.79 396.31 385.27 401.57
  Q 384.95 402.25 385.70 402.25
  L 433.27 402.25
  A 0.62 0.62 0.0 0 0 433.73 401.22
  Q 432.79 400.17 433.55 398.90
  Q 433.79 398.49 434.24 398.34
  L 438.10 397.09
  Q 438.66 396.91 438.93 396.39
  L 443.50 387.71
  L 449.50 386.96
  Q 454.16 394.10 450.26 401.77
  A 0.33 0.33 0.0 0 0 450.56 402.25
  L 506.95 402.25
  A 0.28 0.28 0.0 0 1 507.07 402.78
  Q 505.64 403.42 504.00 403.42
  Q 419.75 403.25 335.50 403.21
  L 337.25 402.29
  L 369.10 402.26
  A 0.48 0.48 0.0 0 0 369.42 401.43
  C 365.98 398.30 373.26 397.69 373.95 396.22
  Q 376.15 391.57 379.21 387.50
  Q 381.75 387.91 384.04 386.75
  Z
  M 377.67 401.23
  A 0.51 0.51 0.0 0 0 377.88 402.20
  L 382.60 402.24
  A 0.51 0.51 0.0 0 0 383.03 401.45
  L 381.91 399.72
  A 0.51 0.51 0.0 0 0 381.27 399.54
  L 377.67 401.23
  Z
  M 445.47 399.74
  L 441.82 401.35
  Q 439.77 402.25 442.01 402.25
  L 447.61 402.25
  Q 448.82 402.25 447.97 401.38
  L 446.59 399.96
  Q 446.11 399.46 445.47 399.74
  Z"
/>
</svg>
