<?xml version="1.0" encoding="UTF-8" standalone="no"?>
<!DOCTYPE svg PUBLIC "-//W3C//DTD SVG 1.1//EN" "http://www.w3.org/Graphics/SVG/1.1/DTD/svg11.dtd">
<svg xmlns="http://www.w3.org/2000/svg" version="1.1" viewBox="0.00 0.00 509.00 490.00">
<g stroke-width="2.00" fill="none" stroke-linecap="butt">
<path stroke="#89735f" vector-effect="non-scaling-stroke" d="
  M 299.75 229.71
  Q 299.45 230.61 298.69 231.16
  Q 298.27 231.47 298.03 231.01
  L 296.71 228.50"
/>
<path stroke="#9f9eab" vector-effect="non-scaling-stroke" d="
  M 296.71 228.50
  Q 296.80 163.38 296.73 98.26
  C 296.72 90.63 296.04 84.91 292.12 79.17
  C 281.86 64.19 266.90 66.45 251.06 66.53
  C 245.33 66.56 249.37 76.23 239.71 76.24
  Q 197.39 76.27 155.06 76.24
  C 149.21 76.23 151.25 66.46 145.75 66.49
  C 129.36 66.57 114.78 64.29 104.79 79.46
  C 100.78 85.53 100.25 92.18 100.25 99.50
  Q 100.25 247.09 100.25 394.73
  A 1.63 1.63 0.0 0 0 101.32 396.26
  Q 108.41 398.81 116.56 400.71
  Q 153.32 409.28 190.47 415.94
  Q 200.05 417.66 210.26 418.60
  Q 235.34 420.90 260.46 422.92
  Q 270.63 423.73 275.02 422.71
  C 284.38 420.52 292.50 413.16 295.42 403.93
  Q 296.70 399.91 296.72 390.79
  Q 296.78 368.76 296.74 346.72
  Q 296.74 346.27 296.92 345.86
  Q 297.12 345.40 297.04 345.00"
/>
<path stroke="#37364c" vector-effect="non-scaling-stroke" d="
  M 297.04 345.00
  L 297.31 345.17
  Q 297.51 345.30 297.55 345.53
  L 299.96 357.25"
/>
<path stroke="#5c5a6f" vector-effect="non-scaling-stroke" d="
  M 299.96 357.25
  Q 298.41 362.94 299.17 368.78
  Q 299.30 369.78 299.69 368.86
  L 299.96 368.25"
/>
<path stroke="#797789" vector-effect="non-scaling-stroke" d="
  M 291.00 417.04
  Q 290.01 417.19 289.75 418.21"
/>
<path stroke="#9f9eab" vector-effect="non-scaling-stroke" d="
  M 289.75 418.21
  L 280.96 424.25"
/>
<path stroke="#5c5a6f" vector-effect="non-scaling-stroke" d="
  M 280.96 424.25
  Q 277.84 424.06 275.25 425.71"
/>
<path stroke="#d9d8dd" vector-effect="non-scaling-stroke" d="
  M 291.00 418.71
  L 289.75 418.21"
/>
<path stroke="#ba8569" vector-effect="non-scaling-stroke" d="
  M 351.71 284.25
  L 345.54 284.00"
/>
<path stroke="#816b55" vector-effect="non-scaling-stroke" d="
  M 345.54 284.00
  L 344.71 272.25"
/>
<path stroke="#816b55" vector-effect="non-scaling-stroke" d="
  M 340.46 265.50
  L 307.35 275.29
  Q 307.05 275.38 307.01 275.07
  Q 306.98 274.91 306.96 274.75"
/>
<path stroke="#89735f" vector-effect="non-scaling-stroke" d="
  M 299.59 246.87
  L 297.00 248.54"
/>
<path stroke="#684856" vector-effect="non-scaling-stroke" d="
  M 345.54 284.00
  C 346.18 287.43 342.60 296.41 349.00 296.54"
/>
<path stroke="#684856" vector-effect="non-scaling-stroke" d="
  M 334.09 396.78
  Q 334.05 396.64 334.01 396.53
  Q 333.98 396.45 333.91 396.45
  L 327.00 396.54"
/>
<path stroke="#684856" vector-effect="non-scaling-stroke" d="
  M 316.77 396.50
  L 309.24 396.32
  Q 309.06 396.31 309.02 396.49
  Q 308.99 396.62 308.96 396.75"
/>
<path stroke="#545365" vector-effect="non-scaling-stroke" d="
  M 300.79 361.25
  L 299.96 357.25"
/>
<path stroke="#bcbbc4" vector-effect="non-scaling-stroke" d="
  M 286.07 424.38
  Q 283.31 425.95 280.96 424.25"
/>
<path stroke="#e9d4b4" vector-effect="non-scaling-stroke" d="
  M 296.71 228.50
  Q 292.26 221.49 289.29 213.75"
/>
<path stroke="#d0b0b5" vector-effect="non-scaling-stroke" d="
  M 289.29 213.75
  C 289.42 210.08 288.62 203.98 284.04 203.75"
/>
<path stroke="#f3f3f3" vector-effect="non-scaling-stroke" d="
  M 284.04 203.75
  Q 283.92 203.33 283.64 203.06
  Q 283.32 202.74 283.31 202.28
  Q 283.03 168.34 283.21 134.40
  C 283.28 121.00 279.26 114.71 265.14 114.35
  C 254.04 114.07 240.05 114.46 231.86 114.47
  Q 181.36 114.54 130.88 114.48
  Q 125.36 114.48 122.34 115.78
  C 113.16 119.72 112.99 127.12 112.99 137.18
  Q 113.00 169.34 113.01 201.50
  Q 113.01 209.33 114.50 212.68
  C 118.78 222.36 127.87 221.78 136.84 221.72
  Q 201.09 221.34 265.35 221.54
  Q 271.42 221.56 274.44 220.19
  Q 279.57 217.88 282.53 212.50"
/>
<path stroke="#d0b0b5" vector-effect="non-scaling-stroke" d="
  M 282.53 212.50
  L 284.29 217.00"
/>
<path stroke="#e9d4b4" vector-effect="non-scaling-stroke" d="
  M 284.29 217.00
  C 284.18 222.76 286.39 228.47 288.03 233.93
  C 289.54 238.93 289.35 249.09 297.00 248.54"
/>
<path stroke="#9f9eab" vector-effect="non-scaling-stroke" d="
  M 297.00 248.54
  Q 296.34 292.27 297.04 336.00"
/>
<path stroke="#9797a0" vector-effect="non-scaling-stroke" d="
  M 297.04 336.00
  L 297.04 345.00"
/>
<path stroke="#37364c" vector-effect="non-scaling-stroke" d="
  M 300.54 320.50
  Q 299.59 328.43 297.04 336.00"
/>
<path stroke="#816b55" vector-effect="non-scaling-stroke" d="
  M 351.75 215.46
  Q 349.88 215.60 349.08 213.76
  Q 348.78 213.08 348.37 213.70
  C 347.14 215.54 342.75 219.84 341.35 216.06
  Q 341.13 215.46 340.59 215.80
  L 339.35 216.58
  Q 338.72 216.98 338.48 216.28
  L 337.21 212.55
  A 0.39 0.39 0.0 0 0 336.45 212.67
  C 336.44 213.67 336.28 217.32 334.47 216.74
  Q 333.96 216.57 334.03 216.05
  L 335.25 207.32
  Q 335.32 206.81 334.81 206.78
  L 327.03 206.30
  Q 326.57 206.27 326.34 206.68
  Q 325.50 208.13 324.00 208.71"
/>
<path stroke="#684856" vector-effect="non-scaling-stroke" d="
  M 323.54 196.50
  L 324.25 196.46
  Q 324.71 196.43 324.95 196.83
  Q 328.36 202.74 335.33 202.23
  Q 335.78 202.20 335.84 201.74
  L 337.09 191.18
  Q 337.18 190.39 336.52 190.83
  L 335.64 191.42
  Q 335.18 191.73 334.65 191.58
  Q 328.87 190.05 322.99 191.38"
/>
<path stroke="#ba8569" vector-effect="non-scaling-stroke" d="
  M 289.29 213.75
  Q 288.93 215.01 289.51 216.40
  Q 289.73 216.93 289.19 217.13
  L 285.68 218.39
  Q 285.21 218.56 284.90 218.18
  Q 284.45 217.65 284.29 217.00"
/>
<path stroke="#684856" vector-effect="non-scaling-stroke" d="
  M 316.25 400.96
  L 309.54 402.00"
/>
<path stroke="#684856" vector-effect="non-scaling-stroke" d="
  M 334.46 402.00
  L 327.79 402.00"
/>
<path stroke="#c3a4a8" vector-effect="non-scaling-stroke" d="
  M 284.04 203.75
  Q 282.49 204.77 281.79 206.50"
/>
<path stroke="#f3f3f3" vector-effect="non-scaling-stroke" d="
  M 281.79 206.50
  C 281.91 205.03 281.62 203.52 281.63 202.26
  Q 282.03 148.91 281.69 134.81
  C 281.51 127.76 281.50 121.98 274.80 118.04
  C 270.55 115.55 263.62 116.06 258.50 116.05
  Q 195.70 115.99 132.91 116.01
  C 120.51 116.02 115.00 120.10 114.95 132.94
  Q 114.82 168.16 115.03 203.38
  C 115.11 216.49 120.27 219.99 133.23 220.00
  Q 198.54 220.00 263.87 220.00
  Q 270.82 220.00 273.93 218.56
  Q 280.56 215.46 281.71 207.00"
/>
<path stroke="#c3a4a8" vector-effect="non-scaling-stroke" d="
  M 281.71 207.00
  L 282.53 212.50"
/>
<path stroke="#d0b0b5" vector-effect="non-scaling-stroke" d="
  M 281.79 206.50
  L 281.71 207.00"
/>
<path stroke="#545365" vector-effect="non-scaling-stroke" d="
  M 301.25 424.71
  Q 299.20 423.36 300.03 421.89"
/>
<path stroke="#f3f3f3" vector-effect="non-scaling-stroke" d="
  M 258.57 71.73
  A 2.50 2.50 0.0 0 0 256.07 69.23
  A 2.50 2.50 0.0 0 0 253.57 71.73
  A 2.50 2.50 0.0 0 0 256.07 74.23
  A 2.50 2.50 0.0 0 0 258.57 71.73"
/>
<path stroke="#f3f3f3" vector-effect="non-scaling-stroke" d="
  M 265.78 71.73
  A 2.52 2.52 0.0 0 0 263.26 69.21
  A 2.52 2.52 0.0 0 0 260.74 71.73
  A 2.52 2.52 0.0 0 0 263.26 74.25
  A 2.52 2.52 0.0 0 0 265.78 71.73"
/>
<path stroke="#f3f3f3" vector-effect="non-scaling-stroke" d="
  M 272.9200 72.5567
  A 2.57 2.49 19.0 0 0 271.3007 69.3657
  A 2.57 2.49 19.0 0 0 268.0600 70.8833
  A 2.57 2.49 19.0 0 0 269.6793 74.0743
  A 2.57 2.49 19.0 0 0 272.9200 72.5567"
/>
<path stroke="#f3f3f3" vector-effect="non-scaling-stroke" d="
  M 145.0013 72.0224
  A 1.00 1.00 0.0 0 0 144.0030 71.0207
  L 120.3030 70.9793
  A 1.00 1.00 0.0 0 0 119.3013 71.9776
  L 119.2987 73.4376
  A 1.00 1.00 0.0 0 0 120.2970 74.4393
  L 143.9970 74.4807
  A 1.00 1.00 0.0 0 0 144.9987 73.4824
  L 145.0013 72.0224"
/>
<path stroke="#f3f3f3" vector-effect="non-scaling-stroke" d="
  M 224.25 268.21
  Q 231.04 271.96 235.76 267.72
  C 244.75 259.66 234.55 246.74 224.00 252.79"
/>
<path stroke="#e9d4b4" vector-effect="non-scaling-stroke" d="
  M 224.00 252.79
  Q 219.26 250.11 214.13 251.96
  Q 213.66 252.13 213.19 251.96
  Q 207.77 250.06 203.90 252.70
  C 194.39 259.19 202.59 274.25 213.23 268.94
  Q 213.67 268.72 214.12 268.93
  Q 219.33 271.35 224.25 268.21"
/>
<path stroke="#ddc7a7" vector-effect="non-scaling-stroke" d="
  M 224.00 252.79
  Q 231.80 260.35 224.25 268.21"
/>
<path stroke="#9f9eab" vector-effect="non-scaling-stroke" d="
  M 160.97 296.05
  L 155.84 297.41
  A 0.57 0.57 0.0 0 1 155.14 296.74
  C 158.99 278.39 173.11 263.04 192.63 261.83
  C 193.33 261.78 193.72 261.37 193.47 260.67
  Q 193.30 260.21 192.81 260.23
  C 172.14 260.93 157.36 277.90 153.48 297.07
  A 0.42 0.42 0.0 0 1 152.88 297.36
  L 147.82 294.92
  Q 146.86 294.45 147.41 295.37
  Q 150.94 301.19 152.72 307.76
  Q 152.95 308.62 153.36 307.83
  Q 156.55 301.61 161.14 296.32
  Q 161.49 295.91 160.97 296.05"
/>
<path stroke="#e9d4b4" vector-effect="non-scaling-stroke" d="
  M 186.47 326.06
  A 3.06 3.06 0.0 0 0 183.41 323.00
  L 142.09 323.00
  A 3.06 3.06 0.0 0 0 139.03 326.06
  L 139.03 326.18
  A 3.06 3.06 0.0 0 0 142.09 329.24
  L 183.41 329.24
  A 3.06 3.06 0.0 0 0 186.47 326.18
  L 186.47 326.06"
/>
<path stroke="#f3f3f3" vector-effect="non-scaling-stroke" d="
  M 256.66 363.34
  A 3.08 3.08 0.0 0 0 253.58 360.26
  L 142.16 360.26
  A 3.08 3.08 0.0 0 0 139.08 363.34
  L 139.08 363.42
  A 3.08 3.08 0.0 0 0 142.16 366.50
  L 253.58 366.50
  A 3.08 3.08 0.0 0 0 256.66 363.42
  L 256.66 363.34"
/>
<path stroke="#f3f3f3" vector-effect="non-scaling-stroke" d="
  M 176.44 153.39
  A 9.43 9.43 0.0 0 0 167.01 143.96
  A 9.43 9.43 0.0 0 0 157.58 153.39
  A 9.43 9.43 0.0 0 0 167.01 162.82
  A 9.43 9.43 0.0 0 0 176.44 153.39"
/>
<path stroke="#f3f3f3" vector-effect="non-scaling-stroke" d="
  M 207.61 153.39
  A 9.40 9.40 0.0 0 0 198.21 143.99
  A 9.40 9.40 0.0 0 0 188.81 153.39
  A 9.40 9.40 0.0 0 0 198.21 162.79
  A 9.40 9.40 0.0 0 0 207.61 153.39"
/>
<path stroke="#f3f3f3" vector-effect="non-scaling-stroke" d="
  M 238.82 153.38
  A 9.40 9.40 0.0 0 0 229.42 143.98
  A 9.40 9.40 0.0 0 0 220.02 153.38
  A 9.40 9.40 0.0 0 0 229.42 162.78
  A 9.40 9.40 0.0 0 0 238.82 153.38"
/>
<path stroke="#9f9eab" vector-effect="non-scaling-stroke" d="
  M 176.47 182.75
  A 9.45 9.45 0.0 0 0 167.02 173.30
  A 9.45 9.45 0.0 0 0 157.57 182.75
  A 9.45 9.45 0.0 0 0 167.02 192.20
  A 9.45 9.45 0.0 0 0 176.47 182.75"
/>
<path stroke="#bcbbc4" vector-effect="non-scaling-stroke" d="
  M 207.63 182.74
  A 9.43 9.43 0.0 0 0 198.20 173.31
  A 9.43 9.43 0.0 0 0 188.77 182.74
  A 9.43 9.43 0.0 0 0 198.20 192.17
  A 9.43 9.43 0.0 0 0 207.63 182.74"
/>
<path stroke="#d9d8dd" vector-effect="non-scaling-stroke" d="
  M 238.87 182.76
  A 9.44 9.44 0.0 0 0 229.43 173.32
  A 9.44 9.44 0.0 0 0 219.99 182.76
  A 9.44 9.44 0.0 0 0 229.43 192.20
  A 9.44 9.44 0.0 0 0 238.87 182.76"
/>
</g>
<path fill="#3f3d56" d="
  M 299.75 229.71
  Q 299.45 230.61 298.69 231.16
  Q 298.27 231.47 298.03 231.01
  L 296.71 228.50
  Q 296.80 163.38 296.73 98.26
  C 296.72 90.63 296.04 84.91 292.12 79.17
  C 281.86 64.19 266.90 66.45 251.06 66.53
  C 245.33 66.56 249.37 76.23 239.71 76.24
  Q 197.39 76.27 155.06 76.24
  C 149.21 76.23 151.25 66.46 145.75 66.49
  C 129.36 66.57 114.78 64.29 104.79 79.46
  C 100.78 85.53 100.25 92.18 100.25 99.50
  Q 100.25 247.09 100.25 394.73
  A 1.63 1.63 0.0 0 0 101.32 396.26
  Q 108.41 398.81 116.56 400.71
  Q 153.32 409.28 190.47 415.94
  Q 200.05 417.66 210.26 418.60
  Q 235.34 420.90 260.46 422.92
  Q 270.63 423.73 275.02 422.71
  C 284.38 420.52 292.50 413.16 295.42 403.93
  Q 296.70 399.91 296.72 390.79
  Q 296.78 368.76 296.74 346.72
  Q 296.74 346.27 296.92 345.86
  Q 297.12 345.40 297.04 345.00
  L 297.31 345.17
  Q 297.51 345.30 297.55 345.53
  L 299.96 357.25
  Q 298.41 362.94 299.17 368.78
  Q 299.30 369.78 299.69 368.86
  L 299.96 368.25
  Q 299.81 373.86 299.75 394.75
  Q 299.71 407.42 291.00 417.04
  Q 290.01 417.19 289.75 418.21
  L 280.96 424.25
  Q 277.84 424.06 275.25 425.71
  C 274.07 425.60 272.81 426.00 271.83 426.00
  Q 204.40 426.00 136.97 426.00
  Q 124.26 426.01 119.17 424.46
  C 104.76 420.06 97.76 407.59 97.76 392.77
  Q 97.74 311.13 97.75 229.50
  Q 97.75 227.70 97.13 226.27
  C 94.68 220.59 95.69 211.04 95.78 204.82
  Q 95.79 204.31 96.14 203.93
  Q 98.51 201.33 97.60 197.61
  Q 97.48 197.11 97.03 196.89
  L 96.14 196.45
  Q 95.75 196.26 95.75 195.83
  L 95.75 175.81
  Q 95.75 175.25 96.18 174.91
  L 97.36 173.97
  Q 97.75 173.66 97.75 173.16
  L 97.75 156.86
  Q 97.75 156.46 97.46 156.21
  L 96.16 155.07
  Q 95.75 154.71 95.75 154.16
  L 95.75 144.17
  Q 95.75 143.62 96.25 143.38
  L 97.20 142.91
  Q 97.75 142.64 97.75 142.03
  Q 97.74 118.25 97.77 94.50
  C 97.79 81.41 106.11 69.73 118.41 65.62
  Q 123.04 64.07 134.28 64.02
  Q 170.76 63.85 207.25 63.77
  C 223.59 63.73 241.70 64.21 259.00 63.73
  C 264.04 63.59 271.59 63.37 276.40 64.83
  Q 293.49 70.05 298.14 86.20
  Q 299.52 91.00 299.51 100.44
  Q 299.48 136.34 299.51 172.24
  C 299.51 174.13 300.76 175.10 300.79 176.68
  Q 301.19 196.71 300.62 216.73
  C 300.58 218.22 299.52 218.96 299.60 220.38
  Q 299.85 225.03 299.75 229.71
  Z"
/>
<path fill="#ffffff" d="
  M 296.71 228.50
  Q 292.26 221.49 289.29 213.75
  C 289.42 210.08 288.62 203.98 284.04 203.75
  Q 283.92 203.33 283.64 203.06
  Q 283.32 202.74 283.31 202.28
  Q 283.03 168.34 283.21 134.40
  C 283.28 121.00 279.26 114.71 265.14 114.35
  C 254.04 114.07 240.05 114.46 231.86 114.47
  Q 181.36 114.54 130.88 114.48
  Q 125.36 114.48 122.34 115.78
  C 113.16 119.72 112.99 127.12 112.99 137.18
  Q 113.00 169.34 113.01 201.50
  Q 113.01 209.33 114.50 212.68
  C 118.78 222.36 127.87 221.78 136.84 221.72
  Q 201.09 221.34 265.35 221.54
  Q 271.42 221.56 274.44 220.19
  Q 279.57 217.88 282.53 212.50
  L 284.29 217.00
  C 284.18 222.76 286.39 228.47 288.03 233.93
  C 289.54 238.93 289.35 249.09 297.00 248.54
  Q 296.34 292.27 297.04 336.00
  L 297.04 345.00
  Q 297.12 345.40 296.92 345.86
  Q 296.74 346.27 296.74 346.72
  Q 296.78 368.76 296.72 390.79
  Q 296.70 399.91 295.42 403.93
  C 292.50 413.16 284.38 420.52 275.02 422.71
  Q 270.63 423.73 260.46 422.92
  Q 235.34 420.90 210.26 418.60
  Q 200.05 417.66 190.47 415.94
  Q 153.32 409.28 116.56 400.71
  Q 108.41 398.81 101.32 396.26
  A 1.63 1.63 0.0 0 1 100.25 394.73
  Q 100.25 247.09 100.25 99.50
  C 100.25 92.18 100.78 85.53 104.79 79.46
  C 114.78 64.29 129.36 66.57 145.75 66.49
  C 151.25 66.46 149.21 76.23 155.06 76.24
  Q 197.39 76.27 239.71 76.24
  C 249.37 76.23 245.33 66.56 251.06 66.53
  C 266.90 66.45 281.86 64.19 292.12 79.17
  C 296.04 84.91 296.72 90.63 296.73 98.26
  Q 296.80 163.38 296.71 228.50
  Z
  M 258.57 71.73
  A 2.50 2.50 0.0 0 0 256.07 69.23
  A 2.50 2.50 0.0 0 0 253.57 71.73
  A 2.50 2.50 0.0 0 0 256.07 74.23
  A 2.50 2.50 0.0 0 0 258.57 71.73
  Z
  M 265.78 71.73
  A 2.52 2.52 0.0 0 0 263.26 69.21
  A 2.52 2.52 0.0 0 0 260.74 71.73
  A 2.52 2.52 0.0 0 0 263.26 74.25
  A 2.52 2.52 0.0 0 0 265.78 71.73
  Z
  M 272.9200 72.5567
  A 2.57 2.49 19.0 0 0 271.3007 69.3657
  A 2.57 2.49 19.0 0 0 268.0600 70.8833
  A 2.57 2.49 19.0 0 0 269.6793 74.0743
  A 2.57 2.49 19.0 0 0 272.9200 72.5567
  Z
  M 145.0013 72.0224
  A 1.00 1.00 0.0 0 0 144.0030 71.0207
  L 120.3030 70.9793
  A 1.00 1.00 0.0 0 0 119.3013 71.9776
  L 119.2987 73.4376
  A 1.00 1.00 0.0 0 0 120.2970 74.4393
  L 143.9970 74.4807
  A 1.00 1.00 0.0 0 0 144.9987 73.4824
  L 145.0013 72.0224
  Z
  M 224.25 268.21
  Q 231.04 271.96 235.76 267.72
  C 244.75 259.66 234.55 246.74 224.00 252.79
  Q 219.26 250.11 214.13 251.96
  Q 213.66 252.13 213.19 251.96
  Q 207.77 250.06 203.90 252.70
  C 194.39 259.19 202.59 274.25 213.23 268.94
  Q 213.67 268.72 214.12 268.93
  Q 219.33 271.35 224.25 268.21
  Z
  M 160.97 296.05
  L 155.84 297.41
  A 0.57 0.57 0.0 0 1 155.14 296.74
  C 158.99 278.39 173.11 263.04 192.63 261.83
  C 193.33 261.78 193.72 261.37 193.47 260.67
  Q 193.30 260.21 192.81 260.23
  C 172.14 260.93 157.36 277.90 153.48 297.07
  A 0.42 0.42 0.0 0 1 152.88 297.36
  L 147.82 294.92
  Q 146.86 294.45 147.41 295.37
  Q 150.94 301.19 152.72 307.76
  Q 152.95 308.62 153.36 307.83
  Q 156.55 301.61 161.14 296.32
  Q 161.49 295.91 160.97 296.05
  Z
  M 186.47 326.06
  A 3.06 3.06 0.0 0 0 183.41 323.00
  L 142.09 323.00
  A 3.06 3.06 0.0 0 0 139.03 326.06
  L 139.03 326.18
  A 3.06 3.06 0.0 0 0 142.09 329.24
  L 183.41 329.24
  A 3.06 3.06 0.0 0 0 186.47 326.18
  L 186.47 326.06
  Z
  M 256.66 363.34
  A 3.08 3.08 0.0 0 0 253.58 360.26
  L 142.16 360.26
  A 3.08 3.08 0.0 0 0 139.08 363.34
  L 139.08 363.42
  A 3.08 3.08 0.0 0 0 142.16 366.50
  L 253.58 366.50
  A 3.08 3.08 0.0 0 0 256.66 363.42
  L 256.66 363.34
  Z"
/>
<circle fill="#e6e6e6" cx="256.07" cy="71.73" r="2.50"/>
<circle fill="#e6e6e6" cx="263.26" cy="71.73" r="2.52"/>
<ellipse fill="#e6e6e6" cx="0.00" cy="0.00" transform="translate(270.49,71.72) rotate(19.0)" rx="2.57" ry="2.49"/>
<rect fill="#e6e6e6" x="-12.85" y="-1.73" transform="translate(132.15,72.73) rotate(0.1)" width="25.70" height="3.46" rx="1.00"/>
<path fill="#e6e6e6" d="
  M 284.04 203.75
  Q 282.49 204.77 281.79 206.50
  C 281.91 205.03 281.62 203.52 281.63 202.26
  Q 282.03 148.91 281.69 134.81
  C 281.51 127.76 281.50 121.98 274.80 118.04
  C 270.55 115.55 263.62 116.06 258.50 116.05
  Q 195.70 115.99 132.91 116.01
  C 120.51 116.02 115.00 120.10 114.95 132.94
  Q 114.82 168.16 115.03 203.38
  C 115.11 216.49 120.27 219.99 133.23 220.00
  Q 198.54 220.00 263.87 220.00
  Q 270.82 220.00 273.93 218.56
  Q 280.56 215.46 281.71 207.00
  L 282.53 212.50
  Q 279.57 217.88 274.44 220.19
  Q 271.42 221.56 265.35 221.54
  Q 201.09 221.34 136.84 221.72
  C 127.87 221.78 118.78 222.36 114.50 212.68
  Q 113.01 209.33 113.01 201.50
  Q 113.00 169.34 112.99 137.18
  C 112.99 127.12 113.16 119.72 122.34 115.78
  Q 125.36 114.48 130.88 114.48
  Q 181.36 114.54 231.86 114.47
  C 240.05 114.46 254.04 114.07 265.14 114.35
  C 279.26 114.71 283.28 121.00 283.21 134.40
  Q 283.03 168.34 283.31 202.28
  Q 283.32 202.74 283.64 203.06
  Q 283.92 203.33 284.04 203.75
  Z"
/>
<path fill="#ffffff" d="
  M 281.79 206.50
  L 281.71 207.00
  Q 280.56 215.46 273.93 218.56
  Q 270.82 220.00 263.87 220.00
  Q 198.54 220.00 133.23 220.00
  C 120.27 219.99 115.11 216.49 115.03 203.38
  Q 114.82 168.16 114.95 132.94
  C 115.00 120.10 120.51 116.02 132.91 116.01
  Q 195.70 115.99 258.50 116.05
  C 263.62 116.06 270.55 115.55 274.80 118.04
  C 281.50 121.98 281.51 127.76 281.69 134.81
  Q 282.03 148.91 281.63 202.26
  C 281.62 203.52 281.91 205.03 281.79 206.50
  Z
  M 176.44 153.39
  A 9.43 9.43 0.0 0 0 167.01 143.96
  A 9.43 9.43 0.0 0 0 157.58 153.39
  A 9.43 9.43 0.0 0 0 167.01 162.82
  A 9.43 9.43 0.0 0 0 176.44 153.39
  Z
  M 207.61 153.39
  A 9.40 9.40 0.0 0 0 198.21 143.99
  A 9.40 9.40 0.0 0 0 188.81 153.39
  A 9.40 9.40 0.0 0 0 198.21 162.79
  A 9.40 9.40 0.0 0 0 207.61 153.39
  Z
  M 238.82 153.38
  A 9.40 9.40 0.0 0 0 229.42 143.98
  A 9.40 9.40 0.0 0 0 220.02 153.38
  A 9.40 9.40 0.0 0 0 229.42 162.78
  A 9.40 9.40 0.0 0 0 238.82 153.38
  Z
  M 176.47 182.75
  A 9.45 9.45 0.0 0 0 167.02 173.30
  A 9.45 9.45 0.0 0 0 157.57 182.75
  A 9.45 9.45 0.0 0 0 167.02 192.20
  A 9.45 9.45 0.0 0 0 176.47 182.75
  Z
  M 207.63 182.74
  A 9.43 9.43 0.0 0 0 198.20 173.31
  A 9.43 9.43 0.0 0 0 188.77 182.74
  A 9.43 9.43 0.0 0 0 198.20 192.17
  A 9.43 9.43 0.0 0 0 207.63 182.74
  Z
  M 238.87 182.76
  A 9.44 9.44 0.0 0 0 229.43 173.32
  A 9.44 9.44 0.0 0 0 219.99 182.76
  A 9.44 9.44 0.0 0 0 229.43 192.20
  A 9.44 9.44 0.0 0 0 238.87 182.76
  Z"
/>
<circle fill="#e6e6e6" cx="167.01" cy="153.39" r="9.43"/>
<circle fill="#e6e6e6" cx="198.21" cy="153.39" r="9.40"/>
<circle fill="#e6e6e6" cx="229.42" cy="153.38" r="9.40"/>
<circle fill="#3f3d56" cx="167.02" cy="182.75" r="9.45"/>
<circle fill="#787788" cx="198.20" cy="182.74" r="9.43"/>
<circle fill="#b2b1bb" cx="229.43" cy="182.76" r="9.44"/>
<path fill="#2f2e41" d="
  M 351.75 215.46
  Q 349.88 215.60 349.08 213.76
  Q 348.78 213.08 348.37 213.70
  C 347.14 215.54 342.75 219.84 341.35 216.06
  Q 341.13 215.46 340.59 215.80
  L 339.35 216.58
  Q 338.72 216.98 338.48 216.28
  L 337.21 212.55
  A 0.39 0.39 0.0 0 0 336.45 212.67
  C 336.44 213.67 336.28 217.32 334.47 216.74
  Q 333.96 216.57 334.03 216.05
  L 335.25 207.32
  Q 335.32 206.81 334.81 206.78
  L 327.03 206.30
  Q 326.57 206.27 326.34 206.68
  Q 325.50 208.13 324.00 208.71
  L 323.54 196.50
  L 324.25 196.46
  Q 324.71 196.43 324.95 196.83
  Q 328.36 202.74 335.33 202.23
  Q 335.78 202.20 335.84 201.74
  L 337.09 191.18
  Q 337.18 190.39 336.52 190.83
  L 335.64 191.42
  Q 335.18 191.73 334.65 191.58
  Q 328.87 190.05 322.99 191.38
  C 319.35 184.56 329.77 176.17 336.43 179.09
  C 343.16 182.04 349.09 180.19 350.65 189.28
  Q 351.81 196.09 348.96 202.39
  Q 348.76 202.82 348.92 203.26
  L 350.70 208.15
  Q 350.87 208.62 350.87 209.11
  Q 350.83 212.37 351.75 215.46
  Z"
/>
<path fill="#a0616a" d="
  M 323.54 196.50
  L 322.99 191.38
  Q 328.87 190.05 334.65 191.58
  Q 335.18 191.73 335.64 191.42
  L 336.52 190.83
  Q 337.18 190.39 337.09 191.18
  L 335.84 201.74
  Q 335.78 202.20 335.33 202.23
  Q 328.36 202.74 324.95 196.83
  Q 324.71 196.43 324.25 196.46
  L 323.54 196.50
  Z"
/>
<path fill="#a0616a" d="
  M 284.04 203.75
  C 288.62 203.98 289.42 210.08 289.29 213.75
  Q 288.93 215.01 289.51 216.40
  Q 289.73 216.93 289.19 217.13
  L 285.68 218.39
  Q 285.21 218.56 284.90 218.18
  Q 284.45 217.65 284.29 217.00
  L 282.53 212.50
  L 281.71 207.00
  L 281.79 206.50
  Q 282.49 204.77 284.04 203.75
  Z"
/>
<path fill="#d3a868" d="
  M 351.75 215.46
  Q 353.40 217.31 353.60 219.82
  Q 355.52 244.11 355.25 266.75
  Q 355.15 275.63 351.71 284.25
  L 345.54 284.00
  L 344.71 272.25
  Q 345.19 263.84 344.57 255.34
  A 0.36 0.35 52.2 0 0 343.88 255.25
  L 340.46 265.50
  L 307.35 275.29
  Q 307.05 275.38 307.01 275.07
  Q 306.98 274.91 306.96 274.75
  Q 309.43 267.96 312.43 261.35
  C 315.69 254.17 308.27 245.02 311.04 237.51
  A 0.43 0.43 0.0 0 0 310.37 237.02
  Q 304.57 241.57 299.59 246.87
  L 297.00 248.54
  C 289.35 249.09 289.54 238.93 288.03 233.93
  C 286.39 228.47 284.18 222.76 284.29 217.00
  Q 284.45 217.65 284.90 218.18
  Q 285.21 218.56 285.68 218.39
  L 289.19 217.13
  Q 289.73 216.93 289.51 216.40
  Q 288.93 215.01 289.29 213.75
  Q 292.26 221.49 296.71 228.50
  L 298.03 231.01
  Q 298.27 231.47 298.69 231.16
  Q 299.45 230.61 299.75 229.71
  C 300.95 229.73 301.06 228.54 301.52 227.89
  Q 307.48 219.56 313.52 211.28
  C 314.40 210.08 321.91 209.44 324.00 208.71
  Q 325.50 208.13 326.34 206.68
  Q 326.57 206.27 327.03 206.30
  L 334.81 206.78
  Q 335.32 206.81 335.25 207.32
  L 334.03 216.05
  Q 333.96 216.57 334.47 216.74
  C 336.28 217.32 336.44 213.67 336.45 212.67
  A 0.39 0.39 0.0 0 1 337.21 212.55
  L 338.48 216.28
  Q 338.72 216.98 339.35 216.58
  L 340.59 215.80
  Q 341.13 215.46 341.35 216.06
  C 342.75 219.84 347.14 215.54 348.37 213.70
  Q 348.78 213.08 349.08 213.76
  Q 349.88 215.60 351.75 215.46
  Z"
/>
<path fill="#3f3d56" d="
  M 299.59 246.87
  Q 299.35 252.91 299.53 258.80
  C 299.99 273.87 299.30 288.94 299.66 304.03
  Q 299.67 304.15 299.38 311.43
  Q 299.20 316.06 300.54 320.50
  Q 299.59 328.43 297.04 336.00
  Q 296.34 292.27 297.00 248.54
  L 299.59 246.87
  Z"
/>
<path fill="#d3a868" d="
  M 224.00 252.79
  Q 231.80 260.35 224.25 268.21
  Q 219.33 271.35 214.12 268.93
  Q 213.67 268.72 213.23 268.94
  C 202.59 274.25 194.39 259.19 203.90 252.70
  Q 207.77 250.06 213.19 251.96
  Q 213.66 252.13 214.13 251.96
  Q 219.26 250.11 224.00 252.79
  Z"
/>
<path fill="#e6e6e6" d="
  M 224.25 268.21
  Q 231.80 260.35 224.00 252.79
  C 234.55 246.74 244.75 259.66 235.76 267.72
  Q 231.04 271.96 224.25 268.21
  Z"
/>
<path fill="#3f3d56" d="
  M 161.14 296.32
  Q 156.55 301.61 153.36 307.83
  Q 152.95 308.62 152.72 307.76
  Q 150.94 301.19 147.41 295.37
  Q 146.86 294.45 147.82 294.92
  L 152.88 297.36
  A 0.42 0.42 0.0 0 0 153.48 297.07
  C 157.36 277.90 172.14 260.93 192.81 260.23
  Q 193.30 260.21 193.47 260.67
  C 193.72 261.37 193.33 261.78 192.63 261.83
  C 173.11 263.04 158.99 278.39 155.14 296.74
  A 0.57 0.57 0.0 0 0 155.84 297.41
  L 160.97 296.05
  Q 161.49 295.91 161.14 296.32
  Z"
/>
<path fill="#2f2e41" d="
  M 340.46 265.50
  L 344.71 272.25
  L 345.54 284.00
  C 346.18 287.43 342.60 296.41 349.00 296.54
  Q 348.98 297.39 348.87 298.23
  Q 342.84 344.74 336.73 391.25
  Q 336.72 391.30 336.61 392.91
  Q 336.44 395.58 334.09 396.78
  Q 334.05 396.64 334.01 396.53
  Q 333.98 396.45 333.91 396.45
  L 327.00 396.54
  C 324.93 396.74 323.90 396.06 323.92 393.87
  Q 324.23 357.72 324.67 321.82
  A 0.51 0.51 0.0 0 0 323.70 321.60
  C 321.37 326.73 315.77 336.79 315.97 342.18
  Q 316.95 369.34 316.77 396.50
  L 309.24 396.32
  Q 309.06 396.31 309.02 396.49
  Q 308.99 396.62 308.96 396.75
  L 307.23 396.16
  Q 306.74 395.99 306.66 395.48
  Q 304.29 380.61 301.20 365.91
  C 300.88 364.43 301.16 362.84 300.79 361.25
  L 299.96 357.25
  L 297.55 345.53
  Q 297.51 345.30 297.31 345.17
  L 297.04 345.00
  L 297.04 336.00
  Q 299.59 328.43 300.54 320.50
  L 306.96 274.75
  Q 306.98 274.91 307.01 275.07
  Q 307.05 275.38 307.35 275.29
  L 340.46 265.50
  Z"
/>
<path fill="#a0616a" d="
  M 351.71 284.25
  C 350.69 289.18 354.04 292.44 349.00 296.54
  C 342.60 296.41 346.18 287.43 345.54 284.00
  L 351.71 284.25
  Z"
/>
<rect fill="#d3a868" x="139.03" y="323.00" width="47.44" height="6.24" rx="3.06"/>
<path fill="#e6e6e6" d="
  M 396.09 353.46
  L 393.54 353.78
  A 0.35 0.35 0.0 0 1 393.29 353.15
  Q 397.04 350.45 399.71 354.23
  Q 400.79 355.75 399.17 354.83
  L 397.11 353.67
  Q 396.63 353.39 396.09 353.46
  Z"
/>
<path fill="#787788" d="
  M 299.96 357.25
  L 300.79 361.25
  Q 299.59 364.62 299.96 368.25
  L 299.69 368.86
  Q 299.30 369.78 299.17 368.78
  Q 298.41 362.94 299.96 357.25
  Z"
/>
<rect fill="#e6e6e6" x="139.08" y="360.26" width="117.58" height="6.24" rx="3.08"/>
<path fill="#a0616a" d="
  M 316.77 396.50
  Q 315.24 398.72 316.25 400.96
  L 309.54 402.00
  Q 310.03 399.29 308.96 396.75
  Q 308.99 396.62 309.02 396.49
  Q 309.06 396.31 309.24 396.32
  L 316.77 396.50
  Z"
/>
<path fill="#a0616a" d="
  M 334.09 396.78
  Q 333.30 399.40 334.46 402.00
  L 327.79 402.00
  Q 327.92 399.21 327.00 396.54
  L 333.91 396.45
  Q 333.98 396.45 334.01 396.53
  Q 334.05 396.64 334.09 396.78
  Z"
/>
<path fill="#2f2e41" d="
  M 316.25 400.96
  Q 317.63 403.98 317.27 407.32
  Q 317.22 407.85 317.64 408.15
  C 320.92 410.51 319.62 416.70 320.01 420.42
  Q 320.07 420.99 320.60 420.77
  L 322.97 419.79
  Q 323.51 419.57 323.73 419.04
  L 327.19 410.81
  Q 327.39 410.32 327.33 409.79
  Q 326.86 405.82 327.79 402.00
  L 334.46 402.00
  Q 335.57 404.58 335.07 407.41
  Q 334.98 407.92 335.37 408.25
  C 339.07 411.44 337.77 419.90 338.17 424.53
  Q 338.21 425.00 337.74 425.00
  L 333.87 425.00
  Q 333.25 425.00 333.25 424.37
  L 333.25 420.74
  A 0.93 0.93 0.0 0 0 331.88 419.92
  Q 329.36 421.28 328.43 423.98
  Q 328.25 424.50 327.70 424.59
  Q 321.84 425.54 316.08 424.39
  Q 315.62 424.30 315.58 423.83
  L 315.22 419.61
  Q 315.14 418.68 314.35 419.17
  Q 311.66 420.79 310.54 423.68
  Q 310.33 424.21 309.76 424.25
  L 301.25 424.71
  Q 299.20 423.36 300.03 421.89
  L 304.96 419.20
  Q 305.42 418.95 305.66 418.49
  Q 307.31 415.41 308.52 412.16
  C 309.73 408.92 309.01 405.53 309.54 402.00
  L 316.25 400.96
  Z"
/>
<path fill="#b2b1bb" d="
  M 291.00 417.04
  L 291.00 418.71
  L 289.75 418.21
  Q 290.01 417.19 291.00 417.04
  Z"
/>
<path fill="#ffffff" d="
  M 289.75 418.21
  L 291.00 418.71
  L 291.33 419.70
  Q 291.50 420.19 291.18 420.60
  Q 289.17 423.18 286.07 424.38
  Q 283.31 425.95 280.96 424.25
  L 289.75 418.21
  Z"
/>
<path fill="#787788" d="
  M 300.03 421.89
  Q 299.20 423.36 301.25 424.71
  Q 296.98 426.35 292.72 424.87
  Q 292.05 424.64 292.49 424.08
  Q 295.20 420.61 300.03 421.89
  Z"
/>
<path fill="#787788" d="
  M 280.96 424.25
  Q 283.31 425.95 286.07 424.38
  Q 284.28 426.10 282.07 425.70
  C 279.05 425.15 277.86 425.34 275.25 425.71
  Q 277.84 424.06 280.96 424.25
  Z"
/>
<rect fill="#b2b1bb" x="-12.79" y="-0.49" transform="translate(353.01,425.49) rotate(-0.4)" width="25.58" height="0.98" rx="0.47"/>
<path fill="#b2b1bb" d="
  M 370.92 425.57
  Q 368.30 425.53 370.76 425.26
  C 371.03 425.23 371.29 425.04 371.49 425.04
  Q 391.58 425.32 411.67 424.91
  Q 412.16 424.90 412.24 425.38
  C 412.34 425.99 412.01 426.28 411.41 426.27
  Q 392.28 425.94 370.92 425.57
  Z"
/>
</svg>
