<?xml version="1.0" encoding="UTF-8" standalone="no"?>
<!DOCTYPE svg PUBLIC "-//W3C//DTD SVG 1.1//EN" "http://www.w3.org/Graphics/SVG/1.1/DTD/svg11.dtd">
<svg xmlns="http://www.w3.org/2000/svg" version="1.1" viewBox="0.00 0.00 573.00 436.00">
<g stroke-width="2.00" fill="none" stroke-linecap="butt">
<path stroke="#868591" vector-effect="non-scaling-stroke" d="
  M 70.35 127.15
  L 71.75 125.71"
/>
<path stroke="#868591" vector-effect="non-scaling-stroke" d="
  M 71.71 104.75
  Q 71.34 103.98 70.54 104.50"
/>
<path stroke="#97737d" vector-effect="non-scaling-stroke" d="
  M 418.58 218.27
  C 410.90 216.27 417.60 210.94 414.54 207.60
  Q 414.13 207.15 413.53 207.19
  L 408.00 207.55
  A 1.74 1.73 7.4 0 1 406.24 205.27
  C 407.22 202.33 405.67 199.32 402.21 200.50"
/>
<path stroke="#e6c2c2" vector-effect="non-scaling-stroke" d="
  M 437.79 260.50
  Q 435.42 259.75 435.27 261.76
  Q 434.06 277.39 432.82 293.05
  C 432.74 294.04 432.30 294.78 432.04 295.75"
/>
<path stroke="#7e7d87" vector-effect="non-scaling-stroke" d="
  M 432.04 295.75
  L 431.41 293.70
  Q 431.24 293.16 430.68 293.21
  Q 408.05 294.91 397.75 295.48
  Q 395.53 295.60 394.29 296.00"
/>
<path stroke="#e6c2c2" vector-effect="non-scaling-stroke" d="
  M 397.54 259.00
  Q 398.20 257.86 397.95 257.16
  Q 397.63 256.25 396.68 256.10
  L 387.44 254.63"
/>
<path stroke="#97737d" vector-effect="non-scaling-stroke" d="
  M 435.75 310.96
  Q 435.43 310.86 435.07 310.56
  Q 434.79 310.31 434.72 309.94
  L 432.04 295.75"
/>
<path stroke="#37364c" vector-effect="non-scaling-stroke" d="
  M 435.79 380.00
  Q 432.58 378.93 428.42 379.12"
/>
<path stroke="#37364c" vector-effect="non-scaling-stroke" d="
  M 404.21 380.00
  L 397.00 379.54"
/>
<path stroke="#37364c" vector-effect="non-scaling-stroke" d="
  M 403.79 385.50
  L 397.79 385.81"
/>
<path stroke="#9f7b87" vector-effect="non-scaling-stroke" d="
  M 435.54 381.00
  L 435.49 380.21
  Q 435.47 380.00 435.26 380.00
  L 434.75 380.00
  Q 434.44 380.00 434.63 380.25
  C 435.19 380.97 430.49 382.19 429.84 382.50
  Q 429.54 382.65 429.50 382.99
  L 429.46 383.50"
/>
<path stroke="#97737d" vector-effect="non-scaling-stroke" d="
  M 435.79 385.50
  L 429.51 385.84"
/>
<path stroke="#868591" vector-effect="non-scaling-stroke" d="
  M 324.71 252.00
  L 323.29 250.50"
/>
</g>
<path fill="#3f3d56" d="
  M 249.00 41.72
  C 263.61 41.72 275.61 48.94 279.73 62.76
  Q 281.24 67.85 281.24 80.00
  C 281.24 86.01 279.95 119.53 282.35 122.38
  Q 282.72 122.82 282.72 123.40
  L 282.60 156.85
  Q 282.60 157.38 282.24 157.78
  Q 281.34 158.76 281.34 160.25
  Q 281.14 251.30 281.28 342.34
  C 281.31 358.86 276.90 371.95 260.24 377.27
  Q 256.18 378.56 249.60 378.60
  Q 198.09 378.95 146.58 378.63
  C 132.20 378.55 120.53 371.65 116.45 357.65
  Q 114.98 352.63 114.99 341.71
  Q 115.02 207.35 115.06 73.00
  C 115.06 59.02 122.34 47.34 135.83 43.26
  Q 140.76 41.77 151.94 41.76
  Q 200.47 41.74 249.00 41.72
  Z
  M 122.88 167.01
  C 123.45 167.42 122.74 329.96 122.75 342.49
  Q 122.76 352.82 124.28 357.19
  C 128.09 368.18 137.29 371.79 148.35 371.78
  Q 198.64 371.70 248.93 371.79
  C 264.50 371.82 274.76 364.11 274.76 347.25
  Q 274.74 214.71 274.75 82.18
  Q 274.75 68.98 273.18 64.50
  Q 269.78 54.81 259.21 51.25
  C 253.57 49.35 245.51 50.33 239.28 50.13
  A 0.30 0.30 0.0 0 0 238.98 50.48
  C 240.90 60.69 234.88 64.54 225.93 64.52
  Q 198.28 64.47 170.62 64.51
  C 161.89 64.52 155.78 60.78 157.65 50.77
  Q 157.75 50.25 157.21 50.25
  C 151.13 50.26 143.48 49.43 138.00 51.37
  Q 122.72 56.77 122.72 74.77
  Q 122.75 120.74 122.76 166.77
  Q 122.76 166.92 122.88 167.01
  Z"
/>
<rect fill="#3f3d56" x="143.73" y="96.75" width="109.74" height="12.74" rx="5.97"/>
<path fill="#3f3d56" d="
  M 70.35 127.15
  L 71.75 125.71
  L 92.86 125.90
  Q 93.50 125.91 93.50 125.26
  L 93.50 104.66
  Q 93.50 104.00 92.84 104.00
  L 72.28 104.00
  Q 71.97 104.00 71.83 104.28
  Q 71.69 104.58 71.71 104.75
  Q 71.34 103.98 70.54 104.50
  Q 70.38 103.91 70.65 103.45
  Q 70.92 103.00 71.45 103.00
  L 94.19 103.00
  A 0.56 0.56 0.0 0 1 94.75 103.56
  L 94.75 126.39
  Q 94.75 126.91 94.23 126.91
  L 70.35 127.15
  Z"
/>
<path fill="#cccccc" d="
  M 71.71 104.75
  L 71.75 125.71
  L 70.35 127.15
  L 70.54 104.50
  Q 71.34 103.98 71.71 104.75
  Z"
/>
<path fill="#cccccc" d="
  M 76.49 130.04
  A 0.27 0.26 5.2 0 1 76.71 130.30
  L 76.82 135.08
  Q 76.84 135.68 76.23 135.68
  L 63.43 135.75
  Q 62.66 135.76 62.68 134.99
  L 62.94 122.28
  Q 62.96 121.54 63.70 121.60
  L 66.37 121.81
  Q 66.95 121.86 66.86 122.43
  C 65.85 128.70 72.21 129.18 76.49 130.04
  Z"
/>
<rect fill="#3f3d56" x="143.74" y="121.76" width="109.72" height="12.74" rx="5.89"/>
<path fill="#3f3d56" d="
  M 253.47 153.60
  A 5.91 5.91 0.0 0 1 247.56 159.51
  L 149.64 159.51
  A 5.91 5.91 0.0 0 1 143.73 153.60
  L 143.73 152.68
  A 5.91 5.91 0.0 0 1 149.64 146.77
  L 247.56 146.77
  A 5.91 5.91 0.0 0 1 253.47 152.68
  L 253.47 153.60
  Z
  M 154.81 153.48
  A 3.30 3.30 0.0 0 0 151.51 150.18
  A 3.30 3.30 0.0 0 0 148.21 153.48
  A 3.30 3.30 0.0 0 0 151.51 156.78
  A 3.30 3.30 0.0 0 0 154.81 153.48
  Z
  M 165.70 153.46
  A 3.31 3.31 0.0 0 0 162.39 150.15
  A 3.31 3.31 0.0 0 0 159.08 153.46
  A 3.31 3.31 0.0 0 0 162.39 156.77
  A 3.31 3.31 0.0 0 0 165.70 153.46
  Z
  M 176.56 153.47
  A 3.30 3.30 0.0 0 0 173.26 150.17
  A 3.30 3.30 0.0 0 0 169.96 153.47
  A 3.30 3.30 0.0 0 0 173.26 156.77
  A 3.30 3.30 0.0 0 0 176.56 153.47
  Z
  M 187.47 153.47
  A 3.30 3.30 0.0 0 0 184.17 150.17
  A 3.30 3.30 0.0 0 0 180.87 153.47
  A 3.30 3.30 0.0 0 0 184.17 156.77
  A 3.30 3.30 0.0 0 0 187.47 153.47
  Z"
/>
<path fill="#3f3d56" d="
  M 250.2087 179.1135
  A 5.65 5.65 0.0 0 1 244.5488 184.7537
  L 217.4089 184.7063
  A 5.65 5.65 0.0 0 1 211.7687 179.0465
  L 211.7713 177.5465
  A 5.65 5.65 0.0 0 1 217.4312 171.9063
  L 244.5711 171.9537
  A 5.65 5.65 0.0 0 1 250.2113 177.6135
  L 250.2087 179.1135
  Z
  M 222.89 178.54
  A 3.28 3.28 0.0 0 0 219.61 175.26
  A 3.28 3.28 0.0 0 0 216.33 178.54
  A 3.28 3.28 0.0 0 0 219.61 181.82
  A 3.28 3.28 0.0 0 0 222.89 178.54
  Z
  M 233.83 178.52
  A 3.31 3.31 0.0 0 0 230.52 175.21
  A 3.31 3.31 0.0 0 0 227.21 178.52
  A 3.31 3.31 0.0 0 0 230.52 181.83
  A 3.31 3.31 0.0 0 0 233.83 178.52
  Z
  M 244.70 178.53
  A 3.29 3.29 0.0 0 0 241.41 175.24
  A 3.29 3.29 0.0 0 0 238.12 178.53
  A 3.29 3.29 0.0 0 0 241.41 181.82
  A 3.29 3.29 0.0 0 0 244.70 178.53
  Z"
/>
<path fill="#2f2e41" d="
  M 418.58 218.27
  C 410.90 216.27 417.60 210.94 414.54 207.60
  Q 414.13 207.15 413.53 207.19
  L 408.00 207.55
  A 1.74 1.73 7.4 0 1 406.24 205.27
  C 407.22 202.33 405.67 199.32 402.21 200.50
  C 397.93 199.63 396.70 195.85 399.23 192.42
  C 403.57 186.54 410.91 187.86 416.94 190.13
  C 426.08 193.57 430.45 201.20 426.24 210.97
  Q 424.10 215.94 418.58 218.27
  Z"
/>
<path fill="#ffb8b8" d="
  M 418.58 218.27
  C 406.92 223.91 396.89 211.76 402.21 200.50
  C 405.67 199.32 407.22 202.33 406.24 205.27
  A 1.74 1.73 7.4 0 0 408.00 207.55
  L 413.53 207.19
  Q 414.13 207.15 414.54 207.60
  C 417.60 210.94 410.90 216.27 418.58 218.27
  Z"
/>
<path fill="#d3a868" d="
  M 264.24 285.76
  A 10.23 10.23 0.0 0 1 254.01 295.99
  L 142.23 295.99
  A 10.23 10.23 0.0 0 1 132.00 285.76
  L 132.00 231.72
  A 10.23 10.23 0.0 0 1 142.23 221.49
  L 254.01 221.49
  A 10.23 10.23 0.0 0 1 264.24 231.72
  L 264.24 285.76
  Z
  M 155.23 237.90
  C 152.78 231.13 146.52 226.83 139.15 228.47
  Q 138.67 228.57 138.86 229.02
  Q 143.17 239.68 154.90 238.42
  A 0.39 0.39 0.0 0 0 155.23 237.90
  Z
  M 254.7276 269.1336
  A 6.12 6.12 0.0 0 0 248.6183 263.0029
  L 233.8583 262.9771
  A 6.12 6.12 0.0 0 0 227.7277 269.0864
  L 227.7124 277.8464
  A 6.12 6.12 0.0 0 0 233.8217 283.9771
  L 248.5817 284.0029
  A 6.12 6.12 0.0 0 0 254.7123 277.8936
  L 254.7276 269.1336
  Z
  M 168.97 273.31
  A 5.27 5.27 0.0 0 0 163.70 268.04
  L 143.38 268.04
  A 5.27 5.27 0.0 0 0 138.11 273.31
  L 138.11 273.69
  A 5.27 5.27 0.0 0 0 143.38 278.96
  L 163.70 278.96
  A 5.27 5.27 0.0 0 0 168.97 273.69
  L 168.97 273.31
  Z"
/>
<path fill="#cccccc" d="
  M 437.79 260.50
  Q 435.42 259.75 435.27 261.76
  Q 434.06 277.39 432.82 293.05
  C 432.74 294.04 432.30 294.78 432.04 295.75
  L 431.41 293.70
  Q 431.24 293.16 430.68 293.21
  Q 408.05 294.91 397.75 295.48
  Q 395.53 295.60 394.29 296.00
  C 395.37 283.64 397.19 271.42 397.54 259.00
  Q 398.20 257.86 397.95 257.16
  Q 397.63 256.25 396.68 256.10
  L 387.44 254.63
  L 384.72 253.63
  Q 384.15 253.42 384.38 252.86
  C 387.77 244.61 392.04 231.61 395.97 229.76
  C 405.43 225.32 414.14 222.59 424.37 226.47
  C 427.00 227.46 429.78 229.39 432.51 230.98
  C 436.80 233.47 436.94 237.04 437.73 241.43
  Q 439.15 249.28 440.77 258.46
  Q 440.93 259.37 440.06 259.69
  L 437.79 260.50
  Z"
/>
<path fill="#cccccc" d="
  M 324.71 252.00
  L 323.29 250.50
  Q 321.44 248.67 318.92 248.25
  Q 318.35 248.15 318.27 247.59
  L 317.58 243.07
  Q 317.47 242.35 318.20 242.33
  L 331.22 242.01
  Q 331.96 241.99 331.95 242.73
  L 331.81 255.87
  Q 331.80 256.75 330.93 256.57
  L 327.78 255.92
  Q 327.30 255.82 327.03 255.42
  L 324.71 252.00
  Z"
/>
<path fill="#3f3d56" d="
  M 323.29 250.50
  L 324.71 252.00
  Q 324.56 251.95 324.43 252.00
  Q 324.19 252.10 324.27 252.34
  Q 324.77 253.77 324.58 255.25
  C 323.80 261.35 324.23 268.05 324.26 274.26
  A 0.74 0.74 0.0 0 1 323.52 275.00
  L 300.75 275.00
  A 0.75 0.75 0.0 0 1 300.00 274.25
  L 300.00 251.79
  Q 300.00 250.99 300.80 250.97
  L 323.29 250.50
  Z
  M 322.9984 252.4390
  A 0.38 0.38 0.0 0 0 322.6190 252.0583
  L 301.6191 252.0217
  A 0.38 0.38 0.0 0 0 301.2384 252.4010
  L 301.2016 273.4610
  A 0.38 0.38 0.0 0 0 301.5810 273.8417
  L 322.5809 273.8783
  A 0.38 0.38 0.0 0 0 322.9616 273.4990
  L 322.9984 252.4390
  Z"
/>
<path fill="#ffb8b8" d="
  M 397.54 259.00
  L 382.22 293.33
  Q 382.01 293.79 382.08 294.28
  Q 382.73 298.85 379.62 300.74
  C 373.30 304.59 367.55 295.25 373.82 291.32
  Q 374.26 291.05 374.44 290.55
  L 387.44 254.63
  L 396.68 256.10
  Q 397.63 256.25 397.95 257.16
  Q 398.20 257.86 397.54 259.00
  Z"
/>
<path fill="#ffb8b8" d="
  M 437.79 260.50
  L 439.47 300.95
  Q 439.49 301.46 439.78 301.88
  C 442.63 305.97 440.69 310.54 435.75 310.96
  Q 435.43 310.86 435.07 310.56
  Q 434.79 310.31 434.72 309.94
  L 432.04 295.75
  C 432.30 294.78 432.74 294.04 432.82 293.05
  Q 434.06 277.39 435.27 261.76
  Q 435.42 259.75 437.79 260.50
  Z"
/>
<rect fill="#3f3d56" x="-4.59" y="-1.59" transform="translate(235.40,268.65) rotate(-0.2)" width="9.18" height="3.18" rx="1.52"/>
<rect fill="#3f3d56" x="-4.58" y="-1.57" transform="translate(246.61,268.66) rotate(0.1)" width="9.16" height="3.14" rx="1.51"/>
<rect fill="#3f3d56" x="-4.60" y="-1.61" transform="translate(235.40,273.13) rotate(-0.1)" width="9.20" height="3.22" rx="1.55"/>
<rect fill="#3f3d56" x="-4.57" y="-1.61" transform="translate(246.64,273.13) rotate(0.2)" width="9.14" height="3.22" rx="1.55"/>
<rect fill="#3f3d56" x="230.80" y="276.24" width="9.20" height="3.20" rx="1.50"/>
<rect fill="#3f3d56" x="242.01" y="276.24" width="9.20" height="3.20" rx="1.53"/>
<path fill="#2f2e41" d="
  M 432.04 295.75
  L 434.72 309.94
  Q 434.79 310.31 435.07 310.56
  Q 435.43 310.86 435.75 310.96
  Q 435.58 310.97 435.41 310.99
  Q 435.05 311.05 435.09 311.42
  Q 438.73 345.12 436.52 378.98
  C 436.48 379.57 436.26 379.71 435.79 380.00
  Q 432.58 378.93 428.42 379.12
  L 413.44 317.47
  A 0.30 0.30 0.0 0 0 412.85 317.51
  Q 408.84 348.32 404.82 379.07
  Q 404.78 379.40 404.21 380.00
  L 397.00 379.54
  Q 396.34 379.58 395.84 379.30
  Q 395.39 379.05 395.35 378.55
  Q 392.28 346.28 391.76 322.51
  Q 391.50 310.59 394.29 296.00
  Q 395.53 295.60 397.75 295.48
  Q 408.05 294.91 430.68 293.21
  Q 431.24 293.16 431.41 293.70
  L 432.04 295.75
  Z"
/>
<path fill="#3f3d56" d="
  M 428.42 379.12
  Q 432.58 378.93 435.79 380.00
  L 435.54 381.00
  L 435.49 380.21
  Q 435.47 380.00 435.26 380.00
  L 434.75 380.00
  Q 434.44 380.00 434.63 380.25
  C 435.19 380.97 430.49 382.19 429.84 382.50
  Q 429.54 382.65 429.50 382.99
  L 429.46 383.50
  Q 429.55 381.17 428.42 379.12
  Z"
/>
<path fill="#3f3d56" d="
  M 404.21 380.00
  Q 403.44 382.69 403.79 385.50
  L 397.79 385.81
  L 397.49 382.86
  Q 397.44 382.36 397.95 382.31
  Q 399.48 382.16 400.31 380.74
  Q 400.65 380.15 399.98 380.03
  L 397.00 379.54
  L 404.21 380.00
  Z"
/>
<path fill="#ffb8b8" d="
  M 435.54 381.00
  L 435.79 385.50
  L 429.51 385.84
  Q 429.92 384.32 429.46 383.50
  L 429.50 382.99
  Q 429.54 382.65 429.84 382.50
  C 430.49 382.19 435.19 380.97 434.63 380.25
  Q 434.44 380.00 434.75 380.00
  L 435.26 380.00
  Q 435.47 380.00 435.49 380.21
  L 435.54 381.00
  Z"
/>
<path fill="#2f2e41" d="
  M 397.79 385.81
  L 403.79 385.50
  L 404.98 385.80
  Q 405.50 385.94 405.50 386.48
  L 405.50 392.55
  Q 405.50 393.10 406.05 393.10
  L 416.62 393.03
  Q 417.02 393.03 417.14 392.65
  Q 419.78 383.91 429.51 385.84
  L 435.79 385.50
  L 436.98 385.86
  Q 437.50 386.01 437.50 386.56
  L 437.50 392.18
  A 0.94 0.93 0.3 0 0 438.43 393.11
  L 509.81 393.31
  Q 509.96 393.31 510.00 393.45
  Q 510.02 393.57 510.08 393.72
  A 0.37 0.37 0.0 0 1 509.74 394.24
  C 492.31 394.24 310.84 394.78 310.26 393.81
  A 0.37 0.36 -16.0 0 1 310.57 393.26
  L 384.44 393.22
  Q 384.99 393.22 385.16 392.70
  Q 388.00 383.90 397.79 385.81
  Z"
/>
</svg>
