<?xml version="1.0" encoding="UTF-8" standalone="no"?>
<!DOCTYPE svg PUBLIC "-//W3C//DTD SVG 1.1//EN" "http://www.w3.org/Graphics/SVG/1.1/DTD/svg11.dtd">
<svg xmlns="http://www.w3.org/2000/svg" version="1.1" viewBox="0.00 0.00 472.00 529.00">
<g stroke-width="2.00" fill="none" stroke-linecap="butt">
<path stroke="#858590" vector-effect="non-scaling-stroke" d="
  M 232.50 472.54
  C 226.70 472.13 220.04 472.99 214.50 471.54"
/>
<path stroke="#858590" vector-effect="non-scaling-stroke" d="
  M 197.21 464.00
  L 197.75 462.79"
/>
<path stroke="#b4b4b5" stroke-opacity="0.796" vector-effect="non-scaling-stroke" d="
  M 197.75 462.79
  L 199.21 460.00"
/>
<path stroke="#858590" vector-effect="non-scaling-stroke" d="
  M 200.25 458.96
  L 202.25 457.54"
/>
<path stroke="#e7bfc1" vector-effect="non-scaling-stroke" d="
  M 194.21 443.50
  L 190.25 438.79"
/>
<path stroke="#858590" vector-effect="non-scaling-stroke" d="
  M 190.25 438.79
  L 192.73 436.91
  Q 193.14 436.59 192.95 436.11
  L 186.56 420.21
  Q 186.42 419.84 186.70 419.57
  L 187.00 419.29"
/>
<path stroke="#484855" stroke-opacity="0.796" vector-effect="non-scaling-stroke" d="
  M 197.75 462.79
  L 196.75 462.21"
/>
<path stroke="#916975" vector-effect="non-scaling-stroke" d="
  M 194.50 444.04
  C 191.11 446.76 194.88 451.25 188.90 451.93
  Q 188.45 451.98 188.23 451.59
  Q 186.70 448.78 183.54 447.75"
/>
<path stroke="#916975" vector-effect="non-scaling-stroke" d="
  M 190.25 438.79
  Q 185.87 441.39 182.25 444.96"
/>
<path stroke="#916975" vector-effect="non-scaling-stroke" d="
  M 157.96 453.00
  Q 153.45 452.03 148.87 452.63
  Q 148.54 452.67 148.33 452.92
  L 148.04 453.25"
/>
<path stroke="#858590" vector-effect="non-scaling-stroke" d="
  M 201.96 457.00
  L 200.00 458.46"
/>
<path stroke="#858590" vector-effect="non-scaling-stroke" d="
  M 202.21 456.00
  Q 199.91 457.00 198.50 459.04"
/>
<path stroke="#916975" vector-effect="non-scaling-stroke" d="
  M 158.46 457.75
  Q 156.26 459.03 155.07 461.31
  Q 154.81 461.80 154.30 462.02
  Q 152.29 462.88 150.24 461.98
  Q 149.86 461.81 149.84 461.39
  Q 149.69 458.15 147.96 455.25"
/>
<path stroke="#916975" vector-effect="non-scaling-stroke" d="
  M 176.22 359.45
  Q 175.48 356.78 175.40 353.87
  C 175.20 346.26 173.17 338.32 171.94 330.79
  C 171.66 329.02 171.07 327.47 170.50 325.79"
/>
<path stroke="#e3a687" vector-effect="non-scaling-stroke" d="
  M 177.21 292.00
  L 166.42 295.47
  Q 165.91 295.63 166.00 296.16
  L 170.71 323.25"
/>
<path stroke="#816b56" vector-effect="non-scaling-stroke" d="
  M 168.71 323.00
  Q 151.75 322.56 134.76 323.48"
/>
<path stroke="#e3a687" vector-effect="non-scaling-stroke" d="
  M 134.76 323.48
  L 132.79 323.07
  Q 132.20 322.95 132.33 322.37
  L 138.32 295.43
  Q 138.44 294.88 137.91 294.71
  L 131.51 292.67
  Q 130.97 292.50 130.78 293.04
  L 130.54 293.75"
/>
<path stroke="#916975" vector-effect="non-scaling-stroke" d="
  M 134.76 323.48
  C 133.81 335.02 131.40 346.63 133.68 357.89
  Q 133.77 358.34 133.42 358.66
  Q 133.09 358.97 133.00 359.46"
/>
<path stroke="#e3a687" vector-effect="non-scaling-stroke" d="
  M 160.00 260.96
  C 156.32 261.15 152.26 261.91 148.71 260.75"
/>
<path stroke="#916975" vector-effect="non-scaling-stroke" d="
  M 159.50 255.51
  Q 158.30 253.43 158.49 250.92
  C 158.67 248.48 158.49 243.13 154.58 243.88
  C 150.00 244.77 149.00 240.51 147.22 237.12
  A 1.90 1.90 0.0 0 0 144.11 236.75
  Q 142.88 238.14 140.54 239.00"
/>
<path stroke="#b4b4b5" stroke-opacity="0.796" vector-effect="non-scaling-stroke" d="
  M 201.54 313.75
  Q 201.63 311.02 199.04 311.25"
/>
</g>
<path fill="#dadbdc" d="
  M 232.50 472.54
  C 226.70 472.13 220.04 472.99 214.50 471.54
  Q 204.40 470.91 197.21 464.00
  L 197.75 462.79
  L 199.21 460.00
  L 200.25 458.96
  L 202.25 457.54
  L 202.98 457.49
  Q 203.48 457.46 203.87 457.76
  Q 211.19 463.35 221.75 463.45
  Q 286.12 464.06 350.50 463.54
  Q 358.21 463.48 362.33 462.08
  C 371.71 458.91 379.23 450.24 379.65 439.77
  C 379.84 434.89 380.10 429.90 380.08 425.10
  C 379.64 316.70 380.39 239.51 379.83 151.26
  C 379.71 131.52 380.01 111.73 379.79 91.97
  Q 379.72 85.65 378.39 81.72
  Q 372.66 64.81 353.48 64.04
  Q 329.49 63.06 291.99 65.17
  Q 287.04 65.45 271.23 64.58
  C 255.21 63.69 239.56 64.04 223.72 63.96
  C 205.70 63.88 194.53 74.17 194.51 93.00
  Q 194.42 191.45 194.73 262.32
  C 194.75 266.26 195.57 270.02 195.39 274.01
  C 194.42 296.34 194.88 318.66 194.71 341.00
  C 194.68 345.14 195.49 350.40 195.41 355.10
  Q 195.26 364.00 195.44 372.90
  C 195.57 378.84 194.71 385.24 194.73 391.25
  Q 194.86 419.81 194.21 443.50
  L 190.25 438.79
  L 192.73 436.91
  Q 193.14 436.59 192.95 436.11
  L 186.56 420.21
  Q 186.42 419.84 186.70 419.57
  L 187.00 419.29
  C 187.18 419.13 185.77 407.62 185.73 406.18
  C 185.25 391.07 184.31 375.17 185.96 360.13
  Q 186.17 358.25 186.04 356.37
  C 184.63 334.69 184.96 312.98 185.35 291.27
  C 185.53 281.44 185.48 269.39 185.48 258.51
  Q 185.51 176.45 185.50 94.39
  Q 185.50 86.00 186.55 81.82
  C 189.54 69.86 199.12 59.99 210.83 56.67
  Q 216.01 55.20 228.30 55.25
  C 270.02 55.45 311.78 55.34 353.50 55.23
  C 369.67 55.19 383.33 65.59 387.57 80.99
  Q 389.00 86.15 389.00 96.76
  Q 389.00 267.01 388.82 437.25
  Q 388.80 456.48 373.43 467.17
  C 366.53 471.96 360.20 472.99 351.10 472.99
  Q 302.05 472.99 253.00 473.02
  Q 237.94 473.03 232.50 472.54
  Z"
/>
<rect fill="#dadbdc" x="259.42" y="69.23" width="55.66" height="17.70" rx="8.56"/>
<rect fill="#dadbdc" x="230.29" y="183.25" width="118.16" height="10.00" rx="4.45"/>
<rect fill="#dadbdc" x="230.31" y="205.50" width="118.16" height="10.00" rx="4.52"/>
<path fill="#dadbdc" d="
  M 232.69 237.41
  C 228.45 234.31 229.81 227.77 235.69 227.76
  Q 272.47 227.74 309.25 227.75
  Q 313.14 227.75 314.61 228.57
  C 317.21 230.02 317.79 235.15 314.95 237.09
  C 313.13 238.34 306.65 237.76 304.27 237.76
  C 296.80 237.77 289.26 238.58 281.78 238.90
  C 276.78 239.12 271.54 237.84 266.69 237.81
  Q 250.21 237.69 233.79 237.77
  A 1.86 1.85 -26.7 0 1 232.69 237.41
  Z"
/>
<path fill="#2f2e43" d="
  M 159.50 255.51
  Q 158.30 253.43 158.49 250.92
  C 158.67 248.48 158.49 243.13 154.58 243.88
  C 150.00 244.77 149.00 240.51 147.22 237.12
  A 1.90 1.90 0.0 0 0 144.11 236.75
  Q 142.88 238.14 140.54 239.00
  C 139.69 235.47 140.14 230.09 144.90 229.57
  Q 152.40 228.74 159.78 230.39
  C 167.88 232.20 168.63 240.31 167.72 247.22
  Q 167.63 247.88 168.23 247.59
  C 170.65 246.44 172.98 246.51 174.09 249.23
  C 176.37 254.83 165.60 260.02 165.45 253.62
  Q 165.43 252.88 164.84 253.33
  Q 162.60 255.03 159.50 255.51
  Z"
/>
<path fill="#f3a3a6" d="
  M 159.50 255.51
  Q 158.99 258.16 160.00 260.96
  C 156.32 261.15 152.26 261.91 148.71 260.75
  L 148.45 257.41
  Q 148.41 256.89 147.91 256.78
  C 139.60 254.92 136.09 246.27 140.54 239.00
  Q 142.88 238.14 144.11 236.75
  A 1.90 1.90 0.0 0 1 147.22 237.12
  C 149.00 240.51 150.00 244.77 154.58 243.88
  C 158.49 243.13 158.67 248.48 158.49 250.92
  Q 158.30 253.43 159.50 255.51
  Z"
/>
<path fill="#d3a868" d="
  M 148.71 260.75
  C 152.26 261.91 156.32 261.15 160.00 260.96
  C 169.91 261.20 172.82 261.14 175.45 271.58
  Q 178.64 284.26 179.43 289.35
  Q 179.70 291.03 177.21 292.00
  L 166.42 295.47
  Q 165.91 295.63 166.00 296.16
  L 170.71 323.25
  Q 169.73 322.52 168.71 323.00
  Q 151.75 322.56 134.76 323.48
  L 132.79 323.07
  Q 132.20 322.95 132.33 322.37
  L 138.32 295.43
  Q 138.44 294.88 137.91 294.71
  L 131.51 292.67
  Q 130.97 292.50 130.78 293.04
  L 130.54 293.75
  L 130.45 292.55
  Q 130.42 292.15 130.06 291.97
  L 128.57 291.24
  Q 128.09 291.00 128.18 290.47
  Q 129.95 279.89 132.52 269.52
  C 135.03 259.43 140.97 262.36 148.71 260.75
  Z"
/>
<path fill="#d3a868" d="
  M 334.28 321.94
  A 47.04 47.04 0.0 0 1 287.24 368.98
  A 47.04 47.04 0.0 0 1 240.20 321.94
  A 47.04 47.04 0.0 0 1 287.24 274.90
  A 47.04 47.04 0.0 0 1 334.28 321.94
  Z
  M 282.76 331.21
  L 277.45 320.78
  Q 277.13 320.16 276.47 320.37
  L 275.08 320.80
  A 1.08 1.08 0.0 0 0 274.45 322.32
  L 282.10 337.38
  A 1.61 1.61 0.0 0 0 285.07 337.13
  Q 290.07 321.01 301.89 309.19
  C 303.06 308.02 303.11 306.41 301.27 306.03
  A 1.61 1.61 0.0 0 0 299.83 306.45
  Q 288.96 316.99 283.58 331.16
  Q 283.22 332.11 282.76 331.21
  Z"
/>
<path fill="#737373" fill-opacity="0.592" d="
  M 201.54 313.75
  Q 201.63 311.02 199.04 311.25
  Q 199.55 307.60 199.80 303.92
  C 200.23 297.76 201.34 291.52 200.74 284.99
  Q 200.61 283.48 200.87 282.52
  A 0.48 0.48 0.0 0 1 201.81 282.59
  Q 203.46 298.61 201.54 313.75
  Z"
/>
<path fill="#f3a3a6" d="
  M 177.21 292.00
  Q 180.13 320.20 182.28 348.48
  C 182.62 352.88 186.57 355.78 184.40 360.39
  C 182.32 364.85 178.14 362.91 176.22 359.45
  Q 175.48 356.78 175.40 353.87
  C 175.20 346.26 173.17 338.32 171.94 330.79
  C 171.66 329.02 171.07 327.47 170.50 325.79
  Q 171.50 324.59 170.71 323.25
  L 166.00 296.16
  Q 165.91 295.63 166.42 295.47
  L 177.21 292.00
  Z"
/>
<path fill="#f3a3a6" d="
  M 134.76 323.48
  C 133.81 335.02 131.40 346.63 133.68 357.89
  Q 133.77 358.34 133.42 358.66
  Q 133.09 358.97 133.00 359.46
  C 127.16 370.17 122.12 358.64 126.19 352.29
  Q 126.46 351.87 126.50 351.37
  L 130.54 293.75
  L 130.78 293.04
  Q 130.97 292.50 131.51 292.67
  L 137.91 294.71
  Q 138.44 294.88 138.32 295.43
  L 132.33 322.37
  Q 132.20 322.95 132.79 323.07
  L 134.76 323.48
  Z"
/>
<path fill="#dadbdc" d="
  M 199.04 311.25
  Q 201.63 311.02 201.54 313.75
  L 200.85 319.23
  Q 200.78 319.75 200.26 319.75
  L 199.58 319.75
  Q 198.94 319.75 198.87 319.11
  Q 198.44 315.15 199.04 311.25
  Z"
/>
<path fill="#2f2e43" d="
  M 168.71 323.00
  Q 169.13 324.70 170.50 325.79
  C 171.07 327.47 171.66 329.02 171.94 330.79
  C 173.17 338.32 175.20 346.26 175.40 353.87
  Q 175.48 356.78 176.22 359.45
  Q 174.78 372.01 173.43 384.54
  Q 173.19 386.75 173.99 388.82
  Q 180.35 405.22 185.59 417.34
  Q 185.99 418.26 187.00 419.29
  L 186.70 419.57
  Q 186.42 419.84 186.56 420.21
  L 192.95 436.11
  Q 193.14 436.59 192.73 436.91
  L 190.25 438.79
  Q 185.87 441.39 182.25 444.96
  L 180.05 445.86
  Q 179.50 446.09 179.25 445.55
  L 154.98 394.54
  Q 154.02 392.53 154.28 394.75
  L 160.74 450.77
  Q 160.92 452.28 159.40 452.30
  Q 158.88 452.31 157.96 453.00
  Q 153.45 452.03 148.87 452.63
  Q 148.54 452.67 148.33 452.92
  L 148.04 453.25
  Q 147.30 452.51 146.18 452.44
  Q 145.58 452.40 145.50 451.80
  L 133.85 360.02
  Q 133.79 359.56 133.34 359.46
  Q 133.18 359.42 133.00 359.46
  Q 133.09 358.97 133.42 358.66
  Q 133.77 358.34 133.68 357.89
  C 131.40 346.63 133.81 335.02 134.76 323.48
  Q 151.75 322.56 168.71 323.00
  Z"
/>
<path fill="#dadbdc" d="
  M 208.40 417.38
  C 211.25 425.12 203.33 428.23 203.00 421.91
  C 202.74 416.78 202.96 411.90 201.98 406.78
  C 200.52 399.11 199.58 391.48 200.62 383.74
  Q 200.89 381.73 201.18 383.73
  C 201.53 386.25 202.28 388.48 202.50 391.04
  Q 203.68 404.61 208.40 417.38
  Z"
/>
<path fill="#f3a3a6" d="
  M 190.25 438.79
  L 194.21 443.50
  L 194.50 444.04
  C 191.11 446.76 194.88 451.25 188.90 451.93
  Q 188.45 451.98 188.23 451.59
  Q 186.70 448.78 183.54 447.75
  L 182.25 444.96
  Q 185.87 441.39 190.25 438.79
  Z"
/>
<path fill="#2f2e43" d="
  M 194.50 444.04
  Q 198.59 448.61 202.33 453.46
  C 203.03 454.36 202.85 455.19 202.21 456.00
  Q 199.91 457.00 198.50 459.04
  Q 191.45 462.98 184.83 467.63
  C 181.24 470.16 178.06 471.08 173.98 470.31
  C 169.72 469.50 175.12 464.46 176.15 463.33
  C 179.63 459.52 181.85 452.60 183.54 447.75
  Q 186.70 448.78 188.23 451.59
  Q 188.45 451.98 188.90 451.93
  C 194.88 451.25 191.11 446.76 194.50 444.04
  Z"
/>
<path fill="#f3a3a6" d="
  M 157.96 453.00
  Q 158.70 455.31 158.46 457.75
  Q 156.26 459.03 155.07 461.31
  Q 154.81 461.80 154.30 462.02
  Q 152.29 462.88 150.24 461.98
  Q 149.86 461.81 149.84 461.39
  Q 149.69 458.15 147.96 455.25
  L 148.04 453.25
  L 148.33 452.92
  Q 148.54 452.67 148.87 452.63
  Q 153.45 452.03 157.96 453.00
  Z"
/>
<path fill="#2f2e43" d="
  M 147.96 455.25
  Q 149.69 458.15 149.84 461.39
  Q 149.86 461.81 150.24 461.98
  Q 152.29 462.88 154.30 462.02
  Q 154.81 461.80 155.07 461.31
  Q 156.26 459.03 158.46 457.75
  C 159.96 459.46 160.28 466.91 160.71 469.51
  Q 160.98 471.16 159.74 471.84
  A 0.38 0.38 0.0 0 0 159.92 472.55
  Q 185.11 472.40 209.75 472.17
  Q 212.49 472.14 214.50 471.54
  C 220.04 472.99 226.70 472.13 232.50 472.54
  L 231.19 473.63
  Q 230.84 473.93 230.38 473.93
  L 83.52 473.69
  A 0.52 0.52 0.0 0 1 83.00 473.21
  Q 82.98 473.03 83.03 472.88
  Q 83.17 472.50 83.57 472.50
  L 131.27 472.50
  A 0.38 0.37 54.5 0 0 131.39 471.77
  C 129.60 471.14 123.57 467.17 129.24 465.97
  C 136.38 464.46 141.11 460.99 147.96 455.25
  Z"
/>
<path fill="#dadbdc" d="
  M 202.21 456.00
  L 201.96 457.00
  L 200.00 458.46
  L 198.50 459.04
  Q 199.91 457.00 202.21 456.00
  Z"
/>
<path fill="#2f2e43" d="
  M 201.96 457.00
  L 202.25 457.54
  L 200.25 458.96
  L 200.00 458.46
  L 201.96 457.00
  Z"
/>
<path fill="#737373" fill-opacity="0.592" d="
  M 199.21 460.00
  L 197.75 462.79
  L 196.75 462.21
  L 199.21 460.00
  Z"
/>
<path fill="#2f2e43" d="
  M 196.75 462.21
  L 197.75 462.79
  L 197.21 464.00
  Q 196.15 463.32 196.75 462.21
  Z"
/>
</svg>
