<?xml version="1.0" encoding="UTF-8" standalone="no"?>
<!DOCTYPE svg PUBLIC "-//W3C//DTD SVG 1.1//EN" "http://www.w3.org/Graphics/SVG/1.1/DTD/svg11.dtd">
<svg xmlns="http://www.w3.org/2000/svg" version="1.1" viewBox="0.00 0.00 300.00 193.00">
<path fill="#262626" d="
  M 154.81 0.00
  L 158.56 0.00
  Q 191.04 2.94 204.80 29.62
  C 214.73 48.87 212.12 70.77 199.09 88.10
  Q 197.37 90.39 190.95 96.64
  Q 190.54 97.04 190.95 97.43
  Q 193.52 99.90 194.93 100.82
  C 200.02 104.14 193.92 111.02 189.66 106.08
  Q 174.05 87.99 157.56 70.65
  Q 156.87 69.93 156.19 70.65
  Q 139.11 88.64 122.78 107.28
  C 120.62 109.74 116.26 106.89 116.86 103.69
  C 117.26 101.57 120.85 99.18 122.52 97.76
  Q 122.95 97.39 122.56 96.98
  C 120.23 94.50 117.35 91.90 115.47 89.67
  C 85.96 54.69 109.34 2.40 154.81 0.00
  Z
  M 136.02 35.73
  C 140.71 39.90 144.79 44.49 149.34 48.67
  C 154.36 53.28 151.36 59.89 156.88 64.91
  Q 157.24 65.23 157.59 64.91
  C 162.19 60.71 162.27 56.95 163.13 51.15
  C 164.31 43.19 173.17 37.14 181.01 36.45
  C 196.89 35.04 185.21 62.41 172.99 62.30
  Q 165.10 62.23 159.89 67.77
  A 0.58 0.58 0.0 0 0 159.92 68.60
  L 178.53 85.94
  A 0.69 0.69 0.0 0 0 179.42 85.99
  C 200.70 70.39 201.72 39.57 180.51 23.47
  C 159.82 7.77 129.72 16.74 120.88 41.05
  C 114.76 57.88 120.49 75.27 134.80 86.05
  Q 135.21 86.36 135.58 86.01
  L 154.09 68.64
  A 0.88 0.88 0.0 0 0 154.06 67.32
  Q 149.99 63.87 145.08 63.38
  C 142.94 63.16 140.26 62.60 139.07 61.42
  Q 132.05 54.47 125.09 47.45
  Q 124.74 47.10 124.67 46.61
  Q 124.53 45.61 125.32 45.07
  A 1.67 1.67 0.0 0 1 127.41 45.28
  L 138.66 56.53
  Q 139.00 56.88 139.48 56.97
  Q 141.22 57.28 141.52 55.54
  A 1.08 1.04 28.3 0 0 141.22 54.60
  Q 135.62 49.01 130.02 43.37
  C 129.12 42.46 128.77 41.30 129.95 40.48
  A 1.64 1.64 0.0 0 1 132.04 40.66
  Q 137.54 46.15 143.03 51.66
  C 144.23 52.86 145.32 52.66 146.04 51.05
  Q 146.30 50.46 145.85 50.00
  L 134.13 38.23
  Q 133.76 37.86 133.74 37.33
  Q 133.69 35.86 135.05 35.50
  Q 135.60 35.35 136.02 35.73
  Z"
/>
<path fill="#262626" d="
  M 0.00 88.19
  L 0.00 12.44
  L 9.15 12.34
  Q 9.73 12.33 10.08 12.79
  L 39.23 50.67
  A 0.50 0.50 0.0 0 0 40.02 50.67
  L 69.31 12.65
  Q 69.61 12.25 70.12 12.25
  L 78.85 12.26
  Q 79.50 12.26 79.50 12.91
  L 79.50 87.84
  A 0.65 0.65 0.0 0 1 78.85 88.49
  L 69.37 88.50
  Q 68.74 88.50 68.74 87.87
  L 68.77 31.33
  A 0.21 0.21 0.0 0 0 68.39 31.21
  Q 55.07 48.64 41.66 65.93
  C 40.19 67.82 38.58 67.17 37.30 65.50
  Q 24.36 48.62 11.31 31.58
  A 0.31 0.31 0.0 0 0 10.75 31.77
  L 10.75 87.77
  Q 10.75 88.30 10.22 88.36
  Q 5.04 88.91 0.00 88.19
  Z"
/>
<path fill="#262626" d="
  M 288.14 69.13
  A 0.22 0.22 0.0 0 0 288.53 69.00
  L 288.49 12.82
  A 0.56 0.55 -0.5 0 1 289.05 12.26
  L 298.87 12.25
  Q 299.50 12.25 299.50 12.87
  L 299.50 88.18
  A 0.31 0.31 0.0 0 1 299.19 88.49
  L 290.23 88.50
  Q 289.70 88.50 289.38 88.08
  L 246.69 31.34
  A 0.23 0.23 0.0 0 0 246.27 31.48
  L 246.24 87.88
  Q 246.24 88.50 245.62 88.50
  L 236.03 88.50
  A 0.78 0.78 0.0 0 1 235.25 87.72
  L 235.25 13.16
  A 0.91 0.91 0.0 0 1 236.16 12.25
  L 244.75 12.25
  A 1.07 1.05 71.0 0 1 245.59 12.67
  L 288.14 69.13
  Z"
/>
<path fill="#262626" d="
  M 300.00 120.03
  L 300.00 163.81
  Q 297.94 190.63 271.19 193.00
  L 268.19 193.00
  C 248.47 191.65 240.24 178.99 239.98 160.44
  Q 239.69 140.26 239.74 119.98
  A 0.48 0.48 0.0 0 1 240.22 119.50
  L 249.01 119.50
  A 0.71 0.71 0.0 0 1 249.72 120.20
  Q 249.84 139.77 249.69 159.42
  Q 249.64 166.14 250.90 169.96
  C 256.96 188.36 283.59 188.13 288.99 169.68
  Q 289.96 166.36 289.98 158.20
  Q 290.03 139.25 289.99 120.19
  A 0.60 0.58 -3.3 0 1 290.52 119.61
  Q 295.28 119.09 300.00 120.03
  Z"
/>
<path fill="#262626" d="
  M 37.76 156.49
  A 0.30 0.30 0.0 0 0 38.23 156.49
  L 66.24 120.15
  Q 66.55 119.75 67.06 119.75
  L 75.00 119.75
  A 0.75 0.75 0.0 0 1 75.75 120.50
  L 75.75 191.09
  A 0.65 0.65 0.0 0 1 75.10 191.74
  L 67.26 191.75
  Q 65.77 191.76 65.77 190.26
  L 65.77 137.73
  A 0.26 0.25 -26.6 0 0 65.31 137.58
  Q 52.47 154.27 40.33 169.97
  C 39.13 171.52 37.55 171.94 36.25 170.26
  Q 23.50 153.86 10.77 137.33
  A 0.29 0.29 0.0 0 0 10.25 137.51
  L 10.25 191.09
  A 0.40 0.40 0.0 0 1 9.85 191.49
  L 0.88 191.50
  Q 0.25 191.50 0.25 190.88
  L 0.25 120.28
  A 0.53 0.53 0.0 0 1 0.78 119.75
  L 8.94 119.75
  Q 9.45 119.75 9.76 120.15
  L 37.76 156.49
  Z"
/>
<path fill="#262626" d="
  M 104.00 160.55
  L 104.00 181.92
  A 0.59 0.59 0.0 0 0 104.59 182.51
  L 146.16 182.49
  A 0.59 0.59 0.0 0 1 146.75 183.08
  L 146.75 191.16
  A 0.59 0.59 0.0 0 1 146.16 191.75
  L 94.59 191.75
  A 0.59 0.59 0.0 0 1 94.00 191.16
  L 94.00 120.34
  A 0.59 0.59 0.0 0 1 94.59 119.75
  L 145.41 119.75
  A 0.59 0.59 0.0 0 1 146.00 120.34
  L 146.00 128.41
  A 0.59 0.59 0.0 0 1 145.41 129.00
  L 104.59 129.00
  A 0.59 0.59 0.0 0 0 104.00 129.59
  L 104.00 150.17
  A 0.59 0.59 0.0 0 0 104.59 150.76
  L 143.65 150.74
  A 0.59 0.59 0.0 0 1 144.24 151.33
  L 144.25 159.43
  A 0.59 0.59 0.0 0 1 143.66 160.02
  L 104.59 159.96
  A 0.59 0.59 0.0 0 0 104.00 160.55
  Z"
/>
<path fill="#262626" d="
  M 171.75 137.72
  L 171.75 191.42
  A 0.32 0.32 0.0 0 1 171.43 191.74
  L 162.32 191.75
  A 0.32 0.32 0.0 0 1 162.00 191.43
  L 162.00 120.07
  A 0.32 0.32 0.0 0 1 162.32 119.75
  L 170.88 119.76
  A 0.32 0.32 0.0 0 1 171.14 119.89
  L 211.69 173.82
  A 0.32 0.32 0.0 0 0 212.27 173.63
  L 212.24 120.08
  A 0.32 0.32 0.0 0 1 212.56 119.76
  L 221.93 119.75
  A 0.32 0.32 0.0 0 1 222.25 120.07
  L 222.25 191.42
  A 0.32 0.32 0.0 0 1 221.93 191.74
  L 213.31 191.75
  A 0.32 0.32 0.0 0 1 213.05 191.62
  L 172.33 137.52
  A 0.32 0.32 0.0 0 0 171.75 137.72
  Z"
/>
</svg>
