<?xml version="1.0" encoding="UTF-8" standalone="no"?>
<!DOCTYPE svg PUBLIC "-//W3C//DTD SVG 1.1//EN" "http://www.w3.org/Graphics/SVG/1.1/DTD/svg11.dtd">
<svg xmlns="http://www.w3.org/2000/svg" version="1.1" viewBox="0.00 0.00 90.00 90.00">
<path fill="#000000" d="
  M 60.18 18.66
  Q 61.03 22.60 62.76 28.75
  C 64.92 36.40 50.98 40.03 51.02 28.47
  Q 51.04 23.49 50.97 18.51
  A 0.51 0.51 0.0 0 0 50.46 18.00
  L 39.54 18.00
  A 0.49 0.49 0.0 0 0 39.05 18.48
  Q 38.90 24.07 39.02 29.49
  C 39.23 38.46 25.12 37.86 27.50 28.20
  Q 28.67 23.45 29.80 18.70
  A 0.57 0.57 0.0 0 0 29.25 18.00
  L 21.55 18.00
  A 0.90 0.90 0.0 0 0 20.75 18.49
  C 18.57 22.88 16.34 26.90 14.81 31.55
  C 11.87 40.49 -0.11 33.70 3.77 28.77
  Q 7.88 23.53 11.87 18.18
  Q 12.18 17.77 12.10 17.26
  C 11.13 11.03 14.77 8.99 20.47 8.99
  Q 45.03 9.01 69.56 8.99
  C 75.24 8.99 78.83 11.05 77.90 17.23
  Q 77.82 17.73 78.12 18.13
  Q 82.03 23.41 85.96 28.60
  C 90.30 34.33 77.66 40.09 75.14 31.49
  C 73.79 26.87 71.37 22.74 69.22 18.45
  Q 69.00 18.00 68.49 18.00
  L 60.72 18.00
  A 0.55 0.55 0.0 0 0 60.18 18.66
  Z"
/>
<path fill="#000000" d="
  M 80.85 42.32
  A 0.18 0.17 6.2 0 1 80.99 42.49
  Q 81.03 57.82 80.98 73.24
  C 80.96 81.06 76.10 81.54 69.58 80.91
  Q 69.00 80.85 69.00 80.26
  L 69.00 51.50
  A 0.50 0.50 0.0 0 0 68.50 51.00
  L 51.50 51.00
  A 0.50 0.50 0.0 0 0 51.00 51.50
  L 51.00 80.46
  A 0.50 0.50 0.0 0 1 50.51 80.96
  Q 33.39 81.10 16.47 80.97
  C 11.73 80.94 9.04 79.09 9.02 74.25
  Q 8.97 58.53 9.01 42.79
  Q 9.01 42.35 9.43 42.23
  L 14.93 40.66
  Q 15.42 40.52 15.88 40.74
  Q 21.27 43.33 26.63 40.56
  A 0.94 0.92 -44.4 0 1 27.50 40.56
  Q 33.03 43.42 38.60 40.56
  A 0.98 0.96 44.4 0 1 39.49 40.56
  Q 45.02 43.40 50.60 40.56
  A 0.98 0.96 44.4 0 1 51.49 40.56
  Q 57.00 43.39 62.55 40.56
  A 0.98 0.98 0.0 0 1 63.43 40.56
  Q 68.83 43.30 74.24 40.74
  Q 74.65 40.54 75.09 40.67
  L 80.85 42.32
  Z
  M 38.9853 51.5843
  A 0.60 0.60 0.0 0 0 38.3843 50.9854
  L 21.5843 51.0147
  A 0.60 0.60 0.0 0 0 20.9854 51.6157
  L 21.0147 68.4157
  A 0.60 0.60 0.0 0 0 21.6157 69.0146
  L 38.4157 68.9853
  A 0.60 0.60 0.0 0 0 39.0146 68.3843
  L 38.9853 51.5843
  Z"
/>
</svg>
