<svg width="21" height="15" viewBox="0 0 21 15" fill="none" xmlns="http://www.w3.org/2000/svg">
<path d="M2.1 15C1.5225 15 1.02795 14.8162 0.616352 14.4487C0.204752 14.0812 -0.000698217 13.64 1.78268e-06 13.125V1.875C1.78268e-06 1.35938 0.205802 0.917814 0.617402 0.550314C1.029 0.182814 1.5232 -0.000623408 2.1 1.59168e-06H18.9C19.4775 1.59168e-06 19.972 0.183751 20.3836 0.551251C20.7952 0.918751 21.0007 1.36 21 1.875V13.125C21 13.6406 20.7942 14.0822 20.3826 14.4497C19.971 14.8172 19.4768 15.0006 18.9 15H2.1ZM10.5 8.4375L2.1 3.75V13.125H18.9V3.75L10.5 8.4375ZM10.5 6.5625L18.9 1.875H2.1L10.5 6.5625ZM2.1 3.75V1.875V13.125V3.75Z" fill="#262626"/>
</svg>
