<svg width="22" height="15" viewBox="0 0 22 15" fill="none" xmlns="http://www.w3.org/2000/svg">
<path d="M2.6 15C2.0225 15 1.52795 14.8162 1.11635 14.4487C0.704752 14.0812 0.499302 13.64 0.500002 13.125V1.875C0.500002 1.35938 0.705802 0.917814 1.1174 0.550314C1.529 0.182814 2.0232 -0.000623408 2.6 1.59168e-06H19.4C19.9775 1.59168e-06 20.472 0.183751 20.8836 0.551251C21.2952 0.918751 21.5007 1.36 21.5 1.875V13.125C21.5 13.6406 21.2942 14.0822 20.8826 14.4497C20.471 14.8172 19.9768 15.0006 19.4 15H2.6ZM11 8.4375L2.6 3.75V13.125H19.4V3.75L11 8.4375ZM11 6.5625L19.4 1.875H2.6L11 6.5625ZM2.6 3.75V1.875V13.125V3.75Z" fill="#EFEFEF"/>
</svg>
