<svg width="15" height="15" viewBox="0 0 15 15" fill="none" xmlns="http://www.w3.org/2000/svg">
<path d="M14.9913 11.331C14.8575 12.3472 14.3584 13.2801 13.5872 13.9553C12.8159 14.6305 11.8252 15.0018 10.8002 15C4.84509 15 6.7866e-06 10.1549 6.7866e-06 4.19989C-0.00183073 3.17485 0.369528 2.18419 1.04472 1.41293C1.71992 0.641681 2.65278 0.14258 3.66907 0.00884832C3.92606 -0.0225313 4.18632 0.0300449 4.41097 0.158729C4.63563 0.287412 4.81264 0.485301 4.91559 0.722855L6.49962 4.25914V4.26814C6.57843 4.44998 6.61099 4.64851 6.59436 4.846C6.57774 5.04349 6.51247 5.23379 6.40437 5.3999C6.39087 5.42015 6.37662 5.4389 6.36162 5.45765L4.80009 7.30867C5.36185 8.45018 6.55587 9.63369 7.71239 10.1969L9.53792 8.64368C9.55585 8.62861 9.57463 8.61459 9.59417 8.60168C9.76014 8.49098 9.9511 8.42341 10.1498 8.40508C10.3484 8.38674 10.5485 8.41823 10.7319 8.49668L10.7417 8.50118L14.275 10.0844C14.513 10.187 14.7114 10.3639 14.8405 10.5886C14.9696 10.8133 15.0225 11.0737 14.9913 11.331Z" fill="#262626"/>
</svg>
