<svg width="16" height="15" viewBox="0 0 16 15" fill="none" xmlns="http://www.w3.org/2000/svg">
<path d="M15.4913 11.331C15.3575 12.3472 14.8584 13.2801 14.0872 13.9553C13.3159 14.6305 12.3252 15.0018 11.3002 15C5.34509 15 0.500007 10.1549 0.500007 4.19989C0.498169 3.17485 0.869528 2.18419 1.54472 1.41293C2.21992 0.641681 3.15278 0.14258 4.16907 0.00884832C4.42606 -0.0225313 4.68632 0.0300449 4.91097 0.158729C5.13563 0.287412 5.31264 0.485301 5.41559 0.722855L6.99962 4.25914V4.26814C7.07843 4.44998 7.11099 4.64851 7.09436 4.846C7.07774 5.04349 7.01247 5.23379 6.90437 5.3999C6.89087 5.42015 6.87662 5.4389 6.86162 5.45765L5.30009 7.30867C5.86185 8.45018 7.05587 9.63369 8.21239 10.1969L10.0379 8.64368C10.0558 8.62861 10.0746 8.61459 10.0942 8.60168C10.2601 8.49098 10.4511 8.42341 10.6498 8.40508C10.8484 8.38674 11.0485 8.41823 11.2319 8.49668L11.2417 8.50118L14.775 10.0844C15.013 10.187 15.2114 10.3639 15.3405 10.5886C15.4696 10.8133 15.5225 11.0737 15.4913 11.331Z" fill="#EFEFEF"/>
</svg>
