<svg width="16" height="15" viewBox="0 0 16 15" fill="none" xmlns="http://www.w3.org/2000/svg">
<path d="M8 0C8.99456 0 9.94839 0.395088 10.6517 1.09835C11.3549 1.80161 11.75 2.75544 11.75 3.75C11.75 4.74456 11.3549 5.69839 10.6517 6.40165C9.94839 7.10491 8.99456 7.5 8 7.5C7.00544 7.5 6.05161 7.10491 5.34835 6.40165C4.64509 5.69839 4.25 4.74456 4.25 3.75C4.25 2.75544 4.64509 1.80161 5.34835 1.09835C6.05161 0.395088 7.00544 0 8 0ZM8 9.375C12.1438 9.375 15.5 11.0531 15.5 13.125V15H0.5V13.125C0.5 11.0531 3.85625 9.375 8 9.375Z" fill="#EFEFEF"/>
</svg>
